ISO-10303-21;
HEADER;
/* Generated by software containing ST-Developer
 * from STEP Tools, Inc. (www.steptools.com) 
 */

FILE_DESCRIPTION(
/* description */ (''),
/* implementation_level */ '2;1');

FILE_NAME(
/* name */ 'case_bottom.step',
/* time_stamp */ '2026-01-21T17:06:21-05:00',
/* author */ (''),
/* organization */ (''),
/* preprocessor_version */ 'ST-DEVELOPER v20.1',
/* originating_system */ 'Autodesk Translation Framework v14.21.0.0',
/* authorisation */ '');

FILE_SCHEMA (('AUTOMOTIVE_DESIGN { 1 0 10303 214 3 1 1 }'));
ENDSEC;

DATA;
#10=MECHANICAL_DESIGN_GEOMETRIC_PRESENTATION_REPRESENTATION('',(#13),#1185);
#11=SHAPE_REPRESENTATION_RELATIONSHIP('SRR','None',#1192,#12);
#12=ADVANCED_BREP_SHAPE_REPRESENTATION('',(#14),#1184);
#13=STYLED_ITEM('',(#1201),#14);
#14=MANIFOLD_SOLID_BREP('Body1593',#685);
#15=FACE_BOUND('',#116,.T.);
#16=FACE_BOUND('',#118,.T.);
#17=FACE_BOUND('',#120,.T.);
#18=FACE_BOUND('',#123,.T.);
#19=FACE_BOUND('',#130,.T.);
#20=FACE_BOUND('',#132,.T.);
#21=FACE_BOUND('',#133,.T.);
#22=FACE_BOUND('',#134,.T.);
#23=FACE_BOUND('',#135,.T.);
#24=FACE_BOUND('',#136,.T.);
#25=FACE_BOUND('',#137,.T.);
#26=FACE_BOUND('',#141,.T.);
#27=FACE_BOUND('',#145,.T.);
#28=FACE_BOUND('',#149,.T.);
#29=PLANE('',#702);
#30=PLANE('',#706);
#31=PLANE('',#710);
#32=PLANE('',#711);
#33=PLANE('',#713);
#34=PLANE('',#715);
#35=PLANE('',#720);
#36=PLANE('',#724);
#37=PLANE('',#728);
#38=PLANE('',#732);
#39=PLANE('',#736);
#40=PLANE('',#737);
#41=PLANE('',#738);
#42=PLANE('',#739);
#43=PLANE('',#740);
#44=PLANE('',#744);
#45=PLANE('',#748);
#46=PLANE('',#752);
#47=PLANE('',#756);
#48=PLANE('',#757);
#49=PLANE('',#765);
#50=PLANE('',#770);
#51=PLANE('',#775);
#52=PLANE('',#776);
#53=FACE_OUTER_BOUND('',#95,.T.);
#54=FACE_OUTER_BOUND('',#96,.T.);
#55=FACE_OUTER_BOUND('',#97,.T.);
#56=FACE_OUTER_BOUND('',#98,.T.);
#57=FACE_OUTER_BOUND('',#99,.T.);
#58=FACE_OUTER_BOUND('',#100,.T.);
#59=FACE_OUTER_BOUND('',#101,.T.);
#60=FACE_OUTER_BOUND('',#102,.T.);
#61=FACE_OUTER_BOUND('',#103,.T.);
#62=FACE_OUTER_BOUND('',#104,.T.);
#63=FACE_OUTER_BOUND('',#105,.T.);
#64=FACE_OUTER_BOUND('',#106,.T.);
#65=FACE_OUTER_BOUND('',#107,.T.);
#66=FACE_OUTER_BOUND('',#108,.T.);
#67=FACE_OUTER_BOUND('',#109,.T.);
#68=FACE_OUTER_BOUND('',#110,.T.);
#69=FACE_OUTER_BOUND('',#111,.T.);
#70=FACE_OUTER_BOUND('',#112,.T.);
#71=FACE_OUTER_BOUND('',#113,.T.);
#72=FACE_OUTER_BOUND('',#114,.T.);
#73=FACE_OUTER_BOUND('',#115,.T.);
#74=FACE_OUTER_BOUND('',#117,.T.);
#75=FACE_OUTER_BOUND('',#119,.T.);
#76=FACE_OUTER_BOUND('',#121,.T.);
#77=FACE_OUTER_BOUND('',#122,.T.);
#78=FACE_OUTER_BOUND('',#124,.T.);
#79=FACE_OUTER_BOUND('',#125,.T.);
#80=FACE_OUTER_BOUND('',#126,.T.);
#81=FACE_OUTER_BOUND('',#127,.T.);
#82=FACE_OUTER_BOUND('',#128,.T.);
#83=FACE_OUTER_BOUND('',#129,.T.);
#84=FACE_OUTER_BOUND('',#131,.T.);
#85=FACE_OUTER_BOUND('',#138,.T.);
#86=FACE_OUTER_BOUND('',#139,.T.);
#87=FACE_OUTER_BOUND('',#140,.T.);
#88=FACE_OUTER_BOUND('',#142,.T.);
#89=FACE_OUTER_BOUND('',#143,.T.);
#90=FACE_OUTER_BOUND('',#144,.T.);
#91=FACE_OUTER_BOUND('',#146,.T.);
#92=FACE_OUTER_BOUND('',#147,.T.);
#93=FACE_OUTER_BOUND('',#148,.T.);
#94=FACE_OUTER_BOUND('',#150,.T.);
#95=EDGE_LOOP('',(#445,#446,#447,#448));
#96=EDGE_LOOP('',(#449));
#97=EDGE_LOOP('',(#450,#451,#452,#453));
#98=EDGE_LOOP('',(#454));
#99=EDGE_LOOP('',(#455,#456,#457,#458));
#100=EDGE_LOOP('',(#459));
#101=EDGE_LOOP('',(#460));
#102=EDGE_LOOP('',(#461));
#103=EDGE_LOOP('',(#462));
#104=EDGE_LOOP('',(#463,#464,#465,#466));
#105=EDGE_LOOP('',(#467,#468,#469,#470));
#106=EDGE_LOOP('',(#471,#472,#473,#474));
#107=EDGE_LOOP('',(#475,#476,#477,#478));
#108=EDGE_LOOP('',(#479,#480,#481,#482));
#109=EDGE_LOOP('',(#483,#484,#485,#486));
#110=EDGE_LOOP('',(#487,#488,#489,#490));
#111=EDGE_LOOP('',(#491,#492,#493,#494));
#112=EDGE_LOOP('',(#495,#496,#497,#498));
#113=EDGE_LOOP('',(#499,#500,#501,#502));
#114=EDGE_LOOP('',(#503,#504,#505,#506));
#115=EDGE_LOOP('',(#507,#508,#509,#510));
#116=EDGE_LOOP('',(#511));
#117=EDGE_LOOP('',(#512,#513,#514,#515));
#118=EDGE_LOOP('',(#516,#517,#518,#519,#520,#521,#522,#523));
#119=EDGE_LOOP('',(#524,#525,#526,#527));
#120=EDGE_LOOP('',(#528,#529,#530,#531,#532,#533,#534,#535));
#121=EDGE_LOOP('',(#536,#537,#538,#539));
#122=EDGE_LOOP('',(#540,#541,#542,#543));
#123=EDGE_LOOP('',(#544));
#124=EDGE_LOOP('',(#545,#546,#547,#548));
#125=EDGE_LOOP('',(#549,#550,#551,#552));
#126=EDGE_LOOP('',(#553,#554,#555,#556));
#127=EDGE_LOOP('',(#557,#558,#559,#560));
#128=EDGE_LOOP('',(#561,#562,#563,#564));
#129=EDGE_LOOP('',(#565,#566,#567,#568,#569,#570,#571,#572));
#130=EDGE_LOOP('',(#573,#574,#575,#576));
#131=EDGE_LOOP('',(#577,#578,#579,#580));
#132=EDGE_LOOP('',(#581));
#133=EDGE_LOOP('',(#582));
#134=EDGE_LOOP('',(#583));
#135=EDGE_LOOP('',(#584));
#136=EDGE_LOOP('',(#585));
#137=EDGE_LOOP('',(#586));
#138=EDGE_LOOP('',(#587,#588,#589,#590));
#139=EDGE_LOOP('',(#591,#592,#593,#594));
#140=EDGE_LOOP('',(#595));
#141=EDGE_LOOP('',(#596));
#142=EDGE_LOOP('',(#597,#598,#599,#600));
#143=EDGE_LOOP('',(#601,#602,#603,#604));
#144=EDGE_LOOP('',(#605));
#145=EDGE_LOOP('',(#606));
#146=EDGE_LOOP('',(#607,#608,#609,#610));
#147=EDGE_LOOP('',(#611,#612,#613,#614));
#148=EDGE_LOOP('',(#615));
#149=EDGE_LOOP('',(#616));
#150=EDGE_LOOP('',(#617,#618,#619,#620,#621,#622,#623,#624));
#151=LINE('',#994,#205);
#152=LINE('',#1001,#206);
#153=LINE('',#1008,#207);
#154=LINE('',#1024,#208);
#155=LINE('',#1029,#209);
#156=LINE('',#1031,#210);
#157=LINE('',#1033,#211);
#158=LINE('',#1034,#212);
#159=LINE('',#1040,#213);
#160=LINE('',#1043,#214);
#161=LINE('',#1045,#215);
#162=LINE('',#1046,#216);
#163=LINE('',#1052,#217);
#164=LINE('',#1055,#218);
#165=LINE('',#1057,#219);
#166=LINE('',#1058,#220);
#167=LINE('',#1064,#221);
#168=LINE('',#1067,#222);
#169=LINE('',#1069,#223);
#170=LINE('',#1070,#224);
#171=LINE('',#1077,#225);
#172=LINE('',#1079,#226);
#173=LINE('',#1081,#227);
#174=LINE('',#1082,#228);
#175=LINE('',#1085,#229);
#176=LINE('',#1087,#230);
#177=LINE('',#1088,#231);
#178=LINE('',#1091,#232);
#179=LINE('',#1093,#233);
#180=LINE('',#1094,#234);
#181=LINE('',#1096,#235);
#182=LINE('',#1097,#236);
#183=LINE('',#1101,#237);
#184=LINE('',#1103,#238);
#185=LINE('',#1105,#239);
#186=LINE('',#1106,#240);
#187=LINE('',#1112,#241);
#188=LINE('',#1115,#242);
#189=LINE('',#1117,#243);
#190=LINE('',#1118,#244);
#191=LINE('',#1124,#245);
#192=LINE('',#1127,#246);
#193=LINE('',#1129,#247);
#194=LINE('',#1130,#248);
#195=LINE('',#1136,#249);
#196=LINE('',#1139,#250);
#197=LINE('',#1141,#251);
#198=LINE('',#1142,#252);
#199=LINE('',#1157,#253);
#200=LINE('',#1161,#254);
#201=LINE('',#1166,#255);
#202=LINE('',#1170,#256);
#203=LINE('',#1175,#257);
#204=LINE('',#1179,#258);
#205=VECTOR('',#783,1.65);
#206=VECTOR('',#792,1.65);
#207=VECTOR('',#801,1.65);
#208=VECTOR('',#822,2.7);
#209=VECTOR('',#827,10.);
#210=VECTOR('',#828,10.);
#211=VECTOR('',#829,10.);
#212=VECTOR('',#830,10.);
#213=VECTOR('',#837,10.);
#214=VECTOR('',#840,10.);
#215=VECTOR('',#841,10.);
#216=VECTOR('',#842,10.);
#217=VECTOR('',#849,10.);
#218=VECTOR('',#852,10.);
#219=VECTOR('',#853,10.);
#220=VECTOR('',#854,10.);
#221=VECTOR('',#861,10.);
#222=VECTOR('',#864,10.);
#223=VECTOR('',#865,10.);
#224=VECTOR('',#866,10.);
#225=VECTOR('',#875,10.);
#226=VECTOR('',#876,10.);
#227=VECTOR('',#877,10.);
#228=VECTOR('',#878,10.);
#229=VECTOR('',#881,10.);
#230=VECTOR('',#882,10.);
#231=VECTOR('',#883,10.);
#232=VECTOR('',#886,10.);
#233=VECTOR('',#887,10.);
#234=VECTOR('',#888,10.);
#235=VECTOR('',#891,10.);
#236=VECTOR('',#892,10.);
#237=VECTOR('',#895,10.);
#238=VECTOR('',#896,10.);
#239=VECTOR('',#897,10.);
#240=VECTOR('',#898,10.);
#241=VECTOR('',#905,10.);
#242=VECTOR('',#908,10.);
#243=VECTOR('',#909,10.);
#244=VECTOR('',#910,10.);
#245=VECTOR('',#917,10.);
#246=VECTOR('',#920,10.);
#247=VECTOR('',#921,10.);
#248=VECTOR('',#922,10.);
#249=VECTOR('',#929,10.);
#250=VECTOR('',#932,10.);
#251=VECTOR('',#933,10.);
#252=VECTOR('',#934,10.);
#253=VECTOR('',#955,2.3);
#254=VECTOR('',#960,3.25);
#255=VECTOR('',#967,2.3);
#256=VECTOR('',#972,3.25);
#257=VECTOR('',#979,2.3);
#258=VECTOR('',#984,3.25);
#259=CIRCLE('',#700,1.65);
#260=CIRCLE('',#701,1.65);
#261=CIRCLE('',#704,1.65);
#262=CIRCLE('',#705,1.65);
#263=CIRCLE('',#708,1.65);
#264=CIRCLE('',#709,1.65);
#265=CIRCLE('',#712,2.3);
#266=CIRCLE('',#714,2.3);
#267=CIRCLE('',#716,2.3);
#268=CIRCLE('',#718,2.7);
#269=CIRCLE('',#719,2.7);
#270=CIRCLE('',#722,1.5);
#271=CIRCLE('',#723,1.5);
#272=CIRCLE('',#726,1.5);
#273=CIRCLE('',#727,1.5);
#274=CIRCLE('',#730,1.50000000000001);
#275=CIRCLE('',#731,1.50000000000001);
#276=CIRCLE('',#734,1.5);
#277=CIRCLE('',#735,1.5);
#278=CIRCLE('',#742,3.);
#279=CIRCLE('',#743,3.);
#280=CIRCLE('',#746,3.);
#281=CIRCLE('',#747,3.);
#282=CIRCLE('',#750,3.);
#283=CIRCLE('',#751,3.);
#284=CIRCLE('',#754,3.00000000000002);
#285=CIRCLE('',#755,3.00000000000002);
#286=CIRCLE('',#758,3.25);
#287=CIRCLE('',#759,3.25);
#288=CIRCLE('',#760,3.25);
#289=CIRCLE('',#762,2.3);
#290=CIRCLE('',#764,3.25);
#291=CIRCLE('',#767,2.3);
#292=CIRCLE('',#769,3.25);
#293=CIRCLE('',#772,2.3);
#294=CIRCLE('',#774,3.25);
#295=VERTEX_POINT('',#991);
#296=VERTEX_POINT('',#993);
#297=VERTEX_POINT('',#998);
#298=VERTEX_POINT('',#1000);
#299=VERTEX_POINT('',#1005);
#300=VERTEX_POINT('',#1007);
#301=VERTEX_POINT('',#1012);
#302=VERTEX_POINT('',#1015);
#303=VERTEX_POINT('',#1018);
#304=VERTEX_POINT('',#1021);
#305=VERTEX_POINT('',#1023);
#306=VERTEX_POINT('',#1027);
#307=VERTEX_POINT('',#1028);
#308=VERTEX_POINT('',#1030);
#309=VERTEX_POINT('',#1032);
#310=VERTEX_POINT('',#1036);
#311=VERTEX_POINT('',#1038);
#312=VERTEX_POINT('',#1042);
#313=VERTEX_POINT('',#1044);
#314=VERTEX_POINT('',#1048);
#315=VERTEX_POINT('',#1050);
#316=VERTEX_POINT('',#1054);
#317=VERTEX_POINT('',#1056);
#318=VERTEX_POINT('',#1060);
#319=VERTEX_POINT('',#1062);
#320=VERTEX_POINT('',#1066);
#321=VERTEX_POINT('',#1068);
#322=VERTEX_POINT('',#1075);
#323=VERTEX_POINT('',#1076);
#324=VERTEX_POINT('',#1078);
#325=VERTEX_POINT('',#1080);
#326=VERTEX_POINT('',#1084);
#327=VERTEX_POINT('',#1086);
#328=VERTEX_POINT('',#1090);
#329=VERTEX_POINT('',#1092);
#330=VERTEX_POINT('',#1099);
#331=VERTEX_POINT('',#1100);
#332=VERTEX_POINT('',#1102);
#333=VERTEX_POINT('',#1104);
#334=VERTEX_POINT('',#1108);
#335=VERTEX_POINT('',#1110);
#336=VERTEX_POINT('',#1114);
#337=VERTEX_POINT('',#1116);
#338=VERTEX_POINT('',#1120);
#339=VERTEX_POINT('',#1122);
#340=VERTEX_POINT('',#1126);
#341=VERTEX_POINT('',#1128);
#342=VERTEX_POINT('',#1132);
#343=VERTEX_POINT('',#1134);
#344=VERTEX_POINT('',#1138);
#345=VERTEX_POINT('',#1140);
#346=VERTEX_POINT('',#1148);
#347=VERTEX_POINT('',#1150);
#348=VERTEX_POINT('',#1152);
#349=VERTEX_POINT('',#1155);
#350=VERTEX_POINT('',#1159);
#351=VERTEX_POINT('',#1164);
#352=VERTEX_POINT('',#1168);
#353=VERTEX_POINT('',#1173);
#354=VERTEX_POINT('',#1177);
#355=EDGE_CURVE('',#295,#295,#259,.T.);
#356=EDGE_CURVE('',#295,#296,#151,.T.);
#357=EDGE_CURVE('',#296,#296,#260,.T.);
#358=EDGE_CURVE('',#297,#297,#261,.T.);
#359=EDGE_CURVE('',#297,#298,#152,.T.);
#360=EDGE_CURVE('',#298,#298,#262,.T.);
#361=EDGE_CURVE('',#299,#299,#263,.T.);
#362=EDGE_CURVE('',#299,#300,#153,.T.);
#363=EDGE_CURVE('',#300,#300,#264,.T.);
#364=EDGE_CURVE('',#301,#301,#265,.T.);
#365=EDGE_CURVE('',#302,#302,#266,.T.);
#366=EDGE_CURVE('',#303,#303,#267,.T.);
#367=EDGE_CURVE('',#304,#304,#268,.T.);
#368=EDGE_CURVE('',#304,#305,#154,.T.);
#369=EDGE_CURVE('',#305,#305,#269,.T.);
#370=EDGE_CURVE('',#306,#307,#155,.T.);
#371=EDGE_CURVE('',#308,#306,#156,.T.);
#372=EDGE_CURVE('',#309,#308,#157,.T.);
#373=EDGE_CURVE('',#309,#307,#158,.T.);
#374=EDGE_CURVE('',#307,#310,#270,.T.);
#375=EDGE_CURVE('',#311,#309,#271,.T.);
#376=EDGE_CURVE('',#311,#310,#159,.T.);
#377=EDGE_CURVE('',#310,#312,#160,.T.);
#378=EDGE_CURVE('',#313,#311,#161,.T.);
#379=EDGE_CURVE('',#313,#312,#162,.T.);
#380=EDGE_CURVE('',#312,#314,#272,.T.);
#381=EDGE_CURVE('',#315,#313,#273,.T.);
#382=EDGE_CURVE('',#315,#314,#163,.T.);
#383=EDGE_CURVE('',#314,#316,#164,.T.);
#384=EDGE_CURVE('',#317,#315,#165,.T.);
#385=EDGE_CURVE('',#317,#316,#166,.T.);
#386=EDGE_CURVE('',#316,#318,#274,.T.);
#387=EDGE_CURVE('',#319,#317,#275,.T.);
#388=EDGE_CURVE('',#319,#318,#167,.T.);
#389=EDGE_CURVE('',#318,#320,#168,.T.);
#390=EDGE_CURVE('',#321,#319,#169,.T.);
#391=EDGE_CURVE('',#321,#320,#170,.T.);
#392=EDGE_CURVE('',#320,#306,#276,.T.);
#393=EDGE_CURVE('',#308,#321,#277,.T.);
#394=EDGE_CURVE('',#322,#323,#171,.T.);
#395=EDGE_CURVE('',#322,#324,#172,.T.);
#396=EDGE_CURVE('',#325,#324,#173,.T.);
#397=EDGE_CURVE('',#323,#325,#174,.T.);
#398=EDGE_CURVE('',#326,#322,#175,.T.);
#399=EDGE_CURVE('',#326,#327,#176,.T.);
#400=EDGE_CURVE('',#324,#327,#177,.T.);
#401=EDGE_CURVE('',#323,#328,#178,.T.);
#402=EDGE_CURVE('',#329,#325,#179,.T.);
#403=EDGE_CURVE('',#328,#329,#180,.T.);
#404=EDGE_CURVE('',#328,#326,#181,.T.);
#405=EDGE_CURVE('',#327,#329,#182,.T.);
#406=EDGE_CURVE('',#330,#331,#183,.T.);
#407=EDGE_CURVE('',#331,#332,#184,.T.);
#408=EDGE_CURVE('',#333,#332,#185,.T.);
#409=EDGE_CURVE('',#330,#333,#186,.T.);
#410=EDGE_CURVE('',#334,#330,#278,.T.);
#411=EDGE_CURVE('',#335,#333,#279,.T.);
#412=EDGE_CURVE('',#334,#335,#187,.T.);
#413=EDGE_CURVE('',#336,#334,#188,.T.);
#414=EDGE_CURVE('',#337,#335,#189,.T.);
#415=EDGE_CURVE('',#336,#337,#190,.T.);
#416=EDGE_CURVE('',#338,#336,#280,.T.);
#417=EDGE_CURVE('',#339,#337,#281,.T.);
#418=EDGE_CURVE('',#338,#339,#191,.T.);
#419=EDGE_CURVE('',#340,#338,#192,.T.);
#420=EDGE_CURVE('',#341,#339,#193,.T.);
#421=EDGE_CURVE('',#340,#341,#194,.T.);
#422=EDGE_CURVE('',#342,#340,#282,.T.);
#423=EDGE_CURVE('',#343,#341,#283,.T.);
#424=EDGE_CURVE('',#342,#343,#195,.T.);
#425=EDGE_CURVE('',#344,#342,#196,.T.);
#426=EDGE_CURVE('',#345,#343,#197,.T.);
#427=EDGE_CURVE('',#344,#345,#198,.T.);
#428=EDGE_CURVE('',#331,#344,#284,.T.);
#429=EDGE_CURVE('',#332,#345,#285,.T.);
#430=EDGE_CURVE('',#346,#346,#286,.T.);
#431=EDGE_CURVE('',#347,#347,#287,.T.);
#432=EDGE_CURVE('',#348,#348,#288,.T.);
#433=EDGE_CURVE('',#349,#349,#289,.T.);
#434=EDGE_CURVE('',#349,#302,#199,.T.);
#435=EDGE_CURVE('',#350,#350,#290,.T.);
#436=EDGE_CURVE('',#350,#347,#200,.T.);
#437=EDGE_CURVE('',#351,#351,#291,.T.);
#438=EDGE_CURVE('',#351,#301,#201,.T.);
#439=EDGE_CURVE('',#352,#352,#292,.T.);
#440=EDGE_CURVE('',#352,#346,#202,.T.);
#441=EDGE_CURVE('',#353,#353,#293,.T.);
#442=EDGE_CURVE('',#353,#303,#203,.T.);
#443=EDGE_CURVE('',#354,#354,#294,.T.);
#444=EDGE_CURVE('',#354,#348,#204,.T.);
#445=ORIENTED_EDGE('',*,*,#355,.F.);
#446=ORIENTED_EDGE('',*,*,#356,.T.);
#447=ORIENTED_EDGE('',*,*,#357,.F.);
#448=ORIENTED_EDGE('',*,*,#356,.F.);
#449=ORIENTED_EDGE('',*,*,#355,.T.);
#450=ORIENTED_EDGE('',*,*,#358,.F.);
#451=ORIENTED_EDGE('',*,*,#359,.T.);
#452=ORIENTED_EDGE('',*,*,#360,.F.);
#453=ORIENTED_EDGE('',*,*,#359,.F.);
#454=ORIENTED_EDGE('',*,*,#358,.T.);
#455=ORIENTED_EDGE('',*,*,#361,.F.);
#456=ORIENTED_EDGE('',*,*,#362,.T.);
#457=ORIENTED_EDGE('',*,*,#363,.F.);
#458=ORIENTED_EDGE('',*,*,#362,.F.);
#459=ORIENTED_EDGE('',*,*,#361,.T.);
#460=ORIENTED_EDGE('',*,*,#364,.F.);
#461=ORIENTED_EDGE('',*,*,#365,.F.);
#462=ORIENTED_EDGE('',*,*,#366,.F.);
#463=ORIENTED_EDGE('',*,*,#367,.F.);
#464=ORIENTED_EDGE('',*,*,#368,.T.);
#465=ORIENTED_EDGE('',*,*,#369,.F.);
#466=ORIENTED_EDGE('',*,*,#368,.F.);
#467=ORIENTED_EDGE('',*,*,#370,.F.);
#468=ORIENTED_EDGE('',*,*,#371,.F.);
#469=ORIENTED_EDGE('',*,*,#372,.F.);
#470=ORIENTED_EDGE('',*,*,#373,.T.);
#471=ORIENTED_EDGE('',*,*,#374,.F.);
#472=ORIENTED_EDGE('',*,*,#373,.F.);
#473=ORIENTED_EDGE('',*,*,#375,.F.);
#474=ORIENTED_EDGE('',*,*,#376,.T.);
#475=ORIENTED_EDGE('',*,*,#377,.F.);
#476=ORIENTED_EDGE('',*,*,#376,.F.);
#477=ORIENTED_EDGE('',*,*,#378,.F.);
#478=ORIENTED_EDGE('',*,*,#379,.T.);
#479=ORIENTED_EDGE('',*,*,#380,.F.);
#480=ORIENTED_EDGE('',*,*,#379,.F.);
#481=ORIENTED_EDGE('',*,*,#381,.F.);
#482=ORIENTED_EDGE('',*,*,#382,.T.);
#483=ORIENTED_EDGE('',*,*,#383,.F.);
#484=ORIENTED_EDGE('',*,*,#382,.F.);
#485=ORIENTED_EDGE('',*,*,#384,.F.);
#486=ORIENTED_EDGE('',*,*,#385,.T.);
#487=ORIENTED_EDGE('',*,*,#386,.F.);
#488=ORIENTED_EDGE('',*,*,#385,.F.);
#489=ORIENTED_EDGE('',*,*,#387,.F.);
#490=ORIENTED_EDGE('',*,*,#388,.T.);
#491=ORIENTED_EDGE('',*,*,#389,.F.);
#492=ORIENTED_EDGE('',*,*,#388,.F.);
#493=ORIENTED_EDGE('',*,*,#390,.F.);
#494=ORIENTED_EDGE('',*,*,#391,.T.);
#495=ORIENTED_EDGE('',*,*,#392,.F.);
#496=ORIENTED_EDGE('',*,*,#391,.F.);
#497=ORIENTED_EDGE('',*,*,#393,.F.);
#498=ORIENTED_EDGE('',*,*,#371,.T.);
#499=ORIENTED_EDGE('',*,*,#394,.F.);
#500=ORIENTED_EDGE('',*,*,#395,.T.);
#501=ORIENTED_EDGE('',*,*,#396,.F.);
#502=ORIENTED_EDGE('',*,*,#397,.F.);
#503=ORIENTED_EDGE('',*,*,#398,.F.);
#504=ORIENTED_EDGE('',*,*,#399,.T.);
#505=ORIENTED_EDGE('',*,*,#400,.F.);
#506=ORIENTED_EDGE('',*,*,#395,.F.);
#507=ORIENTED_EDGE('',*,*,#401,.F.);
#508=ORIENTED_EDGE('',*,*,#397,.T.);
#509=ORIENTED_EDGE('',*,*,#402,.F.);
#510=ORIENTED_EDGE('',*,*,#403,.F.);
#511=ORIENTED_EDGE('',*,*,#369,.T.);
#512=ORIENTED_EDGE('',*,*,#404,.F.);
#513=ORIENTED_EDGE('',*,*,#403,.T.);
#514=ORIENTED_EDGE('',*,*,#405,.F.);
#515=ORIENTED_EDGE('',*,*,#399,.F.);
#516=ORIENTED_EDGE('',*,*,#383,.T.);
#517=ORIENTED_EDGE('',*,*,#386,.T.);
#518=ORIENTED_EDGE('',*,*,#389,.T.);
#519=ORIENTED_EDGE('',*,*,#392,.T.);
#520=ORIENTED_EDGE('',*,*,#370,.T.);
#521=ORIENTED_EDGE('',*,*,#374,.T.);
#522=ORIENTED_EDGE('',*,*,#377,.T.);
#523=ORIENTED_EDGE('',*,*,#380,.T.);
#524=ORIENTED_EDGE('',*,*,#406,.T.);
#525=ORIENTED_EDGE('',*,*,#407,.T.);
#526=ORIENTED_EDGE('',*,*,#408,.F.);
#527=ORIENTED_EDGE('',*,*,#409,.F.);
#528=ORIENTED_EDGE('',*,*,#384,.T.);
#529=ORIENTED_EDGE('',*,*,#381,.T.);
#530=ORIENTED_EDGE('',*,*,#378,.T.);
#531=ORIENTED_EDGE('',*,*,#375,.T.);
#532=ORIENTED_EDGE('',*,*,#372,.T.);
#533=ORIENTED_EDGE('',*,*,#393,.T.);
#534=ORIENTED_EDGE('',*,*,#390,.T.);
#535=ORIENTED_EDGE('',*,*,#387,.T.);
#536=ORIENTED_EDGE('',*,*,#410,.T.);
#537=ORIENTED_EDGE('',*,*,#409,.T.);
#538=ORIENTED_EDGE('',*,*,#411,.F.);
#539=ORIENTED_EDGE('',*,*,#412,.F.);
#540=ORIENTED_EDGE('',*,*,#413,.T.);
#541=ORIENTED_EDGE('',*,*,#412,.T.);
#542=ORIENTED_EDGE('',*,*,#414,.F.);
#543=ORIENTED_EDGE('',*,*,#415,.F.);
#544=ORIENTED_EDGE('',*,*,#367,.T.);
#545=ORIENTED_EDGE('',*,*,#416,.T.);
#546=ORIENTED_EDGE('',*,*,#415,.T.);
#547=ORIENTED_EDGE('',*,*,#417,.F.);
#548=ORIENTED_EDGE('',*,*,#418,.F.);
#549=ORIENTED_EDGE('',*,*,#419,.T.);
#550=ORIENTED_EDGE('',*,*,#418,.T.);
#551=ORIENTED_EDGE('',*,*,#420,.F.);
#552=ORIENTED_EDGE('',*,*,#421,.F.);
#553=ORIENTED_EDGE('',*,*,#422,.T.);
#554=ORIENTED_EDGE('',*,*,#421,.T.);
#555=ORIENTED_EDGE('',*,*,#423,.F.);
#556=ORIENTED_EDGE('',*,*,#424,.F.);
#557=ORIENTED_EDGE('',*,*,#425,.T.);
#558=ORIENTED_EDGE('',*,*,#424,.T.);
#559=ORIENTED_EDGE('',*,*,#426,.F.);
#560=ORIENTED_EDGE('',*,*,#427,.F.);
#561=ORIENTED_EDGE('',*,*,#428,.T.);
#562=ORIENTED_EDGE('',*,*,#427,.T.);
#563=ORIENTED_EDGE('',*,*,#429,.F.);
#564=ORIENTED_EDGE('',*,*,#407,.F.);
#565=ORIENTED_EDGE('',*,*,#429,.T.);
#566=ORIENTED_EDGE('',*,*,#426,.T.);
#567=ORIENTED_EDGE('',*,*,#423,.T.);
#568=ORIENTED_EDGE('',*,*,#420,.T.);
#569=ORIENTED_EDGE('',*,*,#417,.T.);
#570=ORIENTED_EDGE('',*,*,#414,.T.);
#571=ORIENTED_EDGE('',*,*,#411,.T.);
#572=ORIENTED_EDGE('',*,*,#408,.T.);
#573=ORIENTED_EDGE('',*,*,#400,.T.);
#574=ORIENTED_EDGE('',*,*,#405,.T.);
#575=ORIENTED_EDGE('',*,*,#402,.T.);
#576=ORIENTED_EDGE('',*,*,#396,.T.);
#577=ORIENTED_EDGE('',*,*,#398,.T.);
#578=ORIENTED_EDGE('',*,*,#394,.T.);
#579=ORIENTED_EDGE('',*,*,#401,.T.);
#580=ORIENTED_EDGE('',*,*,#404,.T.);
#581=ORIENTED_EDGE('',*,*,#357,.T.);
#582=ORIENTED_EDGE('',*,*,#360,.T.);
#583=ORIENTED_EDGE('',*,*,#363,.T.);
#584=ORIENTED_EDGE('',*,*,#430,.F.);
#585=ORIENTED_EDGE('',*,*,#431,.F.);
#586=ORIENTED_EDGE('',*,*,#432,.F.);
#587=ORIENTED_EDGE('',*,*,#433,.F.);
#588=ORIENTED_EDGE('',*,*,#434,.T.);
#589=ORIENTED_EDGE('',*,*,#365,.T.);
#590=ORIENTED_EDGE('',*,*,#434,.F.);
#591=ORIENTED_EDGE('',*,*,#435,.F.);
#592=ORIENTED_EDGE('',*,*,#436,.T.);
#593=ORIENTED_EDGE('',*,*,#431,.T.);
#594=ORIENTED_EDGE('',*,*,#436,.F.);
#595=ORIENTED_EDGE('',*,*,#435,.T.);
#596=ORIENTED_EDGE('',*,*,#433,.T.);
#597=ORIENTED_EDGE('',*,*,#437,.F.);
#598=ORIENTED_EDGE('',*,*,#438,.T.);
#599=ORIENTED_EDGE('',*,*,#364,.T.);
#600=ORIENTED_EDGE('',*,*,#438,.F.);
#601=ORIENTED_EDGE('',*,*,#439,.F.);
#602=ORIENTED_EDGE('',*,*,#440,.T.);
#603=ORIENTED_EDGE('',*,*,#430,.T.);
#604=ORIENTED_EDGE('',*,*,#440,.F.);
#605=ORIENTED_EDGE('',*,*,#439,.T.);
#606=ORIENTED_EDGE('',*,*,#437,.T.);
#607=ORIENTED_EDGE('',*,*,#441,.F.);
#608=ORIENTED_EDGE('',*,*,#442,.T.);
#609=ORIENTED_EDGE('',*,*,#366,.T.);
#610=ORIENTED_EDGE('',*,*,#442,.F.);
#611=ORIENTED_EDGE('',*,*,#443,.F.);
#612=ORIENTED_EDGE('',*,*,#444,.T.);
#613=ORIENTED_EDGE('',*,*,#432,.T.);
#614=ORIENTED_EDGE('',*,*,#444,.F.);
#615=ORIENTED_EDGE('',*,*,#443,.T.);
#616=ORIENTED_EDGE('',*,*,#441,.T.);
#617=ORIENTED_EDGE('',*,*,#428,.F.);
#618=ORIENTED_EDGE('',*,*,#406,.F.);
#619=ORIENTED_EDGE('',*,*,#410,.F.);
#620=ORIENTED_EDGE('',*,*,#413,.F.);
#621=ORIENTED_EDGE('',*,*,#416,.F.);
#622=ORIENTED_EDGE('',*,*,#419,.F.);
#623=ORIENTED_EDGE('',*,*,#422,.F.);
#624=ORIENTED_EDGE('',*,*,#425,.F.);
#625=CYLINDRICAL_SURFACE('',#699,1.65);
#626=CYLINDRICAL_SURFACE('',#703,1.65);
#627=CYLINDRICAL_SURFACE('',#707,1.65);
#628=CYLINDRICAL_SURFACE('',#717,2.7);
#629=CYLINDRICAL_SURFACE('',#721,1.5);
#630=CYLINDRICAL_SURFACE('',#725,1.5);
#631=CYLINDRICAL_SURFACE('',#729,1.50000000000001);
#632=CYLINDRICAL_SURFACE('',#733,1.5);
#633=CYLINDRICAL_SURFACE('',#741,3.);
#634=CYLINDRICAL_SURFACE('',#745,3.);
#635=CYLINDRICAL_SURFACE('',#749,3.);
#636=CYLINDRICAL_SURFACE('',#753,3.00000000000002);
#637=CYLINDRICAL_SURFACE('',#761,2.3);
#638=CYLINDRICAL_SURFACE('',#763,3.25);
#639=CYLINDRICAL_SURFACE('',#766,2.3);
#640=CYLINDRICAL_SURFACE('',#768,3.25);
#641=CYLINDRICAL_SURFACE('',#771,2.3);
#642=CYLINDRICAL_SURFACE('',#773,3.25);
#643=ADVANCED_FACE('',(#53),#625,.T.);
#644=ADVANCED_FACE('',(#54),#29,.T.);
#645=ADVANCED_FACE('',(#55),#626,.T.);
#646=ADVANCED_FACE('',(#56),#30,.T.);
#647=ADVANCED_FACE('',(#57),#627,.T.);
#648=ADVANCED_FACE('',(#58),#31,.T.);
#649=ADVANCED_FACE('',(#59),#32,.T.);
#650=ADVANCED_FACE('',(#60),#33,.T.);
#651=ADVANCED_FACE('',(#61),#34,.T.);
#652=ADVANCED_FACE('',(#62),#628,.F.);
#653=ADVANCED_FACE('',(#63),#35,.F.);
#654=ADVANCED_FACE('',(#64),#629,.F.);
#655=ADVANCED_FACE('',(#65),#36,.F.);
#656=ADVANCED_FACE('',(#66),#630,.F.);
#657=ADVANCED_FACE('',(#67),#37,.F.);
#658=ADVANCED_FACE('',(#68),#631,.F.);
#659=ADVANCED_FACE('',(#69),#38,.F.);
#660=ADVANCED_FACE('',(#70),#632,.F.);
#661=ADVANCED_FACE('',(#71),#39,.T.);
#662=ADVANCED_FACE('',(#72),#40,.T.);
#663=ADVANCED_FACE('',(#73,#15),#41,.T.);
#664=ADVANCED_FACE('',(#74,#16),#42,.T.);
#665=ADVANCED_FACE('',(#75,#17),#43,.T.);
#666=ADVANCED_FACE('',(#76),#633,.T.);
#667=ADVANCED_FACE('',(#77,#18),#44,.T.);
#668=ADVANCED_FACE('',(#78),#634,.T.);
#669=ADVANCED_FACE('',(#79),#45,.T.);
#670=ADVANCED_FACE('',(#80),#635,.T.);
#671=ADVANCED_FACE('',(#81),#46,.T.);
#672=ADVANCED_FACE('',(#82),#636,.T.);
#673=ADVANCED_FACE('',(#83,#19),#47,.T.);
#674=ADVANCED_FACE('',(#84,#20,#21,#22,#23,#24,#25),#48,.T.);
#675=ADVANCED_FACE('',(#85),#637,.F.);
#676=ADVANCED_FACE('',(#86),#638,.T.);
#677=ADVANCED_FACE('',(#87,#26),#49,.T.);
#678=ADVANCED_FACE('',(#88),#639,.F.);
#679=ADVANCED_FACE('',(#89),#640,.T.);
#680=ADVANCED_FACE('',(#90,#27),#50,.T.);
#681=ADVANCED_FACE('',(#91),#641,.F.);
#682=ADVANCED_FACE('',(#92),#642,.T.);
#683=ADVANCED_FACE('',(#93,#28),#51,.T.);
#684=ADVANCED_FACE('',(#94),#52,.F.);
#685=CLOSED_SHELL('',(#643,#644,#645,#646,#647,#648,#649,#650,#651,#652,
#653,#654,#655,#656,#657,#658,#659,#660,#661,#662,#663,#664,#665,#666,#667,
#668,#669,#670,#671,#672,#673,#674,#675,#676,#677,#678,#679,#680,#681,#682,
#683,#684));
#686=DERIVED_UNIT_ELEMENT(#688,1.);
#687=DERIVED_UNIT_ELEMENT(#1187,-3.);
#688=(
MASS_UNIT()
NAMED_UNIT(*)
SI_UNIT(.KILO.,.GRAM.)
);
#689=DERIVED_UNIT((#686,#687));
#690=MEASURE_REPRESENTATION_ITEM('density measure',
POSITIVE_RATIO_MEASURE(7850.),#689);
#691=PROPERTY_DEFINITION_REPRESENTATION(#696,#693);
#692=PROPERTY_DEFINITION_REPRESENTATION(#697,#694);
#693=REPRESENTATION('material name',(#695),#1184);
#694=REPRESENTATION('density',(#690),#1184);
#695=DESCRIPTIVE_REPRESENTATION_ITEM('Steel','Steel');
#696=PROPERTY_DEFINITION('material property','material name',#1194);
#697=PROPERTY_DEFINITION('material property','density of part',#1194);
#698=AXIS2_PLACEMENT_3D('',#989,#777,#778);
#699=AXIS2_PLACEMENT_3D('',#990,#779,#780);
#700=AXIS2_PLACEMENT_3D('',#992,#781,#782);
#701=AXIS2_PLACEMENT_3D('',#995,#784,#785);
#702=AXIS2_PLACEMENT_3D('',#996,#786,#787);
#703=AXIS2_PLACEMENT_3D('',#997,#788,#789);
#704=AXIS2_PLACEMENT_3D('',#999,#790,#791);
#705=AXIS2_PLACEMENT_3D('',#1002,#793,#794);
#706=AXIS2_PLACEMENT_3D('',#1003,#795,#796);
#707=AXIS2_PLACEMENT_3D('',#1004,#797,#798);
#708=AXIS2_PLACEMENT_3D('',#1006,#799,#800);
#709=AXIS2_PLACEMENT_3D('',#1009,#802,#803);
#710=AXIS2_PLACEMENT_3D('',#1010,#804,#805);
#711=AXIS2_PLACEMENT_3D('',#1011,#806,#807);
#712=AXIS2_PLACEMENT_3D('',#1013,#808,#809);
#713=AXIS2_PLACEMENT_3D('',#1014,#810,#811);
#714=AXIS2_PLACEMENT_3D('',#1016,#812,#813);
#715=AXIS2_PLACEMENT_3D('',#1017,#814,#815);
#716=AXIS2_PLACEMENT_3D('',#1019,#816,#817);
#717=AXIS2_PLACEMENT_3D('',#1020,#818,#819);
#718=AXIS2_PLACEMENT_3D('',#1022,#820,#821);
#719=AXIS2_PLACEMENT_3D('',#1025,#823,#824);
#720=AXIS2_PLACEMENT_3D('',#1026,#825,#826);
#721=AXIS2_PLACEMENT_3D('',#1035,#831,#832);
#722=AXIS2_PLACEMENT_3D('',#1037,#833,#834);
#723=AXIS2_PLACEMENT_3D('',#1039,#835,#836);
#724=AXIS2_PLACEMENT_3D('',#1041,#838,#839);
#725=AXIS2_PLACEMENT_3D('',#1047,#843,#844);
#726=AXIS2_PLACEMENT_3D('',#1049,#845,#846);
#727=AXIS2_PLACEMENT_3D('',#1051,#847,#848);
#728=AXIS2_PLACEMENT_3D('',#1053,#850,#851);
#729=AXIS2_PLACEMENT_3D('',#1059,#855,#856);
#730=AXIS2_PLACEMENT_3D('',#1061,#857,#858);
#731=AXIS2_PLACEMENT_3D('',#1063,#859,#860);
#732=AXIS2_PLACEMENT_3D('',#1065,#862,#863);
#733=AXIS2_PLACEMENT_3D('',#1071,#867,#868);
#734=AXIS2_PLACEMENT_3D('',#1072,#869,#870);
#735=AXIS2_PLACEMENT_3D('',#1073,#871,#872);
#736=AXIS2_PLACEMENT_3D('',#1074,#873,#874);
#737=AXIS2_PLACEMENT_3D('',#1083,#879,#880);
#738=AXIS2_PLACEMENT_3D('',#1089,#884,#885);
#739=AXIS2_PLACEMENT_3D('',#1095,#889,#890);
#740=AXIS2_PLACEMENT_3D('',#1098,#893,#894);
#741=AXIS2_PLACEMENT_3D('',#1107,#899,#900);
#742=AXIS2_PLACEMENT_3D('',#1109,#901,#902);
#743=AXIS2_PLACEMENT_3D('',#1111,#903,#904);
#744=AXIS2_PLACEMENT_3D('',#1113,#906,#907);
#745=AXIS2_PLACEMENT_3D('',#1119,#911,#912);
#746=AXIS2_PLACEMENT_3D('',#1121,#913,#914);
#747=AXIS2_PLACEMENT_3D('',#1123,#915,#916);
#748=AXIS2_PLACEMENT_3D('',#1125,#918,#919);
#749=AXIS2_PLACEMENT_3D('',#1131,#923,#924);
#750=AXIS2_PLACEMENT_3D('',#1133,#925,#926);
#751=AXIS2_PLACEMENT_3D('',#1135,#927,#928);
#752=AXIS2_PLACEMENT_3D('',#1137,#930,#931);
#753=AXIS2_PLACEMENT_3D('',#1143,#935,#936);
#754=AXIS2_PLACEMENT_3D('',#1144,#937,#938);
#755=AXIS2_PLACEMENT_3D('',#1145,#939,#940);
#756=AXIS2_PLACEMENT_3D('',#1146,#941,#942);
#757=AXIS2_PLACEMENT_3D('',#1147,#943,#944);
#758=AXIS2_PLACEMENT_3D('',#1149,#945,#946);
#759=AXIS2_PLACEMENT_3D('',#1151,#947,#948);
#760=AXIS2_PLACEMENT_3D('',#1153,#949,#950);
#761=AXIS2_PLACEMENT_3D('',#1154,#951,#952);
#762=AXIS2_PLACEMENT_3D('',#1156,#953,#954);
#763=AXIS2_PLACEMENT_3D('',#1158,#956,#957);
#764=AXIS2_PLACEMENT_3D('',#1160,#958,#959);
#765=AXIS2_PLACEMENT_3D('',#1162,#961,#962);
#766=AXIS2_PLACEMENT_3D('',#1163,#963,#964);
#767=AXIS2_PLACEMENT_3D('',#1165,#965,#966);
#768=AXIS2_PLACEMENT_3D('',#1167,#968,#969);
#769=AXIS2_PLACEMENT_3D('',#1169,#970,#971);
#770=AXIS2_PLACEMENT_3D('',#1171,#973,#974);
#771=AXIS2_PLACEMENT_3D('',#1172,#975,#976);
#772=AXIS2_PLACEMENT_3D('',#1174,#977,#978);
#773=AXIS2_PLACEMENT_3D('',#1176,#980,#981);
#774=AXIS2_PLACEMENT_3D('',#1178,#982,#983);
#775=AXIS2_PLACEMENT_3D('',#1180,#985,#986);
#776=AXIS2_PLACEMENT_3D('',#1181,#987,#988);
#777=DIRECTION('axis',(0.,0.,1.));
#778=DIRECTION('refdir',(1.,0.,0.));
#779=DIRECTION('center_axis',(0.,0.,1.));
#780=DIRECTION('ref_axis',(1.,0.,0.));
#781=DIRECTION('center_axis',(0.,0.,1.));
#782=DIRECTION('ref_axis',(1.,0.,0.));
#783=DIRECTION('',(0.,0.,-1.));
#784=DIRECTION('center_axis',(0.,0.,-1.));
#785=DIRECTION('ref_axis',(1.,0.,0.));
#786=DIRECTION('center_axis',(0.,0.,1.));
#787=DIRECTION('ref_axis',(1.,0.,0.));
#788=DIRECTION('center_axis',(0.,0.,1.));
#789=DIRECTION('ref_axis',(1.,0.,0.));
#790=DIRECTION('center_axis',(0.,0.,1.));
#791=DIRECTION('ref_axis',(1.,0.,0.));
#792=DIRECTION('',(0.,0.,-1.));
#793=DIRECTION('center_axis',(0.,0.,-1.));
#794=DIRECTION('ref_axis',(1.,0.,0.));
#795=DIRECTION('center_axis',(0.,0.,1.));
#796=DIRECTION('ref_axis',(1.,0.,0.));
#797=DIRECTION('center_axis',(0.,0.,1.));
#798=DIRECTION('ref_axis',(1.,0.,0.));
#799=DIRECTION('center_axis',(0.,0.,1.));
#800=DIRECTION('ref_axis',(1.,0.,0.));
#801=DIRECTION('',(0.,0.,-1.));
#802=DIRECTION('center_axis',(0.,0.,-1.));
#803=DIRECTION('ref_axis',(1.,0.,0.));
#804=DIRECTION('center_axis',(0.,0.,1.));
#805=DIRECTION('ref_axis',(1.,0.,0.));
#806=DIRECTION('center_axis',(0.,0.,1.));
#807=DIRECTION('ref_axis',(1.,0.,0.));
#808=DIRECTION('center_axis',(0.,0.,-1.));
#809=DIRECTION('ref_axis',(1.,0.,0.));
#810=DIRECTION('center_axis',(0.,0.,1.));
#811=DIRECTION('ref_axis',(1.,0.,0.));
#812=DIRECTION('center_axis',(0.,0.,-1.));
#813=DIRECTION('ref_axis',(1.,0.,0.));
#814=DIRECTION('center_axis',(0.,0.,1.));
#815=DIRECTION('ref_axis',(1.,0.,0.));
#816=DIRECTION('center_axis',(0.,0.,-1.));
#817=DIRECTION('ref_axis',(1.,0.,0.));
#818=DIRECTION('center_axis',(-1.,0.,0.));
#819=DIRECTION('ref_axis',(0.,1.,0.));
#820=DIRECTION('center_axis',(-1.,-1.55824070456471E-16,0.));
#821=DIRECTION('ref_axis',(0.,1.,0.));
#822=DIRECTION('',(-1.,0.,0.));
#823=DIRECTION('center_axis',(1.,0.,0.));
#824=DIRECTION('ref_axis',(0.,1.,0.));
#825=DIRECTION('center_axis',(1.,0.,0.));
#826=DIRECTION('ref_axis',(0.,0.,1.));
#827=DIRECTION('',(0.,0.,-1.));
#828=DIRECTION('',(0.,-1.,0.));
#829=DIRECTION('',(0.,0.,1.));
#830=DIRECTION('',(0.,-1.,0.));
#831=DIRECTION('center_axis',(0.,-1.,0.));
#832=DIRECTION('ref_axis',(1.,0.,0.));
#833=DIRECTION('center_axis',(0.,1.,0.));
#834=DIRECTION('ref_axis',(1.,0.,0.));
#835=DIRECTION('center_axis',(0.,-1.,0.));
#836=DIRECTION('ref_axis',(1.,0.,0.));
#837=DIRECTION('',(0.,-1.,0.));
#838=DIRECTION('center_axis',(0.,0.,-1.));
#839=DIRECTION('ref_axis',(1.,0.,0.));
#840=DIRECTION('',(-1.,0.,0.));
#841=DIRECTION('',(1.,0.,0.));
#842=DIRECTION('',(0.,-1.,0.));
#843=DIRECTION('center_axis',(0.,-1.,0.));
#844=DIRECTION('ref_axis',(0.,0.,-1.));
#845=DIRECTION('center_axis',(0.,1.,0.));
#846=DIRECTION('ref_axis',(0.,0.,-1.));
#847=DIRECTION('center_axis',(0.,-1.,0.));
#848=DIRECTION('ref_axis',(0.,0.,-1.));
#849=DIRECTION('',(0.,-1.,0.));
#850=DIRECTION('center_axis',(-1.,0.,0.));
#851=DIRECTION('ref_axis',(0.,0.,-1.));
#852=DIRECTION('',(0.,0.,1.));
#853=DIRECTION('',(0.,0.,-1.));
#854=DIRECTION('',(0.,-1.,0.));
#855=DIRECTION('center_axis',(0.,-1.,0.));
#856=DIRECTION('ref_axis',(-1.,0.,7.40148683083432E-15));
#857=DIRECTION('center_axis',(0.,1.,0.));
#858=DIRECTION('ref_axis',(-1.,0.,7.40148683083432E-15));
#859=DIRECTION('center_axis',(0.,-1.,0.));
#860=DIRECTION('ref_axis',(-1.,0.,7.40148683083432E-15));
#861=DIRECTION('',(0.,-1.,0.));
#862=DIRECTION('center_axis',(3.41170687575557E-16,0.,1.));
#863=DIRECTION('ref_axis',(-1.,0.,3.41170687575557E-16));
#864=DIRECTION('',(1.,0.,-3.41170687575557E-16));
#865=DIRECTION('',(-1.,0.,3.41170687575557E-16));
#866=DIRECTION('',(0.,-1.,0.));
#867=DIRECTION('center_axis',(0.,-1.,0.));
#868=DIRECTION('ref_axis',(0.,0.,1.));
#869=DIRECTION('center_axis',(0.,1.,0.));
#870=DIRECTION('ref_axis',(0.,0.,1.));
#871=DIRECTION('center_axis',(0.,-1.,0.));
#872=DIRECTION('ref_axis',(0.,0.,1.));
#873=DIRECTION('center_axis',(0.,1.,0.));
#874=DIRECTION('ref_axis',(-1.,0.,0.));
#875=DIRECTION('',(1.,0.,0.));
#876=DIRECTION('',(0.,0.,1.));
#877=DIRECTION('',(-1.,0.,0.));
#878=DIRECTION('',(0.,0.,1.));
#879=DIRECTION('center_axis',(1.,0.,0.));
#880=DIRECTION('ref_axis',(0.,1.,0.));
#881=DIRECTION('',(0.,-1.,0.));
#882=DIRECTION('',(0.,0.,1.));
#883=DIRECTION('',(0.,1.,0.));
#884=DIRECTION('center_axis',(-1.,0.,0.));
#885=DIRECTION('ref_axis',(0.,-1.,0.));
#886=DIRECTION('',(0.,1.,0.));
#887=DIRECTION('',(0.,-1.,0.));
#888=DIRECTION('',(0.,0.,1.));
#889=DIRECTION('center_axis',(0.,-1.,0.));
#890=DIRECTION('ref_axis',(1.,0.,0.));
#891=DIRECTION('',(-1.,0.,0.));
#892=DIRECTION('',(1.,0.,0.));
#893=DIRECTION('center_axis',(0.,1.,0.));
#894=DIRECTION('ref_axis',(-1.,0.,0.));
#895=DIRECTION('',(-1.,0.,0.));
#896=DIRECTION('',(0.,0.,1.));
#897=DIRECTION('',(-1.,0.,0.));
#898=DIRECTION('',(0.,0.,1.));
#899=DIRECTION('center_axis',(0.,0.,1.));
#900=DIRECTION('ref_axis',(1.,0.,0.));
#901=DIRECTION('center_axis',(0.,0.,1.));
#902=DIRECTION('ref_axis',(1.,0.,0.));
#903=DIRECTION('center_axis',(0.,0.,1.));
#904=DIRECTION('ref_axis',(1.,0.,0.));
#905=DIRECTION('',(0.,0.,1.));
#906=DIRECTION('center_axis',(1.,1.55824070456471E-16,0.));
#907=DIRECTION('ref_axis',(-1.55824070456471E-16,1.,0.));
#908=DIRECTION('',(-1.55824070456471E-16,1.,0.));
#909=DIRECTION('',(-1.55824070456471E-16,1.,0.));
#910=DIRECTION('',(0.,0.,1.));
#911=DIRECTION('center_axis',(0.,0.,1.));
#912=DIRECTION('ref_axis',(0.,-1.,0.));
#913=DIRECTION('center_axis',(0.,0.,1.));
#914=DIRECTION('ref_axis',(0.,-1.,0.));
#915=DIRECTION('center_axis',(0.,0.,1.));
#916=DIRECTION('ref_axis',(0.,-1.,0.));
#917=DIRECTION('',(0.,0.,1.));
#918=DIRECTION('center_axis',(0.,-1.,0.));
#919=DIRECTION('ref_axis',(1.,0.,0.));
#920=DIRECTION('',(1.,0.,0.));
#921=DIRECTION('',(1.,0.,0.));
#922=DIRECTION('',(0.,0.,1.));
#923=DIRECTION('center_axis',(0.,0.,1.));
#924=DIRECTION('ref_axis',(-1.,0.,0.));
#925=DIRECTION('center_axis',(0.,0.,1.));
#926=DIRECTION('ref_axis',(-1.,0.,0.));
#927=DIRECTION('center_axis',(0.,0.,1.));
#928=DIRECTION('ref_axis',(-1.,0.,0.));
#929=DIRECTION('',(0.,0.,1.));
#930=DIRECTION('center_axis',(-1.,0.,0.));
#931=DIRECTION('ref_axis',(0.,-1.,0.));
#932=DIRECTION('',(0.,-1.,0.));
#933=DIRECTION('',(0.,-1.,0.));
#934=DIRECTION('',(0.,0.,1.));
#935=DIRECTION('center_axis',(0.,0.,1.));
#936=DIRECTION('ref_axis',(-8.58109879449854E-15,1.,0.));
#937=DIRECTION('center_axis',(0.,0.,1.));
#938=DIRECTION('ref_axis',(-8.58109879449854E-15,1.,0.));
#939=DIRECTION('center_axis',(0.,0.,1.));
#940=DIRECTION('ref_axis',(-8.58109879449854E-15,1.,0.));
#941=DIRECTION('center_axis',(0.,0.,1.));
#942=DIRECTION('ref_axis',(1.,0.,0.));
#943=DIRECTION('center_axis',(0.,0.,1.));
#944=DIRECTION('ref_axis',(1.,0.,0.));
#945=DIRECTION('center_axis',(0.,0.,1.));
#946=DIRECTION('ref_axis',(1.,0.,0.));
#947=DIRECTION('center_axis',(0.,0.,1.));
#948=DIRECTION('ref_axis',(1.,0.,0.));
#949=DIRECTION('center_axis',(0.,0.,1.));
#950=DIRECTION('ref_axis',(1.,0.,0.));
#951=DIRECTION('center_axis',(0.,0.,1.));
#952=DIRECTION('ref_axis',(1.,0.,0.));
#953=DIRECTION('center_axis',(0.,0.,-1.));
#954=DIRECTION('ref_axis',(1.,0.,0.));
#955=DIRECTION('',(0.,0.,-1.));
#956=DIRECTION('center_axis',(0.,0.,1.));
#957=DIRECTION('ref_axis',(1.,0.,0.));
#958=DIRECTION('center_axis',(0.,0.,1.));
#959=DIRECTION('ref_axis',(1.,0.,0.));
#960=DIRECTION('',(0.,0.,-1.));
#961=DIRECTION('center_axis',(0.,0.,1.));
#962=DIRECTION('ref_axis',(1.,0.,0.));
#963=DIRECTION('center_axis',(0.,0.,1.));
#964=DIRECTION('ref_axis',(1.,0.,0.));
#965=DIRECTION('center_axis',(0.,0.,-1.));
#966=DIRECTION('ref_axis',(1.,0.,0.));
#967=DIRECTION('',(0.,0.,-1.));
#968=DIRECTION('center_axis',(0.,0.,1.));
#969=DIRECTION('ref_axis',(1.,0.,0.));
#970=DIRECTION('center_axis',(0.,0.,1.));
#971=DIRECTION('ref_axis',(1.,0.,0.));
#972=DIRECTION('',(0.,0.,-1.));
#973=DIRECTION('center_axis',(0.,0.,1.));
#974=DIRECTION('ref_axis',(1.,0.,0.));
#975=DIRECTION('center_axis',(0.,0.,1.));
#976=DIRECTION('ref_axis',(1.,0.,0.));
#977=DIRECTION('center_axis',(0.,0.,-1.));
#978=DIRECTION('ref_axis',(1.,0.,0.));
#979=DIRECTION('',(0.,0.,-1.));
#980=DIRECTION('center_axis',(0.,0.,1.));
#981=DIRECTION('ref_axis',(1.,0.,0.));
#982=DIRECTION('center_axis',(0.,0.,1.));
#983=DIRECTION('ref_axis',(1.,0.,0.));
#984=DIRECTION('',(0.,0.,-1.));
#985=DIRECTION('center_axis',(0.,0.,1.));
#986=DIRECTION('ref_axis',(1.,0.,0.));
#987=DIRECTION('center_axis',(0.,0.,1.));
#988=DIRECTION('ref_axis',(1.,0.,0.));
#989=CARTESIAN_POINT('',(0.,0.,0.));
#990=CARTESIAN_POINT('Origin',(50.8061693674767,47.5569471670063,0.));
#991=CARTESIAN_POINT('',(49.1561693674767,47.5569471670063,4.));
#992=CARTESIAN_POINT('Origin',(50.8061693674767,47.5569471670063,4.));
#993=CARTESIAN_POINT('',(49.1561693674767,47.5569471670063,2.));
#994=CARTESIAN_POINT('',(49.1561693674767,47.5569471670063,0.));
#995=CARTESIAN_POINT('Origin',(50.8061693674767,47.5569471670063,2.));
#996=CARTESIAN_POINT('Origin',(50.8061693674767,47.5569471670063,4.));
#997=CARTESIAN_POINT('Origin',(17.8999995999038,47.5999989360571,0.));
#998=CARTESIAN_POINT('',(16.2499995999038,47.5999989360571,4.));
#999=CARTESIAN_POINT('Origin',(17.8999995999038,47.5999989360571,4.));
#1000=CARTESIAN_POINT('',(16.2499995999038,47.5999989360571,2.));
#1001=CARTESIAN_POINT('',(16.2499995999038,47.5999989360571,0.));
#1002=CARTESIAN_POINT('Origin',(17.8999995999038,47.5999989360571,2.));
#1003=CARTESIAN_POINT('Origin',(17.8999995999038,47.5999989360571,4.));
#1004=CARTESIAN_POINT('Origin',(17.7850052502816,109.894834259164,0.));
#1005=CARTESIAN_POINT('',(16.1350052502816,109.894834259164,4.));
#1006=CARTESIAN_POINT('Origin',(17.7850052502816,109.894834259164,4.));
#1007=CARTESIAN_POINT('',(16.1350052502816,109.894834259164,2.));
#1008=CARTESIAN_POINT('',(16.1350052502816,109.894834259164,0.));
#1009=CARTESIAN_POINT('Origin',(17.7850052502816,109.894834259164,2.));
#1010=CARTESIAN_POINT('Origin',(17.7850052502816,109.894834259164,4.));
#1011=CARTESIAN_POINT('Origin',(52.4967744913384,3.0000067,1.));
#1012=CARTESIAN_POINT('',(50.1967744913384,3.0000067,1.));
#1013=CARTESIAN_POINT('Origin',(52.4967744913384,3.0000067,1.));
#1014=CARTESIAN_POINT('Origin',(3.00000004470348,95.0000014156103,1.));
#1015=CARTESIAN_POINT('',(0.700000044703488,95.0000014156103,1.));
#1016=CARTESIAN_POINT('Origin',(3.00000004470348,95.0000014156103,1.));
#1017=CARTESIAN_POINT('Origin',(2.99999908,3.0000067,1.));
#1018=CARTESIAN_POINT('',(0.69999908,3.0000067,1.));
#1019=CARTESIAN_POINT('Origin',(2.99999908,3.0000067,1.));
#1020=CARTESIAN_POINT('Origin',(58.000000834465,83.8850882448711,6.25));
#1021=CARTESIAN_POINT('',(58.000000834465,81.1850882448711,6.25));
#1022=CARTESIAN_POINT('Origin',(58.000000834465,83.8850882448711,6.25));
#1023=CARTESIAN_POINT('',(56.000000834465,81.1850882448711,6.25));
#1024=CARTESIAN_POINT('',(58.000000834465,81.1850882448711,6.25));
#1025=CARTESIAN_POINT('Origin',(56.000000834465,83.8850882448711,6.25));
#1026=CARTESIAN_POINT('Origin',(52.6458245804202,117.000001743436,4.93185204861359));
#1027=CARTESIAN_POINT('',(52.6458245804202,115.000001743436,6.225));
#1028=CARTESIAN_POINT('',(52.6458245804202,115.000001743436,4.93185204861359));
#1029=CARTESIAN_POINT('',(52.6458245804202,115.000001743436,2.4659260243068));
#1030=CARTESIAN_POINT('',(52.6458245804202,117.000001743436,6.225));
#1031=CARTESIAN_POINT('',(52.6458245804202,117.000001743436,6.225));
#1032=CARTESIAN_POINT('',(52.6458245804202,117.000001743436,4.93185204861359));
#1033=CARTESIAN_POINT('',(52.6458245804202,117.000001743436,2.4659260243068));
#1034=CARTESIAN_POINT('',(52.6458245804202,117.000001743436,4.93185204861359));
#1035=CARTESIAN_POINT('Origin',(51.1458245804202,117.000001743436,4.93185204861359));
#1036=CARTESIAN_POINT('',(51.1458245804202,115.000001743436,3.43185204861359));
#1037=CARTESIAN_POINT('Origin',(51.1458245804202,115.000001743436,4.93185204861359));
#1038=CARTESIAN_POINT('',(51.1458245804202,117.000001743436,3.43185204861359));
#1039=CARTESIAN_POINT('Origin',(51.1458245804202,117.000001743436,4.93185204861359));
#1040=CARTESIAN_POINT('',(51.1458245804202,117.000001743436,3.43185204861359));
#1041=CARTESIAN_POINT('Origin',(44.6375103256718,117.000001743436,3.43185204861359));
#1042=CARTESIAN_POINT('',(44.6375103256718,115.000001743436,3.43185204861359));
#1043=CARTESIAN_POINT('',(22.0992174911524,115.000001743436,3.43185204861359));
#1044=CARTESIAN_POINT('',(44.6375103256718,117.000001743436,3.43185204861359));
#1045=CARTESIAN_POINT('',(49.8187555800684,117.000001743436,3.43185204861359));
#1046=CARTESIAN_POINT('',(44.6375103256718,117.000001743436,3.43185204861359));
#1047=CARTESIAN_POINT('Origin',(44.6375103256718,117.000001743436,4.93185204861359));
#1048=CARTESIAN_POINT('',(43.1375103256718,115.000001743436,4.93185204861359));
#1049=CARTESIAN_POINT('Origin',(44.6375103256718,115.000001743436,4.93185204861359));
#1050=CARTESIAN_POINT('',(43.1375103256718,117.000001743436,4.93185204861359));
#1051=CARTESIAN_POINT('Origin',(44.6375103256718,117.000001743436,4.93185204861359));
#1052=CARTESIAN_POINT('',(43.1375103256718,117.000001743436,4.93185204861359));
#1053=CARTESIAN_POINT('Origin',(43.1375103256718,117.000001743436,6.225));
#1054=CARTESIAN_POINT('',(43.1375103256718,115.000001743436,6.225));
#1055=CARTESIAN_POINT('',(43.1375103256718,115.000001743436,3.1125));
#1056=CARTESIAN_POINT('',(43.1375103256718,117.000001743436,6.225));
#1057=CARTESIAN_POINT('',(43.1375103256718,117.000001743436,3.1125));
#1058=CARTESIAN_POINT('',(43.1375103256718,117.000001743436,6.225));
#1059=CARTESIAN_POINT('Origin',(44.6375103256718,117.000001743436,6.22499999999999));
#1060=CARTESIAN_POINT('',(44.6375103256718,115.000001743436,7.725));
#1061=CARTESIAN_POINT('Origin',(44.6375103256718,115.000001743436,6.22499999999999));
#1062=CARTESIAN_POINT('',(44.6375103256718,117.000001743436,7.725));
#1063=CARTESIAN_POINT('Origin',(44.6375103256718,117.000001743436,6.22499999999999));
#1064=CARTESIAN_POINT('',(44.6375103256718,117.000001743436,7.725));
#1065=CARTESIAN_POINT('Origin',(51.1458245804202,117.000001743436,7.725));
#1066=CARTESIAN_POINT('',(51.1458245804202,115.000001743436,7.725));
#1067=CARTESIAN_POINT('',(25.3533746185266,115.000001743436,7.72500000000001));
#1068=CARTESIAN_POINT('',(51.1458245804202,117.000001743436,7.725));
#1069=CARTESIAN_POINT('',(53.0729127074426,117.000001743436,7.725));
#1070=CARTESIAN_POINT('',(51.1458245804202,117.000001743436,7.725));
#1071=CARTESIAN_POINT('Origin',(51.1458245804202,117.000001743436,6.225));
#1072=CARTESIAN_POINT('Origin',(51.1458245804202,115.000001743436,6.225));
#1073=CARTESIAN_POINT('Origin',(51.1458245804202,117.000001743436,6.225));
#1074=CARTESIAN_POINT('Origin',(56.000000834465,-0.997587601816485,0.));
#1075=CARTESIAN_POINT('',(-0.439075343366984,-0.997587601816488,2.));
#1076=CARTESIAN_POINT('',(56.000000834465,-0.997587601816485,2.));
#1077=CARTESIAN_POINT('',(-0.439075343366984,-0.997587601816485,2.));
#1078=CARTESIAN_POINT('',(-0.439075343366984,-0.997587601816488,13.));
#1079=CARTESIAN_POINT('',(-0.439075343366984,-0.997587601816488,0.));
#1080=CARTESIAN_POINT('',(56.000000834465,-0.997587601816485,13.));
#1081=CARTESIAN_POINT('',(-0.439075343366984,-0.997587601816485,13.));
#1082=CARTESIAN_POINT('',(56.000000834465,-0.997587601816485,0.));
#1083=CARTESIAN_POINT('Origin',(-0.439075343366984,-0.997587601816488,0.));
#1084=CARTESIAN_POINT('',(-0.439075343366984,115.000001743436,2.));
#1085=CARTESIAN_POINT('',(-0.439075343366984,115.000001743436,2.));
#1086=CARTESIAN_POINT('',(-0.439075343366984,115.000001743436,13.));
#1087=CARTESIAN_POINT('',(-0.439075343366984,115.000001743436,0.));
#1088=CARTESIAN_POINT('',(-0.439075343366984,115.000001743436,13.));
#1089=CARTESIAN_POINT('Origin',(56.000000834465,115.000001743436,0.));
#1090=CARTESIAN_POINT('',(56.000000834465,115.000001743436,2.));
#1091=CARTESIAN_POINT('',(56.000000834465,-0.997587601816485,2.));
#1092=CARTESIAN_POINT('',(56.000000834465,115.000001743436,13.));
#1093=CARTESIAN_POINT('',(56.000000834465,-0.997587601816485,13.));
#1094=CARTESIAN_POINT('',(56.000000834465,115.000001743436,0.));
#1095=CARTESIAN_POINT('Origin',(-0.439075343366984,115.000001743436,0.));
#1096=CARTESIAN_POINT('',(56.000000834465,115.000001743436,2.));
#1097=CARTESIAN_POINT('',(56.000000834465,115.000001743436,13.));
#1098=CARTESIAN_POINT('Origin',(55.000000834465,117.000001743436,0.));
#1099=CARTESIAN_POINT('',(55.000000834465,117.000001743436,0.));
#1100=CARTESIAN_POINT('',(0.560924656633013,117.000001743436,0.));
#1101=CARTESIAN_POINT('',(55.000000834465,117.000001743436,0.));
#1102=CARTESIAN_POINT('',(0.560924656633013,117.000001743436,13.));
#1103=CARTESIAN_POINT('',(0.560924656633013,117.000001743436,0.));
#1104=CARTESIAN_POINT('',(55.000000834465,117.000001743436,13.));
#1105=CARTESIAN_POINT('',(55.000000834465,117.000001743436,13.));
#1106=CARTESIAN_POINT('',(55.000000834465,117.000001743436,0.));
#1107=CARTESIAN_POINT('Origin',(55.000000834465,114.000001743436,0.));
#1108=CARTESIAN_POINT('',(58.000000834465,114.000001743436,0.));
#1109=CARTESIAN_POINT('Origin',(55.000000834465,114.000001743436,0.));
#1110=CARTESIAN_POINT('',(58.000000834465,114.000001743436,13.));
#1111=CARTESIAN_POINT('Origin',(55.000000834465,114.000001743436,13.));
#1112=CARTESIAN_POINT('',(58.000000834465,114.000001743436,0.));
#1113=CARTESIAN_POINT('Origin',(58.000000834465,0.00241239818351488,0.));
#1114=CARTESIAN_POINT('',(58.000000834465,0.00241239818351472,0.));
#1115=CARTESIAN_POINT('',(58.000000834465,0.00241239818351488,0.));
#1116=CARTESIAN_POINT('',(58.000000834465,0.00241239818351474,13.));
#1117=CARTESIAN_POINT('',(58.000000834465,0.00241239818351488,13.));
#1118=CARTESIAN_POINT('',(58.000000834465,0.00241239818351472,0.));
#1119=CARTESIAN_POINT('Origin',(55.000000834465,0.00241239818351557,0.));
#1120=CARTESIAN_POINT('',(55.000000834465,-2.99758760181648,0.));
#1121=CARTESIAN_POINT('Origin',(55.000000834465,0.00241239818351557,0.));
#1122=CARTESIAN_POINT('',(55.000000834465,-2.99758760181648,13.));
#1123=CARTESIAN_POINT('Origin',(55.000000834465,0.00241239818351557,13.));
#1124=CARTESIAN_POINT('',(55.000000834465,-2.99758760181648,0.));
#1125=CARTESIAN_POINT('Origin',(0.560924656633017,-2.99758760181648,0.));
#1126=CARTESIAN_POINT('',(0.560924656633017,-2.99758760181649,0.));
#1127=CARTESIAN_POINT('',(0.560924656633017,-2.99758760181648,0.));
#1128=CARTESIAN_POINT('',(0.560924656633017,-2.99758760181649,13.));
#1129=CARTESIAN_POINT('',(0.560924656633017,-2.99758760181648,13.));
#1130=CARTESIAN_POINT('',(0.560924656633017,-2.99758760181649,0.));
#1131=CARTESIAN_POINT('Origin',(0.560924656633017,0.00241239818351557,0.));
#1132=CARTESIAN_POINT('',(-2.43907534336698,0.00241239818351557,0.));
#1133=CARTESIAN_POINT('Origin',(0.560924656633017,0.00241239818351557,0.));
#1134=CARTESIAN_POINT('',(-2.43907534336698,0.00241239818351557,13.));
#1135=CARTESIAN_POINT('Origin',(0.560924656633017,0.00241239818351557,13.));
#1136=CARTESIAN_POINT('',(-2.43907534336698,0.00241239818351557,0.));
#1137=CARTESIAN_POINT('Origin',(-2.43907534336698,114.000001743436,0.));
#1138=CARTESIAN_POINT('',(-2.43907534336699,114.000001743436,0.));
#1139=CARTESIAN_POINT('',(-2.43907534336698,114.000001743436,0.));
#1140=CARTESIAN_POINT('',(-2.43907534336699,114.000001743436,13.));
#1141=CARTESIAN_POINT('',(-2.43907534336698,114.000001743436,13.));
#1142=CARTESIAN_POINT('',(-2.43907534336699,114.000001743436,0.));
#1143=CARTESIAN_POINT('Origin',(0.560924656633039,114.000001743436,0.));
#1144=CARTESIAN_POINT('Origin',(0.560924656633039,114.000001743436,0.));
#1145=CARTESIAN_POINT('Origin',(0.560924656633039,114.000001743436,13.));
#1146=CARTESIAN_POINT('Origin',(27.780462745549,57.0012070708097,13.));
#1147=CARTESIAN_POINT('Origin',(27.780462745549,57.0012070708097,2.));
#1148=CARTESIAN_POINT('',(49.2467744913384,3.0000067,2.));
#1149=CARTESIAN_POINT('Origin',(52.4967744913384,3.0000067,2.));
#1150=CARTESIAN_POINT('',(-0.249999955296518,95.0000014156103,2.));
#1151=CARTESIAN_POINT('Origin',(3.00000004470348,95.0000014156103,2.));
#1152=CARTESIAN_POINT('',(-0.25000092,3.0000067,2.));
#1153=CARTESIAN_POINT('Origin',(2.99999908,3.0000067,2.));
#1154=CARTESIAN_POINT('Origin',(3.00000004470348,95.0000014156103,0.));
#1155=CARTESIAN_POINT('',(0.700000044703488,95.0000014156103,10.));
#1156=CARTESIAN_POINT('Origin',(3.00000004470348,95.0000014156103,10.));
#1157=CARTESIAN_POINT('',(0.700000044703488,95.0000014156103,0.));
#1158=CARTESIAN_POINT('Origin',(3.00000004470348,95.0000014156103,0.));
#1159=CARTESIAN_POINT('',(-0.249999955296516,95.0000014156103,10.));
#1160=CARTESIAN_POINT('Origin',(3.00000004470348,95.0000014156103,10.));
#1161=CARTESIAN_POINT('',(-0.249999955296516,95.0000014156103,0.));
#1162=CARTESIAN_POINT('Origin',(3.00000004470348,95.0000014156103,10.));
#1163=CARTESIAN_POINT('Origin',(52.4967744913384,3.0000067,0.));
#1164=CARTESIAN_POINT('',(50.1967744913384,3.0000067,10.));
#1165=CARTESIAN_POINT('Origin',(52.4967744913384,3.0000067,10.));
#1166=CARTESIAN_POINT('',(50.1967744913384,3.0000067,0.));
#1167=CARTESIAN_POINT('Origin',(52.4967744913384,3.0000067,0.));
#1168=CARTESIAN_POINT('',(49.2467744913384,3.0000067,10.));
#1169=CARTESIAN_POINT('Origin',(52.4967744913384,3.0000067,10.));
#1170=CARTESIAN_POINT('',(49.2467744913384,3.0000067,0.));
#1171=CARTESIAN_POINT('Origin',(52.4967744913384,3.0000067,10.));
#1172=CARTESIAN_POINT('Origin',(2.99999908,3.0000067,0.));
#1173=CARTESIAN_POINT('',(0.69999908,3.0000067,10.));
#1174=CARTESIAN_POINT('Origin',(2.99999908,3.0000067,10.));
#1175=CARTESIAN_POINT('',(0.69999908,3.0000067,0.));
#1176=CARTESIAN_POINT('Origin',(2.99999908,3.0000067,0.));
#1177=CARTESIAN_POINT('',(-0.250000920000001,3.0000067,10.));
#1178=CARTESIAN_POINT('Origin',(2.99999908,3.0000067,10.));
#1179=CARTESIAN_POINT('',(-0.250000920000001,3.0000067,0.));
#1180=CARTESIAN_POINT('Origin',(2.99999908,3.0000067,10.));
#1181=CARTESIAN_POINT('Origin',(2.99999908,3.0000067,0.));
#1182=UNCERTAINTY_MEASURE_WITH_UNIT(LENGTH_MEASURE(0.01),#1186,
'DISTANCE_ACCURACY_VALUE',
'Maximum model space distance between geometric entities at asserted c
onnectivities');
#1183=UNCERTAINTY_MEASURE_WITH_UNIT(LENGTH_MEASURE(0.01),#1186,
'DISTANCE_ACCURACY_VALUE',
'Maximum model space distance between geometric entities at asserted c
onnectivities');
#1184=(
GEOMETRIC_REPRESENTATION_CONTEXT(3)
GLOBAL_UNCERTAINTY_ASSIGNED_CONTEXT((#1182))
GLOBAL_UNIT_ASSIGNED_CONTEXT((#1186,#1188,#1189))
REPRESENTATION_CONTEXT('','3D')
);
#1185=(
GEOMETRIC_REPRESENTATION_CONTEXT(3)
GLOBAL_UNCERTAINTY_ASSIGNED_CONTEXT((#1183))
GLOBAL_UNIT_ASSIGNED_CONTEXT((#1186,#1188,#1189))
REPRESENTATION_CONTEXT('','3D')
);
#1186=(
LENGTH_UNIT()
NAMED_UNIT(*)
SI_UNIT(.MILLI.,.METRE.)
);
#1187=(
LENGTH_UNIT()
NAMED_UNIT(*)
SI_UNIT($,.METRE.)
);
#1188=(
NAMED_UNIT(*)
PLANE_ANGLE_UNIT()
SI_UNIT($,.RADIAN.)
);
#1189=(
NAMED_UNIT(*)
SI_UNIT($,.STERADIAN.)
SOLID_ANGLE_UNIT()
);
#1190=SHAPE_DEFINITION_REPRESENTATION(#1191,#1192);
#1191=PRODUCT_DEFINITION_SHAPE('',$,#1194);
#1192=SHAPE_REPRESENTATION('',(#698),#1184);
#1193=PRODUCT_DEFINITION_CONTEXT('part definition',#1198,'design');
#1194=PRODUCT_DEFINITION('case','case v5',#1195,#1193);
#1195=PRODUCT_DEFINITION_FORMATION('',$,#1200);
#1196=PRODUCT_RELATED_PRODUCT_CATEGORY('case v5','case v5',(#1200));
#1197=APPLICATION_PROTOCOL_DEFINITION('international standard',
'automotive_design',2009,#1198);
#1198=APPLICATION_CONTEXT(
'Core Data for Automotive Mechanical Design Process');
#1199=PRODUCT_CONTEXT('part definition',#1198,'mechanical');
#1200=PRODUCT('case','case v5',$,(#1199));
#1201=PRESENTATION_STYLE_ASSIGNMENT((#1233));
#1202=PRESENTATION_STYLE_ASSIGNMENT((#1234));
#1203=PRESENTATION_STYLE_ASSIGNMENT((#1235));
#1204=PRESENTATION_STYLE_ASSIGNMENT((#1236));
#1205=PRESENTATION_STYLE_ASSIGNMENT((#1237));
#1206=PRESENTATION_STYLE_ASSIGNMENT((#1238));
#1207=PRESENTATION_STYLE_ASSIGNMENT((#1239));
#1208=PRESENTATION_STYLE_ASSIGNMENT((#1240));
#1209=PRESENTATION_STYLE_ASSIGNMENT((#1241));
#1210=PRESENTATION_STYLE_ASSIGNMENT((#1242));
#1211=PRESENTATION_STYLE_ASSIGNMENT((#1243));
#1212=PRESENTATION_STYLE_ASSIGNMENT((#1244));
#1213=PRESENTATION_STYLE_ASSIGNMENT((#1245));
#1214=PRESENTATION_STYLE_ASSIGNMENT((#1246));
#1215=PRESENTATION_STYLE_ASSIGNMENT((#1247));
#1216=PRESENTATION_STYLE_ASSIGNMENT((#1248));
#1217=PRESENTATION_STYLE_ASSIGNMENT((#1249));
#1218=PRESENTATION_STYLE_ASSIGNMENT((#1250));
#1219=PRESENTATION_STYLE_ASSIGNMENT((#1251));
#1220=PRESENTATION_STYLE_ASSIGNMENT((#1252));
#1221=PRESENTATION_STYLE_ASSIGNMENT((#1253));
#1222=PRESENTATION_STYLE_ASSIGNMENT((#1254));
#1223=PRESENTATION_STYLE_ASSIGNMENT((#1255));
#1224=PRESENTATION_STYLE_ASSIGNMENT((#1256));
#1225=PRESENTATION_STYLE_ASSIGNMENT((#1257));
#1226=PRESENTATION_STYLE_ASSIGNMENT((#1258));
#1227=PRESENTATION_STYLE_ASSIGNMENT((#1259));
#1228=PRESENTATION_STYLE_ASSIGNMENT((#1260));
#1229=PRESENTATION_STYLE_ASSIGNMENT((#1261));
#1230=PRESENTATION_STYLE_ASSIGNMENT((#1262));
#1231=PRESENTATION_STYLE_ASSIGNMENT((#1263));
#1232=PRESENTATION_STYLE_ASSIGNMENT((#1264));
#1233=SURFACE_STYLE_USAGE(.BOTH.,#1265);
#1234=SURFACE_STYLE_USAGE(.BOTH.,#1266);
#1235=SURFACE_STYLE_USAGE(.BOTH.,#1267);
#1236=SURFACE_STYLE_USAGE(.BOTH.,#1268);
#1237=SURFACE_STYLE_USAGE(.BOTH.,#1269);
#1238=SURFACE_STYLE_USAGE(.BOTH.,#1270);
#1239=SURFACE_STYLE_USAGE(.BOTH.,#1271);
#1240=SURFACE_STYLE_USAGE(.BOTH.,#1272);
#1241=SURFACE_STYLE_USAGE(.BOTH.,#1273);
#1242=SURFACE_STYLE_USAGE(.BOTH.,#1274);
#1243=SURFACE_STYLE_USAGE(.BOTH.,#1275);
#1244=SURFACE_STYLE_USAGE(.BOTH.,#1276);
#1245=SURFACE_STYLE_USAGE(.BOTH.,#1277);
#1246=SURFACE_STYLE_USAGE(.BOTH.,#1278);
#1247=SURFACE_STYLE_USAGE(.BOTH.,#1279);
#1248=SURFACE_STYLE_USAGE(.BOTH.,#1280);
#1249=SURFACE_STYLE_USAGE(.BOTH.,#1281);
#1250=SURFACE_STYLE_USAGE(.BOTH.,#1282);
#1251=SURFACE_STYLE_USAGE(.BOTH.,#1283);
#1252=SURFACE_STYLE_USAGE(.BOTH.,#1284);
#1253=SURFACE_STYLE_USAGE(.BOTH.,#1285);
#1254=SURFACE_STYLE_USAGE(.BOTH.,#1286);
#1255=SURFACE_STYLE_USAGE(.BOTH.,#1287);
#1256=SURFACE_STYLE_USAGE(.BOTH.,#1288);
#1257=SURFACE_STYLE_USAGE(.BOTH.,#1289);
#1258=SURFACE_STYLE_USAGE(.BOTH.,#1290);
#1259=SURFACE_STYLE_USAGE(.BOTH.,#1291);
#1260=SURFACE_STYLE_USAGE(.BOTH.,#1292);
#1261=SURFACE_STYLE_USAGE(.BOTH.,#1293);
#1262=SURFACE_STYLE_USAGE(.BOTH.,#1294);
#1263=SURFACE_STYLE_USAGE(.BOTH.,#1295);
#1264=SURFACE_STYLE_USAGE(.BOTH.,#1296);
#1265=SURFACE_SIDE_STYLE('',(#1297));
#1266=SURFACE_SIDE_STYLE('',(#1298));
#1267=SURFACE_SIDE_STYLE('',(#1299));
#1268=SURFACE_SIDE_STYLE('',(#1300));
#1269=SURFACE_SIDE_STYLE('',(#1301));
#1270=SURFACE_SIDE_STYLE('',(#1302));
#1271=SURFACE_SIDE_STYLE('',(#1303));
#1272=SURFACE_SIDE_STYLE('',(#1304));
#1273=SURFACE_SIDE_STYLE('',(#1305));
#1274=SURFACE_SIDE_STYLE('',(#1306));
#1275=SURFACE_SIDE_STYLE('',(#1307));
#1276=SURFACE_SIDE_STYLE('',(#1308));
#1277=SURFACE_SIDE_STYLE('',(#1309));
#1278=SURFACE_SIDE_STYLE('',(#1310));
#1279=SURFACE_SIDE_STYLE('',(#1311));
#1280=SURFACE_SIDE_STYLE('',(#1312));
#1281=SURFACE_SIDE_STYLE('',(#1313));
#1282=SURFACE_SIDE_STYLE('',(#1314));
#1283=SURFACE_SIDE_STYLE('',(#1315));
#1284=SURFACE_SIDE_STYLE('',(#1316));
#1285=SURFACE_SIDE_STYLE('',(#1317));
#1286=SURFACE_SIDE_STYLE('',(#1318));
#1287=SURFACE_SIDE_STYLE('',(#1319));
#1288=SURFACE_SIDE_STYLE('',(#1320));
#1289=SURFACE_SIDE_STYLE('',(#1321));
#1290=SURFACE_SIDE_STYLE('',(#1322));
#1291=SURFACE_SIDE_STYLE('',(#1323));
#1292=SURFACE_SIDE_STYLE('',(#1324));
#1293=SURFACE_SIDE_STYLE('',(#1325));
#1294=SURFACE_SIDE_STYLE('',(#1326));
#1295=SURFACE_SIDE_STYLE('',(#1327));
#1296=SURFACE_SIDE_STYLE('',(#1328));
#1297=SURFACE_STYLE_FILL_AREA(#1329);
#1298=SURFACE_STYLE_FILL_AREA(#1330);
#1299=SURFACE_STYLE_FILL_AREA(#1331);
#1300=SURFACE_STYLE_FILL_AREA(#1332);
#1301=SURFACE_STYLE_FILL_AREA(#1333);
#1302=SURFACE_STYLE_FILL_AREA(#1334);
#1303=SURFACE_STYLE_FILL_AREA(#1335);
#1304=SURFACE_STYLE_FILL_AREA(#1336);
#1305=SURFACE_STYLE_FILL_AREA(#1337);
#1306=SURFACE_STYLE_FILL_AREA(#1338);
#1307=SURFACE_STYLE_FILL_AREA(#1339);
#1308=SURFACE_STYLE_FILL_AREA(#1340);
#1309=SURFACE_STYLE_FILL_AREA(#1341);
#1310=SURFACE_STYLE_FILL_AREA(#1342);
#1311=SURFACE_STYLE_FILL_AREA(#1343);
#1312=SURFACE_STYLE_FILL_AREA(#1344);
#1313=SURFACE_STYLE_FILL_AREA(#1345);
#1314=SURFACE_STYLE_FILL_AREA(#1346);
#1315=SURFACE_STYLE_FILL_AREA(#1347);
#1316=SURFACE_STYLE_FILL_AREA(#1348);
#1317=SURFACE_STYLE_FILL_AREA(#1349);
#1318=SURFACE_STYLE_FILL_AREA(#1350);
#1319=SURFACE_STYLE_FILL_AREA(#1351);
#1320=SURFACE_STYLE_FILL_AREA(#1352);
#1321=SURFACE_STYLE_FILL_AREA(#1353);
#1322=SURFACE_STYLE_FILL_AREA(#1354);
#1323=SURFACE_STYLE_FILL_AREA(#1355);
#1324=SURFACE_STYLE_FILL_AREA(#1356);
#1325=SURFACE_STYLE_FILL_AREA(#1357);
#1326=SURFACE_STYLE_FILL_AREA(#1358);
#1327=SURFACE_STYLE_FILL_AREA(#1359);
#1328=SURFACE_STYLE_FILL_AREA(#1360);
#1329=FILL_AREA_STYLE('Steel - Satin',(#1361));
#1330=FILL_AREA_STYLE('Opaque(215,208,192)',(#1362));
#1331=FILL_AREA_STYLE('Opaque(25,25,25)',(#1363));
#1332=FILL_AREA_STYLE('Opaque(229,234,237)',(#1364));
#1333=FILL_AREA_STYLE('Opaque(165,132,0)',(#1365));
#1334=FILL_AREA_STYLE('Opaque(192,192,192)',(#1366));
#1335=FILL_AREA_STYLE('Opaque(196,196,196)',(#1367));
#1336=FILL_AREA_STYLE('Opaque(75,75,75)',(#1368));
#1337=FILL_AREA_STYLE('Opaque(255,255,255)',(#1369));
#1338=FILL_AREA_STYLE('Opaque(0,255,255)',(#1370));
#1339=FILL_AREA_STYLE('Opaque(64,64,64)',(#1371));
#1340=FILL_AREA_STYLE('Opaque(63,63,63)',(#1372));
#1341=FILL_AREA_STYLE('Opaque(217,217,217)',(#1373));
#1342=FILL_AREA_STYLE('Opaque(241,194,50)',(#1374));
#1343=FILL_AREA_STYLE('Opaque(191,144,0)',(#1375));
#1344=FILL_AREA_STYLE('Opaque(34,34,34)',(#1376));
#1345=FILL_AREA_STYLE('Opaque(210,209,199)',(#1377));
#1346=FILL_AREA_STYLE('Opaque(228,227,207)',(#1378));
#1347=FILL_AREA_STYLE('Opaque(21,22,24)',(#1379));
#1348=FILL_AREA_STYLE('Opaque(97,69,55)',(#1380));
#1349=FILL_AREA_STYLE('Opaque(202,209,238)',(#1381));
#1350=FILL_AREA_STYLE('Opaque(38,37,37)',(#1382));
#1351=FILL_AREA_STYLE('Opaque(176,169,152)',(#1383));
#1352=FILL_AREA_STYLE('Opaque(70,70,70)',(#1384));
#1353=FILL_AREA_STYLE('Opaque(128,128,128)',(#1385));
#1354=FILL_AREA_STYLE('Opaque(255,207,128)',(#1386));
#1355=FILL_AREA_STYLE('Opaque(0,0,255)',(#1387));
#1356=FILL_AREA_STYLE('Opaque(255,128,0)',(#1388));
#1357=FILL_AREA_STYLE('Opaque(255,0,255)',(#1389));
#1358=FILL_AREA_STYLE('Opaque(251,251,251)',(#1390));
#1359=FILL_AREA_STYLE('Opaque(52,52,52)',(#1391));
#1360=FILL_AREA_STYLE('Opaque(149,149,149)',(#1392));
#1361=FILL_AREA_STYLE_COLOUR('Steel - Satin',#1393);
#1362=FILL_AREA_STYLE_COLOUR('Opaque(215,208,192)',#1394);
#1363=FILL_AREA_STYLE_COLOUR('Opaque(25,25,25)',#1395);
#1364=FILL_AREA_STYLE_COLOUR('Opaque(229,234,237)',#1396);
#1365=FILL_AREA_STYLE_COLOUR('Opaque(165,132,0)',#1397);
#1366=FILL_AREA_STYLE_COLOUR('Opaque(192,192,192)',#1398);
#1367=FILL_AREA_STYLE_COLOUR('Opaque(196,196,196)',#1399);
#1368=FILL_AREA_STYLE_COLOUR('Opaque(75,75,75)',#1400);
#1369=FILL_AREA_STYLE_COLOUR('Opaque(255,255,255)',#1401);
#1370=FILL_AREA_STYLE_COLOUR('Opaque(0,255,255)',#1402);
#1371=FILL_AREA_STYLE_COLOUR('Opaque(64,64,64)',#1403);
#1372=FILL_AREA_STYLE_COLOUR('Opaque(63,63,63)',#1404);
#1373=FILL_AREA_STYLE_COLOUR('Opaque(217,217,217)',#1405);
#1374=FILL_AREA_STYLE_COLOUR('Opaque(241,194,50)',#1406);
#1375=FILL_AREA_STYLE_COLOUR('Opaque(191,144,0)',#1407);
#1376=FILL_AREA_STYLE_COLOUR('Opaque(34,34,34)',#1408);
#1377=FILL_AREA_STYLE_COLOUR('Opaque(210,209,199)',#1409);
#1378=FILL_AREA_STYLE_COLOUR('Opaque(228,227,207)',#1410);
#1379=FILL_AREA_STYLE_COLOUR('Opaque(21,22,24)',#1411);
#1380=FILL_AREA_STYLE_COLOUR('Opaque(97,69,55)',#1412);
#1381=FILL_AREA_STYLE_COLOUR('Opaque(202,209,238)',#1413);
#1382=FILL_AREA_STYLE_COLOUR('Opaque(38,37,37)',#1414);
#1383=FILL_AREA_STYLE_COLOUR('Opaque(176,169,152)',#1415);
#1384=FILL_AREA_STYLE_COLOUR('Opaque(70,70,70)',#1416);
#1385=FILL_AREA_STYLE_COLOUR('Opaque(128,128,128)',#1417);
#1386=FILL_AREA_STYLE_COLOUR('Opaque(255,207,128)',#1418);
#1387=FILL_AREA_STYLE_COLOUR('Opaque(0,0,255)',#1419);
#1388=FILL_AREA_STYLE_COLOUR('Opaque(255,128,0)',#1420);
#1389=FILL_AREA_STYLE_COLOUR('Opaque(255,0,255)',#1421);
#1390=FILL_AREA_STYLE_COLOUR('Opaque(251,251,251)',#1422);
#1391=FILL_AREA_STYLE_COLOUR('Opaque(52,52,52)',#1423);
#1392=FILL_AREA_STYLE_COLOUR('Opaque(149,149,149)',#1424);
#1393=COLOUR_RGB('Steel - Satin',0.627450980392157,0.627450980392157,0.627450980392157);
#1394=COLOUR_RGB('Opaque(215,208,192)',0.843137254901961,0.815686274509804,
0.752941176470588);
#1395=COLOUR_RGB('Opaque(25,25,25)',0.0980392156862745,0.0980392156862745,
0.0980392156862745);
#1396=COLOUR_RGB('Opaque(229,234,237)',0.898039215686275,0.917647058823529,
0.929411764705882);
#1397=COLOUR_RGB('Opaque(165,132,0)',0.647058823529412,0.517647058823529,
0.);
#1398=COLOUR_RGB('Opaque(192,192,192)',0.752941176470588,0.752941176470588,
0.752941176470588);
#1399=COLOUR_RGB('Opaque(196,196,196)',0.768627450980392,0.768627450980392,
0.768627450980392);
#1400=COLOUR_RGB('Opaque(75,75,75)',0.294117647058824,0.294117647058824,
0.294117647058824);
#1401=COLOUR_RGB('Opaque(255,255,255)',1.,1.,1.);
#1402=COLOUR_RGB('Opaque(0,255,255)',0.,1.,1.);
#1403=COLOUR_RGB('Opaque(64,64,64)',0.250980392156863,0.250980392156863,
0.250980392156863);
#1404=COLOUR_RGB('Opaque(63,63,63)',0.250980392156863,0.250980392156863,
0.250980392156863);
#1405=COLOUR_RGB('Opaque(217,217,217)',0.850980392156863,0.850980392156863,
0.850980392156863);
#1406=COLOUR_RGB('Opaque(241,194,50)',0.945098039215686,0.76078431372549,
0.196078431372549);
#1407=COLOUR_RGB('Opaque(191,144,0)',0.749019607843137,0.564705882352941,
0.);
#1408=COLOUR_RGB('Opaque(34,34,34)',0.133333333333333,0.133333333333333,
0.133333333333333);
#1409=COLOUR_RGB('Opaque(210,209,199)',0.823529411764706,0.819607843137255,
0.780392156862745);
#1410=COLOUR_RGB('Opaque(228,227,207)',0.894117647058824,0.890196078431372,
0.811764705882353);
#1411=COLOUR_RGB('Opaque(21,22,24)',0.0823529411764706,0.0862745098039216,
0.0941176470588235);
#1412=COLOUR_RGB('Opaque(97,69,55)',0.380392156862745,0.270588235294118,
0.215686274509804);
#1413=COLOUR_RGB('Opaque(202,209,238)',0.792156862745098,0.819607843137255,
0.933333333333333);
#1414=COLOUR_RGB('Opaque(38,37,37)',0.149019607843137,0.145098039215686,
0.145098039215686);
#1415=COLOUR_RGB('Opaque(176,169,152)',0.690196078431373,0.662745098039216,
0.596078431372549);
#1416=COLOUR_RGB('Opaque(70,70,70)',0.274509803921569,0.274509803921569,
0.274509803921569);
#1417=COLOUR_RGB('Opaque(128,128,128)',0.501960784313725,0.501960784313725,
0.501960784313725);
#1418=COLOUR_RGB('Opaque(255,207,128)',1.,0.811764705882353,0.501960784313725);
#1419=COLOUR_RGB('Opaque(0,0,255)',0.,0.,1.);
#1420=COLOUR_RGB('Opaque(255,128,0)',1.,0.501960784313725,0.);
#1421=COLOUR_RGB('Opaque(255,0,255)',1.,0.,1.);
#1422=COLOUR_RGB('Opaque(251,251,251)',0.984313725490196,0.984313725490196,
0.984313725490196);
#1423=COLOUR_RGB('Opaque(52,52,52)',0.203921568627451,0.203921568627451,
0.203921568627451);
#1424=COLOUR_RGB('Opaque(149,149,149)',0.584313725490196,0.584313725490196,
0.584313725490196);
ENDSEC;
END-ISO-10303-21;
