ISO-10303-21;
HEADER;
/* Generated by software containing ST-Developer
 * from STEP Tools, Inc. (www.steptools.com) 
 */

FILE_DESCRIPTION(
/* description */ (''),
/* implementation_level */ '2;1');

FILE_NAME(
/* name */ 'case_top.step',
/* time_stamp */ '2026-01-21T17:06:34-05:00',
/* author */ (''),
/* organization */ (''),
/* preprocessor_version */ 'ST-DEVELOPER v20.1',
/* originating_system */ 'Autodesk Translation Framework v14.21.0.0',
/* authorisation */ '');

FILE_SCHEMA (('AUTOMOTIVE_DESIGN { 1 0 10303 214 3 1 1 }'));
ENDSEC;

DATA;
#10=MECHANICAL_DESIGN_GEOMETRIC_PRESENTATION_REPRESENTATION('',(#13),#682);
#11=SHAPE_REPRESENTATION_RELATIONSHIP('SRR','None',#689,#12);
#12=ADVANCED_BREP_SHAPE_REPRESENTATION('',(#14),#681);
#13=STYLED_ITEM('',(#698),#14);
#14=MANIFOLD_SOLID_BREP('Body1596',#390);
#15=FACE_BOUND('',#67,.T.);
#16=FACE_BOUND('',#68,.T.);
#17=FACE_BOUND('',#78,.T.);
#18=FACE_BOUND('',#79,.T.);
#19=FACE_BOUND('',#80,.T.);
#20=FACE_BOUND('',#82,.T.);
#21=FACE_BOUND('',#83,.T.);
#22=FACE_BOUND('',#84,.T.);
#23=FACE_BOUND('',#85,.T.);
#24=FACE_BOUND('',#86,.T.);
#25=FACE_BOUND('',#87,.T.);
#26=PLANE('',#428);
#27=PLANE('',#429);
#28=PLANE('',#432);
#29=PLANE('',#433);
#30=PLANE('',#434);
#31=PLANE('',#448);
#32=PLANE('',#449);
#33=SPHERICAL_SURFACE('',#412,3.);
#34=SPHERICAL_SURFACE('',#419,3.);
#35=SPHERICAL_SURFACE('',#424,3.);
#36=SPHERICAL_SURFACE('',#426,3.);
#37=FACE_OUTER_BOUND('',#57,.T.);
#38=FACE_OUTER_BOUND('',#58,.T.);
#39=FACE_OUTER_BOUND('',#59,.T.);
#40=FACE_OUTER_BOUND('',#60,.T.);
#41=FACE_OUTER_BOUND('',#61,.T.);
#42=FACE_OUTER_BOUND('',#62,.T.);
#43=FACE_OUTER_BOUND('',#63,.T.);
#44=FACE_OUTER_BOUND('',#64,.T.);
#45=FACE_OUTER_BOUND('',#65,.T.);
#46=FACE_OUTER_BOUND('',#66,.T.);
#47=FACE_OUTER_BOUND('',#69,.T.);
#48=FACE_OUTER_BOUND('',#70,.T.);
#49=FACE_OUTER_BOUND('',#71,.T.);
#50=FACE_OUTER_BOUND('',#72,.T.);
#51=FACE_OUTER_BOUND('',#73,.T.);
#52=FACE_OUTER_BOUND('',#74,.T.);
#53=FACE_OUTER_BOUND('',#75,.T.);
#54=FACE_OUTER_BOUND('',#76,.T.);
#55=FACE_OUTER_BOUND('',#77,.T.);
#56=FACE_OUTER_BOUND('',#81,.T.);
#57=EDGE_LOOP('',(#255,#256,#257,#258,#259,#260,#261,#262));
#58=EDGE_LOOP('',(#263,#264,#265,#266));
#59=EDGE_LOOP('',(#267,#268,#269));
#60=EDGE_LOOP('',(#270,#271,#272,#273,#274,#275,#276,#277));
#61=EDGE_LOOP('',(#278,#279,#280));
#62=EDGE_LOOP('',(#281,#282,#283,#284));
#63=EDGE_LOOP('',(#285,#286,#287));
#64=EDGE_LOOP('',(#288,#289,#290));
#65=EDGE_LOOP('',(#291,#292,#293,#294));
#66=EDGE_LOOP('',(#295,#296,#297,#298));
#67=EDGE_LOOP('',(#299));
#68=EDGE_LOOP('',(#300));
#69=EDGE_LOOP('',(#301,#302,#303,#304,#305,#306));
#70=EDGE_LOOP('',(#307,#308,#309,#310));
#71=EDGE_LOOP('',(#311,#312,#313,#314,#315,#316));
#72=EDGE_LOOP('',(#317,#318,#319,#320));
#73=EDGE_LOOP('',(#321,#322,#323,#324));
#74=EDGE_LOOP('',(#325,#326,#327,#328));
#75=EDGE_LOOP('',(#329,#330,#331,#332));
#76=EDGE_LOOP('',(#333,#334,#335,#336));
#77=EDGE_LOOP('',(#337,#338,#339,#340));
#78=EDGE_LOOP('',(#341));
#79=EDGE_LOOP('',(#342));
#80=EDGE_LOOP('',(#343));
#81=EDGE_LOOP('',(#344,#345,#346,#347,#348,#349,#350,#351));
#82=EDGE_LOOP('',(#352));
#83=EDGE_LOOP('',(#353));
#84=EDGE_LOOP('',(#354));
#85=EDGE_LOOP('',(#355));
#86=EDGE_LOOP('',(#356));
#87=EDGE_LOOP('',(#357,#358,#359,#360));
#88=LINE('',#577,#115);
#89=LINE('',#581,#116);
#90=LINE('',#585,#117);
#91=LINE('',#588,#118);
#92=LINE('',#593,#119);
#93=LINE('',#596,#120);
#94=LINE('',#603,#121);
#95=LINE('',#607,#122);
#96=LINE('',#611,#123);
#97=LINE('',#614,#124);
#98=LINE('',#621,#125);
#99=LINE('',#623,#126);
#100=LINE('',#630,#127);
#101=LINE('',#632,#128);
#102=LINE('',#633,#129);
#103=LINE('',#635,#130);
#104=LINE('',#642,#131);
#105=LINE('',#643,#132);
#106=LINE('',#646,#133);
#107=LINE('',#647,#134);
#108=LINE('',#649,#135);
#109=LINE('',#650,#136);
#110=LINE('',#653,#137);
#111=LINE('',#659,#138);
#112=LINE('',#665,#139);
#113=LINE('',#669,#140);
#114=LINE('',#675,#141);
#115=VECTOR('',#456,10.);
#116=VECTOR('',#459,10.);
#117=VECTOR('',#462,10.);
#118=VECTOR('',#465,10.);
#119=VECTOR('',#470,10.);
#120=VECTOR('',#473,10.);
#121=VECTOR('',#482,10.);
#122=VECTOR('',#485,10.);
#123=VECTOR('',#488,10.);
#124=VECTOR('',#491,10.);
#125=VECTOR('',#500,10.);
#126=VECTOR('',#503,10.);
#127=VECTOR('',#514,10.);
#128=VECTOR('',#515,10.);
#129=VECTOR('',#516,10.);
#130=VECTOR('',#519,10.);
#131=VECTOR('',#526,10.);
#132=VECTOR('',#527,10.);
#133=VECTOR('',#530,10.);
#134=VECTOR('',#531,10.);
#135=VECTOR('',#534,10.);
#136=VECTOR('',#535,10.);
#137=VECTOR('',#538,1.65);
#138=VECTOR('',#545,1.65);
#139=VECTOR('',#552,3.5);
#140=VECTOR('',#557,1.65);
#141=VECTOR('',#564,1.65);
#142=CIRCLE('',#405,3.);
#143=CIRCLE('',#406,3.);
#144=CIRCLE('',#407,3.);
#145=CIRCLE('',#408,3.);
#146=CIRCLE('',#410,3.);
#147=CIRCLE('',#411,3.);
#148=CIRCLE('',#413,3.);
#149=CIRCLE('',#415,3.);
#150=CIRCLE('',#416,3.);
#151=CIRCLE('',#417,3.);
#152=CIRCLE('',#418,3.);
#153=CIRCLE('',#420,3.);
#154=CIRCLE('',#422,3.);
#155=CIRCLE('',#423,3.00000000000001);
#156=CIRCLE('',#425,3.);
#157=CIRCLE('',#427,3.00000000000002);
#158=CIRCLE('',#430,1.65);
#159=CIRCLE('',#431,1.65);
#160=CIRCLE('',#436,1.65);
#161=CIRCLE('',#438,1.65);
#162=CIRCLE('',#439,1.65);
#163=CIRCLE('',#441,3.5);
#164=CIRCLE('',#442,3.5);
#165=CIRCLE('',#444,1.65);
#166=CIRCLE('',#446,1.65);
#167=CIRCLE('',#447,1.65);
#168=VERTEX_POINT('',#573);
#169=VERTEX_POINT('',#574);
#170=VERTEX_POINT('',#576);
#171=VERTEX_POINT('',#578);
#172=VERTEX_POINT('',#580);
#173=VERTEX_POINT('',#582);
#174=VERTEX_POINT('',#584);
#175=VERTEX_POINT('',#586);
#176=VERTEX_POINT('',#590);
#177=VERTEX_POINT('',#592);
#178=VERTEX_POINT('',#594);
#179=VERTEX_POINT('',#600);
#180=VERTEX_POINT('',#601);
#181=VERTEX_POINT('',#604);
#182=VERTEX_POINT('',#606);
#183=VERTEX_POINT('',#608);
#184=VERTEX_POINT('',#610);
#185=VERTEX_POINT('',#612);
#186=VERTEX_POINT('',#618);
#187=VERTEX_POINT('',#620);
#188=VERTEX_POINT('',#629);
#189=VERTEX_POINT('',#631);
#190=VERTEX_POINT('',#636);
#191=VERTEX_POINT('',#638);
#192=VERTEX_POINT('',#641);
#193=VERTEX_POINT('',#645);
#194=VERTEX_POINT('',#652);
#195=VERTEX_POINT('',#656);
#196=VERTEX_POINT('',#658);
#197=VERTEX_POINT('',#662);
#198=VERTEX_POINT('',#664);
#199=VERTEX_POINT('',#668);
#200=VERTEX_POINT('',#672);
#201=VERTEX_POINT('',#674);
#202=EDGE_CURVE('',#168,#169,#142,.T.);
#203=EDGE_CURVE('',#169,#170,#88,.T.);
#204=EDGE_CURVE('',#170,#171,#143,.T.);
#205=EDGE_CURVE('',#171,#172,#89,.T.);
#206=EDGE_CURVE('',#172,#173,#144,.T.);
#207=EDGE_CURVE('',#173,#174,#90,.T.);
#208=EDGE_CURVE('',#174,#175,#145,.T.);
#209=EDGE_CURVE('',#175,#168,#91,.T.);
#210=EDGE_CURVE('',#173,#176,#146,.T.);
#211=EDGE_CURVE('',#176,#177,#92,.T.);
#212=EDGE_CURVE('',#177,#178,#147,.T.);
#213=EDGE_CURVE('',#178,#173,#93,.T.);
#214=EDGE_CURVE('',#172,#176,#148,.T.);
#215=EDGE_CURVE('',#179,#180,#149,.T.);
#216=EDGE_CURVE('',#180,#178,#94,.T.);
#217=EDGE_CURVE('',#178,#181,#150,.T.);
#218=EDGE_CURVE('',#181,#182,#95,.T.);
#219=EDGE_CURVE('',#182,#183,#151,.T.);
#220=EDGE_CURVE('',#183,#184,#96,.T.);
#221=EDGE_CURVE('',#184,#185,#152,.T.);
#222=EDGE_CURVE('',#185,#179,#97,.T.);
#223=EDGE_CURVE('',#177,#181,#153,.T.);
#224=EDGE_CURVE('',#183,#186,#154,.T.);
#225=EDGE_CURVE('',#186,#187,#98,.T.);
#226=EDGE_CURVE('',#187,#170,#155,.T.);
#227=EDGE_CURVE('',#170,#183,#99,.T.);
#228=EDGE_CURVE('',#182,#186,#156,.T.);
#229=EDGE_CURVE('',#187,#171,#157,.T.);
#230=EDGE_CURVE('',#188,#175,#100,.T.);
#231=EDGE_CURVE('',#188,#189,#101,.T.);
#232=EDGE_CURVE('',#189,#168,#102,.T.);
#233=EDGE_CURVE('',#180,#174,#103,.T.);
#234=EDGE_CURVE('',#190,#190,#158,.T.);
#235=EDGE_CURVE('',#191,#191,#159,.T.);
#236=EDGE_CURVE('',#192,#179,#104,.T.);
#237=EDGE_CURVE('',#192,#188,#105,.T.);
#238=EDGE_CURVE('',#193,#185,#106,.T.);
#239=EDGE_CURVE('',#193,#192,#107,.T.);
#240=EDGE_CURVE('',#189,#193,#108,.T.);
#241=EDGE_CURVE('',#169,#184,#109,.T.);
#242=EDGE_CURVE('',#191,#194,#110,.T.);
#243=EDGE_CURVE('',#194,#194,#160,.T.);
#244=EDGE_CURVE('',#195,#195,#161,.T.);
#245=EDGE_CURVE('',#195,#196,#111,.T.);
#246=EDGE_CURVE('',#196,#196,#162,.T.);
#247=EDGE_CURVE('',#197,#197,#163,.T.);
#248=EDGE_CURVE('',#197,#198,#112,.T.);
#249=EDGE_CURVE('',#198,#198,#164,.T.);
#250=EDGE_CURVE('',#190,#199,#113,.T.);
#251=EDGE_CURVE('',#199,#199,#165,.T.);
#252=EDGE_CURVE('',#200,#200,#166,.T.);
#253=EDGE_CURVE('',#200,#201,#114,.T.);
#254=EDGE_CURVE('',#201,#201,#167,.T.);
#255=ORIENTED_EDGE('',*,*,#202,.T.);
#256=ORIENTED_EDGE('',*,*,#203,.T.);
#257=ORIENTED_EDGE('',*,*,#204,.T.);
#258=ORIENTED_EDGE('',*,*,#205,.T.);
#259=ORIENTED_EDGE('',*,*,#206,.T.);
#260=ORIENTED_EDGE('',*,*,#207,.T.);
#261=ORIENTED_EDGE('',*,*,#208,.T.);
#262=ORIENTED_EDGE('',*,*,#209,.T.);
#263=ORIENTED_EDGE('',*,*,#210,.T.);
#264=ORIENTED_EDGE('',*,*,#211,.T.);
#265=ORIENTED_EDGE('',*,*,#212,.T.);
#266=ORIENTED_EDGE('',*,*,#213,.T.);
#267=ORIENTED_EDGE('',*,*,#210,.F.);
#268=ORIENTED_EDGE('',*,*,#206,.F.);
#269=ORIENTED_EDGE('',*,*,#214,.T.);
#270=ORIENTED_EDGE('',*,*,#215,.T.);
#271=ORIENTED_EDGE('',*,*,#216,.T.);
#272=ORIENTED_EDGE('',*,*,#217,.T.);
#273=ORIENTED_EDGE('',*,*,#218,.T.);
#274=ORIENTED_EDGE('',*,*,#219,.T.);
#275=ORIENTED_EDGE('',*,*,#220,.T.);
#276=ORIENTED_EDGE('',*,*,#221,.T.);
#277=ORIENTED_EDGE('',*,*,#222,.T.);
#278=ORIENTED_EDGE('',*,*,#217,.F.);
#279=ORIENTED_EDGE('',*,*,#212,.F.);
#280=ORIENTED_EDGE('',*,*,#223,.T.);
#281=ORIENTED_EDGE('',*,*,#224,.T.);
#282=ORIENTED_EDGE('',*,*,#225,.T.);
#283=ORIENTED_EDGE('',*,*,#226,.T.);
#284=ORIENTED_EDGE('',*,*,#227,.T.);
#285=ORIENTED_EDGE('',*,*,#224,.F.);
#286=ORIENTED_EDGE('',*,*,#219,.F.);
#287=ORIENTED_EDGE('',*,*,#228,.T.);
#288=ORIENTED_EDGE('',*,*,#204,.F.);
#289=ORIENTED_EDGE('',*,*,#226,.F.);
#290=ORIENTED_EDGE('',*,*,#229,.T.);
#291=ORIENTED_EDGE('',*,*,#209,.F.);
#292=ORIENTED_EDGE('',*,*,#230,.F.);
#293=ORIENTED_EDGE('',*,*,#231,.T.);
#294=ORIENTED_EDGE('',*,*,#232,.T.);
#295=ORIENTED_EDGE('',*,*,#207,.F.);
#296=ORIENTED_EDGE('',*,*,#213,.F.);
#297=ORIENTED_EDGE('',*,*,#216,.F.);
#298=ORIENTED_EDGE('',*,*,#233,.T.);
#299=ORIENTED_EDGE('',*,*,#234,.T.);
#300=ORIENTED_EDGE('',*,*,#235,.T.);
#301=ORIENTED_EDGE('',*,*,#208,.F.);
#302=ORIENTED_EDGE('',*,*,#233,.F.);
#303=ORIENTED_EDGE('',*,*,#215,.F.);
#304=ORIENTED_EDGE('',*,*,#236,.F.);
#305=ORIENTED_EDGE('',*,*,#237,.T.);
#306=ORIENTED_EDGE('',*,*,#230,.T.);
#307=ORIENTED_EDGE('',*,*,#222,.F.);
#308=ORIENTED_EDGE('',*,*,#238,.F.);
#309=ORIENTED_EDGE('',*,*,#239,.T.);
#310=ORIENTED_EDGE('',*,*,#236,.T.);
#311=ORIENTED_EDGE('',*,*,#202,.F.);
#312=ORIENTED_EDGE('',*,*,#232,.F.);
#313=ORIENTED_EDGE('',*,*,#240,.T.);
#314=ORIENTED_EDGE('',*,*,#238,.T.);
#315=ORIENTED_EDGE('',*,*,#221,.F.);
#316=ORIENTED_EDGE('',*,*,#241,.F.);
#317=ORIENTED_EDGE('',*,*,#235,.F.);
#318=ORIENTED_EDGE('',*,*,#242,.T.);
#319=ORIENTED_EDGE('',*,*,#243,.T.);
#320=ORIENTED_EDGE('',*,*,#242,.F.);
#321=ORIENTED_EDGE('',*,*,#244,.F.);
#322=ORIENTED_EDGE('',*,*,#245,.T.);
#323=ORIENTED_EDGE('',*,*,#246,.T.);
#324=ORIENTED_EDGE('',*,*,#245,.F.);
#325=ORIENTED_EDGE('',*,*,#247,.F.);
#326=ORIENTED_EDGE('',*,*,#248,.T.);
#327=ORIENTED_EDGE('',*,*,#249,.T.);
#328=ORIENTED_EDGE('',*,*,#248,.F.);
#329=ORIENTED_EDGE('',*,*,#234,.F.);
#330=ORIENTED_EDGE('',*,*,#250,.T.);
#331=ORIENTED_EDGE('',*,*,#251,.T.);
#332=ORIENTED_EDGE('',*,*,#250,.F.);
#333=ORIENTED_EDGE('',*,*,#252,.F.);
#334=ORIENTED_EDGE('',*,*,#253,.T.);
#335=ORIENTED_EDGE('',*,*,#254,.T.);
#336=ORIENTED_EDGE('',*,*,#253,.F.);
#337=ORIENTED_EDGE('',*,*,#203,.F.);
#338=ORIENTED_EDGE('',*,*,#241,.T.);
#339=ORIENTED_EDGE('',*,*,#220,.F.);
#340=ORIENTED_EDGE('',*,*,#227,.F.);
#341=ORIENTED_EDGE('',*,*,#252,.T.);
#342=ORIENTED_EDGE('',*,*,#247,.T.);
#343=ORIENTED_EDGE('',*,*,#244,.T.);
#344=ORIENTED_EDGE('',*,*,#225,.F.);
#345=ORIENTED_EDGE('',*,*,#228,.F.);
#346=ORIENTED_EDGE('',*,*,#218,.F.);
#347=ORIENTED_EDGE('',*,*,#223,.F.);
#348=ORIENTED_EDGE('',*,*,#211,.F.);
#349=ORIENTED_EDGE('',*,*,#214,.F.);
#350=ORIENTED_EDGE('',*,*,#205,.F.);
#351=ORIENTED_EDGE('',*,*,#229,.F.);
#352=ORIENTED_EDGE('',*,*,#254,.F.);
#353=ORIENTED_EDGE('',*,*,#251,.F.);
#354=ORIENTED_EDGE('',*,*,#249,.F.);
#355=ORIENTED_EDGE('',*,*,#246,.F.);
#356=ORIENTED_EDGE('',*,*,#243,.F.);
#357=ORIENTED_EDGE('',*,*,#240,.F.);
#358=ORIENTED_EDGE('',*,*,#231,.F.);
#359=ORIENTED_EDGE('',*,*,#237,.F.);
#360=ORIENTED_EDGE('',*,*,#239,.F.);
#361=CYLINDRICAL_SURFACE('',#404,3.);
#362=CYLINDRICAL_SURFACE('',#409,3.);
#363=CYLINDRICAL_SURFACE('',#414,3.);
#364=CYLINDRICAL_SURFACE('',#421,3.);
#365=CYLINDRICAL_SURFACE('',#435,1.65);
#366=CYLINDRICAL_SURFACE('',#437,1.65);
#367=CYLINDRICAL_SURFACE('',#440,3.5);
#368=CYLINDRICAL_SURFACE('',#443,1.65);
#369=CYLINDRICAL_SURFACE('',#445,1.65);
#370=ADVANCED_FACE('',(#37),#361,.T.);
#371=ADVANCED_FACE('',(#38),#362,.T.);
#372=ADVANCED_FACE('',(#39),#33,.T.);
#373=ADVANCED_FACE('',(#40),#363,.T.);
#374=ADVANCED_FACE('',(#41),#34,.T.);
#375=ADVANCED_FACE('',(#42),#364,.T.);
#376=ADVANCED_FACE('',(#43),#35,.T.);
#377=ADVANCED_FACE('',(#44),#36,.T.);
#378=ADVANCED_FACE('',(#45),#26,.T.);
#379=ADVANCED_FACE('',(#46,#15,#16),#27,.T.);
#380=ADVANCED_FACE('',(#47),#28,.T.);
#381=ADVANCED_FACE('',(#48),#29,.T.);
#382=ADVANCED_FACE('',(#49),#30,.T.);
#383=ADVANCED_FACE('',(#50),#365,.F.);
#384=ADVANCED_FACE('',(#51),#366,.F.);
#385=ADVANCED_FACE('',(#52),#367,.F.);
#386=ADVANCED_FACE('',(#53),#368,.F.);
#387=ADVANCED_FACE('',(#54),#369,.F.);
#388=ADVANCED_FACE('',(#55,#17,#18,#19),#31,.T.);
#389=ADVANCED_FACE('',(#56,#20,#21,#22,#23,#24,#25),#32,.F.);
#390=CLOSED_SHELL('',(#370,#371,#372,#373,#374,#375,#376,#377,#378,#379,
#380,#381,#382,#383,#384,#385,#386,#387,#388,#389));
#391=DERIVED_UNIT_ELEMENT(#393,1.);
#392=DERIVED_UNIT_ELEMENT(#684,-3.);
#393=(
MASS_UNIT()
NAMED_UNIT(*)
SI_UNIT(.KILO.,.GRAM.)
);
#394=DERIVED_UNIT((#391,#392));
#395=MEASURE_REPRESENTATION_ITEM('density measure',
POSITIVE_RATIO_MEASURE(7850.),#394);
#396=PROPERTY_DEFINITION_REPRESENTATION(#401,#398);
#397=PROPERTY_DEFINITION_REPRESENTATION(#402,#399);
#398=REPRESENTATION('material name',(#400),#681);
#399=REPRESENTATION('density',(#395),#681);
#400=DESCRIPTIVE_REPRESENTATION_ITEM('Steel','Steel');
#401=PROPERTY_DEFINITION('material property','material name',#691);
#402=PROPERTY_DEFINITION('material property','density of part',#691);
#403=AXIS2_PLACEMENT_3D('',#571,#450,#451);
#404=AXIS2_PLACEMENT_3D('',#572,#452,#453);
#405=AXIS2_PLACEMENT_3D('',#575,#454,#455);
#406=AXIS2_PLACEMENT_3D('',#579,#457,#458);
#407=AXIS2_PLACEMENT_3D('',#583,#460,#461);
#408=AXIS2_PLACEMENT_3D('',#587,#463,#464);
#409=AXIS2_PLACEMENT_3D('',#589,#466,#467);
#410=AXIS2_PLACEMENT_3D('',#591,#468,#469);
#411=AXIS2_PLACEMENT_3D('',#595,#471,#472);
#412=AXIS2_PLACEMENT_3D('',#597,#474,#475);
#413=AXIS2_PLACEMENT_3D('',#598,#476,#477);
#414=AXIS2_PLACEMENT_3D('',#599,#478,#479);
#415=AXIS2_PLACEMENT_3D('',#602,#480,#481);
#416=AXIS2_PLACEMENT_3D('',#605,#483,#484);
#417=AXIS2_PLACEMENT_3D('',#609,#486,#487);
#418=AXIS2_PLACEMENT_3D('',#613,#489,#490);
#419=AXIS2_PLACEMENT_3D('',#615,#492,#493);
#420=AXIS2_PLACEMENT_3D('',#616,#494,#495);
#421=AXIS2_PLACEMENT_3D('',#617,#496,#497);
#422=AXIS2_PLACEMENT_3D('',#619,#498,#499);
#423=AXIS2_PLACEMENT_3D('',#622,#501,#502);
#424=AXIS2_PLACEMENT_3D('',#624,#504,#505);
#425=AXIS2_PLACEMENT_3D('',#625,#506,#507);
#426=AXIS2_PLACEMENT_3D('',#626,#508,#509);
#427=AXIS2_PLACEMENT_3D('',#627,#510,#511);
#428=AXIS2_PLACEMENT_3D('',#628,#512,#513);
#429=AXIS2_PLACEMENT_3D('',#634,#517,#518);
#430=AXIS2_PLACEMENT_3D('',#637,#520,#521);
#431=AXIS2_PLACEMENT_3D('',#639,#522,#523);
#432=AXIS2_PLACEMENT_3D('',#640,#524,#525);
#433=AXIS2_PLACEMENT_3D('',#644,#528,#529);
#434=AXIS2_PLACEMENT_3D('',#648,#532,#533);
#435=AXIS2_PLACEMENT_3D('',#651,#536,#537);
#436=AXIS2_PLACEMENT_3D('',#654,#539,#540);
#437=AXIS2_PLACEMENT_3D('',#655,#541,#542);
#438=AXIS2_PLACEMENT_3D('',#657,#543,#544);
#439=AXIS2_PLACEMENT_3D('',#660,#546,#547);
#440=AXIS2_PLACEMENT_3D('',#661,#548,#549);
#441=AXIS2_PLACEMENT_3D('',#663,#550,#551);
#442=AXIS2_PLACEMENT_3D('',#666,#553,#554);
#443=AXIS2_PLACEMENT_3D('',#667,#555,#556);
#444=AXIS2_PLACEMENT_3D('',#670,#558,#559);
#445=AXIS2_PLACEMENT_3D('',#671,#560,#561);
#446=AXIS2_PLACEMENT_3D('',#673,#562,#563);
#447=AXIS2_PLACEMENT_3D('',#676,#565,#566);
#448=AXIS2_PLACEMENT_3D('',#677,#567,#568);
#449=AXIS2_PLACEMENT_3D('',#678,#569,#570);
#450=DIRECTION('axis',(0.,0.,1.));
#451=DIRECTION('refdir',(1.,0.,0.));
#452=DIRECTION('center_axis',(1.21737555044118E-17,-1.,0.));
#453=DIRECTION('ref_axis',(-0.707106781186547,0.,0.707106781186548));
#454=DIRECTION('center_axis',(0.,1.,0.));
#455=DIRECTION('ref_axis',(-0.707106781186547,0.,0.707106781186548));
#456=DIRECTION('',(-1.21737555044118E-17,1.,0.));
#457=DIRECTION('center_axis',(0.,-1.,0.));
#458=DIRECTION('ref_axis',(0.,0.,1.));
#459=DIRECTION('',(1.21737555044118E-17,-1.,0.));
#460=DIRECTION('center_axis',(0.,1.,0.));
#461=DIRECTION('ref_axis',(-1.,0.,0.));
#462=DIRECTION('',(-1.21737555044118E-17,1.,0.));
#463=DIRECTION('center_axis',(0.,-1.,0.));
#464=DIRECTION('ref_axis',(-0.707106781186547,0.,0.707106781186548));
#465=DIRECTION('',(-1.21737555044118E-17,1.,0.));
#466=DIRECTION('center_axis',(1.,2.03938623241599E-17,0.));
#467=DIRECTION('ref_axis',(0.,-0.707106781186547,0.707106781186548));
#468=DIRECTION('center_axis',(1.,0.,0.));
#469=DIRECTION('ref_axis',(0.,0.,1.));
#470=DIRECTION('',(1.,2.03938623241599E-17,0.));
#471=DIRECTION('center_axis',(-1.,0.,0.));
#472=DIRECTION('ref_axis',(0.,-1.,0.));
#473=DIRECTION('',(-1.,-2.03938623241599E-17,0.));
#474=DIRECTION('center_axis',(-0.816496580927726,0.408248290463864,-0.408248290463862));
#475=DIRECTION('ref_axis',(-0.577350269189625,-0.577350269189628,0.577350269189625));
#476=DIRECTION('center_axis',(0.,0.,1.));
#477=DIRECTION('ref_axis',(-1.,-2.22044604925031E-15,0.));
#478=DIRECTION('center_axis',(0.,1.,0.));
#479=DIRECTION('ref_axis',(0.707106781186548,0.,0.707106781186547));
#480=DIRECTION('center_axis',(0.,-1.,0.));
#481=DIRECTION('ref_axis',(0.707106781186548,0.,0.707106781186547));
#482=DIRECTION('',(0.,-1.,0.));
#483=DIRECTION('center_axis',(-5.18067938085991E-16,1.,0.));
#484=DIRECTION('ref_axis',(0.,0.,1.));
#485=DIRECTION('',(0.,1.,0.));
#486=DIRECTION('center_axis',(0.,-1.,0.));
#487=DIRECTION('ref_axis',(1.,0.,0.));
#488=DIRECTION('',(0.,-1.,0.));
#489=DIRECTION('center_axis',(0.,1.,0.));
#490=DIRECTION('ref_axis',(0.707106781186548,0.,0.707106781186547));
#491=DIRECTION('',(0.,-1.,0.));
#492=DIRECTION('center_axis',(-0.816496580927726,-0.408248290463863,0.408248290463863));
#493=DIRECTION('ref_axis',(0.577350269189625,-0.577350269189626,0.577350269189626));
#494=DIRECTION('center_axis',(0.,0.,1.));
#495=DIRECTION('ref_axis',(0.,-1.,0.));
#496=DIRECTION('center_axis',(-1.,0.,0.));
#497=DIRECTION('ref_axis',(0.,0.707106781186548,0.707106781186547));
#498=DIRECTION('center_axis',(-1.,0.,0.));
#499=DIRECTION('ref_axis',(0.,0.,1.));
#500=DIRECTION('',(-1.,0.,0.));
#501=DIRECTION('center_axis',(1.,0.,0.));
#502=DIRECTION('ref_axis',(0.,1.,0.));
#503=DIRECTION('',(1.,0.,0.));
#504=DIRECTION('center_axis',(-0.816496580927726,0.408248290463864,0.408248290463862));
#505=DIRECTION('ref_axis',(0.577350269189625,0.577350269189627,0.577350269189625));
#506=DIRECTION('center_axis',(0.,0.,1.));
#507=DIRECTION('ref_axis',(1.,0.,0.));
#508=DIRECTION('center_axis',(-0.408248290463858,0.408248290463855,-0.816496580927733));
#509=DIRECTION('ref_axis',(-0.577350269189632,0.577350269189628,0.577350269189618));
#510=DIRECTION('center_axis',(0.,0.,1.));
#511=DIRECTION('ref_axis',(-8.39606162372768E-15,1.,0.));
#512=DIRECTION('center_axis',(1.,3.64913042094424E-33,0.));
#513=DIRECTION('ref_axis',(-3.64913042094424E-33,1.,0.));
#514=DIRECTION('',(0.,0.,1.));
#515=DIRECTION('',(-3.64913042094424E-33,1.,0.));
#516=DIRECTION('',(0.,0.,1.));
#517=DIRECTION('center_axis',(0.,0.,1.));
#518=DIRECTION('ref_axis',(-1.,0.,0.));
#519=DIRECTION('',(-1.,0.,0.));
#520=DIRECTION('center_axis',(0.,0.,-1.));
#521=DIRECTION('ref_axis',(-1.,0.,0.));
#522=DIRECTION('center_axis',(0.,0.,-1.));
#523=DIRECTION('ref_axis',(-1.,0.,0.));
#524=DIRECTION('center_axis',(0.,1.,0.));
#525=DIRECTION('ref_axis',(-1.,0.,0.));
#526=DIRECTION('',(0.,0.,1.));
#527=DIRECTION('',(-1.,0.,0.));
#528=DIRECTION('center_axis',(-1.,0.,0.));
#529=DIRECTION('ref_axis',(0.,-1.,0.));
#530=DIRECTION('',(0.,0.,1.));
#531=DIRECTION('',(0.,-1.,0.));
#532=DIRECTION('center_axis',(0.,-1.,0.));
#533=DIRECTION('ref_axis',(1.,0.,0.));
#534=DIRECTION('',(1.,0.,0.));
#535=DIRECTION('',(1.,0.,0.));
#536=DIRECTION('center_axis',(0.,0.,1.));
#537=DIRECTION('ref_axis',(-1.,0.,0.));
#538=DIRECTION('',(0.,0.,-1.));
#539=DIRECTION('center_axis',(0.,0.,-1.));
#540=DIRECTION('ref_axis',(-1.,0.,0.));
#541=DIRECTION('center_axis',(0.,0.,1.));
#542=DIRECTION('ref_axis',(-1.,0.,0.));
#543=DIRECTION('center_axis',(0.,0.,-1.));
#544=DIRECTION('ref_axis',(-1.,0.,0.));
#545=DIRECTION('',(0.,0.,-1.));
#546=DIRECTION('center_axis',(0.,0.,-1.));
#547=DIRECTION('ref_axis',(-1.,0.,0.));
#548=DIRECTION('center_axis',(0.,0.,1.));
#549=DIRECTION('ref_axis',(-1.,0.,0.));
#550=DIRECTION('center_axis',(0.,0.,-1.));
#551=DIRECTION('ref_axis',(-1.,0.,0.));
#552=DIRECTION('',(0.,0.,-1.));
#553=DIRECTION('center_axis',(0.,0.,-1.));
#554=DIRECTION('ref_axis',(-1.,0.,0.));
#555=DIRECTION('center_axis',(0.,0.,1.));
#556=DIRECTION('ref_axis',(-1.,0.,0.));
#557=DIRECTION('',(0.,0.,-1.));
#558=DIRECTION('center_axis',(0.,0.,-1.));
#559=DIRECTION('ref_axis',(-1.,0.,0.));
#560=DIRECTION('center_axis',(0.,0.,1.));
#561=DIRECTION('ref_axis',(-1.,0.,0.));
#562=DIRECTION('center_axis',(0.,0.,-1.));
#563=DIRECTION('ref_axis',(-1.,0.,0.));
#564=DIRECTION('',(0.,0.,-1.));
#565=DIRECTION('center_axis',(0.,0.,-1.));
#566=DIRECTION('ref_axis',(-1.,0.,0.));
#567=DIRECTION('center_axis',(0.,0.,1.));
#568=DIRECTION('ref_axis',(-1.,0.,0.));
#569=DIRECTION('center_axis',(0.,0.,1.));
#570=DIRECTION('ref_axis',(-1.,0.,0.));
#571=CARTESIAN_POINT('',(0.,0.,0.));
#572=CARTESIAN_POINT('Origin',(0.560924656633015,85.5006044071228,13.));
#573=CARTESIAN_POINT('',(-9.73311501418727E-18,92.0000000968575,15.9470940822412));
#574=CARTESIAN_POINT('',(0.560924656633015,92.0000000968575,16.));
#575=CARTESIAN_POINT('Origin',(0.560924656633015,92.0000000968575,13.));
#576=CARTESIAN_POINT('',(0.560924656633013,114.000001743436,16.));
#577=CARTESIAN_POINT('',(0.560924656633015,85.5006044071228,16.));
#578=CARTESIAN_POINT('',(-2.43907534336699,114.000001743436,13.));
#579=CARTESIAN_POINT('Origin',(0.560924656633015,114.000001743436,13.));
#580=CARTESIAN_POINT('',(-2.43907534336698,0.00241239818350891,13.));
#581=CARTESIAN_POINT('',(-2.43907534336699,114.000001743436,13.));
#582=CARTESIAN_POINT('',(0.560924656633016,0.00241239818350891,16.));
#583=CARTESIAN_POINT('Origin',(0.560924656633016,0.00241239818350891,13.));
#584=CARTESIAN_POINT('',(0.560924656633013,6.50000009685755,16.));
#585=CARTESIAN_POINT('',(0.560924656633015,85.5006044071228,16.));
#586=CARTESIAN_POINT('',(-9.71110497305918E-18,6.50000009685755,15.9470940822412));
#587=CARTESIAN_POINT('Origin',(0.560924656633016,6.50000009685755,13.));
#588=CARTESIAN_POINT('',(0.,85.5006044071228,15.9470940822412));
#589=CARTESIAN_POINT('Origin',(14.170693701091,0.00241239818351335,13.));
#590=CARTESIAN_POINT('',(0.560924656633017,-2.99758760181649,13.));
#591=CARTESIAN_POINT('Origin',(0.560924656633017,0.00241239818351308,13.));
#592=CARTESIAN_POINT('',(55.000000834465,-2.99758760181648,13.));
#593=CARTESIAN_POINT('',(0.560924656633017,-2.99758760181649,13.));
#594=CARTESIAN_POINT('',(55.000000834465,0.00241239818351419,16.));
#595=CARTESIAN_POINT('Origin',(55.000000834465,0.00241239818351419,13.));
#596=CARTESIAN_POINT('',(14.170693701091,0.00241239818351335,16.));
#597=CARTESIAN_POINT('Origin',(0.560924656633017,0.00241239818351557,13.));
#598=CARTESIAN_POINT('Origin',(0.560924656633017,0.00241239818351557,13.));
#599=CARTESIAN_POINT('Origin',(55.000000834465,28.5018097344966,13.));
#600=CARTESIAN_POINT('',(56.,6.50000009685755,15.828427419774));
#601=CARTESIAN_POINT('',(55.000000834465,6.50000009685755,16.));
#602=CARTESIAN_POINT('Origin',(55.000000834465,6.50000009685755,13.));
#603=CARTESIAN_POINT('',(55.000000834465,28.5018097344966,16.));
#604=CARTESIAN_POINT('',(58.000000834465,0.00241239818351491,13.));
#605=CARTESIAN_POINT('Origin',(55.000000834465,0.00241239818351335,13.));
#606=CARTESIAN_POINT('',(58.000000834465,114.000001743436,13.));
#607=CARTESIAN_POINT('',(58.000000834465,0.00241239818351491,13.));
#608=CARTESIAN_POINT('',(55.000000834465,114.000001743436,16.));
#609=CARTESIAN_POINT('Origin',(55.000000834465,114.000001743436,13.));
#610=CARTESIAN_POINT('',(55.000000834465,92.0000000968575,16.));
#611=CARTESIAN_POINT('',(55.000000834465,28.5018097344966,16.));
#612=CARTESIAN_POINT('',(56.,92.0000000968575,15.828427419774));
#613=CARTESIAN_POINT('Origin',(55.000000834465,92.0000000968575,13.));
#614=CARTESIAN_POINT('',(56.,28.5018097344966,15.828427419774));
#615=CARTESIAN_POINT('Origin',(55.000000834465,0.00241239818351557,13.));
#616=CARTESIAN_POINT('Origin',(55.000000834465,0.00241239818351557,13.));
#617=CARTESIAN_POINT('Origin',(41.390231790007,114.000001743436,13.));
#618=CARTESIAN_POINT('',(55.000000834465,117.000001743436,13.));
#619=CARTESIAN_POINT('Origin',(55.000000834465,114.000001743436,13.));
#620=CARTESIAN_POINT('',(0.560924656633013,117.000001743436,13.));
#621=CARTESIAN_POINT('',(55.000000834465,117.000001743436,13.));
#622=CARTESIAN_POINT('Origin',(0.560924656633013,114.000001743436,13.));
#623=CARTESIAN_POINT('',(41.390231790007,114.000001743436,16.));
#624=CARTESIAN_POINT('Origin',(55.000000834465,114.000001743436,13.));
#625=CARTESIAN_POINT('Origin',(55.000000834465,114.000001743436,13.));
#626=CARTESIAN_POINT('Origin',(0.560924656633039,114.000001743436,13.));
#627=CARTESIAN_POINT('Origin',(0.560924656633039,114.000001743436,13.));
#628=CARTESIAN_POINT('Origin',(0.,6.50000009685755,13.));
#629=CARTESIAN_POINT('',(0.,6.50000009685755,13.));
#630=CARTESIAN_POINT('',(0.,6.50000009685755,13.));
#631=CARTESIAN_POINT('',(-3.12000650990732E-31,92.0000000968575,13.));
#632=CARTESIAN_POINT('',(0.,6.50000009685755,13.));
#633=CARTESIAN_POINT('',(-3.12000650990732E-31,92.0000000968575,13.));
#634=CARTESIAN_POINT('Origin',(27.780462745549,57.0012070708097,16.));
#635=CARTESIAN_POINT('',(56.,6.50000009685755,16.));
#636=CARTESIAN_POINT('',(54.150000782311,3.00000004470348,16.));
#637=CARTESIAN_POINT('Origin',(52.500000782311,3.00000004470348,16.));
#638=CARTESIAN_POINT('',(4.65000004470348,3.00000004470348,16.));
#639=CARTESIAN_POINT('Origin',(3.00000004470348,3.00000004470348,16.));
#640=CARTESIAN_POINT('Origin',(56.,6.50000009685755,13.));
#641=CARTESIAN_POINT('',(56.,6.50000009685755,13.));
#642=CARTESIAN_POINT('',(56.,6.50000009685755,13.));
#643=CARTESIAN_POINT('',(56.,6.50000009685755,13.));
#644=CARTESIAN_POINT('Origin',(56.,92.0000000968575,13.));
#645=CARTESIAN_POINT('',(56.,92.0000000968575,13.));
#646=CARTESIAN_POINT('',(56.,92.0000000968575,13.));
#647=CARTESIAN_POINT('',(56.,92.0000000968575,13.));
#648=CARTESIAN_POINT('Origin',(-3.12000650990732E-31,92.0000000968575,13.));
#649=CARTESIAN_POINT('',(-3.12000650990732E-31,92.0000000968575,13.));
#650=CARTESIAN_POINT('',(-3.12000650990732E-31,92.0000000968575,16.));
#651=CARTESIAN_POINT('Origin',(3.00000004470348,3.00000004470348,13.));
#652=CARTESIAN_POINT('',(4.65000004470348,3.00000004470348,13.));
#653=CARTESIAN_POINT('',(4.65000004470348,3.00000004470348,13.));
#654=CARTESIAN_POINT('Origin',(3.00000004470348,3.00000004470348,13.));
#655=CARTESIAN_POINT('Origin',(52.500000782311,95.0000014156103,13.));
#656=CARTESIAN_POINT('',(54.150000782311,95.0000014156103,16.));
#657=CARTESIAN_POINT('Origin',(52.500000782311,95.0000014156103,16.));
#658=CARTESIAN_POINT('',(54.150000782311,95.0000014156103,13.));
#659=CARTESIAN_POINT('',(54.150000782311,95.0000014156103,13.));
#660=CARTESIAN_POINT('Origin',(52.500000782311,95.0000014156103,13.));
#661=CARTESIAN_POINT('Origin',(29.4458743815786,106.645098649506,13.));
#662=CARTESIAN_POINT('',(32.9458743815786,106.645098649506,16.));
#663=CARTESIAN_POINT('Origin',(29.4458743815786,106.645098649506,16.));
#664=CARTESIAN_POINT('',(32.9458743815786,106.645098649506,13.));
#665=CARTESIAN_POINT('',(32.9458743815786,106.645098649506,13.));
#666=CARTESIAN_POINT('Origin',(29.4458743815786,106.645098649506,13.));
#667=CARTESIAN_POINT('Origin',(52.500000782311,3.00000004470348,13.));
#668=CARTESIAN_POINT('',(54.150000782311,3.00000004470348,13.));
#669=CARTESIAN_POINT('',(54.150000782311,3.00000004470348,13.));
#670=CARTESIAN_POINT('Origin',(52.500000782311,3.00000004470348,13.));
#671=CARTESIAN_POINT('Origin',(3.00000004470348,95.0000014156103,13.));
#672=CARTESIAN_POINT('',(4.65000004470348,95.0000014156103,16.));
#673=CARTESIAN_POINT('Origin',(3.00000004470348,95.0000014156103,16.));
#674=CARTESIAN_POINT('',(4.65000004470348,95.0000014156103,13.));
#675=CARTESIAN_POINT('',(4.65000004470348,95.0000014156103,13.));
#676=CARTESIAN_POINT('Origin',(3.00000004470348,95.0000014156103,13.));
#677=CARTESIAN_POINT('Origin',(27.780462745549,57.0012070708097,16.));
#678=CARTESIAN_POINT('Origin',(27.780462745549,57.0012070708097,13.));
#679=UNCERTAINTY_MEASURE_WITH_UNIT(LENGTH_MEASURE(0.01),#683,
'DISTANCE_ACCURACY_VALUE',
'Maximum model space distance between geometric entities at asserted c
onnectivities');
#680=UNCERTAINTY_MEASURE_WITH_UNIT(LENGTH_MEASURE(0.01),#683,
'DISTANCE_ACCURACY_VALUE',
'Maximum model space distance between geometric entities at asserted c
onnectivities');
#681=(
GEOMETRIC_REPRESENTATION_CONTEXT(3)
GLOBAL_UNCERTAINTY_ASSIGNED_CONTEXT((#679))
GLOBAL_UNIT_ASSIGNED_CONTEXT((#683,#685,#686))
REPRESENTATION_CONTEXT('','3D')
);
#682=(
GEOMETRIC_REPRESENTATION_CONTEXT(3)
GLOBAL_UNCERTAINTY_ASSIGNED_CONTEXT((#680))
GLOBAL_UNIT_ASSIGNED_CONTEXT((#683,#685,#686))
REPRESENTATION_CONTEXT('','3D')
);
#683=(
LENGTH_UNIT()
NAMED_UNIT(*)
SI_UNIT(.MILLI.,.METRE.)
);
#684=(
LENGTH_UNIT()
NAMED_UNIT(*)
SI_UNIT($,.METRE.)
);
#685=(
NAMED_UNIT(*)
PLANE_ANGLE_UNIT()
SI_UNIT($,.RADIAN.)
);
#686=(
NAMED_UNIT(*)
SI_UNIT($,.STERADIAN.)
SOLID_ANGLE_UNIT()
);
#687=SHAPE_DEFINITION_REPRESENTATION(#688,#689);
#688=PRODUCT_DEFINITION_SHAPE('',$,#691);
#689=SHAPE_REPRESENTATION('',(#403),#681);
#690=PRODUCT_DEFINITION_CONTEXT('part definition',#695,'design');
#691=PRODUCT_DEFINITION('case','case v5',#692,#690);
#692=PRODUCT_DEFINITION_FORMATION('',$,#697);
#693=PRODUCT_RELATED_PRODUCT_CATEGORY('case v5','case v5',(#697));
#694=APPLICATION_PROTOCOL_DEFINITION('international standard',
'automotive_design',2009,#695);
#695=APPLICATION_CONTEXT(
'Core Data for Automotive Mechanical Design Process');
#696=PRODUCT_CONTEXT('part definition',#695,'mechanical');
#697=PRODUCT('case','case v5',$,(#696));
#698=PRESENTATION_STYLE_ASSIGNMENT((#730));
#699=PRESENTATION_STYLE_ASSIGNMENT((#731));
#700=PRESENTATION_STYLE_ASSIGNMENT((#732));
#701=PRESENTATION_STYLE_ASSIGNMENT((#733));
#702=PRESENTATION_STYLE_ASSIGNMENT((#734));
#703=PRESENTATION_STYLE_ASSIGNMENT((#735));
#704=PRESENTATION_STYLE_ASSIGNMENT((#736));
#705=PRESENTATION_STYLE_ASSIGNMENT((#737));
#706=PRESENTATION_STYLE_ASSIGNMENT((#738));
#707=PRESENTATION_STYLE_ASSIGNMENT((#739));
#708=PRESENTATION_STYLE_ASSIGNMENT((#740));
#709=PRESENTATION_STYLE_ASSIGNMENT((#741));
#710=PRESENTATION_STYLE_ASSIGNMENT((#742));
#711=PRESENTATION_STYLE_ASSIGNMENT((#743));
#712=PRESENTATION_STYLE_ASSIGNMENT((#744));
#713=PRESENTATION_STYLE_ASSIGNMENT((#745));
#714=PRESENTATION_STYLE_ASSIGNMENT((#746));
#715=PRESENTATION_STYLE_ASSIGNMENT((#747));
#716=PRESENTATION_STYLE_ASSIGNMENT((#748));
#717=PRESENTATION_STYLE_ASSIGNMENT((#749));
#718=PRESENTATION_STYLE_ASSIGNMENT((#750));
#719=PRESENTATION_STYLE_ASSIGNMENT((#751));
#720=PRESENTATION_STYLE_ASSIGNMENT((#752));
#721=PRESENTATION_STYLE_ASSIGNMENT((#753));
#722=PRESENTATION_STYLE_ASSIGNMENT((#754));
#723=PRESENTATION_STYLE_ASSIGNMENT((#755));
#724=PRESENTATION_STYLE_ASSIGNMENT((#756));
#725=PRESENTATION_STYLE_ASSIGNMENT((#757));
#726=PRESENTATION_STYLE_ASSIGNMENT((#758));
#727=PRESENTATION_STYLE_ASSIGNMENT((#759));
#728=PRESENTATION_STYLE_ASSIGNMENT((#760));
#729=PRESENTATION_STYLE_ASSIGNMENT((#761));
#730=SURFACE_STYLE_USAGE(.BOTH.,#762);
#731=SURFACE_STYLE_USAGE(.BOTH.,#763);
#732=SURFACE_STYLE_USAGE(.BOTH.,#764);
#733=SURFACE_STYLE_USAGE(.BOTH.,#765);
#734=SURFACE_STYLE_USAGE(.BOTH.,#766);
#735=SURFACE_STYLE_USAGE(.BOTH.,#767);
#736=SURFACE_STYLE_USAGE(.BOTH.,#768);
#737=SURFACE_STYLE_USAGE(.BOTH.,#769);
#738=SURFACE_STYLE_USAGE(.BOTH.,#770);
#739=SURFACE_STYLE_USAGE(.BOTH.,#771);
#740=SURFACE_STYLE_USAGE(.BOTH.,#772);
#741=SURFACE_STYLE_USAGE(.BOTH.,#773);
#742=SURFACE_STYLE_USAGE(.BOTH.,#774);
#743=SURFACE_STYLE_USAGE(.BOTH.,#775);
#744=SURFACE_STYLE_USAGE(.BOTH.,#776);
#745=SURFACE_STYLE_USAGE(.BOTH.,#777);
#746=SURFACE_STYLE_USAGE(.BOTH.,#778);
#747=SURFACE_STYLE_USAGE(.BOTH.,#779);
#748=SURFACE_STYLE_USAGE(.BOTH.,#780);
#749=SURFACE_STYLE_USAGE(.BOTH.,#781);
#750=SURFACE_STYLE_USAGE(.BOTH.,#782);
#751=SURFACE_STYLE_USAGE(.BOTH.,#783);
#752=SURFACE_STYLE_USAGE(.BOTH.,#784);
#753=SURFACE_STYLE_USAGE(.BOTH.,#785);
#754=SURFACE_STYLE_USAGE(.BOTH.,#786);
#755=SURFACE_STYLE_USAGE(.BOTH.,#787);
#756=SURFACE_STYLE_USAGE(.BOTH.,#788);
#757=SURFACE_STYLE_USAGE(.BOTH.,#789);
#758=SURFACE_STYLE_USAGE(.BOTH.,#790);
#759=SURFACE_STYLE_USAGE(.BOTH.,#791);
#760=SURFACE_STYLE_USAGE(.BOTH.,#792);
#761=SURFACE_STYLE_USAGE(.BOTH.,#793);
#762=SURFACE_SIDE_STYLE('',(#794));
#763=SURFACE_SIDE_STYLE('',(#795));
#764=SURFACE_SIDE_STYLE('',(#796));
#765=SURFACE_SIDE_STYLE('',(#797));
#766=SURFACE_SIDE_STYLE('',(#798));
#767=SURFACE_SIDE_STYLE('',(#799));
#768=SURFACE_SIDE_STYLE('',(#800));
#769=SURFACE_SIDE_STYLE('',(#801));
#770=SURFACE_SIDE_STYLE('',(#802));
#771=SURFACE_SIDE_STYLE('',(#803));
#772=SURFACE_SIDE_STYLE('',(#804));
#773=SURFACE_SIDE_STYLE('',(#805));
#774=SURFACE_SIDE_STYLE('',(#806));
#775=SURFACE_SIDE_STYLE('',(#807));
#776=SURFACE_SIDE_STYLE('',(#808));
#777=SURFACE_SIDE_STYLE('',(#809));
#778=SURFACE_SIDE_STYLE('',(#810));
#779=SURFACE_SIDE_STYLE('',(#811));
#780=SURFACE_SIDE_STYLE('',(#812));
#781=SURFACE_SIDE_STYLE('',(#813));
#782=SURFACE_SIDE_STYLE('',(#814));
#783=SURFACE_SIDE_STYLE('',(#815));
#784=SURFACE_SIDE_STYLE('',(#816));
#785=SURFACE_SIDE_STYLE('',(#817));
#786=SURFACE_SIDE_STYLE('',(#818));
#787=SURFACE_SIDE_STYLE('',(#819));
#788=SURFACE_SIDE_STYLE('',(#820));
#789=SURFACE_SIDE_STYLE('',(#821));
#790=SURFACE_SIDE_STYLE('',(#822));
#791=SURFACE_SIDE_STYLE('',(#823));
#792=SURFACE_SIDE_STYLE('',(#824));
#793=SURFACE_SIDE_STYLE('',(#825));
#794=SURFACE_STYLE_FILL_AREA(#826);
#795=SURFACE_STYLE_FILL_AREA(#827);
#796=SURFACE_STYLE_FILL_AREA(#828);
#797=SURFACE_STYLE_FILL_AREA(#829);
#798=SURFACE_STYLE_FILL_AREA(#830);
#799=SURFACE_STYLE_FILL_AREA(#831);
#800=SURFACE_STYLE_FILL_AREA(#832);
#801=SURFACE_STYLE_FILL_AREA(#833);
#802=SURFACE_STYLE_FILL_AREA(#834);
#803=SURFACE_STYLE_FILL_AREA(#835);
#804=SURFACE_STYLE_FILL_AREA(#836);
#805=SURFACE_STYLE_FILL_AREA(#837);
#806=SURFACE_STYLE_FILL_AREA(#838);
#807=SURFACE_STYLE_FILL_AREA(#839);
#808=SURFACE_STYLE_FILL_AREA(#840);
#809=SURFACE_STYLE_FILL_AREA(#841);
#810=SURFACE_STYLE_FILL_AREA(#842);
#811=SURFACE_STYLE_FILL_AREA(#843);
#812=SURFACE_STYLE_FILL_AREA(#844);
#813=SURFACE_STYLE_FILL_AREA(#845);
#814=SURFACE_STYLE_FILL_AREA(#846);
#815=SURFACE_STYLE_FILL_AREA(#847);
#816=SURFACE_STYLE_FILL_AREA(#848);
#817=SURFACE_STYLE_FILL_AREA(#849);
#818=SURFACE_STYLE_FILL_AREA(#850);
#819=SURFACE_STYLE_FILL_AREA(#851);
#820=SURFACE_STYLE_FILL_AREA(#852);
#821=SURFACE_STYLE_FILL_AREA(#853);
#822=SURFACE_STYLE_FILL_AREA(#854);
#823=SURFACE_STYLE_FILL_AREA(#855);
#824=SURFACE_STYLE_FILL_AREA(#856);
#825=SURFACE_STYLE_FILL_AREA(#857);
#826=FILL_AREA_STYLE('Steel - Satin',(#858));
#827=FILL_AREA_STYLE('Opaque(215,208,192)',(#859));
#828=FILL_AREA_STYLE('Opaque(25,25,25)',(#860));
#829=FILL_AREA_STYLE('Opaque(229,234,237)',(#861));
#830=FILL_AREA_STYLE('Opaque(165,132,0)',(#862));
#831=FILL_AREA_STYLE('Opaque(192,192,192)',(#863));
#832=FILL_AREA_STYLE('Opaque(196,196,196)',(#864));
#833=FILL_AREA_STYLE('Opaque(75,75,75)',(#865));
#834=FILL_AREA_STYLE('Opaque(255,255,255)',(#866));
#835=FILL_AREA_STYLE('Opaque(0,255,255)',(#867));
#836=FILL_AREA_STYLE('Opaque(64,64,64)',(#868));
#837=FILL_AREA_STYLE('Opaque(63,63,63)',(#869));
#838=FILL_AREA_STYLE('Opaque(217,217,217)',(#870));
#839=FILL_AREA_STYLE('Opaque(241,194,50)',(#871));
#840=FILL_AREA_STYLE('Opaque(191,144,0)',(#872));
#841=FILL_AREA_STYLE('Opaque(34,34,34)',(#873));
#842=FILL_AREA_STYLE('Opaque(210,209,199)',(#874));
#843=FILL_AREA_STYLE('Opaque(228,227,207)',(#875));
#844=FILL_AREA_STYLE('Opaque(21,22,24)',(#876));
#845=FILL_AREA_STYLE('Opaque(97,69,55)',(#877));
#846=FILL_AREA_STYLE('Opaque(202,209,238)',(#878));
#847=FILL_AREA_STYLE('Opaque(38,37,37)',(#879));
#848=FILL_AREA_STYLE('Opaque(176,169,152)',(#880));
#849=FILL_AREA_STYLE('Opaque(70,70,70)',(#881));
#850=FILL_AREA_STYLE('Opaque(128,128,128)',(#882));
#851=FILL_AREA_STYLE('Opaque(255,207,128)',(#883));
#852=FILL_AREA_STYLE('Opaque(0,0,255)',(#884));
#853=FILL_AREA_STYLE('Opaque(255,128,0)',(#885));
#854=FILL_AREA_STYLE('Opaque(255,0,255)',(#886));
#855=FILL_AREA_STYLE('Opaque(251,251,251)',(#887));
#856=FILL_AREA_STYLE('Opaque(52,52,52)',(#888));
#857=FILL_AREA_STYLE('Opaque(149,149,149)',(#889));
#858=FILL_AREA_STYLE_COLOUR('Steel - Satin',#890);
#859=FILL_AREA_STYLE_COLOUR('Opaque(215,208,192)',#891);
#860=FILL_AREA_STYLE_COLOUR('Opaque(25,25,25)',#892);
#861=FILL_AREA_STYLE_COLOUR('Opaque(229,234,237)',#893);
#862=FILL_AREA_STYLE_COLOUR('Opaque(165,132,0)',#894);
#863=FILL_AREA_STYLE_COLOUR('Opaque(192,192,192)',#895);
#864=FILL_AREA_STYLE_COLOUR('Opaque(196,196,196)',#896);
#865=FILL_AREA_STYLE_COLOUR('Opaque(75,75,75)',#897);
#866=FILL_AREA_STYLE_COLOUR('Opaque(255,255,255)',#898);
#867=FILL_AREA_STYLE_COLOUR('Opaque(0,255,255)',#899);
#868=FILL_AREA_STYLE_COLOUR('Opaque(64,64,64)',#900);
#869=FILL_AREA_STYLE_COLOUR('Opaque(63,63,63)',#901);
#870=FILL_AREA_STYLE_COLOUR('Opaque(217,217,217)',#902);
#871=FILL_AREA_STYLE_COLOUR('Opaque(241,194,50)',#903);
#872=FILL_AREA_STYLE_COLOUR('Opaque(191,144,0)',#904);
#873=FILL_AREA_STYLE_COLOUR('Opaque(34,34,34)',#905);
#874=FILL_AREA_STYLE_COLOUR('Opaque(210,209,199)',#906);
#875=FILL_AREA_STYLE_COLOUR('Opaque(228,227,207)',#907);
#876=FILL_AREA_STYLE_COLOUR('Opaque(21,22,24)',#908);
#877=FILL_AREA_STYLE_COLOUR('Opaque(97,69,55)',#909);
#878=FILL_AREA_STYLE_COLOUR('Opaque(202,209,238)',#910);
#879=FILL_AREA_STYLE_COLOUR('Opaque(38,37,37)',#911);
#880=FILL_AREA_STYLE_COLOUR('Opaque(176,169,152)',#912);
#881=FILL_AREA_STYLE_COLOUR('Opaque(70,70,70)',#913);
#882=FILL_AREA_STYLE_COLOUR('Opaque(128,128,128)',#914);
#883=FILL_AREA_STYLE_COLOUR('Opaque(255,207,128)',#915);
#884=FILL_AREA_STYLE_COLOUR('Opaque(0,0,255)',#916);
#885=FILL_AREA_STYLE_COLOUR('Opaque(255,128,0)',#917);
#886=FILL_AREA_STYLE_COLOUR('Opaque(255,0,255)',#918);
#887=FILL_AREA_STYLE_COLOUR('Opaque(251,251,251)',#919);
#888=FILL_AREA_STYLE_COLOUR('Opaque(52,52,52)',#920);
#889=FILL_AREA_STYLE_COLOUR('Opaque(149,149,149)',#921);
#890=COLOUR_RGB('Steel - Satin',0.627450980392157,0.627450980392157,0.627450980392157);
#891=COLOUR_RGB('Opaque(215,208,192)',0.843137254901961,0.815686274509804,
0.752941176470588);
#892=COLOUR_RGB('Opaque(25,25,25)',0.0980392156862745,0.0980392156862745,
0.0980392156862745);
#893=COLOUR_RGB('Opaque(229,234,237)',0.898039215686275,0.917647058823529,
0.929411764705882);
#894=COLOUR_RGB('Opaque(165,132,0)',0.647058823529412,0.517647058823529,
0.);
#895=COLOUR_RGB('Opaque(192,192,192)',0.752941176470588,0.752941176470588,
0.752941176470588);
#896=COLOUR_RGB('Opaque(196,196,196)',0.768627450980392,0.768627450980392,
0.768627450980392);
#897=COLOUR_RGB('Opaque(75,75,75)',0.294117647058824,0.294117647058824,
0.294117647058824);
#898=COLOUR_RGB('Opaque(255,255,255)',1.,1.,1.);
#899=COLOUR_RGB('Opaque(0,255,255)',0.,1.,1.);
#900=COLOUR_RGB('Opaque(64,64,64)',0.250980392156863,0.250980392156863,
0.250980392156863);
#901=COLOUR_RGB('Opaque(63,63,63)',0.250980392156863,0.250980392156863,
0.250980392156863);
#902=COLOUR_RGB('Opaque(217,217,217)',0.850980392156863,0.850980392156863,
0.850980392156863);
#903=COLOUR_RGB('Opaque(241,194,50)',0.945098039215686,0.76078431372549,
0.196078431372549);
#904=COLOUR_RGB('Opaque(191,144,0)',0.749019607843137,0.564705882352941,
0.);
#905=COLOUR_RGB('Opaque(34,34,34)',0.133333333333333,0.133333333333333,
0.133333333333333);
#906=COLOUR_RGB('Opaque(210,209,199)',0.823529411764706,0.819607843137255,
0.780392156862745);
#907=COLOUR_RGB('Opaque(228,227,207)',0.894117647058824,0.890196078431372,
0.811764705882353);
#908=COLOUR_RGB('Opaque(21,22,24)',0.0823529411764706,0.0862745098039216,
0.0941176470588235);
#909=COLOUR_RGB('Opaque(97,69,55)',0.380392156862745,0.270588235294118,
0.215686274509804);
#910=COLOUR_RGB('Opaque(202,209,238)',0.792156862745098,0.819607843137255,
0.933333333333333);
#911=COLOUR_RGB('Opaque(38,37,37)',0.149019607843137,0.145098039215686,
0.145098039215686);
#912=COLOUR_RGB('Opaque(176,169,152)',0.690196078431373,0.662745098039216,
0.596078431372549);
#913=COLOUR_RGB('Opaque(70,70,70)',0.274509803921569,0.274509803921569,
0.274509803921569);
#914=COLOUR_RGB('Opaque(128,128,128)',0.501960784313725,0.501960784313725,
0.501960784313725);
#915=COLOUR_RGB('Opaque(255,207,128)',1.,0.811764705882353,0.501960784313725);
#916=COLOUR_RGB('Opaque(0,0,255)',0.,0.,1.);
#917=COLOUR_RGB('Opaque(255,128,0)',1.,0.501960784313725,0.);
#918=COLOUR_RGB('Opaque(255,0,255)',1.,0.,1.);
#919=COLOUR_RGB('Opaque(251,251,251)',0.984313725490196,0.984313725490196,
0.984313725490196);
#920=COLOUR_RGB('Opaque(52,52,52)',0.203921568627451,0.203921568627451,
0.203921568627451);
#921=COLOUR_RGB('Opaque(149,149,149)',0.584313725490196,0.584313725490196,
0.584313725490196);
ENDSEC;
END-ISO-10303-21;
