%TF.GenerationSoftware,KiCad,Pcbnew,9.0.6*%
%TF.CreationDate,2026-01-02T14:19:04-05:00*%
%TF.ProjectId,spotify desk thing,73706f74-6966-4792-9064-65736b207468,rev?*%
%TF.SameCoordinates,Original*%
%TF.FileFunction,Legend,Top*%
%TF.FilePolarity,Positive*%
%FSLAX46Y46*%
G04 Gerber Fmt 4.6, Leading zero omitted, Abs format (unit mm)*
G04 Created by KiCad (PCBNEW 9.0.6) date 2026-01-02 14:19:04*
%MOMM*%
%LPD*%
G01*
G04 APERTURE LIST*
%ADD10C,0.150000*%
%ADD11C,0.080151*%
%ADD12C,0.120000*%
%ADD13C,0.127000*%
%ADD14C,0.200000*%
%ADD15C,0.152400*%
%ADD16C,0.508000*%
%ADD17C,0.000000*%
G04 APERTURE END LIST*
D10*
X121309243Y-171713346D02*
X122024659Y-171713346D01*
X122024659Y-171713346D02*
X122167743Y-171761040D01*
X122167743Y-171761040D02*
X122263132Y-171856429D01*
X122263132Y-171856429D02*
X122310826Y-171999512D01*
X122310826Y-171999512D02*
X122310826Y-172094901D01*
X121404632Y-171284096D02*
X121356937Y-171236401D01*
X121356937Y-171236401D02*
X121309243Y-171141013D01*
X121309243Y-171141013D02*
X121309243Y-170902540D01*
X121309243Y-170902540D02*
X121356937Y-170807152D01*
X121356937Y-170807152D02*
X121404632Y-170759457D01*
X121404632Y-170759457D02*
X121500021Y-170711763D01*
X121500021Y-170711763D02*
X121595410Y-170711763D01*
X121595410Y-170711763D02*
X121738493Y-170759457D01*
X121738493Y-170759457D02*
X122310826Y-171331790D01*
X122310826Y-171331790D02*
X122310826Y-170711763D01*
X148709819Y-168533333D02*
X149424104Y-168533333D01*
X149424104Y-168533333D02*
X149566961Y-168580952D01*
X149566961Y-168580952D02*
X149662200Y-168676190D01*
X149662200Y-168676190D02*
X149709819Y-168819047D01*
X149709819Y-168819047D02*
X149709819Y-168914285D01*
X148709819Y-168152380D02*
X148709819Y-167533333D01*
X148709819Y-167533333D02*
X149090771Y-167866666D01*
X149090771Y-167866666D02*
X149090771Y-167723809D01*
X149090771Y-167723809D02*
X149138390Y-167628571D01*
X149138390Y-167628571D02*
X149186009Y-167580952D01*
X149186009Y-167580952D02*
X149281247Y-167533333D01*
X149281247Y-167533333D02*
X149519342Y-167533333D01*
X149519342Y-167533333D02*
X149614580Y-167580952D01*
X149614580Y-167580952D02*
X149662200Y-167628571D01*
X149662200Y-167628571D02*
X149709819Y-167723809D01*
X149709819Y-167723809D02*
X149709819Y-168009523D01*
X149709819Y-168009523D02*
X149662200Y-168104761D01*
X149662200Y-168104761D02*
X149614580Y-168152380D01*
X148607142Y-174704819D02*
X148273809Y-174228628D01*
X148035714Y-174704819D02*
X148035714Y-173704819D01*
X148035714Y-173704819D02*
X148416666Y-173704819D01*
X148416666Y-173704819D02*
X148511904Y-173752438D01*
X148511904Y-173752438D02*
X148559523Y-173800057D01*
X148559523Y-173800057D02*
X148607142Y-173895295D01*
X148607142Y-173895295D02*
X148607142Y-174038152D01*
X148607142Y-174038152D02*
X148559523Y-174133390D01*
X148559523Y-174133390D02*
X148511904Y-174181009D01*
X148511904Y-174181009D02*
X148416666Y-174228628D01*
X148416666Y-174228628D02*
X148035714Y-174228628D01*
X149559523Y-174704819D02*
X148988095Y-174704819D01*
X149273809Y-174704819D02*
X149273809Y-173704819D01*
X149273809Y-173704819D02*
X149178571Y-173847676D01*
X149178571Y-173847676D02*
X149083333Y-173942914D01*
X149083333Y-173942914D02*
X148988095Y-173990533D01*
X150416666Y-174038152D02*
X150416666Y-174704819D01*
X150178571Y-173657200D02*
X149940476Y-174371485D01*
X149940476Y-174371485D02*
X150559523Y-174371485D01*
D11*
X112367549Y-164850092D02*
X112260682Y-164697424D01*
X112184348Y-164850092D02*
X112184348Y-164529489D01*
X112184348Y-164529489D02*
X112306482Y-164529489D01*
X112306482Y-164529489D02*
X112337016Y-164544756D01*
X112337016Y-164544756D02*
X112352282Y-164560023D01*
X112352282Y-164560023D02*
X112367549Y-164590557D01*
X112367549Y-164590557D02*
X112367549Y-164636357D01*
X112367549Y-164636357D02*
X112352282Y-164666891D01*
X112352282Y-164666891D02*
X112337016Y-164682157D01*
X112337016Y-164682157D02*
X112306482Y-164697424D01*
X112306482Y-164697424D02*
X112184348Y-164697424D01*
X112504951Y-164682157D02*
X112611818Y-164682157D01*
X112657619Y-164850092D02*
X112504951Y-164850092D01*
X112504951Y-164850092D02*
X112504951Y-164529489D01*
X112504951Y-164529489D02*
X112657619Y-164529489D01*
X112779753Y-164834826D02*
X112825553Y-164850092D01*
X112825553Y-164850092D02*
X112901887Y-164850092D01*
X112901887Y-164850092D02*
X112932421Y-164834826D01*
X112932421Y-164834826D02*
X112947688Y-164819559D01*
X112947688Y-164819559D02*
X112962954Y-164789025D01*
X112962954Y-164789025D02*
X112962954Y-164758491D01*
X112962954Y-164758491D02*
X112947688Y-164727958D01*
X112947688Y-164727958D02*
X112932421Y-164712691D01*
X112932421Y-164712691D02*
X112901887Y-164697424D01*
X112901887Y-164697424D02*
X112840820Y-164682157D01*
X112840820Y-164682157D02*
X112810286Y-164666891D01*
X112810286Y-164666891D02*
X112795020Y-164651624D01*
X112795020Y-164651624D02*
X112779753Y-164621090D01*
X112779753Y-164621090D02*
X112779753Y-164590557D01*
X112779753Y-164590557D02*
X112795020Y-164560023D01*
X112795020Y-164560023D02*
X112810286Y-164544756D01*
X112810286Y-164544756D02*
X112840820Y-164529489D01*
X112840820Y-164529489D02*
X112917154Y-164529489D01*
X112917154Y-164529489D02*
X112962954Y-164544756D01*
X113100356Y-164682157D02*
X113207223Y-164682157D01*
X113253024Y-164850092D02*
X113100356Y-164850092D01*
X113100356Y-164850092D02*
X113100356Y-164529489D01*
X113100356Y-164529489D02*
X113253024Y-164529489D01*
X113344624Y-164529489D02*
X113527826Y-164529489D01*
X113436225Y-164850092D02*
X113436225Y-164529489D01*
X113802628Y-164850092D02*
X113619427Y-164850092D01*
X113711028Y-164850092D02*
X113711028Y-164529489D01*
X113711028Y-164529489D02*
X113680494Y-164575290D01*
X113680494Y-164575290D02*
X113649960Y-164605823D01*
X113649960Y-164605823D02*
X113619427Y-164621090D01*
D10*
X133457142Y-150859580D02*
X133409523Y-150907200D01*
X133409523Y-150907200D02*
X133266666Y-150954819D01*
X133266666Y-150954819D02*
X133171428Y-150954819D01*
X133171428Y-150954819D02*
X133028571Y-150907200D01*
X133028571Y-150907200D02*
X132933333Y-150811961D01*
X132933333Y-150811961D02*
X132885714Y-150716723D01*
X132885714Y-150716723D02*
X132838095Y-150526247D01*
X132838095Y-150526247D02*
X132838095Y-150383390D01*
X132838095Y-150383390D02*
X132885714Y-150192914D01*
X132885714Y-150192914D02*
X132933333Y-150097676D01*
X132933333Y-150097676D02*
X133028571Y-150002438D01*
X133028571Y-150002438D02*
X133171428Y-149954819D01*
X133171428Y-149954819D02*
X133266666Y-149954819D01*
X133266666Y-149954819D02*
X133409523Y-150002438D01*
X133409523Y-150002438D02*
X133457142Y-150050057D01*
X134409523Y-150954819D02*
X133838095Y-150954819D01*
X134123809Y-150954819D02*
X134123809Y-149954819D01*
X134123809Y-149954819D02*
X134028571Y-150097676D01*
X134028571Y-150097676D02*
X133933333Y-150192914D01*
X133933333Y-150192914D02*
X133838095Y-150240533D01*
X135266666Y-149954819D02*
X135076190Y-149954819D01*
X135076190Y-149954819D02*
X134980952Y-150002438D01*
X134980952Y-150002438D02*
X134933333Y-150050057D01*
X134933333Y-150050057D02*
X134838095Y-150192914D01*
X134838095Y-150192914D02*
X134790476Y-150383390D01*
X134790476Y-150383390D02*
X134790476Y-150764342D01*
X134790476Y-150764342D02*
X134838095Y-150859580D01*
X134838095Y-150859580D02*
X134885714Y-150907200D01*
X134885714Y-150907200D02*
X134980952Y-150954819D01*
X134980952Y-150954819D02*
X135171428Y-150954819D01*
X135171428Y-150954819D02*
X135266666Y-150907200D01*
X135266666Y-150907200D02*
X135314285Y-150859580D01*
X135314285Y-150859580D02*
X135361904Y-150764342D01*
X135361904Y-150764342D02*
X135361904Y-150526247D01*
X135361904Y-150526247D02*
X135314285Y-150431009D01*
X135314285Y-150431009D02*
X135266666Y-150383390D01*
X135266666Y-150383390D02*
X135171428Y-150335771D01*
X135171428Y-150335771D02*
X134980952Y-150335771D01*
X134980952Y-150335771D02*
X134885714Y-150383390D01*
X134885714Y-150383390D02*
X134838095Y-150431009D01*
X134838095Y-150431009D02*
X134790476Y-150526247D01*
X136233333Y-144059580D02*
X136185714Y-144107200D01*
X136185714Y-144107200D02*
X136042857Y-144154819D01*
X136042857Y-144154819D02*
X135947619Y-144154819D01*
X135947619Y-144154819D02*
X135804762Y-144107200D01*
X135804762Y-144107200D02*
X135709524Y-144011961D01*
X135709524Y-144011961D02*
X135661905Y-143916723D01*
X135661905Y-143916723D02*
X135614286Y-143726247D01*
X135614286Y-143726247D02*
X135614286Y-143583390D01*
X135614286Y-143583390D02*
X135661905Y-143392914D01*
X135661905Y-143392914D02*
X135709524Y-143297676D01*
X135709524Y-143297676D02*
X135804762Y-143202438D01*
X135804762Y-143202438D02*
X135947619Y-143154819D01*
X135947619Y-143154819D02*
X136042857Y-143154819D01*
X136042857Y-143154819D02*
X136185714Y-143202438D01*
X136185714Y-143202438D02*
X136233333Y-143250057D01*
X136566667Y-143154819D02*
X137185714Y-143154819D01*
X137185714Y-143154819D02*
X136852381Y-143535771D01*
X136852381Y-143535771D02*
X136995238Y-143535771D01*
X136995238Y-143535771D02*
X137090476Y-143583390D01*
X137090476Y-143583390D02*
X137138095Y-143631009D01*
X137138095Y-143631009D02*
X137185714Y-143726247D01*
X137185714Y-143726247D02*
X137185714Y-143964342D01*
X137185714Y-143964342D02*
X137138095Y-144059580D01*
X137138095Y-144059580D02*
X137090476Y-144107200D01*
X137090476Y-144107200D02*
X136995238Y-144154819D01*
X136995238Y-144154819D02*
X136709524Y-144154819D01*
X136709524Y-144154819D02*
X136614286Y-144107200D01*
X136614286Y-144107200D02*
X136566667Y-144059580D01*
X147533333Y-137654819D02*
X147200000Y-137178628D01*
X146961905Y-137654819D02*
X146961905Y-136654819D01*
X146961905Y-136654819D02*
X147342857Y-136654819D01*
X147342857Y-136654819D02*
X147438095Y-136702438D01*
X147438095Y-136702438D02*
X147485714Y-136750057D01*
X147485714Y-136750057D02*
X147533333Y-136845295D01*
X147533333Y-136845295D02*
X147533333Y-136988152D01*
X147533333Y-136988152D02*
X147485714Y-137083390D01*
X147485714Y-137083390D02*
X147438095Y-137131009D01*
X147438095Y-137131009D02*
X147342857Y-137178628D01*
X147342857Y-137178628D02*
X146961905Y-137178628D01*
X147866667Y-136654819D02*
X148485714Y-136654819D01*
X148485714Y-136654819D02*
X148152381Y-137035771D01*
X148152381Y-137035771D02*
X148295238Y-137035771D01*
X148295238Y-137035771D02*
X148390476Y-137083390D01*
X148390476Y-137083390D02*
X148438095Y-137131009D01*
X148438095Y-137131009D02*
X148485714Y-137226247D01*
X148485714Y-137226247D02*
X148485714Y-137464342D01*
X148485714Y-137464342D02*
X148438095Y-137559580D01*
X148438095Y-137559580D02*
X148390476Y-137607200D01*
X148390476Y-137607200D02*
X148295238Y-137654819D01*
X148295238Y-137654819D02*
X148009524Y-137654819D01*
X148009524Y-137654819D02*
X147914286Y-137607200D01*
X147914286Y-137607200D02*
X147866667Y-137559580D01*
X132359580Y-152366666D02*
X132407200Y-152414285D01*
X132407200Y-152414285D02*
X132454819Y-152557142D01*
X132454819Y-152557142D02*
X132454819Y-152652380D01*
X132454819Y-152652380D02*
X132407200Y-152795237D01*
X132407200Y-152795237D02*
X132311961Y-152890475D01*
X132311961Y-152890475D02*
X132216723Y-152938094D01*
X132216723Y-152938094D02*
X132026247Y-152985713D01*
X132026247Y-152985713D02*
X131883390Y-152985713D01*
X131883390Y-152985713D02*
X131692914Y-152938094D01*
X131692914Y-152938094D02*
X131597676Y-152890475D01*
X131597676Y-152890475D02*
X131502438Y-152795237D01*
X131502438Y-152795237D02*
X131454819Y-152652380D01*
X131454819Y-152652380D02*
X131454819Y-152557142D01*
X131454819Y-152557142D02*
X131502438Y-152414285D01*
X131502438Y-152414285D02*
X131550057Y-152366666D01*
X131788152Y-151509523D02*
X132454819Y-151509523D01*
X131407200Y-151747618D02*
X132121485Y-151985713D01*
X132121485Y-151985713D02*
X132121485Y-151366666D01*
X130519580Y-155166666D02*
X130567200Y-155214285D01*
X130567200Y-155214285D02*
X130614819Y-155357142D01*
X130614819Y-155357142D02*
X130614819Y-155452380D01*
X130614819Y-155452380D02*
X130567200Y-155595237D01*
X130567200Y-155595237D02*
X130471961Y-155690475D01*
X130471961Y-155690475D02*
X130376723Y-155738094D01*
X130376723Y-155738094D02*
X130186247Y-155785713D01*
X130186247Y-155785713D02*
X130043390Y-155785713D01*
X130043390Y-155785713D02*
X129852914Y-155738094D01*
X129852914Y-155738094D02*
X129757676Y-155690475D01*
X129757676Y-155690475D02*
X129662438Y-155595237D01*
X129662438Y-155595237D02*
X129614819Y-155452380D01*
X129614819Y-155452380D02*
X129614819Y-155357142D01*
X129614819Y-155357142D02*
X129662438Y-155214285D01*
X129662438Y-155214285D02*
X129710057Y-155166666D01*
X129614819Y-154261904D02*
X129614819Y-154738094D01*
X129614819Y-154738094D02*
X130091009Y-154785713D01*
X130091009Y-154785713D02*
X130043390Y-154738094D01*
X130043390Y-154738094D02*
X129995771Y-154642856D01*
X129995771Y-154642856D02*
X129995771Y-154404761D01*
X129995771Y-154404761D02*
X130043390Y-154309523D01*
X130043390Y-154309523D02*
X130091009Y-154261904D01*
X130091009Y-154261904D02*
X130186247Y-154214285D01*
X130186247Y-154214285D02*
X130424342Y-154214285D01*
X130424342Y-154214285D02*
X130519580Y-154261904D01*
X130519580Y-154261904D02*
X130567200Y-154309523D01*
X130567200Y-154309523D02*
X130614819Y-154404761D01*
X130614819Y-154404761D02*
X130614819Y-154642856D01*
X130614819Y-154642856D02*
X130567200Y-154738094D01*
X130567200Y-154738094D02*
X130519580Y-154785713D01*
X123269580Y-149306666D02*
X123317200Y-149354285D01*
X123317200Y-149354285D02*
X123364819Y-149497142D01*
X123364819Y-149497142D02*
X123364819Y-149592380D01*
X123364819Y-149592380D02*
X123317200Y-149735237D01*
X123317200Y-149735237D02*
X123221961Y-149830475D01*
X123221961Y-149830475D02*
X123126723Y-149878094D01*
X123126723Y-149878094D02*
X122936247Y-149925713D01*
X122936247Y-149925713D02*
X122793390Y-149925713D01*
X122793390Y-149925713D02*
X122602914Y-149878094D01*
X122602914Y-149878094D02*
X122507676Y-149830475D01*
X122507676Y-149830475D02*
X122412438Y-149735237D01*
X122412438Y-149735237D02*
X122364819Y-149592380D01*
X122364819Y-149592380D02*
X122364819Y-149497142D01*
X122364819Y-149497142D02*
X122412438Y-149354285D01*
X122412438Y-149354285D02*
X122460057Y-149306666D01*
X122460057Y-148925713D02*
X122412438Y-148878094D01*
X122412438Y-148878094D02*
X122364819Y-148782856D01*
X122364819Y-148782856D02*
X122364819Y-148544761D01*
X122364819Y-148544761D02*
X122412438Y-148449523D01*
X122412438Y-148449523D02*
X122460057Y-148401904D01*
X122460057Y-148401904D02*
X122555295Y-148354285D01*
X122555295Y-148354285D02*
X122650533Y-148354285D01*
X122650533Y-148354285D02*
X122793390Y-148401904D01*
X122793390Y-148401904D02*
X123364819Y-148973332D01*
X123364819Y-148973332D02*
X123364819Y-148354285D01*
X125033333Y-156059580D02*
X124985714Y-156107200D01*
X124985714Y-156107200D02*
X124842857Y-156154819D01*
X124842857Y-156154819D02*
X124747619Y-156154819D01*
X124747619Y-156154819D02*
X124604762Y-156107200D01*
X124604762Y-156107200D02*
X124509524Y-156011961D01*
X124509524Y-156011961D02*
X124461905Y-155916723D01*
X124461905Y-155916723D02*
X124414286Y-155726247D01*
X124414286Y-155726247D02*
X124414286Y-155583390D01*
X124414286Y-155583390D02*
X124461905Y-155392914D01*
X124461905Y-155392914D02*
X124509524Y-155297676D01*
X124509524Y-155297676D02*
X124604762Y-155202438D01*
X124604762Y-155202438D02*
X124747619Y-155154819D01*
X124747619Y-155154819D02*
X124842857Y-155154819D01*
X124842857Y-155154819D02*
X124985714Y-155202438D01*
X124985714Y-155202438D02*
X125033333Y-155250057D01*
X125890476Y-155154819D02*
X125700000Y-155154819D01*
X125700000Y-155154819D02*
X125604762Y-155202438D01*
X125604762Y-155202438D02*
X125557143Y-155250057D01*
X125557143Y-155250057D02*
X125461905Y-155392914D01*
X125461905Y-155392914D02*
X125414286Y-155583390D01*
X125414286Y-155583390D02*
X125414286Y-155964342D01*
X125414286Y-155964342D02*
X125461905Y-156059580D01*
X125461905Y-156059580D02*
X125509524Y-156107200D01*
X125509524Y-156107200D02*
X125604762Y-156154819D01*
X125604762Y-156154819D02*
X125795238Y-156154819D01*
X125795238Y-156154819D02*
X125890476Y-156107200D01*
X125890476Y-156107200D02*
X125938095Y-156059580D01*
X125938095Y-156059580D02*
X125985714Y-155964342D01*
X125985714Y-155964342D02*
X125985714Y-155726247D01*
X125985714Y-155726247D02*
X125938095Y-155631009D01*
X125938095Y-155631009D02*
X125890476Y-155583390D01*
X125890476Y-155583390D02*
X125795238Y-155535771D01*
X125795238Y-155535771D02*
X125604762Y-155535771D01*
X125604762Y-155535771D02*
X125509524Y-155583390D01*
X125509524Y-155583390D02*
X125461905Y-155631009D01*
X125461905Y-155631009D02*
X125414286Y-155726247D01*
X126819580Y-149866666D02*
X126867200Y-149914285D01*
X126867200Y-149914285D02*
X126914819Y-150057142D01*
X126914819Y-150057142D02*
X126914819Y-150152380D01*
X126914819Y-150152380D02*
X126867200Y-150295237D01*
X126867200Y-150295237D02*
X126771961Y-150390475D01*
X126771961Y-150390475D02*
X126676723Y-150438094D01*
X126676723Y-150438094D02*
X126486247Y-150485713D01*
X126486247Y-150485713D02*
X126343390Y-150485713D01*
X126343390Y-150485713D02*
X126152914Y-150438094D01*
X126152914Y-150438094D02*
X126057676Y-150390475D01*
X126057676Y-150390475D02*
X125962438Y-150295237D01*
X125962438Y-150295237D02*
X125914819Y-150152380D01*
X125914819Y-150152380D02*
X125914819Y-150057142D01*
X125914819Y-150057142D02*
X125962438Y-149914285D01*
X125962438Y-149914285D02*
X126010057Y-149866666D01*
X125914819Y-149533332D02*
X125914819Y-148866666D01*
X125914819Y-148866666D02*
X126914819Y-149295237D01*
X149938095Y-149304820D02*
X149938095Y-150114343D01*
X149938095Y-150114343D02*
X149985714Y-150209581D01*
X149985714Y-150209581D02*
X150033333Y-150257201D01*
X150033333Y-150257201D02*
X150128571Y-150304820D01*
X150128571Y-150304820D02*
X150319047Y-150304820D01*
X150319047Y-150304820D02*
X150414285Y-150257201D01*
X150414285Y-150257201D02*
X150461904Y-150209581D01*
X150461904Y-150209581D02*
X150509523Y-150114343D01*
X150509523Y-150114343D02*
X150509523Y-149304820D01*
X151414285Y-149638153D02*
X151414285Y-150304820D01*
X151176190Y-149257201D02*
X150938095Y-149971486D01*
X150938095Y-149971486D02*
X151557142Y-149971486D01*
X142357142Y-151109580D02*
X142309523Y-151157200D01*
X142309523Y-151157200D02*
X142166666Y-151204819D01*
X142166666Y-151204819D02*
X142071428Y-151204819D01*
X142071428Y-151204819D02*
X141928571Y-151157200D01*
X141928571Y-151157200D02*
X141833333Y-151061961D01*
X141833333Y-151061961D02*
X141785714Y-150966723D01*
X141785714Y-150966723D02*
X141738095Y-150776247D01*
X141738095Y-150776247D02*
X141738095Y-150633390D01*
X141738095Y-150633390D02*
X141785714Y-150442914D01*
X141785714Y-150442914D02*
X141833333Y-150347676D01*
X141833333Y-150347676D02*
X141928571Y-150252438D01*
X141928571Y-150252438D02*
X142071428Y-150204819D01*
X142071428Y-150204819D02*
X142166666Y-150204819D01*
X142166666Y-150204819D02*
X142309523Y-150252438D01*
X142309523Y-150252438D02*
X142357142Y-150300057D01*
X143309523Y-151204819D02*
X142738095Y-151204819D01*
X143023809Y-151204819D02*
X143023809Y-150204819D01*
X143023809Y-150204819D02*
X142928571Y-150347676D01*
X142928571Y-150347676D02*
X142833333Y-150442914D01*
X142833333Y-150442914D02*
X142738095Y-150490533D01*
X143785714Y-151204819D02*
X143976190Y-151204819D01*
X143976190Y-151204819D02*
X144071428Y-151157200D01*
X144071428Y-151157200D02*
X144119047Y-151109580D01*
X144119047Y-151109580D02*
X144214285Y-150966723D01*
X144214285Y-150966723D02*
X144261904Y-150776247D01*
X144261904Y-150776247D02*
X144261904Y-150395295D01*
X144261904Y-150395295D02*
X144214285Y-150300057D01*
X144214285Y-150300057D02*
X144166666Y-150252438D01*
X144166666Y-150252438D02*
X144071428Y-150204819D01*
X144071428Y-150204819D02*
X143880952Y-150204819D01*
X143880952Y-150204819D02*
X143785714Y-150252438D01*
X143785714Y-150252438D02*
X143738095Y-150300057D01*
X143738095Y-150300057D02*
X143690476Y-150395295D01*
X143690476Y-150395295D02*
X143690476Y-150633390D01*
X143690476Y-150633390D02*
X143738095Y-150728628D01*
X143738095Y-150728628D02*
X143785714Y-150776247D01*
X143785714Y-150776247D02*
X143880952Y-150823866D01*
X143880952Y-150823866D02*
X144071428Y-150823866D01*
X144071428Y-150823866D02*
X144166666Y-150776247D01*
X144166666Y-150776247D02*
X144214285Y-150728628D01*
X144214285Y-150728628D02*
X144261904Y-150633390D01*
X123609580Y-142916666D02*
X123657200Y-142964285D01*
X123657200Y-142964285D02*
X123704819Y-143107142D01*
X123704819Y-143107142D02*
X123704819Y-143202380D01*
X123704819Y-143202380D02*
X123657200Y-143345237D01*
X123657200Y-143345237D02*
X123561961Y-143440475D01*
X123561961Y-143440475D02*
X123466723Y-143488094D01*
X123466723Y-143488094D02*
X123276247Y-143535713D01*
X123276247Y-143535713D02*
X123133390Y-143535713D01*
X123133390Y-143535713D02*
X122942914Y-143488094D01*
X122942914Y-143488094D02*
X122847676Y-143440475D01*
X122847676Y-143440475D02*
X122752438Y-143345237D01*
X122752438Y-143345237D02*
X122704819Y-143202380D01*
X122704819Y-143202380D02*
X122704819Y-143107142D01*
X122704819Y-143107142D02*
X122752438Y-142964285D01*
X122752438Y-142964285D02*
X122800057Y-142916666D01*
X123133390Y-142345237D02*
X123085771Y-142440475D01*
X123085771Y-142440475D02*
X123038152Y-142488094D01*
X123038152Y-142488094D02*
X122942914Y-142535713D01*
X122942914Y-142535713D02*
X122895295Y-142535713D01*
X122895295Y-142535713D02*
X122800057Y-142488094D01*
X122800057Y-142488094D02*
X122752438Y-142440475D01*
X122752438Y-142440475D02*
X122704819Y-142345237D01*
X122704819Y-142345237D02*
X122704819Y-142154761D01*
X122704819Y-142154761D02*
X122752438Y-142059523D01*
X122752438Y-142059523D02*
X122800057Y-142011904D01*
X122800057Y-142011904D02*
X122895295Y-141964285D01*
X122895295Y-141964285D02*
X122942914Y-141964285D01*
X122942914Y-141964285D02*
X123038152Y-142011904D01*
X123038152Y-142011904D02*
X123085771Y-142059523D01*
X123085771Y-142059523D02*
X123133390Y-142154761D01*
X123133390Y-142154761D02*
X123133390Y-142345237D01*
X123133390Y-142345237D02*
X123181009Y-142440475D01*
X123181009Y-142440475D02*
X123228628Y-142488094D01*
X123228628Y-142488094D02*
X123323866Y-142535713D01*
X123323866Y-142535713D02*
X123514342Y-142535713D01*
X123514342Y-142535713D02*
X123609580Y-142488094D01*
X123609580Y-142488094D02*
X123657200Y-142440475D01*
X123657200Y-142440475D02*
X123704819Y-142345237D01*
X123704819Y-142345237D02*
X123704819Y-142154761D01*
X123704819Y-142154761D02*
X123657200Y-142059523D01*
X123657200Y-142059523D02*
X123609580Y-142011904D01*
X123609580Y-142011904D02*
X123514342Y-141964285D01*
X123514342Y-141964285D02*
X123323866Y-141964285D01*
X123323866Y-141964285D02*
X123228628Y-142011904D01*
X123228628Y-142011904D02*
X123181009Y-142059523D01*
X123181009Y-142059523D02*
X123133390Y-142154761D01*
X147533333Y-139154819D02*
X147200000Y-138678628D01*
X146961905Y-139154819D02*
X146961905Y-138154819D01*
X146961905Y-138154819D02*
X147342857Y-138154819D01*
X147342857Y-138154819D02*
X147438095Y-138202438D01*
X147438095Y-138202438D02*
X147485714Y-138250057D01*
X147485714Y-138250057D02*
X147533333Y-138345295D01*
X147533333Y-138345295D02*
X147533333Y-138488152D01*
X147533333Y-138488152D02*
X147485714Y-138583390D01*
X147485714Y-138583390D02*
X147438095Y-138631009D01*
X147438095Y-138631009D02*
X147342857Y-138678628D01*
X147342857Y-138678628D02*
X146961905Y-138678628D01*
X148390476Y-138488152D02*
X148390476Y-139154819D01*
X148152381Y-138107200D02*
X147914286Y-138821485D01*
X147914286Y-138821485D02*
X148533333Y-138821485D01*
X135933333Y-151784819D02*
X135600000Y-151308628D01*
X135361905Y-151784819D02*
X135361905Y-150784819D01*
X135361905Y-150784819D02*
X135742857Y-150784819D01*
X135742857Y-150784819D02*
X135838095Y-150832438D01*
X135838095Y-150832438D02*
X135885714Y-150880057D01*
X135885714Y-150880057D02*
X135933333Y-150975295D01*
X135933333Y-150975295D02*
X135933333Y-151118152D01*
X135933333Y-151118152D02*
X135885714Y-151213390D01*
X135885714Y-151213390D02*
X135838095Y-151261009D01*
X135838095Y-151261009D02*
X135742857Y-151308628D01*
X135742857Y-151308628D02*
X135361905Y-151308628D01*
X136409524Y-151784819D02*
X136600000Y-151784819D01*
X136600000Y-151784819D02*
X136695238Y-151737200D01*
X136695238Y-151737200D02*
X136742857Y-151689580D01*
X136742857Y-151689580D02*
X136838095Y-151546723D01*
X136838095Y-151546723D02*
X136885714Y-151356247D01*
X136885714Y-151356247D02*
X136885714Y-150975295D01*
X136885714Y-150975295D02*
X136838095Y-150880057D01*
X136838095Y-150880057D02*
X136790476Y-150832438D01*
X136790476Y-150832438D02*
X136695238Y-150784819D01*
X136695238Y-150784819D02*
X136504762Y-150784819D01*
X136504762Y-150784819D02*
X136409524Y-150832438D01*
X136409524Y-150832438D02*
X136361905Y-150880057D01*
X136361905Y-150880057D02*
X136314286Y-150975295D01*
X136314286Y-150975295D02*
X136314286Y-151213390D01*
X136314286Y-151213390D02*
X136361905Y-151308628D01*
X136361905Y-151308628D02*
X136409524Y-151356247D01*
X136409524Y-151356247D02*
X136504762Y-151403866D01*
X136504762Y-151403866D02*
X136695238Y-151403866D01*
X136695238Y-151403866D02*
X136790476Y-151356247D01*
X136790476Y-151356247D02*
X136838095Y-151308628D01*
X136838095Y-151308628D02*
X136885714Y-151213390D01*
X133457142Y-149659580D02*
X133409523Y-149707200D01*
X133409523Y-149707200D02*
X133266666Y-149754819D01*
X133266666Y-149754819D02*
X133171428Y-149754819D01*
X133171428Y-149754819D02*
X133028571Y-149707200D01*
X133028571Y-149707200D02*
X132933333Y-149611961D01*
X132933333Y-149611961D02*
X132885714Y-149516723D01*
X132885714Y-149516723D02*
X132838095Y-149326247D01*
X132838095Y-149326247D02*
X132838095Y-149183390D01*
X132838095Y-149183390D02*
X132885714Y-148992914D01*
X132885714Y-148992914D02*
X132933333Y-148897676D01*
X132933333Y-148897676D02*
X133028571Y-148802438D01*
X133028571Y-148802438D02*
X133171428Y-148754819D01*
X133171428Y-148754819D02*
X133266666Y-148754819D01*
X133266666Y-148754819D02*
X133409523Y-148802438D01*
X133409523Y-148802438D02*
X133457142Y-148850057D01*
X134409523Y-149754819D02*
X133838095Y-149754819D01*
X134123809Y-149754819D02*
X134123809Y-148754819D01*
X134123809Y-148754819D02*
X134028571Y-148897676D01*
X134028571Y-148897676D02*
X133933333Y-148992914D01*
X133933333Y-148992914D02*
X133838095Y-149040533D01*
X135028571Y-148754819D02*
X135123809Y-148754819D01*
X135123809Y-148754819D02*
X135219047Y-148802438D01*
X135219047Y-148802438D02*
X135266666Y-148850057D01*
X135266666Y-148850057D02*
X135314285Y-148945295D01*
X135314285Y-148945295D02*
X135361904Y-149135771D01*
X135361904Y-149135771D02*
X135361904Y-149373866D01*
X135361904Y-149373866D02*
X135314285Y-149564342D01*
X135314285Y-149564342D02*
X135266666Y-149659580D01*
X135266666Y-149659580D02*
X135219047Y-149707200D01*
X135219047Y-149707200D02*
X135123809Y-149754819D01*
X135123809Y-149754819D02*
X135028571Y-149754819D01*
X135028571Y-149754819D02*
X134933333Y-149707200D01*
X134933333Y-149707200D02*
X134885714Y-149659580D01*
X134885714Y-149659580D02*
X134838095Y-149564342D01*
X134838095Y-149564342D02*
X134790476Y-149373866D01*
X134790476Y-149373866D02*
X134790476Y-149135771D01*
X134790476Y-149135771D02*
X134838095Y-148945295D01*
X134838095Y-148945295D02*
X134885714Y-148850057D01*
X134885714Y-148850057D02*
X134933333Y-148802438D01*
X134933333Y-148802438D02*
X135028571Y-148754819D01*
X144638095Y-170004819D02*
X144638095Y-170814342D01*
X144638095Y-170814342D02*
X144685714Y-170909580D01*
X144685714Y-170909580D02*
X144733333Y-170957200D01*
X144733333Y-170957200D02*
X144828571Y-171004819D01*
X144828571Y-171004819D02*
X145019047Y-171004819D01*
X145019047Y-171004819D02*
X145114285Y-170957200D01*
X145114285Y-170957200D02*
X145161904Y-170909580D01*
X145161904Y-170909580D02*
X145209523Y-170814342D01*
X145209523Y-170814342D02*
X145209523Y-170004819D01*
X146161904Y-170004819D02*
X145685714Y-170004819D01*
X145685714Y-170004819D02*
X145638095Y-170481009D01*
X145638095Y-170481009D02*
X145685714Y-170433390D01*
X145685714Y-170433390D02*
X145780952Y-170385771D01*
X145780952Y-170385771D02*
X146019047Y-170385771D01*
X146019047Y-170385771D02*
X146114285Y-170433390D01*
X146114285Y-170433390D02*
X146161904Y-170481009D01*
X146161904Y-170481009D02*
X146209523Y-170576247D01*
X146209523Y-170576247D02*
X146209523Y-170814342D01*
X146209523Y-170814342D02*
X146161904Y-170909580D01*
X146161904Y-170909580D02*
X146114285Y-170957200D01*
X146114285Y-170957200D02*
X146019047Y-171004819D01*
X146019047Y-171004819D02*
X145780952Y-171004819D01*
X145780952Y-171004819D02*
X145685714Y-170957200D01*
X145685714Y-170957200D02*
X145638095Y-170909580D01*
X108083333Y-166019580D02*
X108035714Y-166067200D01*
X108035714Y-166067200D02*
X107892857Y-166114819D01*
X107892857Y-166114819D02*
X107797619Y-166114819D01*
X107797619Y-166114819D02*
X107654762Y-166067200D01*
X107654762Y-166067200D02*
X107559524Y-165971961D01*
X107559524Y-165971961D02*
X107511905Y-165876723D01*
X107511905Y-165876723D02*
X107464286Y-165686247D01*
X107464286Y-165686247D02*
X107464286Y-165543390D01*
X107464286Y-165543390D02*
X107511905Y-165352914D01*
X107511905Y-165352914D02*
X107559524Y-165257676D01*
X107559524Y-165257676D02*
X107654762Y-165162438D01*
X107654762Y-165162438D02*
X107797619Y-165114819D01*
X107797619Y-165114819D02*
X107892857Y-165114819D01*
X107892857Y-165114819D02*
X108035714Y-165162438D01*
X108035714Y-165162438D02*
X108083333Y-165210057D01*
X109035714Y-166114819D02*
X108464286Y-166114819D01*
X108750000Y-166114819D02*
X108750000Y-165114819D01*
X108750000Y-165114819D02*
X108654762Y-165257676D01*
X108654762Y-165257676D02*
X108559524Y-165352914D01*
X108559524Y-165352914D02*
X108464286Y-165400533D01*
X137122856Y-149281676D02*
X137122856Y-148641676D01*
X137122856Y-148641676D02*
X137366666Y-148641676D01*
X137366666Y-148641676D02*
X137427618Y-148672152D01*
X137427618Y-148672152D02*
X137458095Y-148702628D01*
X137458095Y-148702628D02*
X137488571Y-148763580D01*
X137488571Y-148763580D02*
X137488571Y-148855009D01*
X137488571Y-148855009D02*
X137458095Y-148915961D01*
X137458095Y-148915961D02*
X137427618Y-148946438D01*
X137427618Y-148946438D02*
X137366666Y-148976914D01*
X137366666Y-148976914D02*
X137122856Y-148976914D01*
X137732380Y-149251200D02*
X137823809Y-149281676D01*
X137823809Y-149281676D02*
X137976190Y-149281676D01*
X137976190Y-149281676D02*
X138037142Y-149251200D01*
X138037142Y-149251200D02*
X138067618Y-149220723D01*
X138067618Y-149220723D02*
X138098095Y-149159771D01*
X138098095Y-149159771D02*
X138098095Y-149098819D01*
X138098095Y-149098819D02*
X138067618Y-149037866D01*
X138067618Y-149037866D02*
X138037142Y-149007390D01*
X138037142Y-149007390D02*
X137976190Y-148976914D01*
X137976190Y-148976914D02*
X137854285Y-148946438D01*
X137854285Y-148946438D02*
X137793333Y-148915961D01*
X137793333Y-148915961D02*
X137762856Y-148885485D01*
X137762856Y-148885485D02*
X137732380Y-148824533D01*
X137732380Y-148824533D02*
X137732380Y-148763580D01*
X137732380Y-148763580D02*
X137762856Y-148702628D01*
X137762856Y-148702628D02*
X137793333Y-148672152D01*
X137793333Y-148672152D02*
X137854285Y-148641676D01*
X137854285Y-148641676D02*
X138006666Y-148641676D01*
X138006666Y-148641676D02*
X138098095Y-148672152D01*
X138707619Y-149281676D02*
X138341904Y-149281676D01*
X138524761Y-149281676D02*
X138524761Y-148641676D01*
X138524761Y-148641676D02*
X138463809Y-148733104D01*
X138463809Y-148733104D02*
X138402857Y-148794057D01*
X138402857Y-148794057D02*
X138341904Y-148824533D01*
X132759580Y-145366666D02*
X132807200Y-145414285D01*
X132807200Y-145414285D02*
X132854819Y-145557142D01*
X132854819Y-145557142D02*
X132854819Y-145652380D01*
X132854819Y-145652380D02*
X132807200Y-145795237D01*
X132807200Y-145795237D02*
X132711961Y-145890475D01*
X132711961Y-145890475D02*
X132616723Y-145938094D01*
X132616723Y-145938094D02*
X132426247Y-145985713D01*
X132426247Y-145985713D02*
X132283390Y-145985713D01*
X132283390Y-145985713D02*
X132092914Y-145938094D01*
X132092914Y-145938094D02*
X131997676Y-145890475D01*
X131997676Y-145890475D02*
X131902438Y-145795237D01*
X131902438Y-145795237D02*
X131854819Y-145652380D01*
X131854819Y-145652380D02*
X131854819Y-145557142D01*
X131854819Y-145557142D02*
X131902438Y-145414285D01*
X131902438Y-145414285D02*
X131950057Y-145366666D01*
X132854819Y-144890475D02*
X132854819Y-144699999D01*
X132854819Y-144699999D02*
X132807200Y-144604761D01*
X132807200Y-144604761D02*
X132759580Y-144557142D01*
X132759580Y-144557142D02*
X132616723Y-144461904D01*
X132616723Y-144461904D02*
X132426247Y-144414285D01*
X132426247Y-144414285D02*
X132045295Y-144414285D01*
X132045295Y-144414285D02*
X131950057Y-144461904D01*
X131950057Y-144461904D02*
X131902438Y-144509523D01*
X131902438Y-144509523D02*
X131854819Y-144604761D01*
X131854819Y-144604761D02*
X131854819Y-144795237D01*
X131854819Y-144795237D02*
X131902438Y-144890475D01*
X131902438Y-144890475D02*
X131950057Y-144938094D01*
X131950057Y-144938094D02*
X132045295Y-144985713D01*
X132045295Y-144985713D02*
X132283390Y-144985713D01*
X132283390Y-144985713D02*
X132378628Y-144938094D01*
X132378628Y-144938094D02*
X132426247Y-144890475D01*
X132426247Y-144890475D02*
X132473866Y-144795237D01*
X132473866Y-144795237D02*
X132473866Y-144604761D01*
X132473866Y-144604761D02*
X132426247Y-144509523D01*
X132426247Y-144509523D02*
X132378628Y-144461904D01*
X132378628Y-144461904D02*
X132283390Y-144414285D01*
X134854819Y-144866666D02*
X134854819Y-145342856D01*
X134854819Y-145342856D02*
X133854819Y-145342856D01*
X134854819Y-144009523D02*
X134854819Y-144580951D01*
X134854819Y-144295237D02*
X133854819Y-144295237D01*
X133854819Y-144295237D02*
X133997676Y-144390475D01*
X133997676Y-144390475D02*
X134092914Y-144485713D01*
X134092914Y-144485713D02*
X134140533Y-144580951D01*
X124354819Y-151361904D02*
X125164342Y-151361904D01*
X125164342Y-151361904D02*
X125259580Y-151314285D01*
X125259580Y-151314285D02*
X125307200Y-151266666D01*
X125307200Y-151266666D02*
X125354819Y-151171428D01*
X125354819Y-151171428D02*
X125354819Y-150980952D01*
X125354819Y-150980952D02*
X125307200Y-150885714D01*
X125307200Y-150885714D02*
X125259580Y-150838095D01*
X125259580Y-150838095D02*
X125164342Y-150790476D01*
X125164342Y-150790476D02*
X124354819Y-150790476D01*
X124450057Y-150361904D02*
X124402438Y-150314285D01*
X124402438Y-150314285D02*
X124354819Y-150219047D01*
X124354819Y-150219047D02*
X124354819Y-149980952D01*
X124354819Y-149980952D02*
X124402438Y-149885714D01*
X124402438Y-149885714D02*
X124450057Y-149838095D01*
X124450057Y-149838095D02*
X124545295Y-149790476D01*
X124545295Y-149790476D02*
X124640533Y-149790476D01*
X124640533Y-149790476D02*
X124783390Y-149838095D01*
X124783390Y-149838095D02*
X125354819Y-150409523D01*
X125354819Y-150409523D02*
X125354819Y-149790476D01*
X136384819Y-159642857D02*
X135908628Y-159976190D01*
X136384819Y-160214285D02*
X135384819Y-160214285D01*
X135384819Y-160214285D02*
X135384819Y-159833333D01*
X135384819Y-159833333D02*
X135432438Y-159738095D01*
X135432438Y-159738095D02*
X135480057Y-159690476D01*
X135480057Y-159690476D02*
X135575295Y-159642857D01*
X135575295Y-159642857D02*
X135718152Y-159642857D01*
X135718152Y-159642857D02*
X135813390Y-159690476D01*
X135813390Y-159690476D02*
X135861009Y-159738095D01*
X135861009Y-159738095D02*
X135908628Y-159833333D01*
X135908628Y-159833333D02*
X135908628Y-160214285D01*
X136384819Y-158690476D02*
X136384819Y-159261904D01*
X136384819Y-158976190D02*
X135384819Y-158976190D01*
X135384819Y-158976190D02*
X135527676Y-159071428D01*
X135527676Y-159071428D02*
X135622914Y-159166666D01*
X135622914Y-159166666D02*
X135670533Y-159261904D01*
X135384819Y-158071428D02*
X135384819Y-157976190D01*
X135384819Y-157976190D02*
X135432438Y-157880952D01*
X135432438Y-157880952D02*
X135480057Y-157833333D01*
X135480057Y-157833333D02*
X135575295Y-157785714D01*
X135575295Y-157785714D02*
X135765771Y-157738095D01*
X135765771Y-157738095D02*
X136003866Y-157738095D01*
X136003866Y-157738095D02*
X136194342Y-157785714D01*
X136194342Y-157785714D02*
X136289580Y-157833333D01*
X136289580Y-157833333D02*
X136337200Y-157880952D01*
X136337200Y-157880952D02*
X136384819Y-157976190D01*
X136384819Y-157976190D02*
X136384819Y-158071428D01*
X136384819Y-158071428D02*
X136337200Y-158166666D01*
X136337200Y-158166666D02*
X136289580Y-158214285D01*
X136289580Y-158214285D02*
X136194342Y-158261904D01*
X136194342Y-158261904D02*
X136003866Y-158309523D01*
X136003866Y-158309523D02*
X135765771Y-158309523D01*
X135765771Y-158309523D02*
X135575295Y-158261904D01*
X135575295Y-158261904D02*
X135480057Y-158214285D01*
X135480057Y-158214285D02*
X135432438Y-158166666D01*
X135432438Y-158166666D02*
X135384819Y-158071428D01*
X124359580Y-149242857D02*
X124407200Y-149290476D01*
X124407200Y-149290476D02*
X124454819Y-149433333D01*
X124454819Y-149433333D02*
X124454819Y-149528571D01*
X124454819Y-149528571D02*
X124407200Y-149671428D01*
X124407200Y-149671428D02*
X124311961Y-149766666D01*
X124311961Y-149766666D02*
X124216723Y-149814285D01*
X124216723Y-149814285D02*
X124026247Y-149861904D01*
X124026247Y-149861904D02*
X123883390Y-149861904D01*
X123883390Y-149861904D02*
X123692914Y-149814285D01*
X123692914Y-149814285D02*
X123597676Y-149766666D01*
X123597676Y-149766666D02*
X123502438Y-149671428D01*
X123502438Y-149671428D02*
X123454819Y-149528571D01*
X123454819Y-149528571D02*
X123454819Y-149433333D01*
X123454819Y-149433333D02*
X123502438Y-149290476D01*
X123502438Y-149290476D02*
X123550057Y-149242857D01*
X124454819Y-148290476D02*
X124454819Y-148861904D01*
X124454819Y-148576190D02*
X123454819Y-148576190D01*
X123454819Y-148576190D02*
X123597676Y-148671428D01*
X123597676Y-148671428D02*
X123692914Y-148766666D01*
X123692914Y-148766666D02*
X123740533Y-148861904D01*
X124454819Y-147338095D02*
X124454819Y-147909523D01*
X124454819Y-147623809D02*
X123454819Y-147623809D01*
X123454819Y-147623809D02*
X123597676Y-147719047D01*
X123597676Y-147719047D02*
X123692914Y-147814285D01*
X123692914Y-147814285D02*
X123740533Y-147909523D01*
X121833333Y-136954819D02*
X121500000Y-136478628D01*
X121261905Y-136954819D02*
X121261905Y-135954819D01*
X121261905Y-135954819D02*
X121642857Y-135954819D01*
X121642857Y-135954819D02*
X121738095Y-136002438D01*
X121738095Y-136002438D02*
X121785714Y-136050057D01*
X121785714Y-136050057D02*
X121833333Y-136145295D01*
X121833333Y-136145295D02*
X121833333Y-136288152D01*
X121833333Y-136288152D02*
X121785714Y-136383390D01*
X121785714Y-136383390D02*
X121738095Y-136431009D01*
X121738095Y-136431009D02*
X121642857Y-136478628D01*
X121642857Y-136478628D02*
X121261905Y-136478628D01*
X122785714Y-136954819D02*
X122214286Y-136954819D01*
X122500000Y-136954819D02*
X122500000Y-135954819D01*
X122500000Y-135954819D02*
X122404762Y-136097676D01*
X122404762Y-136097676D02*
X122309524Y-136192914D01*
X122309524Y-136192914D02*
X122214286Y-136240533D01*
X95833333Y-161774819D02*
X95500000Y-161298628D01*
X95261905Y-161774819D02*
X95261905Y-160774819D01*
X95261905Y-160774819D02*
X95642857Y-160774819D01*
X95642857Y-160774819D02*
X95738095Y-160822438D01*
X95738095Y-160822438D02*
X95785714Y-160870057D01*
X95785714Y-160870057D02*
X95833333Y-160965295D01*
X95833333Y-160965295D02*
X95833333Y-161108152D01*
X95833333Y-161108152D02*
X95785714Y-161203390D01*
X95785714Y-161203390D02*
X95738095Y-161251009D01*
X95738095Y-161251009D02*
X95642857Y-161298628D01*
X95642857Y-161298628D02*
X95261905Y-161298628D01*
X96738095Y-160774819D02*
X96261905Y-160774819D01*
X96261905Y-160774819D02*
X96214286Y-161251009D01*
X96214286Y-161251009D02*
X96261905Y-161203390D01*
X96261905Y-161203390D02*
X96357143Y-161155771D01*
X96357143Y-161155771D02*
X96595238Y-161155771D01*
X96595238Y-161155771D02*
X96690476Y-161203390D01*
X96690476Y-161203390D02*
X96738095Y-161251009D01*
X96738095Y-161251009D02*
X96785714Y-161346247D01*
X96785714Y-161346247D02*
X96785714Y-161584342D01*
X96785714Y-161584342D02*
X96738095Y-161679580D01*
X96738095Y-161679580D02*
X96690476Y-161727200D01*
X96690476Y-161727200D02*
X96595238Y-161774819D01*
X96595238Y-161774819D02*
X96357143Y-161774819D01*
X96357143Y-161774819D02*
X96261905Y-161727200D01*
X96261905Y-161727200D02*
X96214286Y-161679580D01*
X147057142Y-140844819D02*
X146723809Y-140368628D01*
X146485714Y-140844819D02*
X146485714Y-139844819D01*
X146485714Y-139844819D02*
X146866666Y-139844819D01*
X146866666Y-139844819D02*
X146961904Y-139892438D01*
X146961904Y-139892438D02*
X147009523Y-139940057D01*
X147009523Y-139940057D02*
X147057142Y-140035295D01*
X147057142Y-140035295D02*
X147057142Y-140178152D01*
X147057142Y-140178152D02*
X147009523Y-140273390D01*
X147009523Y-140273390D02*
X146961904Y-140321009D01*
X146961904Y-140321009D02*
X146866666Y-140368628D01*
X146866666Y-140368628D02*
X146485714Y-140368628D01*
X148009523Y-140844819D02*
X147438095Y-140844819D01*
X147723809Y-140844819D02*
X147723809Y-139844819D01*
X147723809Y-139844819D02*
X147628571Y-139987676D01*
X147628571Y-139987676D02*
X147533333Y-140082914D01*
X147533333Y-140082914D02*
X147438095Y-140130533D01*
X148390476Y-139940057D02*
X148438095Y-139892438D01*
X148438095Y-139892438D02*
X148533333Y-139844819D01*
X148533333Y-139844819D02*
X148771428Y-139844819D01*
X148771428Y-139844819D02*
X148866666Y-139892438D01*
X148866666Y-139892438D02*
X148914285Y-139940057D01*
X148914285Y-139940057D02*
X148961904Y-140035295D01*
X148961904Y-140035295D02*
X148961904Y-140130533D01*
X148961904Y-140130533D02*
X148914285Y-140273390D01*
X148914285Y-140273390D02*
X148342857Y-140844819D01*
X148342857Y-140844819D02*
X148961904Y-140844819D01*
D11*
X100398082Y-164682157D02*
X100443883Y-164697424D01*
X100443883Y-164697424D02*
X100459149Y-164712691D01*
X100459149Y-164712691D02*
X100474416Y-164743225D01*
X100474416Y-164743225D02*
X100474416Y-164789025D01*
X100474416Y-164789025D02*
X100459149Y-164819559D01*
X100459149Y-164819559D02*
X100443883Y-164834826D01*
X100443883Y-164834826D02*
X100413349Y-164850092D01*
X100413349Y-164850092D02*
X100291215Y-164850092D01*
X100291215Y-164850092D02*
X100291215Y-164529489D01*
X100291215Y-164529489D02*
X100398082Y-164529489D01*
X100398082Y-164529489D02*
X100428616Y-164544756D01*
X100428616Y-164544756D02*
X100443883Y-164560023D01*
X100443883Y-164560023D02*
X100459149Y-164590557D01*
X100459149Y-164590557D02*
X100459149Y-164621090D01*
X100459149Y-164621090D02*
X100443883Y-164651624D01*
X100443883Y-164651624D02*
X100428616Y-164666891D01*
X100428616Y-164666891D02*
X100398082Y-164682157D01*
X100398082Y-164682157D02*
X100291215Y-164682157D01*
X100672885Y-164529489D02*
X100733952Y-164529489D01*
X100733952Y-164529489D02*
X100764486Y-164544756D01*
X100764486Y-164544756D02*
X100795019Y-164575290D01*
X100795019Y-164575290D02*
X100810286Y-164636357D01*
X100810286Y-164636357D02*
X100810286Y-164743225D01*
X100810286Y-164743225D02*
X100795019Y-164804292D01*
X100795019Y-164804292D02*
X100764486Y-164834826D01*
X100764486Y-164834826D02*
X100733952Y-164850092D01*
X100733952Y-164850092D02*
X100672885Y-164850092D01*
X100672885Y-164850092D02*
X100642351Y-164834826D01*
X100642351Y-164834826D02*
X100611818Y-164804292D01*
X100611818Y-164804292D02*
X100596551Y-164743225D01*
X100596551Y-164743225D02*
X100596551Y-164636357D01*
X100596551Y-164636357D02*
X100611818Y-164575290D01*
X100611818Y-164575290D02*
X100642351Y-164544756D01*
X100642351Y-164544756D02*
X100672885Y-164529489D01*
X101008755Y-164529489D02*
X101069822Y-164529489D01*
X101069822Y-164529489D02*
X101100356Y-164544756D01*
X101100356Y-164544756D02*
X101130889Y-164575290D01*
X101130889Y-164575290D02*
X101146156Y-164636357D01*
X101146156Y-164636357D02*
X101146156Y-164743225D01*
X101146156Y-164743225D02*
X101130889Y-164804292D01*
X101130889Y-164804292D02*
X101100356Y-164834826D01*
X101100356Y-164834826D02*
X101069822Y-164850092D01*
X101069822Y-164850092D02*
X101008755Y-164850092D01*
X101008755Y-164850092D02*
X100978221Y-164834826D01*
X100978221Y-164834826D02*
X100947688Y-164804292D01*
X100947688Y-164804292D02*
X100932421Y-164743225D01*
X100932421Y-164743225D02*
X100932421Y-164636357D01*
X100932421Y-164636357D02*
X100947688Y-164575290D01*
X100947688Y-164575290D02*
X100978221Y-164544756D01*
X100978221Y-164544756D02*
X101008755Y-164529489D01*
X101237757Y-164529489D02*
X101420959Y-164529489D01*
X101329358Y-164850092D02*
X101329358Y-164529489D01*
X101695761Y-164850092D02*
X101512560Y-164850092D01*
X101604161Y-164850092D02*
X101604161Y-164529489D01*
X101604161Y-164529489D02*
X101573627Y-164575290D01*
X101573627Y-164575290D02*
X101543093Y-164605823D01*
X101543093Y-164605823D02*
X101512560Y-164621090D01*
D10*
X117269580Y-151642857D02*
X117317200Y-151690476D01*
X117317200Y-151690476D02*
X117364819Y-151833333D01*
X117364819Y-151833333D02*
X117364819Y-151928571D01*
X117364819Y-151928571D02*
X117317200Y-152071428D01*
X117317200Y-152071428D02*
X117221961Y-152166666D01*
X117221961Y-152166666D02*
X117126723Y-152214285D01*
X117126723Y-152214285D02*
X116936247Y-152261904D01*
X116936247Y-152261904D02*
X116793390Y-152261904D01*
X116793390Y-152261904D02*
X116602914Y-152214285D01*
X116602914Y-152214285D02*
X116507676Y-152166666D01*
X116507676Y-152166666D02*
X116412438Y-152071428D01*
X116412438Y-152071428D02*
X116364819Y-151928571D01*
X116364819Y-151928571D02*
X116364819Y-151833333D01*
X116364819Y-151833333D02*
X116412438Y-151690476D01*
X116412438Y-151690476D02*
X116460057Y-151642857D01*
X117364819Y-150690476D02*
X117364819Y-151261904D01*
X117364819Y-150976190D02*
X116364819Y-150976190D01*
X116364819Y-150976190D02*
X116507676Y-151071428D01*
X116507676Y-151071428D02*
X116602914Y-151166666D01*
X116602914Y-151166666D02*
X116650533Y-151261904D01*
X116460057Y-150309523D02*
X116412438Y-150261904D01*
X116412438Y-150261904D02*
X116364819Y-150166666D01*
X116364819Y-150166666D02*
X116364819Y-149928571D01*
X116364819Y-149928571D02*
X116412438Y-149833333D01*
X116412438Y-149833333D02*
X116460057Y-149785714D01*
X116460057Y-149785714D02*
X116555295Y-149738095D01*
X116555295Y-149738095D02*
X116650533Y-149738095D01*
X116650533Y-149738095D02*
X116793390Y-149785714D01*
X116793390Y-149785714D02*
X117364819Y-150357142D01*
X117364819Y-150357142D02*
X117364819Y-149738095D01*
X121969580Y-149782857D02*
X122017200Y-149830476D01*
X122017200Y-149830476D02*
X122064819Y-149973333D01*
X122064819Y-149973333D02*
X122064819Y-150068571D01*
X122064819Y-150068571D02*
X122017200Y-150211428D01*
X122017200Y-150211428D02*
X121921961Y-150306666D01*
X121921961Y-150306666D02*
X121826723Y-150354285D01*
X121826723Y-150354285D02*
X121636247Y-150401904D01*
X121636247Y-150401904D02*
X121493390Y-150401904D01*
X121493390Y-150401904D02*
X121302914Y-150354285D01*
X121302914Y-150354285D02*
X121207676Y-150306666D01*
X121207676Y-150306666D02*
X121112438Y-150211428D01*
X121112438Y-150211428D02*
X121064819Y-150068571D01*
X121064819Y-150068571D02*
X121064819Y-149973333D01*
X121064819Y-149973333D02*
X121112438Y-149830476D01*
X121112438Y-149830476D02*
X121160057Y-149782857D01*
X122064819Y-148830476D02*
X122064819Y-149401904D01*
X122064819Y-149116190D02*
X121064819Y-149116190D01*
X121064819Y-149116190D02*
X121207676Y-149211428D01*
X121207676Y-149211428D02*
X121302914Y-149306666D01*
X121302914Y-149306666D02*
X121350533Y-149401904D01*
X121064819Y-148497142D02*
X121064819Y-147878095D01*
X121064819Y-147878095D02*
X121445771Y-148211428D01*
X121445771Y-148211428D02*
X121445771Y-148068571D01*
X121445771Y-148068571D02*
X121493390Y-147973333D01*
X121493390Y-147973333D02*
X121541009Y-147925714D01*
X121541009Y-147925714D02*
X121636247Y-147878095D01*
X121636247Y-147878095D02*
X121874342Y-147878095D01*
X121874342Y-147878095D02*
X121969580Y-147925714D01*
X121969580Y-147925714D02*
X122017200Y-147973333D01*
X122017200Y-147973333D02*
X122064819Y-148068571D01*
X122064819Y-148068571D02*
X122064819Y-148354285D01*
X122064819Y-148354285D02*
X122017200Y-148449523D01*
X122017200Y-148449523D02*
X121969580Y-148497142D01*
X124059580Y-153942857D02*
X124107200Y-153990476D01*
X124107200Y-153990476D02*
X124154819Y-154133333D01*
X124154819Y-154133333D02*
X124154819Y-154228571D01*
X124154819Y-154228571D02*
X124107200Y-154371428D01*
X124107200Y-154371428D02*
X124011961Y-154466666D01*
X124011961Y-154466666D02*
X123916723Y-154514285D01*
X123916723Y-154514285D02*
X123726247Y-154561904D01*
X123726247Y-154561904D02*
X123583390Y-154561904D01*
X123583390Y-154561904D02*
X123392914Y-154514285D01*
X123392914Y-154514285D02*
X123297676Y-154466666D01*
X123297676Y-154466666D02*
X123202438Y-154371428D01*
X123202438Y-154371428D02*
X123154819Y-154228571D01*
X123154819Y-154228571D02*
X123154819Y-154133333D01*
X123154819Y-154133333D02*
X123202438Y-153990476D01*
X123202438Y-153990476D02*
X123250057Y-153942857D01*
X124154819Y-152990476D02*
X124154819Y-153561904D01*
X124154819Y-153276190D02*
X123154819Y-153276190D01*
X123154819Y-153276190D02*
X123297676Y-153371428D01*
X123297676Y-153371428D02*
X123392914Y-153466666D01*
X123392914Y-153466666D02*
X123440533Y-153561904D01*
X123488152Y-152133333D02*
X124154819Y-152133333D01*
X123107200Y-152371428D02*
X123821485Y-152609523D01*
X123821485Y-152609523D02*
X123821485Y-151990476D01*
X86333333Y-148954819D02*
X86000000Y-148478628D01*
X85761905Y-148954819D02*
X85761905Y-147954819D01*
X85761905Y-147954819D02*
X86142857Y-147954819D01*
X86142857Y-147954819D02*
X86238095Y-148002438D01*
X86238095Y-148002438D02*
X86285714Y-148050057D01*
X86285714Y-148050057D02*
X86333333Y-148145295D01*
X86333333Y-148145295D02*
X86333333Y-148288152D01*
X86333333Y-148288152D02*
X86285714Y-148383390D01*
X86285714Y-148383390D02*
X86238095Y-148431009D01*
X86238095Y-148431009D02*
X86142857Y-148478628D01*
X86142857Y-148478628D02*
X85761905Y-148478628D01*
X86666667Y-147954819D02*
X87333333Y-147954819D01*
X87333333Y-147954819D02*
X86904762Y-148954819D01*
X151607142Y-161454819D02*
X151273809Y-160978628D01*
X151035714Y-161454819D02*
X151035714Y-160454819D01*
X151035714Y-160454819D02*
X151416666Y-160454819D01*
X151416666Y-160454819D02*
X151511904Y-160502438D01*
X151511904Y-160502438D02*
X151559523Y-160550057D01*
X151559523Y-160550057D02*
X151607142Y-160645295D01*
X151607142Y-160645295D02*
X151607142Y-160788152D01*
X151607142Y-160788152D02*
X151559523Y-160883390D01*
X151559523Y-160883390D02*
X151511904Y-160931009D01*
X151511904Y-160931009D02*
X151416666Y-160978628D01*
X151416666Y-160978628D02*
X151035714Y-160978628D01*
X152559523Y-161454819D02*
X151988095Y-161454819D01*
X152273809Y-161454819D02*
X152273809Y-160454819D01*
X152273809Y-160454819D02*
X152178571Y-160597676D01*
X152178571Y-160597676D02*
X152083333Y-160692914D01*
X152083333Y-160692914D02*
X151988095Y-160740533D01*
X152892857Y-160454819D02*
X153511904Y-160454819D01*
X153511904Y-160454819D02*
X153178571Y-160835771D01*
X153178571Y-160835771D02*
X153321428Y-160835771D01*
X153321428Y-160835771D02*
X153416666Y-160883390D01*
X153416666Y-160883390D02*
X153464285Y-160931009D01*
X153464285Y-160931009D02*
X153511904Y-161026247D01*
X153511904Y-161026247D02*
X153511904Y-161264342D01*
X153511904Y-161264342D02*
X153464285Y-161359580D01*
X153464285Y-161359580D02*
X153416666Y-161407200D01*
X153416666Y-161407200D02*
X153321428Y-161454819D01*
X153321428Y-161454819D02*
X153035714Y-161454819D01*
X153035714Y-161454819D02*
X152940476Y-161407200D01*
X152940476Y-161407200D02*
X152892857Y-161359580D01*
X148607142Y-161449580D02*
X148559523Y-161497200D01*
X148559523Y-161497200D02*
X148416666Y-161544819D01*
X148416666Y-161544819D02*
X148321428Y-161544819D01*
X148321428Y-161544819D02*
X148178571Y-161497200D01*
X148178571Y-161497200D02*
X148083333Y-161401961D01*
X148083333Y-161401961D02*
X148035714Y-161306723D01*
X148035714Y-161306723D02*
X147988095Y-161116247D01*
X147988095Y-161116247D02*
X147988095Y-160973390D01*
X147988095Y-160973390D02*
X148035714Y-160782914D01*
X148035714Y-160782914D02*
X148083333Y-160687676D01*
X148083333Y-160687676D02*
X148178571Y-160592438D01*
X148178571Y-160592438D02*
X148321428Y-160544819D01*
X148321428Y-160544819D02*
X148416666Y-160544819D01*
X148416666Y-160544819D02*
X148559523Y-160592438D01*
X148559523Y-160592438D02*
X148607142Y-160640057D01*
X149559523Y-161544819D02*
X148988095Y-161544819D01*
X149273809Y-161544819D02*
X149273809Y-160544819D01*
X149273809Y-160544819D02*
X149178571Y-160687676D01*
X149178571Y-160687676D02*
X149083333Y-160782914D01*
X149083333Y-160782914D02*
X148988095Y-160830533D01*
X149892857Y-160544819D02*
X150559523Y-160544819D01*
X150559523Y-160544819D02*
X150130952Y-161544819D01*
X142357142Y-149859580D02*
X142309523Y-149907200D01*
X142309523Y-149907200D02*
X142166666Y-149954819D01*
X142166666Y-149954819D02*
X142071428Y-149954819D01*
X142071428Y-149954819D02*
X141928571Y-149907200D01*
X141928571Y-149907200D02*
X141833333Y-149811961D01*
X141833333Y-149811961D02*
X141785714Y-149716723D01*
X141785714Y-149716723D02*
X141738095Y-149526247D01*
X141738095Y-149526247D02*
X141738095Y-149383390D01*
X141738095Y-149383390D02*
X141785714Y-149192914D01*
X141785714Y-149192914D02*
X141833333Y-149097676D01*
X141833333Y-149097676D02*
X141928571Y-149002438D01*
X141928571Y-149002438D02*
X142071428Y-148954819D01*
X142071428Y-148954819D02*
X142166666Y-148954819D01*
X142166666Y-148954819D02*
X142309523Y-149002438D01*
X142309523Y-149002438D02*
X142357142Y-149050057D01*
X143309523Y-149954819D02*
X142738095Y-149954819D01*
X143023809Y-149954819D02*
X143023809Y-148954819D01*
X143023809Y-148954819D02*
X142928571Y-149097676D01*
X142928571Y-149097676D02*
X142833333Y-149192914D01*
X142833333Y-149192914D02*
X142738095Y-149240533D01*
X143880952Y-149383390D02*
X143785714Y-149335771D01*
X143785714Y-149335771D02*
X143738095Y-149288152D01*
X143738095Y-149288152D02*
X143690476Y-149192914D01*
X143690476Y-149192914D02*
X143690476Y-149145295D01*
X143690476Y-149145295D02*
X143738095Y-149050057D01*
X143738095Y-149050057D02*
X143785714Y-149002438D01*
X143785714Y-149002438D02*
X143880952Y-148954819D01*
X143880952Y-148954819D02*
X144071428Y-148954819D01*
X144071428Y-148954819D02*
X144166666Y-149002438D01*
X144166666Y-149002438D02*
X144214285Y-149050057D01*
X144214285Y-149050057D02*
X144261904Y-149145295D01*
X144261904Y-149145295D02*
X144261904Y-149192914D01*
X144261904Y-149192914D02*
X144214285Y-149288152D01*
X144214285Y-149288152D02*
X144166666Y-149335771D01*
X144166666Y-149335771D02*
X144071428Y-149383390D01*
X144071428Y-149383390D02*
X143880952Y-149383390D01*
X143880952Y-149383390D02*
X143785714Y-149431009D01*
X143785714Y-149431009D02*
X143738095Y-149478628D01*
X143738095Y-149478628D02*
X143690476Y-149573866D01*
X143690476Y-149573866D02*
X143690476Y-149764342D01*
X143690476Y-149764342D02*
X143738095Y-149859580D01*
X143738095Y-149859580D02*
X143785714Y-149907200D01*
X143785714Y-149907200D02*
X143880952Y-149954819D01*
X143880952Y-149954819D02*
X144071428Y-149954819D01*
X144071428Y-149954819D02*
X144166666Y-149907200D01*
X144166666Y-149907200D02*
X144214285Y-149859580D01*
X144214285Y-149859580D02*
X144261904Y-149764342D01*
X144261904Y-149764342D02*
X144261904Y-149573866D01*
X144261904Y-149573866D02*
X144214285Y-149478628D01*
X144214285Y-149478628D02*
X144166666Y-149431009D01*
X144166666Y-149431009D02*
X144071428Y-149383390D01*
X127087695Y-144929819D02*
X127087695Y-145739342D01*
X127087695Y-145739342D02*
X127135314Y-145834580D01*
X127135314Y-145834580D02*
X127182933Y-145882200D01*
X127182933Y-145882200D02*
X127278171Y-145929819D01*
X127278171Y-145929819D02*
X127468647Y-145929819D01*
X127468647Y-145929819D02*
X127563885Y-145882200D01*
X127563885Y-145882200D02*
X127611504Y-145834580D01*
X127611504Y-145834580D02*
X127659123Y-145739342D01*
X127659123Y-145739342D02*
X127659123Y-144929819D01*
X128040076Y-144929819D02*
X128659123Y-144929819D01*
X128659123Y-144929819D02*
X128325790Y-145310771D01*
X128325790Y-145310771D02*
X128468647Y-145310771D01*
X128468647Y-145310771D02*
X128563885Y-145358390D01*
X128563885Y-145358390D02*
X128611504Y-145406009D01*
X128611504Y-145406009D02*
X128659123Y-145501247D01*
X128659123Y-145501247D02*
X128659123Y-145739342D01*
X128659123Y-145739342D02*
X128611504Y-145834580D01*
X128611504Y-145834580D02*
X128563885Y-145882200D01*
X128563885Y-145882200D02*
X128468647Y-145929819D01*
X128468647Y-145929819D02*
X128182933Y-145929819D01*
X128182933Y-145929819D02*
X128087695Y-145882200D01*
X128087695Y-145882200D02*
X128040076Y-145834580D01*
X124314600Y-142548819D02*
X124314600Y-142786914D01*
X124076505Y-142691676D02*
X124314600Y-142786914D01*
X124314600Y-142786914D02*
X124552695Y-142691676D01*
X124171743Y-142977390D02*
X124314600Y-142786914D01*
X124314600Y-142786914D02*
X124457457Y-142977390D01*
X124314600Y-142548819D02*
X124314600Y-142786914D01*
X124076505Y-142691676D02*
X124314600Y-142786914D01*
X124314600Y-142786914D02*
X124552695Y-142691676D01*
X124171743Y-142977390D02*
X124314600Y-142786914D01*
X124314600Y-142786914D02*
X124457457Y-142977390D01*
X107583333Y-162024819D02*
X107250000Y-161548628D01*
X107011905Y-162024819D02*
X107011905Y-161024819D01*
X107011905Y-161024819D02*
X107392857Y-161024819D01*
X107392857Y-161024819D02*
X107488095Y-161072438D01*
X107488095Y-161072438D02*
X107535714Y-161120057D01*
X107535714Y-161120057D02*
X107583333Y-161215295D01*
X107583333Y-161215295D02*
X107583333Y-161358152D01*
X107583333Y-161358152D02*
X107535714Y-161453390D01*
X107535714Y-161453390D02*
X107488095Y-161501009D01*
X107488095Y-161501009D02*
X107392857Y-161548628D01*
X107392857Y-161548628D02*
X107011905Y-161548628D01*
X108440476Y-161024819D02*
X108250000Y-161024819D01*
X108250000Y-161024819D02*
X108154762Y-161072438D01*
X108154762Y-161072438D02*
X108107143Y-161120057D01*
X108107143Y-161120057D02*
X108011905Y-161262914D01*
X108011905Y-161262914D02*
X107964286Y-161453390D01*
X107964286Y-161453390D02*
X107964286Y-161834342D01*
X107964286Y-161834342D02*
X108011905Y-161929580D01*
X108011905Y-161929580D02*
X108059524Y-161977200D01*
X108059524Y-161977200D02*
X108154762Y-162024819D01*
X108154762Y-162024819D02*
X108345238Y-162024819D01*
X108345238Y-162024819D02*
X108440476Y-161977200D01*
X108440476Y-161977200D02*
X108488095Y-161929580D01*
X108488095Y-161929580D02*
X108535714Y-161834342D01*
X108535714Y-161834342D02*
X108535714Y-161596247D01*
X108535714Y-161596247D02*
X108488095Y-161501009D01*
X108488095Y-161501009D02*
X108440476Y-161453390D01*
X108440476Y-161453390D02*
X108345238Y-161405771D01*
X108345238Y-161405771D02*
X108154762Y-161405771D01*
X108154762Y-161405771D02*
X108059524Y-161453390D01*
X108059524Y-161453390D02*
X108011905Y-161501009D01*
X108011905Y-161501009D02*
X107964286Y-161596247D01*
X122109580Y-142892857D02*
X122157200Y-142940476D01*
X122157200Y-142940476D02*
X122204819Y-143083333D01*
X122204819Y-143083333D02*
X122204819Y-143178571D01*
X122204819Y-143178571D02*
X122157200Y-143321428D01*
X122157200Y-143321428D02*
X122061961Y-143416666D01*
X122061961Y-143416666D02*
X121966723Y-143464285D01*
X121966723Y-143464285D02*
X121776247Y-143511904D01*
X121776247Y-143511904D02*
X121633390Y-143511904D01*
X121633390Y-143511904D02*
X121442914Y-143464285D01*
X121442914Y-143464285D02*
X121347676Y-143416666D01*
X121347676Y-143416666D02*
X121252438Y-143321428D01*
X121252438Y-143321428D02*
X121204819Y-143178571D01*
X121204819Y-143178571D02*
X121204819Y-143083333D01*
X121204819Y-143083333D02*
X121252438Y-142940476D01*
X121252438Y-142940476D02*
X121300057Y-142892857D01*
X122204819Y-141940476D02*
X122204819Y-142511904D01*
X122204819Y-142226190D02*
X121204819Y-142226190D01*
X121204819Y-142226190D02*
X121347676Y-142321428D01*
X121347676Y-142321428D02*
X121442914Y-142416666D01*
X121442914Y-142416666D02*
X121490533Y-142511904D01*
X121204819Y-141035714D02*
X121204819Y-141511904D01*
X121204819Y-141511904D02*
X121681009Y-141559523D01*
X121681009Y-141559523D02*
X121633390Y-141511904D01*
X121633390Y-141511904D02*
X121585771Y-141416666D01*
X121585771Y-141416666D02*
X121585771Y-141178571D01*
X121585771Y-141178571D02*
X121633390Y-141083333D01*
X121633390Y-141083333D02*
X121681009Y-141035714D01*
X121681009Y-141035714D02*
X121776247Y-140988095D01*
X121776247Y-140988095D02*
X122014342Y-140988095D01*
X122014342Y-140988095D02*
X122109580Y-141035714D01*
X122109580Y-141035714D02*
X122157200Y-141083333D01*
X122157200Y-141083333D02*
X122204819Y-141178571D01*
X122204819Y-141178571D02*
X122204819Y-141416666D01*
X122204819Y-141416666D02*
X122157200Y-141511904D01*
X122157200Y-141511904D02*
X122109580Y-141559523D01*
X146813667Y-162976638D02*
X146600333Y-162976638D01*
X146600333Y-163311876D02*
X146600333Y-162671876D01*
X146600333Y-162671876D02*
X146905095Y-162671876D01*
X147484143Y-163311876D02*
X147118428Y-163311876D01*
X147301285Y-163311876D02*
X147301285Y-162671876D01*
X147301285Y-162671876D02*
X147240333Y-162763304D01*
X147240333Y-162763304D02*
X147179381Y-162824257D01*
X147179381Y-162824257D02*
X147118428Y-162854733D01*
X104738095Y-159704819D02*
X104738095Y-160514342D01*
X104738095Y-160514342D02*
X104785714Y-160609580D01*
X104785714Y-160609580D02*
X104833333Y-160657200D01*
X104833333Y-160657200D02*
X104928571Y-160704819D01*
X104928571Y-160704819D02*
X105119047Y-160704819D01*
X105119047Y-160704819D02*
X105214285Y-160657200D01*
X105214285Y-160657200D02*
X105261904Y-160609580D01*
X105261904Y-160609580D02*
X105309523Y-160514342D01*
X105309523Y-160514342D02*
X105309523Y-159704819D01*
X106309523Y-160704819D02*
X105738095Y-160704819D01*
X106023809Y-160704819D02*
X106023809Y-159704819D01*
X106023809Y-159704819D02*
X105928571Y-159847676D01*
X105928571Y-159847676D02*
X105833333Y-159942914D01*
X105833333Y-159942914D02*
X105738095Y-159990533D01*
X121833333Y-134954819D02*
X121500000Y-134478628D01*
X121261905Y-134954819D02*
X121261905Y-133954819D01*
X121261905Y-133954819D02*
X121642857Y-133954819D01*
X121642857Y-133954819D02*
X121738095Y-134002438D01*
X121738095Y-134002438D02*
X121785714Y-134050057D01*
X121785714Y-134050057D02*
X121833333Y-134145295D01*
X121833333Y-134145295D02*
X121833333Y-134288152D01*
X121833333Y-134288152D02*
X121785714Y-134383390D01*
X121785714Y-134383390D02*
X121738095Y-134431009D01*
X121738095Y-134431009D02*
X121642857Y-134478628D01*
X121642857Y-134478628D02*
X121261905Y-134478628D01*
X122214286Y-134050057D02*
X122261905Y-134002438D01*
X122261905Y-134002438D02*
X122357143Y-133954819D01*
X122357143Y-133954819D02*
X122595238Y-133954819D01*
X122595238Y-133954819D02*
X122690476Y-134002438D01*
X122690476Y-134002438D02*
X122738095Y-134050057D01*
X122738095Y-134050057D02*
X122785714Y-134145295D01*
X122785714Y-134145295D02*
X122785714Y-134240533D01*
X122785714Y-134240533D02*
X122738095Y-134383390D01*
X122738095Y-134383390D02*
X122166667Y-134954819D01*
X122166667Y-134954819D02*
X122785714Y-134954819D01*
X123384819Y-159642857D02*
X122908628Y-159976190D01*
X123384819Y-160214285D02*
X122384819Y-160214285D01*
X122384819Y-160214285D02*
X122384819Y-159833333D01*
X122384819Y-159833333D02*
X122432438Y-159738095D01*
X122432438Y-159738095D02*
X122480057Y-159690476D01*
X122480057Y-159690476D02*
X122575295Y-159642857D01*
X122575295Y-159642857D02*
X122718152Y-159642857D01*
X122718152Y-159642857D02*
X122813390Y-159690476D01*
X122813390Y-159690476D02*
X122861009Y-159738095D01*
X122861009Y-159738095D02*
X122908628Y-159833333D01*
X122908628Y-159833333D02*
X122908628Y-160214285D01*
X123384819Y-158690476D02*
X123384819Y-159261904D01*
X123384819Y-158976190D02*
X122384819Y-158976190D01*
X122384819Y-158976190D02*
X122527676Y-159071428D01*
X122527676Y-159071428D02*
X122622914Y-159166666D01*
X122622914Y-159166666D02*
X122670533Y-159261904D01*
X123384819Y-157738095D02*
X123384819Y-158309523D01*
X123384819Y-158023809D02*
X122384819Y-158023809D01*
X122384819Y-158023809D02*
X122527676Y-158119047D01*
X122527676Y-158119047D02*
X122622914Y-158214285D01*
X122622914Y-158214285D02*
X122670533Y-158309523D01*
X86333333Y-150704819D02*
X86000000Y-150228628D01*
X85761905Y-150704819D02*
X85761905Y-149704819D01*
X85761905Y-149704819D02*
X86142857Y-149704819D01*
X86142857Y-149704819D02*
X86238095Y-149752438D01*
X86238095Y-149752438D02*
X86285714Y-149800057D01*
X86285714Y-149800057D02*
X86333333Y-149895295D01*
X86333333Y-149895295D02*
X86333333Y-150038152D01*
X86333333Y-150038152D02*
X86285714Y-150133390D01*
X86285714Y-150133390D02*
X86238095Y-150181009D01*
X86238095Y-150181009D02*
X86142857Y-150228628D01*
X86142857Y-150228628D02*
X85761905Y-150228628D01*
X86904762Y-150133390D02*
X86809524Y-150085771D01*
X86809524Y-150085771D02*
X86761905Y-150038152D01*
X86761905Y-150038152D02*
X86714286Y-149942914D01*
X86714286Y-149942914D02*
X86714286Y-149895295D01*
X86714286Y-149895295D02*
X86761905Y-149800057D01*
X86761905Y-149800057D02*
X86809524Y-149752438D01*
X86809524Y-149752438D02*
X86904762Y-149704819D01*
X86904762Y-149704819D02*
X87095238Y-149704819D01*
X87095238Y-149704819D02*
X87190476Y-149752438D01*
X87190476Y-149752438D02*
X87238095Y-149800057D01*
X87238095Y-149800057D02*
X87285714Y-149895295D01*
X87285714Y-149895295D02*
X87285714Y-149942914D01*
X87285714Y-149942914D02*
X87238095Y-150038152D01*
X87238095Y-150038152D02*
X87190476Y-150085771D01*
X87190476Y-150085771D02*
X87095238Y-150133390D01*
X87095238Y-150133390D02*
X86904762Y-150133390D01*
X86904762Y-150133390D02*
X86809524Y-150181009D01*
X86809524Y-150181009D02*
X86761905Y-150228628D01*
X86761905Y-150228628D02*
X86714286Y-150323866D01*
X86714286Y-150323866D02*
X86714286Y-150514342D01*
X86714286Y-150514342D02*
X86761905Y-150609580D01*
X86761905Y-150609580D02*
X86809524Y-150657200D01*
X86809524Y-150657200D02*
X86904762Y-150704819D01*
X86904762Y-150704819D02*
X87095238Y-150704819D01*
X87095238Y-150704819D02*
X87190476Y-150657200D01*
X87190476Y-150657200D02*
X87238095Y-150609580D01*
X87238095Y-150609580D02*
X87285714Y-150514342D01*
X87285714Y-150514342D02*
X87285714Y-150323866D01*
X87285714Y-150323866D02*
X87238095Y-150228628D01*
X87238095Y-150228628D02*
X87190476Y-150181009D01*
X87190476Y-150181009D02*
X87095238Y-150133390D01*
D12*
%TO.C,J3*%
X158800000Y-172900000D02*
X158800000Y-163500000D01*
X156900000Y-172900000D02*
X158800000Y-172900000D01*
X156900000Y-163500000D02*
X158800000Y-163500000D01*
X153000000Y-172900000D02*
X155000000Y-172900000D01*
X153000000Y-163500000D02*
X155000000Y-163500000D01*
%TO.C,R14*%
X151746359Y-173820000D02*
X152053641Y-173820000D01*
X151746359Y-174580000D02*
X152053641Y-174580000D01*
D13*
%TO.C,RESET1*%
X110900000Y-162250000D02*
X113100000Y-162250000D01*
X113100000Y-164250000D02*
X110900000Y-164250000D01*
D14*
X114500000Y-163250000D02*
G75*
G02*
X114300000Y-163250000I-100000J0D01*
G01*
X114300000Y-163250000D02*
G75*
G02*
X114500000Y-163250000I100000J0D01*
G01*
D12*
%TO.C,C16*%
X131592164Y-149940000D02*
X131807836Y-149940000D01*
X131592164Y-150660000D02*
X131807836Y-150660000D01*
%TO.C,C3*%
X136292164Y-144840000D02*
X136507836Y-144840000D01*
X136292164Y-145560000D02*
X136507836Y-145560000D01*
%TO.C,R3*%
X144937258Y-136667500D02*
X144462742Y-136667500D01*
X144937258Y-137712500D02*
X144462742Y-137712500D01*
%TO.C,C4*%
X130140000Y-152307836D02*
X130140000Y-152092164D01*
X130860000Y-152307836D02*
X130860000Y-152092164D01*
%TO.C,C5*%
X128640000Y-154892164D02*
X128640000Y-155107836D01*
X129360000Y-154892164D02*
X129360000Y-155107836D01*
%TO.C,C2*%
X122450000Y-146572164D02*
X122450000Y-146787836D01*
X123170000Y-146572164D02*
X123170000Y-146787836D01*
%TO.C,C6*%
X127607836Y-154640000D02*
X127392164Y-154640000D01*
X127607836Y-155360000D02*
X127392164Y-155360000D01*
%TO.C,C7*%
X124940000Y-149592164D02*
X124940000Y-149807836D01*
X125660000Y-149592164D02*
X125660000Y-149807836D01*
D15*
%TO.C,U4*%
X144718300Y-142473001D02*
X144718300Y-147780547D01*
X144718300Y-151419457D02*
X144718300Y-157230401D01*
X144718300Y-157230401D02*
X147125846Y-157230401D01*
X147125439Y-142473001D02*
X144718300Y-142473001D01*
X149274154Y-157230401D02*
X149625846Y-157230401D01*
X151774154Y-157230401D02*
X152125846Y-157230401D01*
X152125439Y-142473001D02*
X149274561Y-142473001D01*
X154274154Y-157230401D02*
X156681700Y-157230401D01*
X156681700Y-142473001D02*
X154274561Y-142473001D01*
X156681700Y-147780547D02*
X156681700Y-142473001D01*
X156681700Y-157230401D02*
X156681700Y-151419457D01*
D16*
X143321300Y-157100000D02*
G75*
G02*
X142559300Y-157100000I-381000J0D01*
G01*
X142559300Y-157100000D02*
G75*
G02*
X143321300Y-157100000I381000J0D01*
G01*
D12*
%TO.C,C19*%
X140607836Y-150140000D02*
X140392164Y-150140000D01*
X140607836Y-150860000D02*
X140392164Y-150860000D01*
%TO.C,C8*%
X123540000Y-144807836D02*
X123540000Y-144592164D01*
X124260000Y-144807836D02*
X124260000Y-144592164D01*
%TO.C,R4*%
X144937258Y-138277500D02*
X144462742Y-138277500D01*
X144937258Y-139322500D02*
X144462742Y-139322500D01*
%TO.C,R9*%
X136337258Y-149377500D02*
X135862742Y-149377500D01*
X136337258Y-150422500D02*
X135862742Y-150422500D01*
%TO.C,C10*%
X131592164Y-148940000D02*
X131807836Y-148940000D01*
X131592164Y-149660000D02*
X131807836Y-149660000D01*
%TO.C,U5*%
X144490000Y-166590000D02*
X146310000Y-166590000D01*
X144490000Y-166640000D02*
X144490000Y-166590000D01*
X144490000Y-169710000D02*
X144490000Y-169660000D01*
X146310000Y-166590000D02*
X146310000Y-166640000D01*
X146310000Y-169660000D02*
X146310000Y-169710000D01*
X146310000Y-169710000D02*
X144490000Y-169710000D01*
X147090000Y-169990000D02*
X146610000Y-169990000D01*
X146850000Y-169660000D01*
X147090000Y-169990000D01*
G36*
X147090000Y-169990000D02*
G01*
X146610000Y-169990000D01*
X146850000Y-169660000D01*
X147090000Y-169990000D01*
G37*
%TO.C,C1*%
X108357836Y-164140000D02*
X108142164Y-164140000D01*
X108357836Y-164860000D02*
X108142164Y-164860000D01*
D13*
%TO.C,PS1*%
X138900000Y-145990000D02*
X136900000Y-145990000D01*
X138900000Y-148410000D02*
X136900000Y-148410000D01*
D14*
X139925000Y-147950000D02*
G75*
G02*
X139725000Y-147950000I-100000J0D01*
G01*
X139725000Y-147950000D02*
G75*
G02*
X139925000Y-147950000I100000J0D01*
G01*
D12*
%TO.C,C9*%
X132040000Y-147307836D02*
X132040000Y-147092164D01*
X132760000Y-147307836D02*
X132760000Y-147092164D01*
%TO.C,L1*%
X133840000Y-146800378D02*
X133840000Y-147599622D01*
X134960000Y-146800378D02*
X134960000Y-147599622D01*
%TO.C,U2*%
X126140000Y-150327500D02*
X126615000Y-150327500D01*
X126140000Y-150802500D02*
X126140000Y-150327500D01*
X126140000Y-153547500D02*
X126140000Y-153072500D01*
X126615000Y-153547500D02*
X126140000Y-153547500D01*
X128885000Y-150327500D02*
X129360000Y-150327500D01*
X129360000Y-150327500D02*
X129360000Y-150802500D01*
X129360000Y-153072500D02*
X129360000Y-153547500D01*
X129360000Y-153547500D02*
X128885000Y-153547500D01*
X128500000Y-149797500D02*
X128260000Y-149467500D01*
X128740000Y-149467500D01*
X128500000Y-149797500D01*
G36*
X128500000Y-149797500D02*
G01*
X128260000Y-149467500D01*
X128740000Y-149467500D01*
X128500000Y-149797500D01*
G37*
%TO.C,R10*%
X133977500Y-158762742D02*
X133977500Y-159237258D01*
X135022500Y-158762742D02*
X135022500Y-159237258D01*
%TO.C,C11*%
X123540000Y-146807836D02*
X123540000Y-146592164D01*
X124260000Y-146807836D02*
X124260000Y-146592164D01*
%TO.C,R1*%
X119262742Y-135727500D02*
X119737258Y-135727500D01*
X119262742Y-136772500D02*
X119737258Y-136772500D01*
%TO.C,R5*%
X95762742Y-162227500D02*
X96237258Y-162227500D01*
X95762742Y-163272500D02*
X96237258Y-163272500D01*
%TO.C,R12*%
X144937258Y-139877500D02*
X144462742Y-139877500D01*
X144937258Y-140922500D02*
X144462742Y-140922500D01*
D13*
%TO.C,BOOT1*%
X98900000Y-162250000D02*
X101100000Y-162250000D01*
X101100000Y-164250000D02*
X98900000Y-164250000D01*
D14*
X102500000Y-163250000D02*
G75*
G02*
X102300000Y-163250000I-100000J0D01*
G01*
X102300000Y-163250000D02*
G75*
G02*
X102500000Y-163250000I100000J0D01*
G01*
D12*
%TO.C,C12*%
X115390000Y-150892164D02*
X115390000Y-151107836D01*
X116110000Y-150892164D02*
X116110000Y-151107836D01*
%TO.C,C13*%
X121230000Y-146572164D02*
X121230000Y-146787836D01*
X121950000Y-146572164D02*
X121950000Y-146787836D01*
%TO.C,C14*%
X124540000Y-153407836D02*
X124540000Y-153192164D01*
X125260000Y-153407836D02*
X125260000Y-153192164D01*
%TO.C,R7*%
X89487258Y-147977500D02*
X89012742Y-147977500D01*
X89487258Y-149022500D02*
X89012742Y-149022500D01*
%TO.C,R13*%
X151746359Y-161820000D02*
X152053641Y-161820000D01*
X151746359Y-162580000D02*
X152053641Y-162580000D01*
%TO.C,C17*%
X149142164Y-161890000D02*
X149357836Y-161890000D01*
X149142164Y-162610000D02*
X149357836Y-162610000D01*
%TO.C,C18*%
X140607836Y-149140000D02*
X140392164Y-149140000D01*
X140607836Y-149860000D02*
X140392164Y-149860000D01*
D15*
%TO.C,U3*%
X124893599Y-142518999D02*
X124893599Y-143257008D01*
X124893599Y-147692992D02*
X124893599Y-148431001D01*
X124893599Y-148431001D02*
X125631166Y-148431001D01*
X125631166Y-142518999D02*
X124893599Y-142518999D01*
X130068034Y-148431001D02*
X130805601Y-148431001D01*
X130805601Y-142518999D02*
X130068034Y-142518999D01*
X130805601Y-143257008D02*
X130805601Y-142518999D01*
X130805601Y-148431001D02*
X130805601Y-147692992D01*
D17*
G36*
X126789785Y-148882999D02*
G01*
X126408785Y-148882999D01*
X126408785Y-148628999D01*
X126789785Y-148628999D01*
X126789785Y-148882999D01*
G37*
G36*
X127289911Y-142321001D02*
G01*
X126908911Y-142321001D01*
X126908911Y-142067001D01*
X127289911Y-142067001D01*
X127289911Y-142321001D01*
G37*
G36*
X131257599Y-145915500D02*
G01*
X131003599Y-145915500D01*
X131003599Y-145534499D01*
X131257599Y-145534499D01*
X131257599Y-145915500D01*
G37*
D12*
%TO.C,R6*%
X107512742Y-162477500D02*
X107987258Y-162477500D01*
X107512742Y-163522500D02*
X107987258Y-163522500D01*
%TO.C,C15*%
X122440000Y-144807836D02*
X122440000Y-144592164D01*
X123160000Y-144807836D02*
X123160000Y-144592164D01*
D13*
%TO.C,U1*%
X95600000Y-133550000D02*
X96845000Y-133550000D01*
X95600000Y-134280000D02*
X95600000Y-133550000D01*
X95600000Y-159050000D02*
X95600000Y-152330000D01*
X113600000Y-133550000D02*
X112355000Y-133550000D01*
X113600000Y-134280000D02*
X113600000Y-133550000D01*
X113600000Y-152330000D02*
X113600000Y-159050000D01*
X113600000Y-159050000D02*
X95600000Y-159050000D01*
D14*
X114900000Y-151560000D02*
G75*
G02*
X114700000Y-151560000I-100000J0D01*
G01*
X114700000Y-151560000D02*
G75*
G02*
X114900000Y-151560000I100000J0D01*
G01*
D12*
%TO.C,R2*%
X119262742Y-133977500D02*
X119737258Y-133977500D01*
X119262742Y-135022500D02*
X119737258Y-135022500D01*
%TO.C,R11*%
X120977500Y-158762742D02*
X120977500Y-159237258D01*
X122022500Y-158762742D02*
X122022500Y-159237258D01*
%TO.C,R8*%
X89487258Y-149727500D02*
X89012742Y-149727500D01*
X89487258Y-150772500D02*
X89012742Y-150772500D01*
%TD*%
M02*
