%TF.GenerationSoftware,KiCad,Pcbnew,9.0.6*%
%TF.CreationDate,2026-01-02T14:19:04-05:00*%
%TF.ProjectId,spotify desk thing,73706f74-6966-4792-9064-65736b207468,rev?*%
%TF.SameCoordinates,Original*%
%TF.FileFunction,Soldermask,Bot*%
%TF.FilePolarity,Negative*%
%FSLAX46Y46*%
G04 Gerber Fmt 4.6, Leading zero omitted, Abs format (unit mm)*
G04 Created by KiCad (PCBNEW 9.0.6) date 2026-01-02 14:19:04*
%MOMM*%
%LPD*%
G01*
G04 APERTURE LIST*
%ADD10C,1.600000*%
%ADD11O,1.600000X1.000000*%
%ADD12O,2.100000X1.000000*%
%ADD13C,0.650000*%
%ADD14C,3.098800*%
%ADD15C,1.498600*%
%ADD16C,0.508000*%
%ADD17R,1.700000X1.700000*%
%ADD18C,1.700000*%
G04 APERTURE END LIST*
D10*
%TO.C,J2*%
X128000000Y-172050000D03*
X128000000Y-165050000D03*
%TD*%
D11*
%TO.C,J3*%
X155950000Y-163880000D03*
D12*
X151770000Y-163880000D03*
D11*
X155950000Y-172520000D03*
D12*
X151770000Y-172520000D03*
D13*
X152300000Y-165310000D03*
X152300000Y-171090000D03*
%TD*%
D14*
%TO.C,U4*%
X145200001Y-149600002D03*
X156199999Y-149600002D03*
D15*
X148200000Y-157100000D03*
X153200000Y-157100000D03*
X150700000Y-157100000D03*
X148200000Y-142600003D03*
X153200000Y-142600003D03*
%TD*%
D16*
%TO.C,U3*%
X126668500Y-144293900D03*
X126668500Y-145081300D03*
X126668500Y-145868700D03*
X126668500Y-146656100D03*
X127455900Y-144293900D03*
X127455900Y-145081300D03*
X127455900Y-145868700D03*
X127455900Y-146656100D03*
X128243300Y-144293900D03*
X128243300Y-145081300D03*
X128243300Y-145868700D03*
X128243300Y-146656100D03*
X129030700Y-144293900D03*
X129030700Y-145081300D03*
X129030700Y-145868700D03*
X129030700Y-146656100D03*
%TD*%
D17*
%TO.C,J1*%
X47250000Y-135300000D03*
D18*
X47250000Y-137840000D03*
X47250000Y-140380000D03*
X47250000Y-142920000D03*
X47250000Y-145460000D03*
X47250000Y-148000000D03*
X47250000Y-150540000D03*
X47250000Y-153080000D03*
X47250000Y-155620000D03*
X47250000Y-158160000D03*
X47250000Y-160700000D03*
X47250000Y-163240000D03*
X47250000Y-165780000D03*
%TD*%
M02*
