%TF.GenerationSoftware,KiCad,Pcbnew,9.0.6*%
%TF.CreationDate,2026-01-02T14:19:04-05:00*%
%TF.ProjectId,spotify desk thing,73706f74-6966-4792-9064-65736b207468,rev?*%
%TF.SameCoordinates,Original*%
%TF.FileFunction,Paste,Top*%
%TF.FilePolarity,Positive*%
%FSLAX46Y46*%
G04 Gerber Fmt 4.6, Leading zero omitted, Abs format (unit mm)*
G04 Created by KiCad (PCBNEW 9.0.6) date 2026-01-02 14:19:04*
%MOMM*%
%LPD*%
G01*
G04 APERTURE LIST*
G04 Aperture macros list*
%AMRoundRect*
0 Rectangle with rounded corners*
0 $1 Rounding radius*
0 $2 $3 $4 $5 $6 $7 $8 $9 X,Y pos of 4 corners*
0 Add a 4 corners polygon primitive as box body*
4,1,4,$2,$3,$4,$5,$6,$7,$8,$9,$2,$3,0*
0 Add four circle primitives for the rounded corners*
1,1,$1+$1,$2,$3*
1,1,$1+$1,$4,$5*
1,1,$1+$1,$6,$7*
1,1,$1+$1,$8,$9*
0 Add four rect primitives between the rounded corners*
20,1,$1+$1,$2,$3,$4,$5,0*
20,1,$1+$1,$4,$5,$6,$7,0*
20,1,$1+$1,$6,$7,$8,$9,0*
20,1,$1+$1,$8,$9,$2,$3,0*%
G04 Aperture macros list end*
%ADD10C,0.010000*%
%ADD11C,0.000000*%
%ADD12R,2.550000X2.400000*%
%ADD13R,2.550000X2.900000*%
%ADD14R,1.450000X0.600000*%
%ADD15R,1.450000X0.300000*%
%ADD16RoundRect,0.135000X-0.135000X-0.185000X0.135000X-0.185000X0.135000X0.185000X-0.135000X0.185000X0*%
%ADD17R,0.550000X1.500000*%
%ADD18RoundRect,0.140000X-0.140000X-0.170000X0.140000X-0.170000X0.140000X0.170000X-0.140000X0.170000X0*%
%ADD19RoundRect,0.200000X0.200000X0.275000X-0.200000X0.275000X-0.200000X-0.275000X0.200000X-0.275000X0*%
%ADD20RoundRect,0.140000X0.170000X-0.140000X0.170000X0.140000X-0.170000X0.140000X-0.170000X-0.140000X0*%
%ADD21RoundRect,0.140000X-0.170000X0.140000X-0.170000X-0.140000X0.170000X-0.140000X0.170000X0.140000X0*%
%ADD22RoundRect,0.140000X0.140000X0.170000X-0.140000X0.170000X-0.140000X-0.170000X0.140000X-0.170000X0*%
%ADD23RoundRect,0.150000X0.512500X0.150000X-0.512500X0.150000X-0.512500X-0.150000X0.512500X-0.150000X0*%
%ADD24RoundRect,0.035000X0.345000X0.105000X-0.345000X0.105000X-0.345000X-0.105000X0.345000X-0.105000X0*%
%ADD25RoundRect,0.218750X-0.381250X0.218750X-0.381250X-0.218750X0.381250X-0.218750X0.381250X0.218750X0*%
%ADD26RoundRect,0.172500X-0.172500X0.172500X-0.172500X-0.172500X0.172500X-0.172500X0.172500X0.172500X0*%
%ADD27RoundRect,0.062500X-0.062500X0.375000X-0.062500X-0.375000X0.062500X-0.375000X0.062500X0.375000X0*%
%ADD28RoundRect,0.062500X-0.375000X0.062500X-0.375000X-0.062500X0.375000X-0.062500X0.375000X0.062500X0*%
%ADD29RoundRect,0.200000X-0.275000X0.200000X-0.275000X-0.200000X0.275000X-0.200000X0.275000X0.200000X0*%
%ADD30RoundRect,0.200000X-0.200000X-0.275000X0.200000X-0.275000X0.200000X0.275000X-0.200000X0.275000X0*%
%ADD31R,0.850000X0.280000*%
%ADD32R,0.280000X0.850000*%
%ADD33R,0.950000X1.020000*%
%ADD34R,1.500000X0.900000*%
%ADD35R,0.900000X1.500000*%
%ADD36R,0.900000X0.900000*%
G04 APERTURE END LIST*
D10*
%TO.C,PS1*%
X138184000Y-147706000D02*
X137616000Y-147706000D01*
X137616000Y-146694000D01*
X138184000Y-146694000D01*
X138184000Y-147706000D01*
G36*
X138184000Y-147706000D02*
G01*
X137616000Y-147706000D01*
X137616000Y-146694000D01*
X138184000Y-146694000D01*
X138184000Y-147706000D01*
G37*
D11*
%TO.C,U3*%
G36*
X126568500Y-144052479D02*
G01*
X126427079Y-144193900D01*
X126199530Y-144193900D01*
X126199530Y-143824930D01*
X126568500Y-143824930D01*
X126568500Y-144052479D01*
G37*
G36*
X126568500Y-146897521D02*
G01*
X126568500Y-147125070D01*
X126199530Y-147125070D01*
X126199530Y-146756100D01*
X126427079Y-146756100D01*
X126568500Y-146897521D01*
G37*
G36*
X129499670Y-144193900D02*
G01*
X129272121Y-144193900D01*
X129130700Y-144052479D01*
X129130700Y-143824930D01*
X129499670Y-143824930D01*
X129499670Y-144193900D01*
G37*
G36*
X129499670Y-147125070D02*
G01*
X129130700Y-147125070D01*
X129130700Y-146897521D01*
X129272121Y-146756100D01*
X129499670Y-146756100D01*
X129499670Y-147125070D01*
G37*
G36*
X126568500Y-144535321D02*
G01*
X126568500Y-144839879D01*
X126427079Y-144981300D01*
X126199530Y-144981300D01*
X126199530Y-144393900D01*
X126427079Y-144393900D01*
X126568500Y-144535321D01*
G37*
G36*
X126568500Y-145322721D02*
G01*
X126568500Y-145627279D01*
X126427079Y-145768700D01*
X126199530Y-145768700D01*
X126199530Y-145181300D01*
X126427079Y-145181300D01*
X126568500Y-145322721D01*
G37*
G36*
X126568500Y-146110121D02*
G01*
X126568500Y-146414679D01*
X126427079Y-146556100D01*
X126199530Y-146556100D01*
X126199530Y-145968700D01*
X126427079Y-145968700D01*
X126568500Y-146110121D01*
G37*
G36*
X127355900Y-144052479D02*
G01*
X127214479Y-144193900D01*
X126909921Y-144193900D01*
X126768500Y-144052479D01*
X126768500Y-143824930D01*
X127355900Y-143824930D01*
X127355900Y-144052479D01*
G37*
G36*
X127355900Y-146897521D02*
G01*
X127355900Y-147125070D01*
X126768500Y-147125070D01*
X126768500Y-146897521D01*
X126909921Y-146756100D01*
X127214479Y-146756100D01*
X127355900Y-146897521D01*
G37*
G36*
X128143300Y-144052479D02*
G01*
X128001879Y-144193900D01*
X127697321Y-144193900D01*
X127555900Y-144052479D01*
X127555900Y-143824930D01*
X128143300Y-143824930D01*
X128143300Y-144052479D01*
G37*
G36*
X128143300Y-146897521D02*
G01*
X128143300Y-147125070D01*
X127555900Y-147125070D01*
X127555900Y-146897521D01*
X127697321Y-146756100D01*
X128001879Y-146756100D01*
X128143300Y-146897521D01*
G37*
G36*
X128930700Y-144052479D02*
G01*
X128789279Y-144193900D01*
X128484721Y-144193900D01*
X128343300Y-144052479D01*
X128343300Y-143824930D01*
X128930700Y-143824930D01*
X128930700Y-144052479D01*
G37*
G36*
X128930700Y-146897521D02*
G01*
X128930700Y-147125070D01*
X128343300Y-147125070D01*
X128343300Y-146897521D01*
X128484721Y-146756100D01*
X128789279Y-146756100D01*
X128930700Y-146897521D01*
G37*
G36*
X129499670Y-144981300D02*
G01*
X129272121Y-144981300D01*
X129130700Y-144839879D01*
X129130700Y-144535321D01*
X129272121Y-144393900D01*
X129499670Y-144393900D01*
X129499670Y-144981300D01*
G37*
G36*
X129499670Y-145768700D02*
G01*
X129272121Y-145768700D01*
X129130700Y-145627279D01*
X129130700Y-145322721D01*
X129272121Y-145181300D01*
X129499670Y-145181300D01*
X129499670Y-145768700D01*
G37*
G36*
X129499670Y-146556100D02*
G01*
X129272121Y-146556100D01*
X129130700Y-146414679D01*
X129130700Y-146110121D01*
X129272121Y-145968700D01*
X129499670Y-145968700D01*
X129499670Y-146556100D01*
G37*
G36*
X127355900Y-144535321D02*
G01*
X127355900Y-144839879D01*
X127214479Y-144981300D01*
X126909921Y-144981300D01*
X126768500Y-144839879D01*
X126768500Y-144535321D01*
X126909921Y-144393900D01*
X127214479Y-144393900D01*
X127355900Y-144535321D01*
G37*
G36*
X127355900Y-145322721D02*
G01*
X127355900Y-145627279D01*
X127214479Y-145768700D01*
X126909921Y-145768700D01*
X126768500Y-145627279D01*
X126768500Y-145322721D01*
X126909921Y-145181300D01*
X127214479Y-145181300D01*
X127355900Y-145322721D01*
G37*
G36*
X127355900Y-146110121D02*
G01*
X127355900Y-146414679D01*
X127214479Y-146556100D01*
X126909921Y-146556100D01*
X126768500Y-146414679D01*
X126768500Y-146110121D01*
X126909921Y-145968700D01*
X127214479Y-145968700D01*
X127355900Y-146110121D01*
G37*
G36*
X128143300Y-144535321D02*
G01*
X128143300Y-144839879D01*
X128001879Y-144981300D01*
X127697321Y-144981300D01*
X127555900Y-144839879D01*
X127555900Y-144535321D01*
X127697321Y-144393900D01*
X128001879Y-144393900D01*
X128143300Y-144535321D01*
G37*
G36*
X128143300Y-145322721D02*
G01*
X128143300Y-145627279D01*
X128001879Y-145768700D01*
X127697321Y-145768700D01*
X127555900Y-145627279D01*
X127555900Y-145322721D01*
X127697321Y-145181300D01*
X128001879Y-145181300D01*
X128143300Y-145322721D01*
G37*
G36*
X128143300Y-146110121D02*
G01*
X128143300Y-146414679D01*
X128001879Y-146556100D01*
X127697321Y-146556100D01*
X127555900Y-146414679D01*
X127555900Y-146110121D01*
X127697321Y-145968700D01*
X128001879Y-145968700D01*
X128143300Y-146110121D01*
G37*
G36*
X128930700Y-144535321D02*
G01*
X128930700Y-144839879D01*
X128789279Y-144981300D01*
X128484721Y-144981300D01*
X128343300Y-144839879D01*
X128343300Y-144535321D01*
X128484721Y-144393900D01*
X128789279Y-144393900D01*
X128930700Y-144535321D01*
G37*
G36*
X128930700Y-145322721D02*
G01*
X128930700Y-145627279D01*
X128789279Y-145768700D01*
X128484721Y-145768700D01*
X128343300Y-145627279D01*
X128343300Y-145322721D01*
X128484721Y-145181300D01*
X128789279Y-145181300D01*
X128930700Y-145322721D01*
G37*
G36*
X128930700Y-146110121D02*
G01*
X128930700Y-146414679D01*
X128789279Y-146556100D01*
X128484721Y-146556100D01*
X128343300Y-146414679D01*
X128343300Y-146110121D01*
X128484721Y-145968700D01*
X128789279Y-145968700D01*
X128930700Y-146110121D01*
G37*
%TD*%
D12*
%TO.C,J2*%
X131675000Y-173150000D03*
D13*
X131675000Y-163850000D03*
D12*
X124325000Y-171250000D03*
%TD*%
D14*
%TO.C,J3*%
X150855000Y-171450000D03*
X150855000Y-170650000D03*
D15*
X150855000Y-169950000D03*
X150855000Y-168950000D03*
X150855000Y-167450000D03*
X150855000Y-166450000D03*
D14*
X150855000Y-165750000D03*
X150855000Y-164950000D03*
X150855000Y-164950000D03*
X150855000Y-165750000D03*
D15*
X150855000Y-166950000D03*
X150855000Y-167950000D03*
X150855000Y-168450000D03*
X150855000Y-169450000D03*
D14*
X150855000Y-170650000D03*
X150855000Y-171450000D03*
%TD*%
D16*
%TO.C,R14*%
X151390000Y-174200000D03*
X152410000Y-174200000D03*
%TD*%
D17*
%TO.C,RESET1*%
X113625000Y-163250000D03*
X110375000Y-163250000D03*
%TD*%
D18*
%TO.C,C16*%
X131220000Y-150300000D03*
X132180000Y-150300000D03*
%TD*%
%TO.C,C3*%
X135920000Y-145200000D03*
X136880000Y-145200000D03*
%TD*%
D19*
%TO.C,R3*%
X145525000Y-137190000D03*
X143875000Y-137190000D03*
%TD*%
D20*
%TO.C,C4*%
X130500000Y-152680000D03*
X130500000Y-151720000D03*
%TD*%
D21*
%TO.C,C5*%
X129000000Y-154520000D03*
X129000000Y-155480000D03*
%TD*%
%TO.C,C2*%
X122810000Y-146200000D03*
X122810000Y-147160000D03*
%TD*%
D22*
%TO.C,C6*%
X127980000Y-155000000D03*
X127020000Y-155000000D03*
%TD*%
D21*
%TO.C,C7*%
X125300000Y-149220000D03*
X125300000Y-150180000D03*
%TD*%
D22*
%TO.C,C19*%
X140980000Y-150500000D03*
X140020000Y-150500000D03*
%TD*%
D20*
%TO.C,C8*%
X123900000Y-145180000D03*
X123900000Y-144220000D03*
%TD*%
D19*
%TO.C,R4*%
X145525000Y-138800000D03*
X143875000Y-138800000D03*
%TD*%
%TO.C,R9*%
X136925000Y-149900000D03*
X135275000Y-149900000D03*
%TD*%
D18*
%TO.C,C10*%
X131220000Y-149300000D03*
X132180000Y-149300000D03*
%TD*%
D23*
%TO.C,U5*%
X146537500Y-169100000D03*
X146537500Y-168150000D03*
X146537500Y-167200000D03*
X144262500Y-167200000D03*
X144262500Y-168150000D03*
X144262500Y-169100000D03*
%TD*%
D22*
%TO.C,C1*%
X108730000Y-164500000D03*
X107770000Y-164500000D03*
%TD*%
D24*
%TO.C,PS1*%
X138885000Y-147950000D03*
X138885000Y-147450000D03*
X138885000Y-146950000D03*
X138885000Y-146450000D03*
X136915000Y-146450000D03*
X136915000Y-146950000D03*
X136915000Y-147450000D03*
X136915000Y-147950000D03*
%TD*%
D20*
%TO.C,C9*%
X132400000Y-147680000D03*
X132400000Y-146720000D03*
%TD*%
D25*
%TO.C,L1*%
X134400000Y-146137500D03*
X134400000Y-148262500D03*
%TD*%
D26*
%TO.C,U2*%
X128150000Y-151537500D03*
X127350000Y-151537500D03*
X128150000Y-152337500D03*
X127350000Y-152337500D03*
D27*
X128500000Y-150500000D03*
X128000000Y-150500000D03*
X127500000Y-150500000D03*
X127000000Y-150500000D03*
D28*
X126312500Y-151187500D03*
X126312500Y-151687500D03*
X126312500Y-152187500D03*
X126312500Y-152687500D03*
D27*
X127000000Y-153375000D03*
X127500000Y-153375000D03*
X128000000Y-153375000D03*
X128500000Y-153375000D03*
D28*
X129187500Y-152687500D03*
X129187500Y-152187500D03*
X129187500Y-151687500D03*
X129187500Y-151187500D03*
%TD*%
D29*
%TO.C,R10*%
X134500000Y-158175000D03*
X134500000Y-159825000D03*
%TD*%
D20*
%TO.C,C11*%
X123900000Y-147180000D03*
X123900000Y-146220000D03*
%TD*%
D30*
%TO.C,R1*%
X118675000Y-136250000D03*
X120325000Y-136250000D03*
%TD*%
%TO.C,R5*%
X95175000Y-162750000D03*
X96825000Y-162750000D03*
%TD*%
D19*
%TO.C,R12*%
X145525000Y-140400000D03*
X143875000Y-140400000D03*
%TD*%
D17*
%TO.C,BOOT1*%
X101625000Y-163250000D03*
X98375000Y-163250000D03*
%TD*%
D21*
%TO.C,C12*%
X115750000Y-150520000D03*
X115750000Y-151480000D03*
%TD*%
%TO.C,C13*%
X121590000Y-146200000D03*
X121590000Y-147160000D03*
%TD*%
D20*
%TO.C,C14*%
X124900000Y-153780000D03*
X124900000Y-152820000D03*
%TD*%
D19*
%TO.C,R7*%
X90075000Y-148500000D03*
X88425000Y-148500000D03*
%TD*%
D16*
%TO.C,R13*%
X151390000Y-162200000D03*
X152410000Y-162200000D03*
%TD*%
D18*
%TO.C,C17*%
X148770000Y-162250000D03*
X149730000Y-162250000D03*
%TD*%
D22*
%TO.C,C18*%
X140980000Y-149500000D03*
X140020000Y-149500000D03*
%TD*%
D31*
%TO.C,U3*%
X125374601Y-143725001D03*
X125374601Y-144225000D03*
X125374601Y-144724999D03*
X125374601Y-145225000D03*
X125374601Y-145725000D03*
X125374601Y-146225001D03*
X125374601Y-146725000D03*
X125374601Y-147224999D03*
D32*
X126099159Y-147949999D03*
X126599285Y-147949999D03*
X127099411Y-147949999D03*
X127599537Y-147949999D03*
X128099663Y-147949999D03*
X128599789Y-147949999D03*
X129099915Y-147949999D03*
X129600041Y-147949999D03*
D31*
X130324599Y-147224999D03*
X130324599Y-146725000D03*
X130324599Y-146225001D03*
X130324599Y-145725000D03*
X130324599Y-145225000D03*
X130324599Y-144724999D03*
X130324599Y-144225000D03*
X130324599Y-143725001D03*
D32*
X129600041Y-143000001D03*
X129099915Y-143000001D03*
X128599789Y-143000001D03*
X128099663Y-143000001D03*
X127599537Y-143000001D03*
X127099411Y-143000001D03*
X126599285Y-143000001D03*
X126099159Y-143000001D03*
%TD*%
D30*
%TO.C,R6*%
X106925000Y-163000000D03*
X108575000Y-163000000D03*
%TD*%
D20*
%TO.C,C15*%
X122800000Y-145180000D03*
X122800000Y-144220000D03*
%TD*%
D33*
%TO.C,F1*%
X146115000Y-164700000D03*
X147685000Y-164700000D03*
%TD*%
D34*
%TO.C,U1*%
X113350000Y-151560000D03*
X113350000Y-150290000D03*
X113350000Y-149020000D03*
X113350000Y-147750000D03*
X113350000Y-146480000D03*
X113350000Y-145210000D03*
X113350000Y-143940000D03*
X113350000Y-142670000D03*
X113350000Y-141400000D03*
X113350000Y-140130000D03*
X113350000Y-138860000D03*
X113350000Y-137590000D03*
X113350000Y-136320000D03*
X113350000Y-135050000D03*
D35*
X111585000Y-133800000D03*
X110315000Y-133800000D03*
X109045000Y-133800000D03*
X107775000Y-133800000D03*
X106505000Y-133800000D03*
X105235000Y-133800000D03*
X103965000Y-133800000D03*
X102695000Y-133800000D03*
X101425000Y-133800000D03*
X100155000Y-133800000D03*
X98885000Y-133800000D03*
X97615000Y-133800000D03*
D34*
X95850000Y-135050000D03*
X95850000Y-136320000D03*
X95850000Y-137590000D03*
X95850000Y-138860000D03*
X95850000Y-140130000D03*
X95850000Y-141400000D03*
X95850000Y-142670000D03*
X95850000Y-143940000D03*
X95850000Y-145210000D03*
X95850000Y-146480000D03*
X95850000Y-147750000D03*
X95850000Y-149020000D03*
X95850000Y-150290000D03*
X95850000Y-151560000D03*
D36*
X106100000Y-143840000D03*
X107500000Y-143840000D03*
X104700000Y-143840000D03*
X107500000Y-142440000D03*
X106100000Y-142440000D03*
X104700000Y-142440000D03*
X107500000Y-145240000D03*
X106100000Y-145240000D03*
X104700000Y-145240000D03*
%TD*%
D30*
%TO.C,R2*%
X118675000Y-134500000D03*
X120325000Y-134500000D03*
%TD*%
D29*
%TO.C,R11*%
X121500000Y-158175000D03*
X121500000Y-159825000D03*
%TD*%
D19*
%TO.C,R8*%
X90075000Y-150250000D03*
X88425000Y-150250000D03*
%TD*%
M02*
