M48
; DRILL file {KiCad 9.0.6} date 2026-01-02T14:19:28-0500
; FORMAT={-:-/ absolute / metric / decimal}
; #@! TF.CreationDate,2026-01-02T14:19:28-05:00
; #@! TF.GenerationSoftware,Kicad,Pcbnew,9.0.6
; #@! TF.FileFunction,Plated,1,2,PTH
FMAT,2
METRIC
; #@! TA.AperFunction,Plated,PTH,ViaDrill
T1C0.200
; #@! TA.AperFunction,Plated,PTH,ComponentDrill
T2C0.200
; #@! TA.AperFunction,Plated,PTH,ComponentDrill
T3C0.254
; #@! TA.AperFunction,Plated,PTH,ViaDrill
T4C0.300
; #@! TA.AperFunction,Plated,PTH,ComponentDrill
T5C0.600
; #@! TA.AperFunction,Plated,PTH,ComponentDrill
T6C0.991
; #@! TA.AperFunction,Plated,PTH,ComponentDrill
T7C1.000
; #@! TA.AperFunction,Plated,PTH,ComponentDrill
T8C2.591
%
G90
G05
T1
X122.81Y-146.2
X124.7Y-146.7
X124.8Y-145.225
X125.3Y-150.2
X125.4Y-151.812
X126.95Y-150.5
X127.5Y-150.5
X127.618Y-148.529
X128.146Y-148.682
X129.3Y-149.2
X130.325Y-143.585
X130.9Y-152.7
X132.2Y-149.0
X135.275Y-149.9
X140.02Y-150.5
X145.5Y-140.4
X145.525Y-137.19
X145.525Y-138.8
T2
X104.7Y-143.14
X104.7Y-144.54
X105.4Y-142.44
X105.4Y-143.84
X105.4Y-145.24
X106.1Y-143.14
X106.1Y-144.54
X106.8Y-142.44
X106.8Y-143.84
X106.8Y-145.24
X107.5Y-143.14
X107.5Y-144.54
X127.2Y-151.387
X127.2Y-152.487
X128.3Y-151.387
X128.3Y-152.487
X137.9Y-146.65
X137.9Y-147.75
T3
X126.668Y-144.294
X126.668Y-145.081
X126.668Y-145.869
X126.668Y-146.656
X127.456Y-144.294
X127.456Y-145.081
X127.456Y-145.869
X127.456Y-146.656
X128.243Y-144.294
X128.243Y-145.081
X128.243Y-145.869
X128.243Y-146.656
X129.031Y-144.294
X129.031Y-145.081
X129.031Y-145.869
X129.031Y-146.656
T4
X50.056Y-150.795
X51.608Y-133.3
X53.254Y-134.936
X88.425Y-150.25
X92.904Y-148.618
X93.314Y-159.134
X94.142Y-152.061
X95.175Y-162.75
X95.889Y-130.772
X96.5Y-150.25
X98.519Y-141.844
X101.75Y-163.25
X104.527Y-135.075
X104.559Y-131.952
X107.0Y-163.0
X107.75Y-164.5
X110.0Y-163.0
X113.0Y-152.75
X113.35Y-146.48
X113.35Y-147.75
X113.35Y-149.02
X113.5Y-151.75
X113.75Y-163.75
X115.75Y-151.5
X115.75Y-152.75
X118.431Y-133.392
X120.275Y-148.728
X121.899Y-129.617
X122.8Y-144.22
X123.75Y-141.249
X123.9Y-144.22
X124.509Y-140.649
X124.9Y-153.78
X125.23Y-143.079
X126.384Y-131.218
X127.25Y-158.2
X129.0Y-155.48
X130.325Y-147.365
X130.5Y-151.739
X131.229Y-147.683
X131.75Y-171.5
X132.18Y-150.5
X132.4Y-146.72
X133.351Y-143.575
X137.427Y-140.059
X137.766Y-145.164
X141.806Y-164.348
X141.842Y-150.583
X142.186Y-142.564
X142.524Y-143.75
X144.262Y-167.2
X144.262Y-169.1
X146.538Y-168.15
X149.453Y-165.892
X149.453Y-169.63
X149.453Y-171.344
X151.39Y-162.2
X151.39Y-174.2
T6
X148.2Y-142.6
X148.2Y-157.1
X150.7Y-157.1
X153.2Y-142.6
X153.2Y-157.1
T7
X47.25Y-135.3
X47.25Y-137.84
X47.25Y-140.38
X47.25Y-142.92
X47.25Y-145.46
X47.25Y-148.0
X47.25Y-150.54
X47.25Y-153.08
X47.25Y-155.62
X47.25Y-158.16
X47.25Y-160.7
X47.25Y-163.24
X47.25Y-165.78
T8
X145.2Y-149.6
X156.2Y-149.6
T5
G00X151.22Y-163.88
M15
G01X152.32Y-163.88
M16
G05
G00X151.22Y-172.52
M15
G01X152.32Y-172.52
M16
G05
G00X155.65Y-163.88
M15
G01X156.25Y-163.88
M16
G05
G00X155.65Y-172.52
M15
G01X156.25Y-172.52
M16
G05
M30
