%TF.GenerationSoftware,KiCad,Pcbnew,9.0.6*%
%TF.CreationDate,2026-01-02T14:19:04-05:00*%
%TF.ProjectId,spotify desk thing,73706f74-6966-4792-9064-65736b207468,rev?*%
%TF.SameCoordinates,Original*%
%TF.FileFunction,Copper,L1,Top*%
%TF.FilePolarity,Positive*%
%FSLAX46Y46*%
G04 Gerber Fmt 4.6, Leading zero omitted, Abs format (unit mm)*
G04 Created by KiCad (PCBNEW 9.0.6) date 2026-01-02 14:19:04*
%MOMM*%
%LPD*%
G01*
G04 APERTURE LIST*
G04 Aperture macros list*
%AMRoundRect*
0 Rectangle with rounded corners*
0 $1 Rounding radius*
0 $2 $3 $4 $5 $6 $7 $8 $9 X,Y pos of 4 corners*
0 Add a 4 corners polygon primitive as box body*
4,1,4,$2,$3,$4,$5,$6,$7,$8,$9,$2,$3,0*
0 Add four circle primitives for the rounded corners*
1,1,$1+$1,$2,$3*
1,1,$1+$1,$4,$5*
1,1,$1+$1,$6,$7*
1,1,$1+$1,$8,$9*
0 Add four rect primitives between the rounded corners*
20,1,$1+$1,$2,$3,$4,$5,0*
20,1,$1+$1,$4,$5,$6,$7,0*
20,1,$1+$1,$6,$7,$8,$9,0*
20,1,$1+$1,$8,$9,$2,$3,0*%
G04 Aperture macros list end*
%TA.AperFunction,SMDPad,CuDef*%
%ADD10R,2.550000X2.400000*%
%TD*%
%TA.AperFunction,SMDPad,CuDef*%
%ADD11R,2.550000X2.900000*%
%TD*%
%TA.AperFunction,HeatsinkPad*%
%ADD12O,1.600000X1.000000*%
%TD*%
%TA.AperFunction,HeatsinkPad*%
%ADD13O,2.100000X1.000000*%
%TD*%
%TA.AperFunction,SMDPad,CuDef*%
%ADD14R,1.450000X0.600000*%
%TD*%
%TA.AperFunction,SMDPad,CuDef*%
%ADD15R,1.450000X0.300000*%
%TD*%
%TA.AperFunction,SMDPad,CuDef*%
%ADD16RoundRect,0.135000X-0.135000X-0.185000X0.135000X-0.185000X0.135000X0.185000X-0.135000X0.185000X0*%
%TD*%
%TA.AperFunction,SMDPad,CuDef*%
%ADD17R,0.550000X1.500000*%
%TD*%
%TA.AperFunction,SMDPad,CuDef*%
%ADD18RoundRect,0.140000X-0.140000X-0.170000X0.140000X-0.170000X0.140000X0.170000X-0.140000X0.170000X0*%
%TD*%
%TA.AperFunction,SMDPad,CuDef*%
%ADD19RoundRect,0.200000X0.200000X0.275000X-0.200000X0.275000X-0.200000X-0.275000X0.200000X-0.275000X0*%
%TD*%
%TA.AperFunction,SMDPad,CuDef*%
%ADD20RoundRect,0.140000X0.170000X-0.140000X0.170000X0.140000X-0.170000X0.140000X-0.170000X-0.140000X0*%
%TD*%
%TA.AperFunction,SMDPad,CuDef*%
%ADD21RoundRect,0.140000X-0.170000X0.140000X-0.170000X-0.140000X0.170000X-0.140000X0.170000X0.140000X0*%
%TD*%
%TA.AperFunction,SMDPad,CuDef*%
%ADD22RoundRect,0.140000X0.140000X0.170000X-0.140000X0.170000X-0.140000X-0.170000X0.140000X-0.170000X0*%
%TD*%
%TA.AperFunction,ComponentPad*%
%ADD23C,3.098800*%
%TD*%
%TA.AperFunction,ComponentPad*%
%ADD24C,1.498600*%
%TD*%
%TA.AperFunction,SMDPad,CuDef*%
%ADD25RoundRect,0.150000X0.512500X0.150000X-0.512500X0.150000X-0.512500X-0.150000X0.512500X-0.150000X0*%
%TD*%
%TA.AperFunction,SMDPad,CuDef*%
%ADD26RoundRect,0.035000X0.345000X0.105000X-0.345000X0.105000X-0.345000X-0.105000X0.345000X-0.105000X0*%
%TD*%
%TA.AperFunction,SMDPad,CuDef*%
%ADD27R,0.900000X1.600000*%
%TD*%
%TA.AperFunction,ComponentPad*%
%ADD28C,0.400000*%
%TD*%
%TA.AperFunction,SMDPad,CuDef*%
%ADD29RoundRect,0.218750X-0.381250X0.218750X-0.381250X-0.218750X0.381250X-0.218750X0.381250X0.218750X0*%
%TD*%
%TA.AperFunction,SMDPad,CuDef*%
%ADD30RoundRect,0.062500X-0.062500X0.375000X-0.062500X-0.375000X0.062500X-0.375000X0.062500X0.375000X0*%
%TD*%
%TA.AperFunction,SMDPad,CuDef*%
%ADD31RoundRect,0.062500X-0.375000X0.062500X-0.375000X-0.062500X0.375000X-0.062500X0.375000X0.062500X0*%
%TD*%
%TA.AperFunction,HeatsinkPad*%
%ADD32C,0.500000*%
%TD*%
%TA.AperFunction,HeatsinkPad*%
%ADD33R,1.600000X1.600000*%
%TD*%
%TA.AperFunction,SMDPad,CuDef*%
%ADD34RoundRect,0.200000X-0.275000X0.200000X-0.275000X-0.200000X0.275000X-0.200000X0.275000X0.200000X0*%
%TD*%
%TA.AperFunction,SMDPad,CuDef*%
%ADD35RoundRect,0.200000X-0.200000X-0.275000X0.200000X-0.275000X0.200000X0.275000X-0.200000X0.275000X0*%
%TD*%
%TA.AperFunction,SMDPad,CuDef*%
%ADD36R,0.850000X0.280000*%
%TD*%
%TA.AperFunction,SMDPad,CuDef*%
%ADD37R,0.280000X0.850000*%
%TD*%
%TA.AperFunction,SMDPad,CuDef*%
%ADD38R,3.450001X3.450001*%
%TD*%
%TA.AperFunction,ComponentPad*%
%ADD39C,0.508000*%
%TD*%
%TA.AperFunction,SMDPad,CuDef*%
%ADD40R,0.950000X1.020000*%
%TD*%
%TA.AperFunction,SMDPad,CuDef*%
%ADD41R,1.500000X0.900000*%
%TD*%
%TA.AperFunction,SMDPad,CuDef*%
%ADD42R,0.900000X1.500000*%
%TD*%
%TA.AperFunction,SMDPad,CuDef*%
%ADD43R,0.900000X0.900000*%
%TD*%
%TA.AperFunction,ComponentPad*%
%ADD44R,1.700000X1.700000*%
%TD*%
%TA.AperFunction,ComponentPad*%
%ADD45C,1.700000*%
%TD*%
%TA.AperFunction,ViaPad*%
%ADD46C,0.600000*%
%TD*%
%TA.AperFunction,ViaPad*%
%ADD47C,0.350000*%
%TD*%
%TA.AperFunction,Conductor*%
%ADD48C,0.200000*%
%TD*%
%TA.AperFunction,Conductor*%
%ADD49C,0.250000*%
%TD*%
%TA.AperFunction,Conductor*%
%ADD50C,0.600000*%
%TD*%
G04 APERTURE END LIST*
D10*
%TO.P,J2,1,SLEEVE*%
%TO.N,DGND*%
X131675000Y-173150000D03*
D11*
%TO.P,J2,2,TIP*%
%TO.N,OUTL*%
X131675000Y-163850000D03*
D10*
%TO.P,J2,3,RING*%
%TO.N,OUTR*%
X124325000Y-171250000D03*
%TD*%
D12*
%TO.P,J3,S1,SHIELD*%
%TO.N,DGND*%
X155950000Y-163880000D03*
D13*
X151770000Y-163880000D03*
D12*
X155950000Y-172520000D03*
D13*
X151770000Y-172520000D03*
D14*
%TO.P,J3,B12,GND*%
X150855000Y-171450000D03*
%TO.P,J3,B9,VBUS*%
%TO.N,Net-(C17-Pad1)*%
X150855000Y-170650000D03*
D15*
%TO.P,J3,B8,SBU2*%
%TO.N,unconnected-(J3-SBU2-PadB8)*%
X150855000Y-169950000D03*
%TO.P,J3,B7,D-*%
%TO.N,/RAW_D-*%
X150855000Y-168950000D03*
%TO.P,J3,B6,D+*%
%TO.N,/RAW_D+*%
X150855000Y-167450000D03*
%TO.P,J3,B5,CC2*%
%TO.N,Net-(J3-CC2)*%
X150855000Y-166450000D03*
D14*
%TO.P,J3,B4,VBUS*%
%TO.N,Net-(C17-Pad1)*%
X150855000Y-165750000D03*
%TO.P,J3,B1,GND*%
%TO.N,DGND*%
X150855000Y-164950000D03*
%TO.P,J3,A12,GND*%
X150855000Y-164950000D03*
%TO.P,J3,A9,VBUS*%
%TO.N,Net-(C17-Pad1)*%
X150855000Y-165750000D03*
D15*
%TO.P,J3,A8,SBU1*%
%TO.N,unconnected-(J3-SBU1-PadA8)*%
X150855000Y-166950000D03*
%TO.P,J3,A7,D-*%
%TO.N,/RAW_D-*%
X150855000Y-167950000D03*
%TO.P,J3,A6,D+*%
%TO.N,/RAW_D+*%
X150855000Y-168450000D03*
%TO.P,J3,A5,CC1*%
%TO.N,Net-(J3-CC1)*%
X150855000Y-169450000D03*
D14*
%TO.P,J3,A4,VBUS*%
%TO.N,Net-(C17-Pad1)*%
X150855000Y-170650000D03*
%TO.P,J3,A1,GND*%
%TO.N,DGND*%
X150855000Y-171450000D03*
%TD*%
D16*
%TO.P,R14,1*%
%TO.N,DGND*%
X151390000Y-174200000D03*
%TO.P,R14,2*%
%TO.N,Net-(J3-CC1)*%
X152410000Y-174200000D03*
%TD*%
D17*
%TO.P,RESET1,1*%
%TO.N,DGND*%
X113625000Y-163250000D03*
%TO.P,RESET1,2*%
%TO.N,Net-(U1-EN)*%
X110375000Y-163250000D03*
%TD*%
D18*
%TO.P,C16,1*%
%TO.N,3.3v*%
X131220000Y-150300000D03*
%TO.P,C16,2*%
%TO.N,DGND*%
X132180000Y-150300000D03*
%TD*%
%TO.P,C3,1*%
%TO.N,3.3v*%
X135920000Y-145200000D03*
%TO.P,C3,2*%
%TO.N,DGND*%
X136880000Y-145200000D03*
%TD*%
D19*
%TO.P,R3,1*%
%TO.N,3.3v*%
X145525000Y-137190000D03*
%TO.P,R3,2*%
%TO.N,ENC_A*%
X143875000Y-137190000D03*
%TD*%
D20*
%TO.P,C4,1*%
%TO.N,3.3v*%
X130500000Y-152680000D03*
%TO.P,C4,2*%
%TO.N,DGND*%
X130500000Y-151720000D03*
%TD*%
D21*
%TO.P,C5,1*%
%TO.N,Net-(U2-HPVDD)*%
X129000000Y-154520000D03*
%TO.P,C5,2*%
%TO.N,DGND*%
X129000000Y-155480000D03*
%TD*%
%TO.P,C2,1*%
%TO.N,3.3v*%
X122810000Y-146200000D03*
%TO.P,C2,2*%
%TO.N,DGND*%
X122810000Y-147160000D03*
%TD*%
D22*
%TO.P,C6,1*%
%TO.N,Net-(U2-CPP)*%
X127980000Y-155000000D03*
%TO.P,C6,2*%
%TO.N,Net-(U2-CPN)*%
X127020000Y-155000000D03*
%TD*%
D21*
%TO.P,C7,1*%
%TO.N,Net-(U3-VNEG)*%
X125300000Y-149220000D03*
%TO.P,C7,2*%
%TO.N,DGND*%
X125300000Y-150180000D03*
%TD*%
D23*
%TO.P,U4,6*%
%TO.N,N/C*%
X145200001Y-149600002D03*
%TO.P,U4,7*%
X156199999Y-149600002D03*
D24*
%TO.P,U4,A,A*%
%TO.N,ENC_A*%
X148200000Y-157100000D03*
%TO.P,U4,B,B*%
%TO.N,ENC_B*%
X153200000Y-157100000D03*
%TO.P,U4,C,C*%
%TO.N,DGND*%
X150700000Y-157100000D03*
%TO.P,U4,D,D*%
X148200000Y-142600003D03*
%TO.P,U4,E,E*%
%TO.N,ENC_SWITCH*%
X153200000Y-142600003D03*
%TD*%
D22*
%TO.P,C19,1*%
%TO.N,5v*%
X140980000Y-150500000D03*
%TO.P,C19,2*%
%TO.N,DGND*%
X140020000Y-150500000D03*
%TD*%
D20*
%TO.P,C8,1*%
%TO.N,3.3v*%
X123900000Y-145180000D03*
%TO.P,C8,2*%
%TO.N,DGND*%
X123900000Y-144220000D03*
%TD*%
D19*
%TO.P,R4,1*%
%TO.N,3.3v*%
X145525000Y-138800000D03*
%TO.P,R4,2*%
%TO.N,ENC_B*%
X143875000Y-138800000D03*
%TD*%
%TO.P,R9,1*%
%TO.N,Net-(PS1-PG)*%
X136925000Y-149900000D03*
%TO.P,R9,2*%
%TO.N,3.3v*%
X135275000Y-149900000D03*
%TD*%
D18*
%TO.P,C10,1*%
%TO.N,3.3v*%
X131220000Y-149300000D03*
%TO.P,C10,2*%
%TO.N,DGND*%
X132180000Y-149300000D03*
%TD*%
D25*
%TO.P,U5,1,I/O1*%
%TO.N,/RAW_D-*%
X146537500Y-169100000D03*
%TO.P,U5,2,GND*%
%TO.N,DGND*%
X146537500Y-168150000D03*
%TO.P,U5,3,I/O2*%
%TO.N,/RAW_D+*%
X146537500Y-167200000D03*
%TO.P,U5,4,I/O2*%
%TO.N,USB_D+*%
X144262500Y-167200000D03*
%TO.P,U5,5,VBUS*%
%TO.N,5v*%
X144262500Y-168150000D03*
%TO.P,U5,6,I/O1*%
%TO.N,USB_D-*%
X144262500Y-169100000D03*
%TD*%
D22*
%TO.P,C1,1*%
%TO.N,Net-(U1-EN)*%
X108730000Y-164500000D03*
%TO.P,C1,2*%
%TO.N,DGND*%
X107770000Y-164500000D03*
%TD*%
D26*
%TO.P,PS1,1,PGND*%
%TO.N,DGND*%
X138885000Y-147950000D03*
%TO.P,PS1,2,VIN*%
%TO.N,5v*%
X138885000Y-147450000D03*
%TO.P,PS1,3,EN*%
X138885000Y-146950000D03*
%TO.P,PS1,4,AGND*%
%TO.N,DGND*%
X138885000Y-146450000D03*
%TO.P,PS1,5,FB*%
X136915000Y-146450000D03*
%TO.P,PS1,6,VOS*%
%TO.N,3.3v*%
X136915000Y-146950000D03*
%TO.P,PS1,7,SW*%
%TO.N,Net-(PS1-SW)*%
X136915000Y-147450000D03*
%TO.P,PS1,8,PG*%
%TO.N,Net-(PS1-PG)*%
X136915000Y-147950000D03*
D27*
%TO.P,PS1,9,EXP*%
%TO.N,DGND*%
X137900000Y-147200000D03*
D28*
%TO.P,PS1,10*%
%TO.N,N/C*%
X137900000Y-147750000D03*
%TO.P,PS1,11*%
X137900000Y-146650000D03*
%TD*%
D20*
%TO.P,C9,1*%
%TO.N,3.3v*%
X132400000Y-147680000D03*
%TO.P,C9,2*%
%TO.N,DGND*%
X132400000Y-146720000D03*
%TD*%
D29*
%TO.P,L1,1,1*%
%TO.N,3.3v*%
X134400000Y-146137500D03*
%TO.P,L1,2,2*%
%TO.N,Net-(PS1-SW)*%
X134400000Y-148262500D03*
%TD*%
D30*
%TO.P,U2,1,INL-*%
%TO.N,OUTLN*%
X128500000Y-150500000D03*
%TO.P,U2,2,INL+*%
%TO.N,OUTLP*%
X128000000Y-150500000D03*
%TO.P,U2,3,INR+*%
%TO.N,OUTRP*%
X127500000Y-150500000D03*
%TO.P,U2,4,INR-*%
%TO.N,OUTRN*%
X127000000Y-150500000D03*
D31*
%TO.P,U2,5,OUTR*%
%TO.N,Net-(U2-OUTR)*%
X126312500Y-151187500D03*
%TO.P,U2,6,G0*%
%TO.N,3.3v*%
X126312500Y-151687500D03*
%TO.P,U2,7,G1*%
%TO.N,DGND*%
X126312500Y-152187500D03*
%TO.P,U2,8,HPVSS*%
%TO.N,Net-(U2-HPVSS)*%
X126312500Y-152687500D03*
D30*
%TO.P,U2,9,CPN*%
%TO.N,Net-(U2-CPN)*%
X127000000Y-153375000D03*
%TO.P,U2,10,PGND*%
%TO.N,DGND*%
X127500000Y-153375000D03*
%TO.P,U2,11,CPP*%
%TO.N,Net-(U2-CPP)*%
X128000000Y-153375000D03*
%TO.P,U2,12,HPVDD*%
%TO.N,Net-(U2-HPVDD)*%
X128500000Y-153375000D03*
D31*
%TO.P,U2,13,EN*%
%TO.N,3.3v*%
X129187500Y-152687500D03*
%TO.P,U2,14,VDD*%
X129187500Y-152187500D03*
%TO.P,U2,15,SGND*%
%TO.N,DGND*%
X129187500Y-151687500D03*
%TO.P,U2,16,OUTL*%
%TO.N,Net-(U2-OUTL)*%
X129187500Y-151187500D03*
D32*
%TO.P,U2,17,EP*%
%TO.N,DGND*%
X128300000Y-151387500D03*
X127200000Y-151387500D03*
D33*
X127750000Y-151937500D03*
D32*
X128300000Y-152487500D03*
X127200000Y-152487500D03*
%TD*%
D34*
%TO.P,R10,1*%
%TO.N,Net-(U2-OUTL)*%
X134500000Y-158175000D03*
%TO.P,R10,2*%
%TO.N,OUTL*%
X134500000Y-159825000D03*
%TD*%
D20*
%TO.P,C11,1*%
%TO.N,Net-(U3-CAPM)*%
X123900000Y-147180000D03*
%TO.P,C11,2*%
%TO.N,Net-(U3-CAPP)*%
X123900000Y-146220000D03*
%TD*%
D35*
%TO.P,R1,1*%
%TO.N,Net-(U1-IO19)*%
X118675000Y-136250000D03*
%TO.P,R1,2*%
%TO.N,USB_D-*%
X120325000Y-136250000D03*
%TD*%
%TO.P,R5,1*%
%TO.N,3.3v*%
X95175000Y-162750000D03*
%TO.P,R5,2*%
%TO.N,Net-(U1-IO0)*%
X96825000Y-162750000D03*
%TD*%
D19*
%TO.P,R12,1*%
%TO.N,3.3v*%
X145525000Y-140400000D03*
%TO.P,R12,2*%
%TO.N,ENC_SWITCH*%
X143875000Y-140400000D03*
%TD*%
D17*
%TO.P,BOOT1,1*%
%TO.N,DGND*%
X101625000Y-163250000D03*
%TO.P,BOOT1,2*%
%TO.N,Net-(U1-IO0)*%
X98375000Y-163250000D03*
%TD*%
D21*
%TO.P,C12,1*%
%TO.N,3.3v*%
X115750000Y-150520000D03*
%TO.P,C12,2*%
%TO.N,DGND*%
X115750000Y-151480000D03*
%TD*%
%TO.P,C13,1*%
%TO.N,3.3v*%
X121590000Y-146200000D03*
%TO.P,C13,2*%
%TO.N,DGND*%
X121590000Y-147160000D03*
%TD*%
D20*
%TO.P,C14,1*%
%TO.N,DGND*%
X124900000Y-153780000D03*
%TO.P,C14,2*%
%TO.N,Net-(U2-HPVSS)*%
X124900000Y-152820000D03*
%TD*%
D19*
%TO.P,R7,1*%
%TO.N,SCL*%
X90075000Y-148500000D03*
%TO.P,R7,2*%
%TO.N,3.3v*%
X88425000Y-148500000D03*
%TD*%
D16*
%TO.P,R13,1*%
%TO.N,DGND*%
X151390000Y-162200000D03*
%TO.P,R13,2*%
%TO.N,Net-(J3-CC2)*%
X152410000Y-162200000D03*
%TD*%
D18*
%TO.P,C17,1*%
%TO.N,Net-(C17-Pad1)*%
X148770000Y-162250000D03*
%TO.P,C17,2*%
%TO.N,DGND*%
X149730000Y-162250000D03*
%TD*%
D22*
%TO.P,C18,1*%
%TO.N,5v*%
X140980000Y-149500000D03*
%TO.P,C18,2*%
%TO.N,DGND*%
X140020000Y-149500000D03*
%TD*%
D36*
%TO.P,U3,1,XSMT*%
%TO.N,XSMT*%
X125374601Y-143725001D03*
%TO.P,U3,2,LDOO*%
%TO.N,unconnected-(U3-LDOO-Pad2)*%
X125374601Y-144225000D03*
%TO.P,U3,3,DGND*%
%TO.N,DGND*%
X125374601Y-144724999D03*
%TO.P,U3,4,DVDD*%
%TO.N,3.3v*%
X125374601Y-145225000D03*
%TO.P,U3,5,CPVDD*%
X125374601Y-145725000D03*
%TO.P,U3,6,CAPP*%
%TO.N,Net-(U3-CAPP)*%
X125374601Y-146225001D03*
%TO.P,U3,7,CPGND*%
%TO.N,DGND*%
X125374601Y-146725000D03*
%TO.P,U3,8,CAPM*%
%TO.N,Net-(U3-CAPM)*%
X125374601Y-147224999D03*
D37*
%TO.P,U3,9,VNEG*%
%TO.N,Net-(U3-VNEG)*%
X126099159Y-147949999D03*
%TO.P,U3,10,OUTLP*%
%TO.N,OUTLP*%
X126599285Y-147949999D03*
%TO.P,U3,11,OUTLN*%
%TO.N,OUTLN*%
X127099411Y-147949999D03*
%TO.P,U3,12,OUTRN*%
%TO.N,OUTRN*%
X127599537Y-147949999D03*
%TO.P,U3,13,OUTRP*%
%TO.N,OUTRP*%
X128099663Y-147949999D03*
%TO.P,U3,14,AVDD*%
%TO.N,3.3v*%
X128599789Y-147949999D03*
%TO.P,U3,15,AGND*%
%TO.N,DGND*%
X129099915Y-147949999D03*
%TO.P,U3,16,VCOM*%
X129600041Y-147949999D03*
D36*
%TO.P,U3,17,SDA*%
%TO.N,SDA*%
X130324599Y-147224999D03*
%TO.P,U3,18,SCL*%
%TO.N,SCL*%
X130324599Y-146725000D03*
%TO.P,U3,19,GPIO5*%
%TO.N,unconnected-(U3-GPIO5-Pad19)*%
X130324599Y-146225001D03*
%TO.P,U3,20,GPIO4*%
%TO.N,unconnected-(U3-GPIO4-Pad20)*%
X130324599Y-145725000D03*
%TO.P,U3,21,GPIO3*%
%TO.N,unconnected-(U3-GPIO3-Pad21)*%
X130324599Y-145225000D03*
%TO.P,U3,22,ADR2*%
%TO.N,DGND*%
X130324599Y-144724999D03*
%TO.P,U3,23,MODE1*%
X130324599Y-144225000D03*
%TO.P,U3,24,MODE2*%
%TO.N,3.3v*%
X130324599Y-143725001D03*
D37*
%TO.P,U3,25,GPIO6*%
%TO.N,unconnected-(U3-GPIO6-Pad25)*%
X129600041Y-143000001D03*
%TO.P,U3,26,SCK*%
%TO.N,I2S_MCLK*%
X129099915Y-143000001D03*
%TO.P,U3,27,BCK*%
%TO.N,I2S_BCLK*%
X128599789Y-143000001D03*
%TO.P,U3,28,DIN*%
%TO.N,I2S_DOUT*%
X128099663Y-143000001D03*
%TO.P,U3,29,NC*%
%TO.N,unconnected-(U3-NC-Pad29)*%
X127599537Y-143000001D03*
%TO.P,U3,30,NC*%
%TO.N,unconnected-(U3-NC-Pad30)*%
X127099411Y-143000001D03*
%TO.P,U3,31,LRCK*%
%TO.N,I2S_LRCLK*%
X126599285Y-143000001D03*
%TO.P,U3,32,ADR1*%
%TO.N,DGND*%
X126099159Y-143000001D03*
D38*
%TO.P,U3,33,EPAD*%
X127849600Y-145475000D03*
D39*
%TO.P,U3,V,V*%
X126668500Y-144293900D03*
X126668500Y-145081300D03*
X126668500Y-145868700D03*
X126668500Y-146656100D03*
X127455900Y-144293900D03*
X127455900Y-145081300D03*
X127455900Y-145868700D03*
X127455900Y-146656100D03*
X128243300Y-144293900D03*
X128243300Y-145081300D03*
X128243300Y-145868700D03*
X128243300Y-146656100D03*
X129030700Y-144293900D03*
X129030700Y-145081300D03*
X129030700Y-145868700D03*
X129030700Y-146656100D03*
%TD*%
D35*
%TO.P,R6,1*%
%TO.N,3.3v*%
X106925000Y-163000000D03*
%TO.P,R6,2*%
%TO.N,Net-(U1-EN)*%
X108575000Y-163000000D03*
%TD*%
D20*
%TO.P,C15,1*%
%TO.N,3.3v*%
X122800000Y-145180000D03*
%TO.P,C15,2*%
%TO.N,DGND*%
X122800000Y-144220000D03*
%TD*%
D40*
%TO.P,F1,1*%
%TO.N,5v*%
X146115000Y-164700000D03*
%TO.P,F1,2*%
%TO.N,Net-(C17-Pad1)*%
X147685000Y-164700000D03*
%TD*%
D41*
%TO.P,U1,1,GND*%
%TO.N,DGND*%
X113350000Y-151560000D03*
%TO.P,U1,2,3V3*%
%TO.N,3.3v*%
X113350000Y-150290000D03*
%TO.P,U1,3,EN*%
%TO.N,Net-(U1-EN)*%
X113350000Y-149020000D03*
%TO.P,U1,4,IO4*%
%TO.N,I2S_MCLK*%
X113350000Y-147750000D03*
%TO.P,U1,5,IO5*%
%TO.N,I2S_BCLK*%
X113350000Y-146480000D03*
%TO.P,U1,6,IO6*%
%TO.N,I2S_LRCLK*%
X113350000Y-145210000D03*
%TO.P,U1,7,IO7*%
%TO.N,I2S_DOUT*%
X113350000Y-143940000D03*
%TO.P,U1,8,IO15*%
%TO.N,ENC_SWITCH*%
X113350000Y-142670000D03*
%TO.P,U1,9,IO16*%
%TO.N,TOUCH_INT*%
X113350000Y-141400000D03*
%TO.P,U1,10,IO17*%
%TO.N,unconnected-(U1-IO17-Pad10)*%
X113350000Y-140130000D03*
%TO.P,U1,11,IO18*%
%TO.N,unconnected-(U1-IO18-Pad11)*%
X113350000Y-138860000D03*
%TO.P,U1,12,IO8*%
%TO.N,unconnected-(U1-IO8-Pad12)*%
X113350000Y-137590000D03*
%TO.P,U1,13,IO19*%
%TO.N,Net-(U1-IO19)*%
X113350000Y-136320000D03*
%TO.P,U1,14,IO20*%
%TO.N,Net-(U1-IO20)*%
X113350000Y-135050000D03*
D42*
%TO.P,U1,15,IO3*%
%TO.N,unconnected-(U1-IO3-Pad15)*%
X111585000Y-133800000D03*
%TO.P,U1,16,IO46*%
%TO.N,unconnected-(U1-IO46-Pad16)*%
X110315000Y-133800000D03*
%TO.P,U1,17,IO9*%
%TO.N,unconnected-(U1-IO9-Pad17)*%
X109045000Y-133800000D03*
%TO.P,U1,18,IO10*%
%TO.N,XSMT*%
X107775000Y-133800000D03*
%TO.P,U1,19,IO11*%
%TO.N,unconnected-(U1-IO11-Pad19)*%
X106505000Y-133800000D03*
%TO.P,U1,20,IO12*%
%TO.N,unconnected-(U1-IO12-Pad20)*%
X105235000Y-133800000D03*
%TO.P,U1,21,IO13*%
%TO.N,ENC_B*%
X103965000Y-133800000D03*
%TO.P,U1,22,IO14*%
%TO.N,ENC_A*%
X102695000Y-133800000D03*
%TO.P,U1,23,IO21*%
%TO.N,SCREEN_BL*%
X101425000Y-133800000D03*
%TO.P,U1,24,IO47*%
%TO.N,unconnected-(U1-IO47-Pad24)*%
X100155000Y-133800000D03*
%TO.P,U1,25,IO48*%
%TO.N,SD_CS*%
X98885000Y-133800000D03*
%TO.P,U1,26,IO45*%
%TO.N,unconnected-(U1-IO45-Pad26)*%
X97615000Y-133800000D03*
D41*
%TO.P,U1,27,IO0*%
%TO.N,Net-(U1-IO0)*%
X95850000Y-135050000D03*
%TO.P,U1,28,IO35*%
%TO.N,SCREEN_MOSI*%
X95850000Y-136320000D03*
%TO.P,U1,29,IO36*%
%TO.N,SCREEN_SCLK*%
X95850000Y-137590000D03*
%TO.P,U1,30,IO37*%
%TO.N,SCREEN_MISO*%
X95850000Y-138860000D03*
%TO.P,U1,31,IO38*%
%TO.N,unconnected-(U1-IO38-Pad31)*%
X95850000Y-140130000D03*
%TO.P,U1,32,IO39*%
%TO.N,unconnected-(U1-IO39-Pad32)*%
X95850000Y-141400000D03*
%TO.P,U1,33,IO40*%
%TO.N,SCREEN_CS*%
X95850000Y-142670000D03*
%TO.P,U1,34,IO41*%
%TO.N,SCREEN_DC*%
X95850000Y-143940000D03*
%TO.P,U1,35,IO42*%
%TO.N,SCREEN_RES*%
X95850000Y-145210000D03*
%TO.P,U1,36,RXD0*%
%TO.N,unconnected-(U1-RXD0-Pad36)*%
X95850000Y-146480000D03*
%TO.P,U1,37,TXD0*%
%TO.N,unconnected-(U1-TXD0-Pad37)*%
X95850000Y-147750000D03*
%TO.P,U1,38,IO2*%
%TO.N,SCL*%
X95850000Y-149020000D03*
%TO.P,U1,39,IO1*%
%TO.N,SDA*%
X95850000Y-150290000D03*
%TO.P,U1,40,GND__1*%
%TO.N,DGND*%
X95850000Y-151560000D03*
D43*
%TO.P,U1,41_1,GND__2*%
X106100000Y-143840000D03*
%TO.P,U1,41_2,GND__3*%
X107500000Y-143840000D03*
%TO.P,U1,41_3,GND__4*%
X104700000Y-143840000D03*
%TO.P,U1,41_4,GND__5*%
X107500000Y-142440000D03*
%TO.P,U1,41_5,GND__6*%
X106100000Y-142440000D03*
%TO.P,U1,41_6,GND__7*%
X104700000Y-142440000D03*
%TO.P,U1,41_7,GND__8*%
X107500000Y-145240000D03*
%TO.P,U1,41_8,GND__9*%
X106100000Y-145240000D03*
%TO.P,U1,41_9,GND__10*%
X104700000Y-145240000D03*
D28*
%TO.P,U1,41_10*%
%TO.N,N/C*%
X106100000Y-144540000D03*
%TO.P,U1,41_11*%
X107500000Y-144540000D03*
%TO.P,U1,41_12*%
X104700000Y-144540000D03*
%TO.P,U1,41_13*%
X107500000Y-143140000D03*
%TO.P,U1,41_14*%
X106100000Y-143140000D03*
%TO.P,U1,41_15*%
X104700000Y-143140000D03*
%TO.P,U1,41_16*%
X106800000Y-145240000D03*
%TO.P,U1,41_17*%
X105400000Y-145240000D03*
%TO.P,U1,41_18*%
X106800000Y-143840000D03*
%TO.P,U1,41_19*%
X105400000Y-143840000D03*
%TO.P,U1,41_20*%
X106800000Y-142440000D03*
%TO.P,U1,41_21*%
X105400000Y-142440000D03*
%TD*%
D35*
%TO.P,R2,1*%
%TO.N,Net-(U1-IO20)*%
X118675000Y-134500000D03*
%TO.P,R2,2*%
%TO.N,USB_D+*%
X120325000Y-134500000D03*
%TD*%
D34*
%TO.P,R11,1*%
%TO.N,Net-(U2-OUTR)*%
X121500000Y-158175000D03*
%TO.P,R11,2*%
%TO.N,OUTR*%
X121500000Y-159825000D03*
%TD*%
D19*
%TO.P,R8,1*%
%TO.N,SDA*%
X90075000Y-150250000D03*
%TO.P,R8,2*%
%TO.N,3.3v*%
X88425000Y-150250000D03*
%TD*%
D44*
%TO.P,J1,1,Pin_1*%
%TO.N,5v*%
X47250000Y-135300000D03*
D45*
%TO.P,J1,2,Pin_2*%
%TO.N,DGND*%
X47250000Y-137840000D03*
%TO.P,J1,3,Pin_3*%
%TO.N,SCREEN_SCLK*%
X47250000Y-140380000D03*
%TO.P,J1,4,Pin_4*%
%TO.N,SCREEN_MOSI*%
X47250000Y-142920000D03*
%TO.P,J1,5,Pin_5*%
%TO.N,SCREEN_MISO*%
X47250000Y-145460000D03*
%TO.P,J1,6,Pin_6*%
%TO.N,SCREEN_CS*%
X47250000Y-148000000D03*
%TO.P,J1,7,Pin_7*%
%TO.N,SCREEN_RES*%
X47250000Y-150540000D03*
%TO.P,J1,8,Pin_8*%
%TO.N,SCREEN_DC*%
X47250000Y-153080000D03*
%TO.P,J1,9,Pin_9*%
%TO.N,SCREEN_BL*%
X47250000Y-155620000D03*
%TO.P,J1,10,Pin_10*%
%TO.N,SCL*%
X47250000Y-158160000D03*
%TO.P,J1,11,Pin_11*%
%TO.N,SDA*%
X47250000Y-160700000D03*
%TO.P,J1,12,Pin_12*%
%TO.N,TOUCH_INT*%
X47250000Y-163240000D03*
%TO.P,J1,13,Pin_13*%
%TO.N,SD_CS*%
X47250000Y-165780000D03*
%TD*%
D46*
%TO.N,DGND*%
X131750000Y-171500000D03*
%TO.N,Net-(C17-Pad1)*%
X149453000Y-165892000D03*
X149453000Y-169630000D03*
%TO.N,SD_CS*%
X53254200Y-134936200D03*
%TO.N,SCREEN_BL*%
X51607600Y-133300000D03*
%TO.N,I2S_MCLK*%
X124509000Y-140649000D03*
X113350000Y-147750000D03*
%TO.N,SCREEN_RES*%
X50055600Y-150795300D03*
%TO.N,I2S_BCLK*%
X113350000Y-146480000D03*
X123750000Y-141249000D03*
%TO.N,TOUCH_INT*%
X93314400Y-159134100D03*
X98518800Y-141843500D03*
D47*
%TO.N,OUTRP*%
X127500000Y-150500000D03*
X128146000Y-148682000D03*
D46*
%TO.N,XSMT*%
X118431000Y-133392000D03*
X125230000Y-143079000D03*
D47*
%TO.N,OUTRN*%
X126950000Y-150500000D03*
X127618000Y-148529000D03*
D46*
%TO.N,ENC_SWITCH*%
X137427000Y-140059000D03*
%TO.N,ENC_B*%
X104559000Y-131952000D03*
X104527000Y-135075000D03*
%TO.N,SCL*%
X92904500Y-148618000D03*
X121899000Y-129617000D03*
X131229000Y-147683000D03*
X95889000Y-130772000D03*
%TO.N,SDA*%
X130325000Y-147365000D03*
X113000000Y-152750000D03*
X96500000Y-150250000D03*
X115750000Y-152750000D03*
%TO.N,USB_D+*%
X142186000Y-142564000D03*
X144262000Y-167200000D03*
%TO.N,USB_D-*%
X142524000Y-143750000D03*
X144262000Y-169100000D03*
%TO.N,Net-(U1-EN)*%
X113350000Y-149020000D03*
X110000000Y-163000000D03*
D47*
%TO.N,3.3v*%
X135275000Y-149900000D03*
D46*
X88425000Y-150250000D03*
X107000000Y-163000000D03*
D47*
X145500000Y-140400000D03*
D46*
X95175000Y-162750000D03*
D47*
X122810000Y-146200000D03*
X145525000Y-138800000D03*
X125400000Y-151812000D03*
X130900000Y-152700000D03*
X145525000Y-137190000D03*
X129300000Y-149200000D03*
X130325000Y-143585000D03*
X124800000Y-145225000D03*
D46*
%TO.N,5v*%
X141842300Y-150582700D03*
X141806000Y-164347800D03*
X133350800Y-143574600D03*
X126384400Y-131218200D03*
D47*
%TO.N,DGND*%
X132200000Y-149000000D03*
D46*
X101750000Y-163250000D03*
X151390000Y-162200000D03*
D47*
X140020000Y-150500000D03*
D46*
X132180000Y-150500000D03*
D47*
X125300000Y-150200000D03*
D46*
X124900000Y-153780000D03*
X137766000Y-145164000D03*
X123900000Y-144220000D03*
X129000000Y-155480000D03*
X113750000Y-163750000D03*
X130500000Y-151739000D03*
X127250000Y-158200000D03*
X113500000Y-151750000D03*
X146538000Y-168150000D03*
X107750000Y-164500000D03*
X94142500Y-152061000D03*
X149453000Y-171344000D03*
X120275000Y-148728000D03*
X151390000Y-174200000D03*
X122800000Y-144220000D03*
X132400000Y-146720000D03*
X115750000Y-151500000D03*
D47*
X124700000Y-146700000D03*
%TD*%
D48*
%TO.N,OUTL*%
X134075000Y-159825000D02*
X134500000Y-159825000D01*
X131700000Y-162200000D02*
X134075000Y-159825000D01*
X131700000Y-163825000D02*
X131675000Y-163850000D01*
X131700000Y-162200000D02*
X131700000Y-163825000D01*
%TO.N,OUTR*%
X121500000Y-168425000D02*
X124325000Y-171250000D01*
X121500000Y-168000000D02*
X121500000Y-168425000D01*
D49*
X121500000Y-159825000D02*
X121500000Y-168000000D01*
D48*
%TO.N,DGND*%
X131700000Y-171550000D02*
X131750000Y-171500000D01*
X131700000Y-171600000D02*
X131700000Y-171550000D01*
D50*
%TO.N,Net-(C17-Pad1)*%
X149453000Y-165750000D02*
X150855000Y-165750000D01*
D48*
X147685000Y-163335000D02*
X148770000Y-162250000D01*
X147685000Y-164700000D02*
X147685000Y-163335000D01*
D50*
X148735000Y-165750000D02*
X149453000Y-165750000D01*
X147685000Y-164700000D02*
X148735000Y-165750000D01*
D48*
X149828000Y-170006000D02*
X149453000Y-169630000D01*
X149828000Y-170650000D02*
X149828000Y-170006000D01*
X150855000Y-170650000D02*
X149828000Y-170650000D01*
X149453000Y-165750000D02*
X149453000Y-165892000D01*
%TO.N,Net-(U3-CAPP)*%
X125374600Y-146224600D02*
X125374600Y-146225000D01*
X125372500Y-146222500D02*
X125374600Y-146224600D01*
X125370000Y-146220000D02*
X125372500Y-146222500D01*
X123900000Y-146220000D02*
X125370000Y-146220000D01*
X125372500Y-146222500D02*
X125375000Y-146225000D01*
%TO.N,Net-(U3-CAPM)*%
X125374600Y-147224600D02*
X125374600Y-147225000D01*
X125363500Y-147213500D02*
X125374600Y-147224600D01*
X125352000Y-147202000D02*
X125363500Y-147213500D01*
X125330000Y-147180000D02*
X125363500Y-147213500D01*
X123900000Y-147180000D02*
X125330000Y-147180000D01*
D49*
%TO.N,Net-(U2-HPVSS)*%
X126180000Y-152820000D02*
X126312000Y-152688000D01*
X124900000Y-152820000D02*
X126180000Y-152820000D01*
D48*
X126312500Y-152687500D02*
X126312000Y-152688000D01*
%TO.N,Net-(U3-VNEG)*%
X125300000Y-148749000D02*
X125700000Y-148350000D01*
X125300000Y-149220000D02*
X125300000Y-148749000D01*
X126099200Y-147950300D02*
X126099200Y-147950000D01*
X125899500Y-148150000D02*
X126099200Y-147950300D01*
X125700000Y-148350000D02*
X125899500Y-148150000D01*
X125700000Y-148350000D02*
X125899500Y-148150000D01*
D49*
%TO.N,Net-(U2-CPP)*%
X127980000Y-153395000D02*
X128000000Y-153375000D01*
X127980000Y-155000000D02*
X127980000Y-153395000D01*
%TO.N,Net-(U2-CPN)*%
X127020000Y-153395000D02*
X127000000Y-153375000D01*
X127020000Y-155000000D02*
X127020000Y-153395000D01*
%TO.N,Net-(U2-HPVDD)*%
X129000000Y-153875000D02*
X128500000Y-153375000D01*
X129000000Y-154520000D02*
X129000000Y-153875000D01*
%TO.N,Net-(U2-OUTR)*%
X121500000Y-154800000D02*
X121500000Y-158175000D01*
X125112000Y-151188000D02*
X121500000Y-154800000D01*
X126312000Y-151188000D02*
X125112000Y-151188000D01*
D48*
X126312000Y-151188000D02*
X126312500Y-151187500D01*
D49*
%TO.N,Net-(U2-OUTL)*%
X134500000Y-154747000D02*
X134500000Y-158175000D01*
X130867000Y-151114000D02*
X134500000Y-154747000D01*
X129261000Y-151114000D02*
X130867000Y-151114000D01*
X129224000Y-151151000D02*
X129261000Y-151114000D01*
D48*
X129205500Y-151169500D02*
X129187500Y-151187500D01*
X129206000Y-151169500D02*
X129205500Y-151169500D01*
D49*
X129188000Y-151188000D02*
X129206000Y-151169500D01*
X129206000Y-151169500D02*
X129224000Y-151151000D01*
D48*
X129224000Y-151151000D02*
X129206000Y-151169500D01*
X129206000Y-151169500D02*
X129188000Y-151188000D01*
%TO.N,I2S_DOUT*%
X128099700Y-142700300D02*
X128099700Y-143000000D01*
X128100000Y-142700000D02*
X128099700Y-142700300D01*
X128100000Y-143000000D02*
X128100000Y-142700000D01*
X114300000Y-143940000D02*
X113350000Y-143940000D01*
X116391000Y-141849000D02*
X114300000Y-143940000D01*
X127548000Y-141849000D02*
X116391000Y-141849000D01*
X128100000Y-142400000D02*
X127548000Y-141849000D01*
X128100000Y-142700000D02*
X128100000Y-142400000D01*
%TO.N,SD_CS*%
X55442100Y-132748300D02*
X98885000Y-132748300D01*
X53254200Y-134936200D02*
X55442100Y-132748300D01*
X98885000Y-133800000D02*
X98885000Y-132748300D01*
%TO.N,SCREEN_SCLK*%
X50040000Y-137590000D02*
X95850000Y-137590000D01*
X47250000Y-140380000D02*
X50040000Y-137590000D01*
%TO.N,SCREEN_BL*%
X101008200Y-132331500D02*
X101425000Y-132748300D01*
X52576100Y-132331500D02*
X101008200Y-132331500D01*
X51607600Y-133300000D02*
X52576100Y-132331500D01*
X101425000Y-133800000D02*
X101425000Y-132748300D01*
%TO.N,I2S_MCLK*%
X129099900Y-142449600D02*
X129099900Y-143000000D01*
X129100000Y-142449500D02*
X129099900Y-142449600D01*
X129100000Y-142633000D02*
X129100000Y-142449500D01*
X127483000Y-140649000D02*
X124509000Y-140649000D01*
X129100000Y-142266000D02*
X127483000Y-140649000D01*
X129100000Y-142449500D02*
X129100000Y-142266000D01*
%TO.N,SCREEN_CS*%
X52580000Y-142670000D02*
X47250000Y-148000000D01*
X95850000Y-142670000D02*
X52580000Y-142670000D01*
%TO.N,SCREEN_RES*%
X55640900Y-145210000D02*
X95850000Y-145210000D01*
X50055600Y-150795300D02*
X55640900Y-145210000D01*
%TO.N,I2S_LRCLK*%
X114300000Y-145210000D02*
X113350000Y-145210000D01*
X117260000Y-142250000D02*
X114300000Y-145210000D01*
X126516000Y-142250000D02*
X117260000Y-142250000D01*
X126599000Y-142333000D02*
X126516000Y-142250000D01*
X126599000Y-142666000D02*
X126599000Y-142333000D01*
X126599300Y-142833300D02*
X126599300Y-143000000D01*
X126599000Y-142833000D02*
X126599300Y-142833300D01*
X126599000Y-142833000D02*
X126599000Y-142666000D01*
X126599000Y-142666000D02*
X126599000Y-142833000D01*
%TO.N,SCREEN_MOSI*%
X50457800Y-136320000D02*
X95850000Y-136320000D01*
X47786100Y-138991700D02*
X50457800Y-136320000D01*
X46968500Y-138991700D02*
X47786100Y-138991700D01*
X46098000Y-139862200D02*
X46968500Y-138991700D01*
X46098000Y-141768000D02*
X46098000Y-139862200D01*
X47250000Y-142920000D02*
X46098000Y-141768000D01*
%TO.N,SCREEN_DC*%
X47250000Y-152750100D02*
X47250000Y-153080000D01*
X56060100Y-143940000D02*
X47250000Y-152750100D01*
X95850000Y-143940000D02*
X56060100Y-143940000D01*
%TO.N,I2S_BCLK*%
X127516000Y-141249000D02*
X123750000Y-141249000D01*
X128600000Y-142333000D02*
X127516000Y-141249000D01*
X128600000Y-142666000D02*
X128600000Y-142333000D01*
X128599800Y-142833700D02*
X128599800Y-143000000D01*
X128600000Y-142833500D02*
X128599800Y-142833700D01*
X128600000Y-142666000D02*
X128600000Y-142833500D01*
X128600000Y-142833500D02*
X128600000Y-142666000D01*
%TO.N,TOUCH_INT*%
X89208500Y-163240000D02*
X93314400Y-159134100D01*
X47250000Y-163240000D02*
X89208500Y-163240000D01*
X98962300Y-141400000D02*
X113350000Y-141400000D01*
X98518800Y-141843500D02*
X98962300Y-141400000D01*
%TO.N,SCREEN_MISO*%
X53850000Y-138860000D02*
X95850000Y-138860000D01*
X47250000Y-145460000D02*
X53850000Y-138860000D01*
%TO.N,OUTRP*%
X128100000Y-148275000D02*
X128100000Y-147950000D01*
X128100000Y-148275000D02*
X128100000Y-147950000D01*
X128100000Y-148600000D02*
X128100000Y-148275000D01*
X128159000Y-148659000D02*
X128100000Y-148600000D01*
X128159000Y-148669000D02*
X128159000Y-148659000D01*
X128146000Y-148682000D02*
X128159000Y-148669000D01*
X128099700Y-147950000D02*
X128100000Y-147950000D01*
%TO.N,OUTLP*%
X126599000Y-147950000D02*
X126599000Y-148474000D01*
X126599000Y-148474000D02*
X126599000Y-147950000D01*
X128000000Y-150018000D02*
X128000000Y-150500000D01*
X127382000Y-149400000D02*
X128000000Y-150018000D01*
X127000000Y-149400000D02*
X127382000Y-149400000D01*
X126599000Y-148999000D02*
X127000000Y-149400000D01*
X126599000Y-148474000D02*
X126599000Y-148999000D01*
X126599300Y-147950000D02*
X126599000Y-147950000D01*
%TO.N,OUTLN*%
X128500000Y-149951000D02*
X128500000Y-150500000D01*
X127548000Y-148999000D02*
X128500000Y-149951000D01*
X127399000Y-148999000D02*
X127548000Y-148999000D01*
X127099000Y-148699000D02*
X127399000Y-148999000D01*
X127099000Y-147950000D02*
X127099000Y-148699000D01*
X127099400Y-147950000D02*
X127099000Y-147950000D01*
%TO.N,XSMT*%
X107775000Y-133443000D02*
X107775000Y-133800000D01*
X108470000Y-132748000D02*
X107775000Y-133443000D01*
X117787000Y-132748000D02*
X108470000Y-132748000D01*
X118431000Y-133392000D02*
X117787000Y-132748000D01*
X125375000Y-143725000D02*
X125374600Y-143725000D01*
X124996000Y-143079000D02*
X125230000Y-143079000D01*
X124648000Y-143427000D02*
X124996000Y-143079000D01*
X124648000Y-143725000D02*
X124648000Y-143427000D01*
X125374600Y-143725000D02*
X124648000Y-143725000D01*
%TO.N,OUTRN*%
X127599000Y-148511000D02*
X127618000Y-148529000D01*
X127599000Y-147950000D02*
X127599000Y-148511000D01*
X127616000Y-147967000D02*
X127600000Y-147950000D01*
X127000000Y-150500000D02*
X126950000Y-150500000D01*
X127599500Y-147950500D02*
X127599500Y-147950000D01*
X127607500Y-147958500D02*
X127599500Y-147950500D01*
D49*
X127599000Y-147950000D02*
X127607500Y-147958500D01*
X127607500Y-147958500D02*
X127616000Y-147967000D01*
%TO.N,ENC_SWITCH*%
X151801000Y-141201000D02*
X153200000Y-142600000D01*
X144676000Y-141201000D02*
X151801000Y-141201000D01*
X143875000Y-140400000D02*
X144676000Y-141201000D01*
D48*
X114584000Y-142670000D02*
X113350000Y-142670000D01*
X117289000Y-139964000D02*
X114584000Y-142670000D01*
X137333000Y-139964000D02*
X117289000Y-139964000D01*
X137427000Y-140059000D02*
X137333000Y-139964000D01*
%TO.N,ENC_B*%
X104566000Y-131945000D02*
X104559000Y-131952000D01*
X139834000Y-131945000D02*
X104566000Y-131945000D01*
X144586000Y-136697000D02*
X139834000Y-131945000D01*
X144586000Y-138089000D02*
X144586000Y-136697000D01*
X143875000Y-138800000D02*
X144586000Y-138089000D01*
D49*
X144675000Y-139600000D02*
X143875000Y-138800000D01*
X151721000Y-139600000D02*
X144675000Y-139600000D01*
X154275000Y-142155000D02*
X151721000Y-139600000D01*
X154275000Y-156025000D02*
X154275000Y-142155000D01*
X153200000Y-157100000D02*
X154275000Y-156025000D01*
D48*
X104304000Y-134852000D02*
X104527000Y-135075000D01*
X103965000Y-134852000D02*
X104304000Y-134852000D01*
X103965000Y-133800000D02*
X103965000Y-134852000D01*
D49*
%TO.N,ENC_A*%
X143149000Y-137916000D02*
X143875000Y-137190000D01*
X143149000Y-152049000D02*
X143149000Y-137916000D01*
X148200000Y-157100000D02*
X143149000Y-152049000D01*
D48*
X139032000Y-132347000D02*
X143875000Y-137190000D01*
X108291000Y-132347000D02*
X139032000Y-132347000D01*
X107890000Y-132748000D02*
X108291000Y-132347000D01*
X102695000Y-132748000D02*
X107890000Y-132748000D01*
X102695000Y-133800000D02*
X102695000Y-132748000D01*
%TO.N,SCL*%
X95330000Y-148500000D02*
X95850000Y-149020000D01*
X90075000Y-148500000D02*
X95330000Y-148500000D01*
X94798300Y-149020000D02*
X95850000Y-149020000D01*
X94396800Y-148618000D02*
X94798300Y-149020000D01*
X92904500Y-148618000D02*
X94396800Y-148618000D01*
X97043600Y-129617000D02*
X95889000Y-130772000D01*
X121899000Y-129617000D02*
X97043600Y-129617000D01*
X131051000Y-147506000D02*
X131229000Y-147683000D01*
X131051000Y-146725000D02*
X131051000Y-147506000D01*
X130325000Y-146725000D02*
X131051000Y-146725000D01*
X81772200Y-158160000D02*
X47250000Y-158160000D01*
X89250000Y-150682200D02*
X81772200Y-158160000D01*
X89250000Y-149325000D02*
X89250000Y-150682200D01*
X90075000Y-148500000D02*
X89250000Y-149325000D01*
X130324600Y-146725000D02*
X130325000Y-146725000D01*
%TO.N,SDA*%
X113000000Y-152750000D02*
X115750000Y-152750000D01*
X96460000Y-150290000D02*
X96500000Y-150250000D01*
X95850000Y-150290000D02*
X96460000Y-150290000D01*
X130325000Y-147225400D02*
X130325000Y-147365000D01*
X130324600Y-147225000D02*
X130325000Y-147225400D01*
X90075000Y-150250000D02*
X91289800Y-150250000D01*
X95810000Y-150250000D02*
X95850000Y-150290000D01*
X91289800Y-150250000D02*
X95810000Y-150250000D01*
X80839800Y-160700000D02*
X47250000Y-160700000D01*
X91289800Y-150250000D02*
X80839800Y-160700000D01*
%TO.N,USB_D+*%
X134123000Y-134500000D02*
X142186000Y-142564000D01*
X120325000Y-134500000D02*
X134123000Y-134500000D01*
X144262500Y-167200000D02*
X144262000Y-167200000D01*
%TO.N,Net-(U1-IO20)*%
X113900000Y-134500000D02*
X113350000Y-135050000D01*
X118675000Y-134500000D02*
X113900000Y-134500000D01*
%TO.N,USB_D-*%
X135024000Y-136250000D02*
X142524000Y-143750000D01*
X120325000Y-136250000D02*
X135024000Y-136250000D01*
X144262500Y-169100000D02*
X144262000Y-169100000D01*
%TO.N,Net-(U1-IO19)*%
X113420000Y-136250000D02*
X113350000Y-136320000D01*
X118675000Y-136250000D02*
X113420000Y-136250000D01*
%TO.N,Net-(U1-IO0)*%
X97875000Y-162750000D02*
X98375000Y-163250000D01*
X96825000Y-162750000D02*
X97875000Y-162750000D01*
X96550000Y-135050000D02*
X95850000Y-135050000D01*
X97250000Y-135750000D02*
X96550000Y-135050000D01*
X97250000Y-151962000D02*
X97250000Y-135750000D01*
X96462000Y-152750000D02*
X97250000Y-151962000D01*
X95250000Y-152750000D02*
X96462000Y-152750000D01*
X94750000Y-153250000D02*
X95250000Y-152750000D01*
X94750000Y-158343000D02*
X94750000Y-153250000D01*
X95907200Y-159500000D02*
X94750000Y-158343000D01*
X96750000Y-159500000D02*
X95907200Y-159500000D01*
X96825000Y-159575000D02*
X96750000Y-159500000D01*
X96825000Y-162750000D02*
X96825000Y-159575000D01*
D49*
%TO.N,Net-(PS1-PG)*%
X136925000Y-147960000D02*
X136915000Y-147950000D01*
X136925000Y-149900000D02*
X136925000Y-147960000D01*
D48*
%TO.N,Net-(PS1-SW)*%
X135212000Y-147450000D02*
X134400000Y-148262000D01*
X136915000Y-147450000D02*
X135212000Y-147450000D01*
X134400000Y-148262500D02*
X134400000Y-148262000D01*
%TO.N,Net-(J3-CC1)*%
X151832000Y-169450000D02*
X150855000Y-169450000D01*
X153121000Y-170739000D02*
X151832000Y-169450000D01*
X153121000Y-173489000D02*
X153121000Y-170739000D01*
X152410000Y-174200000D02*
X153121000Y-173489000D01*
%TO.N,/RAW_D+*%
X146788000Y-167450000D02*
X150855000Y-167450000D01*
X146538000Y-167200000D02*
X146788000Y-167450000D01*
X146637000Y-167300000D02*
X146638000Y-167300000D01*
X146538000Y-167200000D02*
X146637000Y-167300000D01*
X151832000Y-168450000D02*
X150855000Y-168450000D01*
X151881000Y-168401000D02*
X151832000Y-168450000D01*
X151881000Y-167499000D02*
X151881000Y-168401000D01*
X151832000Y-167450000D02*
X151881000Y-167499000D01*
X150855000Y-167450000D02*
X151832000Y-167450000D01*
X146537500Y-167200000D02*
X146538000Y-167200000D01*
%TO.N,/RAW_D-*%
X149900000Y-168950000D02*
X150855000Y-168950000D01*
X146587000Y-169050000D02*
X146588000Y-169050000D01*
X146538000Y-169100000D02*
X146587000Y-169050000D01*
X146688000Y-168950000D02*
X149900000Y-168950000D01*
X146588000Y-169050000D02*
X146688000Y-168950000D01*
X149829000Y-168879000D02*
X149900000Y-168950000D01*
X149829000Y-167999000D02*
X149829000Y-168879000D01*
X149878000Y-167950000D02*
X149829000Y-167999000D01*
X150855000Y-167950000D02*
X149878000Y-167950000D01*
X146538000Y-169100000D02*
X146588000Y-169050000D01*
X146537500Y-169100000D02*
X146538000Y-169100000D01*
%TO.N,Net-(J3-CC2)*%
X152116000Y-166450000D02*
X150855000Y-166450000D01*
X153121000Y-165445000D02*
X152116000Y-166450000D01*
X153121000Y-162911000D02*
X153121000Y-165445000D01*
X152410000Y-162200000D02*
X153121000Y-162911000D01*
%TO.N,Net-(U1-EN)*%
X108730000Y-163155000D02*
X108575000Y-163000000D01*
X108730000Y-164500000D02*
X108730000Y-163155000D01*
X108575000Y-163000000D02*
X110000000Y-163000000D01*
X110125000Y-163000000D02*
X110375000Y-163250000D01*
X110000000Y-163000000D02*
X110125000Y-163000000D01*
%TO.N,3.3v*%
X116361000Y-151131000D02*
X115750000Y-150520000D01*
X129400000Y-149300000D02*
X129300000Y-149200000D01*
X129500000Y-149300000D02*
X129400000Y-149300000D01*
X122810000Y-146200000D02*
X121590000Y-146200000D01*
X135338000Y-145200000D02*
X134400000Y-146138000D01*
X135920000Y-145200000D02*
X135338000Y-145200000D01*
X128600000Y-148246000D02*
X128600000Y-147950000D01*
X131220000Y-149300000D02*
X129500000Y-149300000D01*
X130465000Y-143725000D02*
X130325000Y-143585000D01*
D49*
X145525000Y-140400000D02*
X145500000Y-140400000D01*
D48*
X88425000Y-150250000D02*
X88425000Y-148500000D01*
X128600000Y-148246000D02*
X128600000Y-147950000D01*
D49*
X129188000Y-152313000D02*
X129188000Y-152438000D01*
X125525000Y-151688000D02*
X125400000Y-151812000D01*
X126312000Y-151688000D02*
X125525000Y-151688000D01*
X130880000Y-152680000D02*
X130900000Y-152700000D01*
X130500000Y-152680000D02*
X130880000Y-152680000D01*
X132858000Y-147680000D02*
X132400000Y-147680000D01*
X134400000Y-146138000D02*
X132858000Y-147680000D01*
X130492000Y-152688000D02*
X130500000Y-152680000D01*
X129188000Y-152688000D02*
X130492000Y-152688000D01*
D48*
X106925000Y-163000000D02*
X107000000Y-163000000D01*
X113580000Y-150520000D02*
X113350000Y-150290000D01*
X115750000Y-150520000D02*
X113580000Y-150520000D01*
X130500000Y-150300000D02*
X129500000Y-149300000D01*
X131220000Y-150300000D02*
X130500000Y-150300000D01*
X135338000Y-146138000D02*
X134400000Y-146138000D01*
X136150000Y-146950000D02*
X135338000Y-146138000D01*
X136915000Y-146950000D02*
X136150000Y-146950000D01*
D49*
X134620000Y-149900000D02*
X135275000Y-149900000D01*
X132400000Y-147680000D02*
X134620000Y-149900000D01*
D48*
X116659000Y-151131000D02*
X121590000Y-146200000D01*
X116361000Y-151131000D02*
X116659000Y-151131000D01*
D49*
X131042000Y-143725000D02*
X130684000Y-143725000D01*
X131700000Y-144383000D02*
X131042000Y-143725000D01*
X131700000Y-146993000D02*
X131700000Y-144383000D01*
X132387000Y-147680000D02*
X131700000Y-146993000D01*
X132400000Y-147680000D02*
X132387000Y-147680000D01*
D48*
X130684000Y-143725000D02*
X130465000Y-143725000D01*
X116361000Y-156432000D02*
X116361000Y-151131000D01*
X110644000Y-162149000D02*
X116361000Y-156432000D01*
X107851000Y-162149000D02*
X110644000Y-162149000D01*
X107000000Y-163000000D02*
X107851000Y-162149000D01*
X128600000Y-148541000D02*
X128600000Y-148246000D01*
X128808000Y-148750000D02*
X128600000Y-148541000D01*
X128850000Y-148750000D02*
X128808000Y-148750000D01*
X129300000Y-149200000D02*
X128850000Y-148750000D01*
D49*
X130684000Y-143725000D02*
X130465000Y-143725000D01*
X130465000Y-143725000D02*
X130325000Y-143725000D01*
X124800000Y-145225000D02*
X125374600Y-145225000D01*
X125374600Y-145225000D02*
X125375000Y-145225000D01*
D48*
X129187500Y-152563500D02*
X129187500Y-152687500D01*
X129188000Y-152563000D02*
X129187500Y-152563500D01*
X129188000Y-152438000D02*
X129188000Y-152563000D01*
X129188000Y-152563000D02*
X129188000Y-152688000D01*
D49*
X129188000Y-152438000D02*
X129188000Y-152563000D01*
X129188000Y-152563000D02*
X129188000Y-152688000D01*
D48*
X130324600Y-143725000D02*
X130325000Y-143725000D01*
X134400000Y-146137500D02*
X134400000Y-146138000D01*
X128599800Y-147950000D02*
X128600000Y-147950000D01*
X126312500Y-151687500D02*
X126312000Y-151688000D01*
X129187500Y-152250000D02*
X129187500Y-152187500D01*
X129188000Y-152250500D02*
X129187500Y-152250000D01*
D49*
X129188000Y-152188000D02*
X129188000Y-152250500D01*
X129188000Y-152250500D02*
X129188000Y-152313000D01*
D48*
X129188000Y-152313000D02*
X129188000Y-152250500D01*
X129188000Y-152250500D02*
X129188000Y-152188000D01*
X124755000Y-145180000D02*
X124800000Y-145225000D01*
X123900000Y-145180000D02*
X124755000Y-145180000D01*
X122800000Y-145180000D02*
X123900000Y-145180000D01*
X125289000Y-145639000D02*
X125332000Y-145682000D01*
X123371000Y-145639000D02*
X125289000Y-145639000D01*
X122810000Y-146200000D02*
X123371000Y-145639000D01*
X125374600Y-145724600D02*
X125374600Y-145725000D01*
X125332000Y-145682000D02*
X125374600Y-145724600D01*
%TO.N,5v*%
X140980000Y-149119000D02*
X140980000Y-149500000D01*
X139311000Y-147450000D02*
X140980000Y-149119000D01*
X138885000Y-147450000D02*
X139311000Y-147450000D01*
D49*
X144925000Y-168150000D02*
X144262500Y-168150000D01*
X145549000Y-167526000D02*
X144925000Y-168150000D01*
X145549000Y-165266000D02*
X145549000Y-167526000D01*
X146115000Y-164700000D02*
X145549000Y-165266000D01*
X144262500Y-168150000D02*
X144262000Y-168150000D01*
D48*
X140980000Y-149500000D02*
X140980000Y-150345100D01*
X140980000Y-150345100D02*
X140980000Y-150500000D01*
X141604700Y-150345100D02*
X141842300Y-150582700D01*
X140980000Y-150345100D02*
X141604700Y-150345100D01*
X144986100Y-164347800D02*
X145338300Y-164700000D01*
X141806000Y-164347800D02*
X144986100Y-164347800D01*
X146115000Y-164700000D02*
X145338300Y-164700000D01*
X138885000Y-146950000D02*
X138885000Y-147200000D01*
X138885000Y-147200000D02*
X138885000Y-147450000D01*
X137102100Y-143574600D02*
X133350800Y-143574600D01*
X139609900Y-146082400D02*
X137102100Y-143574600D01*
X139609900Y-146711000D02*
X139609900Y-146082400D01*
X139120900Y-147200000D02*
X139609900Y-146711000D01*
X138885000Y-147200000D02*
X139120900Y-147200000D01*
X52139100Y-131562600D02*
X48401700Y-135300000D01*
X95949400Y-131562600D02*
X52139100Y-131562600D01*
X96293800Y-131218200D02*
X95949400Y-131562600D01*
X126384400Y-131218200D02*
X96293800Y-131218200D01*
X47250000Y-135300000D02*
X48401700Y-135300000D01*
D49*
%TO.N,DGND*%
X126594000Y-152188000D02*
X126900000Y-152188000D01*
D48*
X115750000Y-151480000D02*
X115750000Y-151500000D01*
D49*
X129495000Y-144725000D02*
X129457000Y-144688000D01*
D48*
X140020000Y-149500000D02*
X140020000Y-150500000D01*
X126974000Y-144600000D02*
X126258000Y-143884000D01*
X126594000Y-152188000D02*
X126312000Y-152188000D01*
X130500000Y-151720000D02*
X130500000Y-151739000D01*
X104700000Y-142440000D02*
X106100000Y-142440000D01*
X122810000Y-147160000D02*
X121590000Y-147160000D01*
X137635000Y-145200000D02*
X138885000Y-146450000D01*
X128243000Y-145869000D02*
X127850000Y-145475000D01*
X128475000Y-146100000D02*
X128243000Y-145869000D01*
X129100000Y-147338000D02*
X129100000Y-147950000D01*
X138460000Y-147950000D02*
X138401000Y-147891000D01*
X138885000Y-147950000D02*
X138460000Y-147950000D01*
D49*
X129100000Y-147950000D02*
X129100000Y-147338000D01*
D48*
X140020000Y-149085000D02*
X140020000Y-149500000D01*
X138885000Y-147950000D02*
X140020000Y-149085000D01*
X126099000Y-143565000D02*
X126338000Y-143804000D01*
X126099000Y-143242000D02*
X126099000Y-143565000D01*
D49*
X129600000Y-147950000D02*
X129100000Y-147950000D01*
X128600000Y-144725000D02*
X127850000Y-145475000D01*
X129495000Y-144725000D02*
X128600000Y-144725000D01*
D48*
X136880000Y-146415000D02*
X136915000Y-146450000D01*
X136880000Y-145200000D02*
X136880000Y-146415000D01*
X107770000Y-164500000D02*
X107750000Y-164500000D01*
X125300000Y-150180000D02*
X125300000Y-150200000D01*
X137671000Y-145164000D02*
X137635000Y-145200000D01*
X137766000Y-145164000D02*
X137671000Y-145164000D01*
D49*
X128475000Y-146100000D02*
X127850000Y-145475000D01*
D48*
X94798300Y-151560000D02*
X95850000Y-151560000D01*
X94297600Y-152061000D02*
X94798300Y-151560000D01*
X94142500Y-152061000D02*
X94297600Y-152061000D01*
X132180000Y-149020000D02*
X132200000Y-149000000D01*
X132180000Y-149300000D02*
X132180000Y-149020000D01*
X101625000Y-163250000D02*
X101750000Y-163250000D01*
D49*
X126312000Y-152188000D02*
X126594000Y-152188000D01*
D48*
X128600000Y-151688000D02*
X129188000Y-151688000D01*
X128300000Y-151388000D02*
X128600000Y-151688000D01*
D49*
X127500000Y-152788000D02*
X126900000Y-152188000D01*
X127500000Y-153375000D02*
X127500000Y-152788000D01*
D48*
X126099000Y-143242000D02*
X126099000Y-143000000D01*
X130325000Y-144475000D02*
X130325000Y-144225000D01*
X127500000Y-152188000D02*
X127750000Y-151938000D01*
X126900000Y-152188000D02*
X127500000Y-152188000D01*
D49*
X126099000Y-143000000D02*
X126133000Y-143034000D01*
X130325000Y-144475000D02*
X130325000Y-144225000D01*
D48*
X126974000Y-144600000D02*
X127850000Y-145475000D01*
X136880000Y-145200000D02*
X137635000Y-145200000D01*
D49*
X130468000Y-151688000D02*
X130500000Y-151720000D01*
X129188000Y-151688000D02*
X130468000Y-151688000D01*
D48*
X132180000Y-150300000D02*
X132180000Y-149300000D01*
X126099000Y-143000000D02*
X126099000Y-143242000D01*
D49*
X130325000Y-144725000D02*
X129495000Y-144725000D01*
X130325000Y-144475000D02*
X130325000Y-144725000D01*
X127100000Y-144725000D02*
X127850000Y-145475000D01*
X125375000Y-144725000D02*
X127100000Y-144725000D01*
D48*
X113350000Y-151600000D02*
X113500000Y-151750000D01*
X113350000Y-151560000D02*
X113350000Y-151600000D01*
X113625000Y-163625000D02*
X113750000Y-163750000D01*
X113625000Y-163250000D02*
X113625000Y-163625000D01*
D49*
X126338000Y-143804000D02*
X126258000Y-143884000D01*
D48*
X124725000Y-146725000D02*
X124700000Y-146700000D01*
X125375000Y-146725000D02*
X124725000Y-146725000D01*
X124405000Y-144725000D02*
X125375000Y-144725000D01*
X123900000Y-144220000D02*
X124405000Y-144725000D01*
X104700000Y-143840000D02*
X106100000Y-143840000D01*
X149722000Y-171344000D02*
X149453000Y-171344000D01*
X149828000Y-171450000D02*
X149722000Y-171344000D01*
X150855000Y-171450000D02*
X149828000Y-171450000D01*
X151340000Y-162250000D02*
X151390000Y-162200000D01*
X149730000Y-162250000D02*
X151340000Y-162250000D01*
X121590000Y-147413000D02*
X121590000Y-147160000D01*
X120275000Y-148728000D02*
X121590000Y-147413000D01*
X126338000Y-143964000D02*
X126974000Y-144600000D01*
X126338000Y-143804000D02*
X126338000Y-143964000D01*
D49*
X129100000Y-146725000D02*
X128475000Y-146100000D01*
X129100000Y-147338000D02*
X129100000Y-146725000D01*
%TD*%
%TA.AperFunction,Conductor*%
%TO.N,DGND*%
G36*
X122374766Y-146927267D02*
G01*
X122383605Y-146932494D01*
X122383608Y-146932494D01*
X122383610Y-146932496D01*
X122539002Y-146977642D01*
X122539005Y-146977642D01*
X122539007Y-146977643D01*
X122575310Y-146980500D01*
X122575318Y-146980500D01*
X122686000Y-146980500D01*
X122753039Y-147000185D01*
X122798794Y-147052989D01*
X122810000Y-147104500D01*
X122810000Y-147160000D01*
X122936000Y-147160000D01*
X123003039Y-147179685D01*
X123048794Y-147232489D01*
X123060000Y-147284000D01*
X123060000Y-147938789D01*
X123080910Y-147937145D01*
X123236196Y-147892031D01*
X123274475Y-147869392D01*
X123342198Y-147852207D01*
X123400720Y-147869390D01*
X123439514Y-147892333D01*
X123473605Y-147912494D01*
X123496876Y-147919255D01*
X123629002Y-147957642D01*
X123629005Y-147957642D01*
X123629007Y-147957643D01*
X123665310Y-147960500D01*
X123665318Y-147960500D01*
X124134682Y-147960500D01*
X124134690Y-147960500D01*
X124170993Y-147957643D01*
X124170995Y-147957642D01*
X124170997Y-147957642D01*
X124238652Y-147937986D01*
X124326395Y-147912494D01*
X124465687Y-147830117D01*
X124465692Y-147830112D01*
X124478986Y-147816819D01*
X124505913Y-147802115D01*
X124531732Y-147785523D01*
X124537932Y-147784631D01*
X124540309Y-147783334D01*
X124566667Y-147780500D01*
X124628201Y-147780500D01*
X124695240Y-147800185D01*
X124702513Y-147805234D01*
X124707269Y-147808794D01*
X124707272Y-147808796D01*
X124722724Y-147814559D01*
X124842118Y-147859090D01*
X124901728Y-147865499D01*
X125035522Y-147865498D01*
X125102560Y-147885182D01*
X125148315Y-147937986D01*
X125158259Y-148007144D01*
X125129235Y-148070700D01*
X125123092Y-148077289D01*
X124937542Y-148262375D01*
X124931613Y-148268289D01*
X124931284Y-148268480D01*
X124875535Y-148324228D01*
X124858054Y-148341666D01*
X124819930Y-148379694D01*
X124819879Y-148379762D01*
X124819653Y-148380056D01*
X124819489Y-148380267D01*
X124780349Y-148448061D01*
X124780272Y-148448194D01*
X124740709Y-148516522D01*
X124740664Y-148516630D01*
X124740608Y-148516768D01*
X124740480Y-148517075D01*
X124740427Y-148517201D01*
X124731980Y-148548723D01*
X124699889Y-148604305D01*
X124619883Y-148684312D01*
X124619879Y-148684318D01*
X124537505Y-148823606D01*
X124537504Y-148823609D01*
X124492357Y-148979002D01*
X124492356Y-148979008D01*
X124489500Y-149015302D01*
X124489500Y-149424697D01*
X124492356Y-149460991D01*
X124492357Y-149460997D01*
X124537504Y-149616390D01*
X124537507Y-149616397D01*
X124549910Y-149637370D01*
X124567093Y-149705094D01*
X124549912Y-149763608D01*
X124537968Y-149783804D01*
X124495496Y-149930000D01*
X124801648Y-149930000D01*
X124864766Y-149947267D01*
X124873605Y-149952494D01*
X124873608Y-149952494D01*
X124873610Y-149952496D01*
X125029002Y-149997642D01*
X125029005Y-149997642D01*
X125029007Y-149997643D01*
X125065310Y-150000500D01*
X125065318Y-150000500D01*
X125534682Y-150000500D01*
X125534690Y-150000500D01*
X125570993Y-149997643D01*
X125570995Y-149997642D01*
X125570997Y-149997642D01*
X125726389Y-149952496D01*
X125726389Y-149952495D01*
X125726395Y-149952494D01*
X125735233Y-149947267D01*
X125798352Y-149930000D01*
X126104504Y-149930000D01*
X126062031Y-149783803D01*
X126050090Y-149763613D01*
X126032906Y-149695889D01*
X126042236Y-149653095D01*
X126045601Y-149644959D01*
X126062494Y-149616395D01*
X126074479Y-149575142D01*
X126077076Y-149568864D01*
X126094896Y-149546727D01*
X126110191Y-149522778D01*
X126116520Y-149519865D01*
X126120890Y-149514438D01*
X126147850Y-149505449D01*
X126173664Y-149493572D01*
X126180562Y-149494543D01*
X126187173Y-149492340D01*
X126214713Y-149499354D01*
X126242850Y-149503318D01*
X126250170Y-149508385D01*
X126254881Y-149509585D01*
X126260293Y-149515392D01*
X126279342Y-149528578D01*
X126432265Y-149681501D01*
X126465750Y-149742824D01*
X126460766Y-149812516D01*
X126449078Y-149833623D01*
X126449785Y-149834031D01*
X126445722Y-149841068D01*
X126388991Y-149978027D01*
X126388990Y-149978029D01*
X126374501Y-150088089D01*
X126374500Y-150088105D01*
X126374500Y-150107814D01*
X126366331Y-150152076D01*
X126361351Y-150165107D01*
X126351380Y-150180031D01*
X126300460Y-150302964D01*
X126291541Y-150347797D01*
X126287799Y-150357592D01*
X126272731Y-150377387D01*
X126261199Y-150399434D01*
X126251936Y-150404708D01*
X126245482Y-150413188D01*
X126222105Y-150421694D01*
X126200483Y-150434007D01*
X126189839Y-150433436D01*
X126179824Y-150437081D01*
X126155556Y-150431598D01*
X126130713Y-150430266D01*
X126130344Y-150430000D01*
X124495496Y-150430000D01*
X124537968Y-150576195D01*
X124600956Y-150682701D01*
X124618139Y-150750425D01*
X124595979Y-150816687D01*
X124581905Y-150833503D01*
X122827909Y-152587500D01*
X121101269Y-154314140D01*
X121101267Y-154314142D01*
X121070717Y-154344692D01*
X121014142Y-154401266D01*
X120981104Y-154450712D01*
X120981103Y-154450714D01*
X120945687Y-154503714D01*
X120945685Y-154503718D01*
X120920489Y-154564548D01*
X120920490Y-154564549D01*
X120898536Y-154617549D01*
X120898535Y-154617555D01*
X120874500Y-154738389D01*
X120874500Y-157298397D01*
X120854815Y-157365436D01*
X120814652Y-157404513D01*
X120789813Y-157419529D01*
X120789811Y-157419530D01*
X120669530Y-157539811D01*
X120581522Y-157685393D01*
X120530913Y-157847807D01*
X120524500Y-157918386D01*
X120524500Y-158431613D01*
X120530913Y-158502192D01*
X120530913Y-158502194D01*
X120530914Y-158502196D01*
X120581522Y-158664606D01*
X120638177Y-158758325D01*
X120669530Y-158810188D01*
X120771661Y-158912319D01*
X120805146Y-158973642D01*
X120800162Y-159043334D01*
X120771661Y-159087681D01*
X120669531Y-159189810D01*
X120669530Y-159189811D01*
X120581522Y-159335393D01*
X120530913Y-159497807D01*
X120529507Y-159513285D01*
X120524500Y-159568384D01*
X120524500Y-160081616D01*
X120525868Y-160096666D01*
X120530913Y-160152192D01*
X120530913Y-160152194D01*
X120530914Y-160152196D01*
X120581522Y-160314606D01*
X120669530Y-160460188D01*
X120789811Y-160580469D01*
X120789813Y-160580470D01*
X120789815Y-160580472D01*
X120814650Y-160595485D01*
X120861837Y-160647010D01*
X120874500Y-160701601D01*
X120874500Y-168061610D01*
X120897117Y-168175313D01*
X120899500Y-168199504D01*
X120899500Y-168338330D01*
X120899499Y-168338348D01*
X120899499Y-168504054D01*
X120899498Y-168504054D01*
X120899499Y-168504057D01*
X120940423Y-168656785D01*
X120940424Y-168656786D01*
X120954856Y-168681785D01*
X120954857Y-168681786D01*
X121019475Y-168793709D01*
X121019481Y-168793717D01*
X121138349Y-168912585D01*
X121138355Y-168912590D01*
X122513181Y-170287416D01*
X122546666Y-170348739D01*
X122549500Y-170375097D01*
X122549500Y-172497870D01*
X122549501Y-172497876D01*
X122555908Y-172557483D01*
X122606202Y-172692328D01*
X122606206Y-172692335D01*
X122692452Y-172807544D01*
X122692455Y-172807547D01*
X122807664Y-172893793D01*
X122807671Y-172893797D01*
X122942517Y-172944091D01*
X122942516Y-172944091D01*
X122949444Y-172944835D01*
X123002127Y-172950500D01*
X125647872Y-172950499D01*
X125707483Y-172944091D01*
X125842331Y-172893796D01*
X125957546Y-172807546D01*
X126043796Y-172692331D01*
X126094091Y-172557483D01*
X126100500Y-172497873D01*
X126100500Y-171946530D01*
X126949500Y-171946530D01*
X126949500Y-172153469D01*
X126989868Y-172356412D01*
X126989870Y-172356420D01*
X127041267Y-172480504D01*
X127069059Y-172547598D01*
X127075664Y-172557483D01*
X127184024Y-172719657D01*
X127330342Y-172865975D01*
X127330345Y-172865977D01*
X127502402Y-172980941D01*
X127693580Y-173060130D01*
X127896294Y-173100452D01*
X127896530Y-173100499D01*
X127896534Y-173100500D01*
X127896535Y-173100500D01*
X128103466Y-173100500D01*
X128103467Y-173100499D01*
X128306420Y-173060130D01*
X128497598Y-172980941D01*
X128669655Y-172865977D01*
X128815977Y-172719655D01*
X128930941Y-172547598D01*
X129010130Y-172356420D01*
X129050500Y-172153465D01*
X129050500Y-171946535D01*
X129041672Y-171902155D01*
X129900000Y-171902155D01*
X129900000Y-172900000D01*
X131425000Y-172900000D01*
X131925000Y-172900000D01*
X133450000Y-172900000D01*
X133450000Y-171902172D01*
X133449999Y-171902155D01*
X133443598Y-171842627D01*
X133443596Y-171842620D01*
X133426896Y-171797844D01*
X149630000Y-171797844D01*
X149636401Y-171857372D01*
X149636403Y-171857379D01*
X149686645Y-171992086D01*
X149686649Y-171992093D01*
X149772809Y-172107187D01*
X149772812Y-172107190D01*
X149887906Y-172193350D01*
X149887913Y-172193354D01*
X150022620Y-172243596D01*
X150022627Y-172243598D01*
X150082155Y-172249999D01*
X150082172Y-172250000D01*
X150175076Y-172250000D01*
X150242115Y-172269685D01*
X150242469Y-172270000D01*
X150605000Y-172270000D01*
X150605000Y-171700000D01*
X149630000Y-171700000D01*
X149630000Y-171797844D01*
X133426896Y-171797844D01*
X133393352Y-171707909D01*
X133307190Y-171592812D01*
X133307187Y-171592809D01*
X133192093Y-171506649D01*
X133192086Y-171506645D01*
X133057379Y-171456403D01*
X133057372Y-171456401D01*
X132997844Y-171450000D01*
X131925000Y-171450000D01*
X131925000Y-172900000D01*
X131425000Y-172900000D01*
X131425000Y-171450000D01*
X130352155Y-171450000D01*
X130292627Y-171456401D01*
X130292620Y-171456403D01*
X130157913Y-171506645D01*
X130157906Y-171506649D01*
X130042812Y-171592809D01*
X130042809Y-171592812D01*
X129956649Y-171707906D01*
X129956645Y-171707913D01*
X129906403Y-171842620D01*
X129906401Y-171842627D01*
X129900000Y-171902155D01*
X129041672Y-171902155D01*
X129010130Y-171743580D01*
X128930941Y-171552402D01*
X128815977Y-171380345D01*
X128815975Y-171380342D01*
X128669657Y-171234024D01*
X128583626Y-171176541D01*
X128497598Y-171119059D01*
X128306420Y-171039870D01*
X128306412Y-171039868D01*
X128103469Y-170999500D01*
X128103465Y-170999500D01*
X127896535Y-170999500D01*
X127896530Y-170999500D01*
X127693587Y-171039868D01*
X127693579Y-171039870D01*
X127502403Y-171119058D01*
X127330342Y-171234024D01*
X127184024Y-171380342D01*
X127069058Y-171552403D01*
X126989870Y-171743579D01*
X126989868Y-171743587D01*
X126949500Y-171946530D01*
X126100500Y-171946530D01*
X126100499Y-171244066D01*
X126100499Y-170002129D01*
X126100498Y-170002123D01*
X126094091Y-169942516D01*
X126043797Y-169807671D01*
X126043793Y-169807664D01*
X125957547Y-169692455D01*
X125957544Y-169692452D01*
X125842335Y-169606206D01*
X125842328Y-169606202D01*
X125707482Y-169555908D01*
X125707483Y-169555908D01*
X125647883Y-169549501D01*
X125647881Y-169549500D01*
X125647873Y-169549500D01*
X125647865Y-169549500D01*
X123525097Y-169549500D01*
X123458058Y-169529815D01*
X123437416Y-169513181D01*
X122149195Y-168224960D01*
X122115710Y-168163637D01*
X122115259Y-168113090D01*
X122125500Y-168061606D01*
X122125500Y-164946530D01*
X126949500Y-164946530D01*
X126949500Y-165153469D01*
X126989868Y-165356412D01*
X126989870Y-165356420D01*
X127069058Y-165547596D01*
X127184024Y-165719657D01*
X127330342Y-165865975D01*
X127330345Y-165865977D01*
X127502402Y-165980941D01*
X127693580Y-166060130D01*
X127896530Y-166100499D01*
X127896534Y-166100500D01*
X127896535Y-166100500D01*
X128103466Y-166100500D01*
X128103467Y-166100499D01*
X128306420Y-166060130D01*
X128497598Y-165980941D01*
X128669655Y-165865977D01*
X128815977Y-165719655D01*
X128930941Y-165547598D01*
X129010130Y-165356420D01*
X129050500Y-165153465D01*
X129050500Y-164946535D01*
X129010130Y-164743580D01*
X128930941Y-164552402D01*
X128815977Y-164380345D01*
X128815975Y-164380342D01*
X128669657Y-164234024D01*
X128558206Y-164159556D01*
X128497598Y-164119059D01*
X128496958Y-164118794D01*
X128306420Y-164039870D01*
X128306412Y-164039868D01*
X128103469Y-163999500D01*
X128103465Y-163999500D01*
X127896535Y-163999500D01*
X127896530Y-163999500D01*
X127693587Y-164039868D01*
X127693579Y-164039870D01*
X127502403Y-164119058D01*
X127330342Y-164234024D01*
X127184024Y-164380342D01*
X127069058Y-164552403D01*
X126989870Y-164743579D01*
X126989868Y-164743587D01*
X126949500Y-164946530D01*
X122125500Y-164946530D01*
X122125500Y-160701601D01*
X122145185Y-160634562D01*
X122185348Y-160595485D01*
X122210185Y-160580472D01*
X122330472Y-160460185D01*
X122418478Y-160314606D01*
X122469086Y-160152196D01*
X122475500Y-160081616D01*
X122475500Y-159568384D01*
X122469086Y-159497804D01*
X122418478Y-159335394D01*
X122330472Y-159189815D01*
X122330470Y-159189813D01*
X122330469Y-159189811D01*
X122228339Y-159087681D01*
X122194854Y-159026358D01*
X122199838Y-158956666D01*
X122228339Y-158912319D01*
X122330468Y-158810189D01*
X122330469Y-158810188D01*
X122330472Y-158810185D01*
X122418478Y-158664606D01*
X122469086Y-158502196D01*
X122475500Y-158431616D01*
X122475500Y-157918384D01*
X122469086Y-157847804D01*
X122418478Y-157685394D01*
X122330472Y-157539815D01*
X122330470Y-157539813D01*
X122330469Y-157539811D01*
X122210188Y-157419530D01*
X122210186Y-157419529D01*
X122210185Y-157419528D01*
X122185348Y-157404513D01*
X122138162Y-157352984D01*
X122125500Y-157298397D01*
X122125500Y-155110452D01*
X122145185Y-155043413D01*
X122161819Y-155022771D01*
X122708127Y-154476463D01*
X123154590Y-154030000D01*
X124095496Y-154030000D01*
X124137968Y-154176195D01*
X124220278Y-154315374D01*
X124220285Y-154315383D01*
X124334616Y-154429714D01*
X124334625Y-154429721D01*
X124473804Y-154512031D01*
X124629089Y-154557145D01*
X124650000Y-154558789D01*
X125150000Y-154558789D01*
X125170910Y-154557145D01*
X125326195Y-154512031D01*
X125465374Y-154429721D01*
X125465383Y-154429714D01*
X125579714Y-154315383D01*
X125579721Y-154315374D01*
X125662031Y-154176195D01*
X125704504Y-154030000D01*
X125150000Y-154030000D01*
X125150000Y-154558789D01*
X124650000Y-154558789D01*
X124650000Y-154030000D01*
X124095496Y-154030000D01*
X123154590Y-154030000D01*
X123935551Y-153249038D01*
X123996872Y-153215555D01*
X124066564Y-153220539D01*
X124122497Y-153262411D01*
X124146914Y-153327875D01*
X124138746Y-153375906D01*
X124140145Y-153376313D01*
X124095496Y-153530000D01*
X124401648Y-153530000D01*
X124464766Y-153547267D01*
X124473605Y-153552494D01*
X124473608Y-153552494D01*
X124473610Y-153552496D01*
X124629002Y-153597642D01*
X124629005Y-153597642D01*
X124629007Y-153597643D01*
X124665310Y-153600500D01*
X124665318Y-153600500D01*
X125134682Y-153600500D01*
X125134690Y-153600500D01*
X125170993Y-153597643D01*
X125170995Y-153597642D01*
X125170997Y-153597642D01*
X125326389Y-153552496D01*
X125326389Y-153552495D01*
X125326395Y-153552494D01*
X125335233Y-153547267D01*
X125398352Y-153530000D01*
X125704504Y-153530000D01*
X125730748Y-153495047D01*
X125786742Y-153453256D01*
X125829909Y-153445500D01*
X126247699Y-153445500D01*
X126247699Y-153447596D01*
X126306987Y-153458837D01*
X126357699Y-153506900D01*
X126374500Y-153569223D01*
X126374500Y-153786901D01*
X126388990Y-153896970D01*
X126390276Y-153901767D01*
X126394500Y-153933857D01*
X126394500Y-154360121D01*
X126374815Y-154427160D01*
X126370518Y-154433237D01*
X126287505Y-154573606D01*
X126287504Y-154573609D01*
X126242357Y-154729002D01*
X126242356Y-154729008D01*
X126239500Y-154765302D01*
X126239500Y-155234697D01*
X126242356Y-155270991D01*
X126242357Y-155270997D01*
X126287504Y-155426390D01*
X126287505Y-155426393D01*
X126369881Y-155565684D01*
X126369887Y-155565692D01*
X126484307Y-155680112D01*
X126484311Y-155680115D01*
X126484313Y-155680117D01*
X126623605Y-155762494D01*
X126664587Y-155774400D01*
X126779002Y-155807642D01*
X126779005Y-155807642D01*
X126779007Y-155807643D01*
X126815310Y-155810500D01*
X126815318Y-155810500D01*
X127224682Y-155810500D01*
X127224690Y-155810500D01*
X127260993Y-155807643D01*
X127260995Y-155807642D01*
X127260997Y-155807642D01*
X127301975Y-155795736D01*
X127416395Y-155762494D01*
X127436879Y-155750379D01*
X127504601Y-155733196D01*
X127563119Y-155750379D01*
X127583605Y-155762494D01*
X127583607Y-155762494D01*
X127583608Y-155762495D01*
X127739002Y-155807642D01*
X127739005Y-155807642D01*
X127739007Y-155807643D01*
X127775310Y-155810500D01*
X127775318Y-155810500D01*
X128128388Y-155810500D01*
X128195427Y-155830185D01*
X128235120Y-155871379D01*
X128320278Y-156015374D01*
X128320285Y-156015383D01*
X128434616Y-156129714D01*
X128434625Y-156129721D01*
X128573804Y-156212031D01*
X128729089Y-156257145D01*
X128750000Y-156258789D01*
X129250000Y-156258789D01*
X129270910Y-156257145D01*
X129426195Y-156212031D01*
X129565374Y-156129721D01*
X129565383Y-156129714D01*
X129679714Y-156015383D01*
X129679721Y-156015374D01*
X129762031Y-155876195D01*
X129804504Y-155730000D01*
X129250000Y-155730000D01*
X129250000Y-156258789D01*
X128750000Y-156258789D01*
X128750000Y-155604000D01*
X128769685Y-155536961D01*
X128822489Y-155491206D01*
X128874000Y-155480000D01*
X129000000Y-155480000D01*
X129000000Y-155424500D01*
X129019685Y-155357461D01*
X129072489Y-155311706D01*
X129124000Y-155300500D01*
X129234682Y-155300500D01*
X129234690Y-155300500D01*
X129270993Y-155297643D01*
X129270995Y-155297642D01*
X129270997Y-155297642D01*
X129426389Y-155252496D01*
X129426389Y-155252495D01*
X129426395Y-155252494D01*
X129435233Y-155247267D01*
X129498352Y-155230000D01*
X129804504Y-155230000D01*
X129762031Y-155083803D01*
X129750090Y-155063613D01*
X129732906Y-154995889D01*
X129750089Y-154937369D01*
X129762494Y-154916395D01*
X129807643Y-154760993D01*
X129810500Y-154724690D01*
X129810500Y-154315310D01*
X129807643Y-154279007D01*
X129801544Y-154258016D01*
X129762495Y-154123609D01*
X129762494Y-154123606D01*
X129762494Y-154123605D01*
X129680117Y-153984313D01*
X129680115Y-153984311D01*
X129680112Y-153984307D01*
X129661819Y-153966014D01*
X129628334Y-153904691D01*
X129625500Y-153878333D01*
X129625500Y-153813393D01*
X129625499Y-153813389D01*
X129620230Y-153786900D01*
X129601463Y-153692548D01*
X129570881Y-153618716D01*
X129563335Y-153600499D01*
X129554314Y-153578719D01*
X129554311Y-153578714D01*
X129535463Y-153550504D01*
X129535458Y-153550499D01*
X129515518Y-153520657D01*
X129505985Y-153506390D01*
X129485108Y-153439713D01*
X129503593Y-153372333D01*
X129555572Y-153325643D01*
X129609088Y-153313500D01*
X129872292Y-153313500D01*
X129935413Y-153330768D01*
X129977786Y-153355827D01*
X130073605Y-153412494D01*
X130104476Y-153421463D01*
X130229002Y-153457642D01*
X130229005Y-153457642D01*
X130229007Y-153457643D01*
X130265310Y-153460500D01*
X130265318Y-153460500D01*
X130734682Y-153460500D01*
X130734690Y-153460500D01*
X130770993Y-153457643D01*
X130770995Y-153457642D01*
X130770997Y-153457642D01*
X130812789Y-153445500D01*
X130926395Y-153412494D01*
X130949775Y-153398666D01*
X130982115Y-153379541D01*
X131021040Y-153364656D01*
X131097036Y-153349540D01*
X131219969Y-153298620D01*
X131330606Y-153224695D01*
X131424695Y-153130606D01*
X131498620Y-153019969D01*
X131541760Y-152915818D01*
X131585599Y-152861416D01*
X131651893Y-152839351D01*
X131719593Y-152856630D01*
X131744001Y-152875591D01*
X133838181Y-154969771D01*
X133871666Y-155031094D01*
X133874500Y-155057452D01*
X133874500Y-157298397D01*
X133854815Y-157365436D01*
X133814652Y-157404513D01*
X133789813Y-157419529D01*
X133789811Y-157419530D01*
X133669530Y-157539811D01*
X133581522Y-157685393D01*
X133530913Y-157847807D01*
X133524500Y-157918386D01*
X133524500Y-158431613D01*
X133530913Y-158502192D01*
X133530913Y-158502194D01*
X133530914Y-158502196D01*
X133581522Y-158664606D01*
X133638177Y-158758325D01*
X133669530Y-158810188D01*
X133771661Y-158912319D01*
X133805146Y-158973642D01*
X133800162Y-159043334D01*
X133771661Y-159087681D01*
X133669531Y-159189810D01*
X133669530Y-159189811D01*
X133581522Y-159335393D01*
X133571520Y-159367491D01*
X133530914Y-159497804D01*
X133530913Y-159497806D01*
X133530028Y-159500649D01*
X133499323Y-159551440D01*
X131332644Y-161718119D01*
X131332628Y-161718135D01*
X131331286Y-161719478D01*
X131331284Y-161719480D01*
X131219480Y-161831284D01*
X131208701Y-161849952D01*
X131198846Y-161860436D01*
X131180615Y-161871133D01*
X131165318Y-161885718D01*
X131149024Y-161889670D01*
X131138585Y-161895796D01*
X131125895Y-161895281D01*
X131108503Y-161899500D01*
X130352129Y-161899500D01*
X130352123Y-161899501D01*
X130292516Y-161905908D01*
X130157671Y-161956202D01*
X130157664Y-161956206D01*
X130042455Y-162042452D01*
X130042452Y-162042455D01*
X129956206Y-162157664D01*
X129956202Y-162157671D01*
X129905908Y-162292517D01*
X129902309Y-162326000D01*
X129899501Y-162352123D01*
X129899500Y-162352135D01*
X129899500Y-165347870D01*
X129899501Y-165347876D01*
X129905908Y-165407483D01*
X129956202Y-165542328D01*
X129956206Y-165542335D01*
X130042452Y-165657544D01*
X130042455Y-165657547D01*
X130157664Y-165743793D01*
X130157671Y-165743797D01*
X130292517Y-165794091D01*
X130292516Y-165794091D01*
X130299444Y-165794835D01*
X130352127Y-165800500D01*
X132997872Y-165800499D01*
X133057483Y-165794091D01*
X133192331Y-165743796D01*
X133307546Y-165657546D01*
X133393796Y-165542331D01*
X133444091Y-165407483D01*
X133450500Y-165347873D01*
X133450499Y-162352128D01*
X133444091Y-162292517D01*
X133443083Y-162289815D01*
X133393797Y-162157671D01*
X133393793Y-162157664D01*
X133307547Y-162042455D01*
X133307544Y-162042452D01*
X133192335Y-161956206D01*
X133192328Y-161956202D01*
X133082285Y-161915159D01*
X133026351Y-161873288D01*
X133001934Y-161807824D01*
X133016786Y-161739551D01*
X133037934Y-161711299D01*
X133994720Y-160754513D01*
X134056041Y-160721030D01*
X134093622Y-160718705D01*
X134097799Y-160719084D01*
X134097804Y-160719086D01*
X134168384Y-160725500D01*
X134168388Y-160725500D01*
X134831613Y-160725500D01*
X134831616Y-160725500D01*
X134902196Y-160719086D01*
X135064606Y-160668478D01*
X135210185Y-160580472D01*
X135330472Y-160460185D01*
X135418478Y-160314606D01*
X135469086Y-160152196D01*
X135475500Y-160081616D01*
X135475500Y-159568384D01*
X135469086Y-159497804D01*
X135418478Y-159335394D01*
X135330472Y-159189815D01*
X135330470Y-159189813D01*
X135330469Y-159189811D01*
X135228339Y-159087681D01*
X135194854Y-159026358D01*
X135199838Y-158956666D01*
X135228339Y-158912319D01*
X135330468Y-158810189D01*
X135330469Y-158810188D01*
X135330472Y-158810185D01*
X135418478Y-158664606D01*
X135469086Y-158502196D01*
X135475500Y-158431616D01*
X135475500Y-157918384D01*
X135469086Y-157847804D01*
X135418478Y-157685394D01*
X135330472Y-157539815D01*
X135330470Y-157539813D01*
X135330469Y-157539811D01*
X135210188Y-157419530D01*
X135210186Y-157419529D01*
X135210185Y-157419528D01*
X135185348Y-157404513D01*
X135138162Y-157352984D01*
X135125500Y-157298397D01*
X135125500Y-154685393D01*
X135125499Y-154685389D01*
X135101463Y-154564549D01*
X135101463Y-154564548D01*
X135064977Y-154476463D01*
X135054312Y-154450715D01*
X135037256Y-154425190D01*
X134985858Y-154348267D01*
X134985856Y-154348264D01*
X134895637Y-154258045D01*
X134895606Y-154258016D01*
X131923719Y-151286129D01*
X131890234Y-151224806D01*
X131895218Y-151155114D01*
X131930000Y-151108582D01*
X131930000Y-151104503D01*
X132430000Y-151104503D01*
X132576195Y-151062031D01*
X132715374Y-150979721D01*
X132715383Y-150979714D01*
X132829714Y-150865383D01*
X132829721Y-150865374D01*
X132912031Y-150726195D01*
X132912033Y-150726190D01*
X132957144Y-150570918D01*
X132957145Y-150570912D01*
X132958790Y-150550000D01*
X132430000Y-150550000D01*
X132430000Y-151104503D01*
X131930000Y-151104503D01*
X131930000Y-150798352D01*
X131947267Y-150735233D01*
X131952494Y-150726395D01*
X131965189Y-150682701D01*
X131997642Y-150570997D01*
X131997643Y-150570991D01*
X131998311Y-150562500D01*
X132000500Y-150534690D01*
X132000500Y-150065310D01*
X131999295Y-150050000D01*
X132430000Y-150050000D01*
X132958790Y-150050000D01*
X132957145Y-150029089D01*
X132912032Y-149873805D01*
X132905715Y-149863125D01*
X132888530Y-149795402D01*
X132905715Y-149736875D01*
X132912031Y-149726195D01*
X132957145Y-149570910D01*
X132958790Y-149550000D01*
X132430000Y-149550000D01*
X132430000Y-150050000D01*
X131999295Y-150050000D01*
X131997643Y-150029007D01*
X131995130Y-150020358D01*
X131952495Y-149873608D01*
X131952492Y-149873600D01*
X131947266Y-149864763D01*
X131942916Y-149848862D01*
X131935023Y-149836580D01*
X131930000Y-149801645D01*
X131930000Y-149798352D01*
X131947267Y-149735233D01*
X131952494Y-149726395D01*
X131960648Y-149698331D01*
X131997642Y-149570997D01*
X131997643Y-149570991D01*
X132000500Y-149534690D01*
X132000500Y-149424000D01*
X132020185Y-149356961D01*
X132072989Y-149311206D01*
X132124500Y-149300000D01*
X132180000Y-149300000D01*
X132180000Y-149174000D01*
X132199685Y-149106961D01*
X132252489Y-149061206D01*
X132304000Y-149050000D01*
X132834048Y-149050000D01*
X132901087Y-149069685D01*
X132921729Y-149086319D01*
X134134139Y-150298729D01*
X134134142Y-150298733D01*
X134221267Y-150385858D01*
X134266559Y-150416121D01*
X134323714Y-150454312D01*
X134403049Y-150487173D01*
X134421632Y-150494870D01*
X134444972Y-150513681D01*
X134476030Y-150538710D01*
X134480289Y-150545277D01*
X134519530Y-150610188D01*
X134639811Y-150730469D01*
X134639813Y-150730470D01*
X134639815Y-150730472D01*
X134785394Y-150818478D01*
X134947804Y-150869086D01*
X135018384Y-150875500D01*
X135018387Y-150875500D01*
X135531613Y-150875500D01*
X135531616Y-150875500D01*
X135602196Y-150869086D01*
X135764606Y-150818478D01*
X135910185Y-150730472D01*
X135957956Y-150682701D01*
X136012319Y-150628339D01*
X136073642Y-150594854D01*
X136143334Y-150599838D01*
X136187681Y-150628339D01*
X136289811Y-150730469D01*
X136289813Y-150730470D01*
X136289815Y-150730472D01*
X136435394Y-150818478D01*
X136597804Y-150869086D01*
X136668384Y-150875500D01*
X136668387Y-150875500D01*
X137181613Y-150875500D01*
X137181616Y-150875500D01*
X137252196Y-150869086D01*
X137414606Y-150818478D01*
X137527882Y-150750000D01*
X139241210Y-150750000D01*
X139242854Y-150770910D01*
X139287968Y-150926195D01*
X139370278Y-151065374D01*
X139370285Y-151065383D01*
X139484616Y-151179714D01*
X139484625Y-151179721D01*
X139623804Y-151262031D01*
X139770000Y-151304504D01*
X139770000Y-150750000D01*
X139241210Y-150750000D01*
X137527882Y-150750000D01*
X137560185Y-150730472D01*
X137607956Y-150682701D01*
X137672686Y-150617972D01*
X137680468Y-150610189D01*
X137680469Y-150610188D01*
X137680472Y-150610185D01*
X137768478Y-150464606D01*
X137819086Y-150302196D01*
X137823829Y-150249999D01*
X139241209Y-150249999D01*
X139241210Y-150250000D01*
X139770000Y-150250000D01*
X139770000Y-149750000D01*
X139241210Y-149750000D01*
X139242854Y-149770910D01*
X139287968Y-149926195D01*
X139287968Y-149926196D01*
X139294288Y-149936882D01*
X139311468Y-150004607D01*
X139294288Y-150063118D01*
X139287968Y-150073803D01*
X139287966Y-150073809D01*
X139242855Y-150229081D01*
X139242854Y-150229087D01*
X139241209Y-150249999D01*
X137823829Y-150249999D01*
X137825500Y-150231616D01*
X137825500Y-149568384D01*
X137819086Y-149497804D01*
X137768478Y-149335394D01*
X137680472Y-149189815D01*
X137680470Y-149189813D01*
X137680469Y-149189811D01*
X137586819Y-149096161D01*
X137553334Y-149034838D01*
X137550500Y-149008480D01*
X137550500Y-148624000D01*
X137570185Y-148556961D01*
X137603837Y-148522104D01*
X137691469Y-148461333D01*
X137714485Y-148453687D01*
X137735773Y-148442063D01*
X137749854Y-148441937D01*
X137757776Y-148439306D01*
X137767448Y-148441780D01*
X137786324Y-148441612D01*
X137831005Y-148450500D01*
X137831007Y-148450500D01*
X137968994Y-148450500D01*
X137985870Y-148447143D01*
X138013675Y-148441612D01*
X138081457Y-148447143D01*
X138243296Y-148507914D01*
X138253953Y-148515928D01*
X138266745Y-148519685D01*
X138274633Y-148525198D01*
X138275322Y-148525720D01*
X138275323Y-148525721D01*
X138412142Y-148579675D01*
X138412141Y-148579675D01*
X138498116Y-148590000D01*
X138745000Y-148590000D01*
X138745000Y-148214499D01*
X138747550Y-148205813D01*
X138746262Y-148196852D01*
X138757240Y-148172811D01*
X138764685Y-148147460D01*
X138771525Y-148141532D01*
X138775287Y-148133296D01*
X138797521Y-148119006D01*
X138817489Y-148101705D01*
X138828003Y-148099417D01*
X138834065Y-148095522D01*
X138869000Y-148090499D01*
X138901000Y-148090499D01*
X138968039Y-148110184D01*
X139013794Y-148162988D01*
X139025000Y-148214499D01*
X139025000Y-148590000D01*
X139271884Y-148590000D01*
X139357858Y-148579675D01*
X139357864Y-148579673D01*
X139449718Y-148543451D01*
X139468598Y-148541746D01*
X139486362Y-148535121D01*
X139502676Y-148538670D01*
X139519304Y-148537169D01*
X139536109Y-148545942D01*
X139554635Y-148549973D01*
X139579544Y-148568620D01*
X139581241Y-148569506D01*
X139582889Y-148571124D01*
X139589897Y-148578132D01*
X139623382Y-148639455D01*
X139618398Y-148709147D01*
X139576526Y-148765080D01*
X139565338Y-148772544D01*
X139484627Y-148820276D01*
X139484616Y-148820285D01*
X139370285Y-148934616D01*
X139370278Y-148934625D01*
X139287968Y-149073804D01*
X139287966Y-149073809D01*
X139242855Y-149229081D01*
X139242854Y-149229087D01*
X139241209Y-149249999D01*
X139241210Y-149250000D01*
X139896000Y-149250000D01*
X139963039Y-149269685D01*
X140008794Y-149322489D01*
X140020000Y-149374000D01*
X140020000Y-149500000D01*
X140075500Y-149500000D01*
X140142539Y-149519685D01*
X140188294Y-149572489D01*
X140199500Y-149624000D01*
X140199500Y-149734697D01*
X140202356Y-149770991D01*
X140202357Y-149770997D01*
X140247504Y-149926391D01*
X140247507Y-149926399D01*
X140252732Y-149935233D01*
X140257082Y-149951134D01*
X140264977Y-149963419D01*
X140270000Y-149998354D01*
X140270000Y-150001646D01*
X140252734Y-150064764D01*
X140247507Y-150073601D01*
X140247504Y-150073610D01*
X140202357Y-150229002D01*
X140202356Y-150229008D01*
X140199500Y-150265302D01*
X140199500Y-150734697D01*
X140202356Y-150770991D01*
X140202357Y-150770997D01*
X140247503Y-150926389D01*
X140247505Y-150926393D01*
X140247506Y-150926395D01*
X140252732Y-150935233D01*
X140270000Y-150998352D01*
X140270000Y-151304503D01*
X140416194Y-151262032D01*
X140436384Y-151250091D01*
X140504108Y-151232906D01*
X140562629Y-151250089D01*
X140583605Y-151262494D01*
X140609496Y-151270016D01*
X140739002Y-151307642D01*
X140739005Y-151307642D01*
X140739007Y-151307643D01*
X140775310Y-151310500D01*
X140775318Y-151310500D01*
X141184682Y-151310500D01*
X141184690Y-151310500D01*
X141220993Y-151307643D01*
X141350504Y-151270016D01*
X141420369Y-151270215D01*
X141453988Y-151285991D01*
X141463121Y-151292094D01*
X141463123Y-151292094D01*
X141463125Y-151292096D01*
X141556699Y-151330855D01*
X141608803Y-151352437D01*
X141759884Y-151382489D01*
X141763453Y-151383199D01*
X141763456Y-151383200D01*
X141763458Y-151383200D01*
X141921144Y-151383200D01*
X141921145Y-151383199D01*
X142075797Y-151352437D01*
X142201187Y-151300499D01*
X142221472Y-151292097D01*
X142221472Y-151292096D01*
X142221479Y-151292094D01*
X142330611Y-151219173D01*
X142397286Y-151198297D01*
X142464666Y-151216781D01*
X142511357Y-151268760D01*
X142523500Y-151322277D01*
X142523500Y-152110605D01*
X142530676Y-152146687D01*
X142530679Y-152146700D01*
X142531236Y-152149499D01*
X142547537Y-152231452D01*
X142554216Y-152247577D01*
X142557782Y-152256187D01*
X142557783Y-152256189D01*
X142594685Y-152345281D01*
X142594687Y-152345284D01*
X142617905Y-152380031D01*
X142617906Y-152380033D01*
X142663140Y-152447731D01*
X142663141Y-152447732D01*
X142663142Y-152447733D01*
X142750267Y-152534858D01*
X142750268Y-152534858D01*
X142757335Y-152541925D01*
X142757334Y-152541925D01*
X142757338Y-152541928D01*
X146942009Y-156726600D01*
X146975494Y-156787923D01*
X146976801Y-156833679D01*
X146950200Y-157001633D01*
X146950200Y-157198366D01*
X146980973Y-157392662D01*
X147041766Y-157579761D01*
X147130941Y-157754775D01*
X147131075Y-157755038D01*
X147246706Y-157914190D01*
X147385810Y-158053294D01*
X147544962Y-158168925D01*
X147627774Y-158211120D01*
X147720238Y-158258233D01*
X147720240Y-158258233D01*
X147720243Y-158258235D01*
X147820530Y-158290820D01*
X147907337Y-158319026D01*
X148101634Y-158349800D01*
X148101639Y-158349800D01*
X148298366Y-158349800D01*
X148492662Y-158319026D01*
X148494167Y-158318537D01*
X148679757Y-158258235D01*
X148855038Y-158168925D01*
X149014190Y-158053294D01*
X149153294Y-157914190D01*
X149268925Y-157755038D01*
X149339795Y-157615946D01*
X149387769Y-157565150D01*
X149455590Y-157548355D01*
X149521725Y-157570892D01*
X149560765Y-157615946D01*
X149631502Y-157754775D01*
X149656822Y-157789623D01*
X149656822Y-157789624D01*
X150220874Y-157225572D01*
X150238454Y-157291179D01*
X150303661Y-157404121D01*
X150395879Y-157496339D01*
X150508821Y-157561546D01*
X150574427Y-157579125D01*
X150010375Y-158143176D01*
X150010375Y-158143177D01*
X150045223Y-158168496D01*
X150220434Y-158257772D01*
X150220437Y-158257773D01*
X150407453Y-158318537D01*
X150601679Y-158349300D01*
X150798321Y-158349300D01*
X150992546Y-158318537D01*
X151179562Y-158257773D01*
X151179575Y-158257767D01*
X151354769Y-158168500D01*
X151354774Y-158168497D01*
X151389624Y-158143176D01*
X150825573Y-157579125D01*
X150891179Y-157561546D01*
X151004121Y-157496339D01*
X151096339Y-157404121D01*
X151161546Y-157291179D01*
X151179125Y-157225572D01*
X151743176Y-157789623D01*
X151768495Y-157754776D01*
X151839234Y-157615946D01*
X151887209Y-157565150D01*
X151955030Y-157548355D01*
X152021165Y-157570892D01*
X152060204Y-157615946D01*
X152131075Y-157755038D01*
X152246706Y-157914190D01*
X152385810Y-158053294D01*
X152544962Y-158168925D01*
X152627774Y-158211120D01*
X152720238Y-158258233D01*
X152720240Y-158258233D01*
X152720243Y-158258235D01*
X152820530Y-158290820D01*
X152907337Y-158319026D01*
X153101634Y-158349800D01*
X153101639Y-158349800D01*
X153298366Y-158349800D01*
X153492662Y-158319026D01*
X153494167Y-158318537D01*
X153679757Y-158258235D01*
X153855038Y-158168925D01*
X154014190Y-158053294D01*
X154153294Y-157914190D01*
X154268925Y-157755038D01*
X154358235Y-157579757D01*
X154419026Y-157392662D01*
X154433956Y-157298397D01*
X154449800Y-157198366D01*
X154449800Y-157001633D01*
X154423198Y-156833679D01*
X154432152Y-156764386D01*
X154457987Y-156726602D01*
X154760858Y-156423733D01*
X154829312Y-156321285D01*
X154876463Y-156207451D01*
X154900501Y-156086606D01*
X154900501Y-155963393D01*
X154900501Y-155958283D01*
X154900500Y-155958257D01*
X154900500Y-151431530D01*
X154920185Y-151364491D01*
X154972989Y-151318736D01*
X155042147Y-151308792D01*
X155086500Y-151324143D01*
X155291398Y-151442442D01*
X155291403Y-151442444D01*
X155291406Y-151442446D01*
X155429661Y-151499713D01*
X155512265Y-151533929D01*
X155539667Y-151545279D01*
X155799225Y-151614827D01*
X156065641Y-151649902D01*
X156065648Y-151649902D01*
X156334350Y-151649902D01*
X156334357Y-151649902D01*
X156600773Y-151614827D01*
X156860331Y-151545279D01*
X157108592Y-151442446D01*
X157341306Y-151308088D01*
X157554492Y-151144505D01*
X157618529Y-151080468D01*
X157687819Y-151011179D01*
X157749142Y-150977694D01*
X157818834Y-150982678D01*
X157874767Y-151024550D01*
X157899184Y-151090014D01*
X157899500Y-151098860D01*
X157899500Y-171856156D01*
X157896206Y-171884545D01*
X157896206Y-171884546D01*
X157848135Y-172088931D01*
X157845001Y-172099947D01*
X157731243Y-172439355D01*
X157727105Y-172450035D01*
X157582523Y-172777482D01*
X157577418Y-172787735D01*
X157403234Y-173100452D01*
X157397205Y-173110190D01*
X157194906Y-173405512D01*
X157188003Y-173414652D01*
X156959328Y-173690035D01*
X156951612Y-173698499D01*
X156698499Y-173951612D01*
X156690035Y-173959328D01*
X156414652Y-174188003D01*
X156405512Y-174194906D01*
X156110190Y-174397205D01*
X156100452Y-174403234D01*
X155787735Y-174577418D01*
X155777482Y-174582523D01*
X155450035Y-174727105D01*
X155439355Y-174731243D01*
X155099947Y-174845001D01*
X155088931Y-174848135D01*
X154884546Y-174896206D01*
X154856156Y-174899500D01*
X153196437Y-174899500D01*
X153129398Y-174879815D01*
X153083643Y-174827011D01*
X153073699Y-174757853D01*
X153089705Y-174712379D01*
X153096323Y-174701189D01*
X153132869Y-174639393D01*
X153177665Y-174485204D01*
X153180500Y-174449181D01*
X153180499Y-174330095D01*
X153200183Y-174263057D01*
X153216813Y-174242420D01*
X153489713Y-173969521D01*
X153489716Y-173969520D01*
X153601520Y-173857716D01*
X153651639Y-173770904D01*
X153680577Y-173720785D01*
X153721501Y-173568057D01*
X153721501Y-173409943D01*
X153721501Y-173402348D01*
X153721500Y-173402330D01*
X153721500Y-172270000D01*
X154680138Y-172270000D01*
X155483012Y-172270000D01*
X155465795Y-172279940D01*
X155409940Y-172335795D01*
X155370444Y-172404204D01*
X155350000Y-172480504D01*
X155350000Y-172559496D01*
X155370444Y-172635796D01*
X155409940Y-172704205D01*
X155465795Y-172760060D01*
X155483012Y-172770000D01*
X154680138Y-172770000D01*
X154688430Y-172811690D01*
X154688430Y-172811692D01*
X154763807Y-172993671D01*
X154763814Y-172993684D01*
X154873248Y-173157462D01*
X154873251Y-173157466D01*
X155012533Y-173296748D01*
X155012537Y-173296751D01*
X155176315Y-173406185D01*
X155176328Y-173406192D01*
X155358306Y-173481569D01*
X155358318Y-173481572D01*
X155551504Y-173519999D01*
X155551508Y-173520000D01*
X155700000Y-173520000D01*
X155700000Y-172820000D01*
X156200000Y-172820000D01*
X156200000Y-173520000D01*
X156348492Y-173520000D01*
X156348495Y-173519999D01*
X156541681Y-173481572D01*
X156541693Y-173481569D01*
X156723671Y-173406192D01*
X156723684Y-173406185D01*
X156887462Y-173296751D01*
X156887466Y-173296748D01*
X157026748Y-173157466D01*
X157026751Y-173157462D01*
X157136185Y-172993684D01*
X157136192Y-172993671D01*
X157211569Y-172811692D01*
X157211569Y-172811690D01*
X157219862Y-172770000D01*
X156416988Y-172770000D01*
X156434205Y-172760060D01*
X156490060Y-172704205D01*
X156529556Y-172635796D01*
X156550000Y-172559496D01*
X156550000Y-172480504D01*
X156529556Y-172404204D01*
X156490060Y-172335795D01*
X156434205Y-172279940D01*
X156416988Y-172270000D01*
X157219862Y-172270000D01*
X157211569Y-172228309D01*
X157211569Y-172228307D01*
X157136192Y-172046328D01*
X157136185Y-172046315D01*
X157026751Y-171882537D01*
X157026748Y-171882533D01*
X156887466Y-171743251D01*
X156887462Y-171743248D01*
X156723684Y-171633814D01*
X156723671Y-171633807D01*
X156541693Y-171558430D01*
X156541681Y-171558427D01*
X156348495Y-171520000D01*
X156200000Y-171520000D01*
X156200000Y-172220000D01*
X155700000Y-172220000D01*
X155700000Y-171520000D01*
X155551504Y-171520000D01*
X155358318Y-171558427D01*
X155358306Y-171558430D01*
X155176328Y-171633807D01*
X155176315Y-171633814D01*
X155012537Y-171743248D01*
X155012533Y-171743251D01*
X154873251Y-171882533D01*
X154873248Y-171882537D01*
X154763814Y-172046315D01*
X154763807Y-172046328D01*
X154688430Y-172228307D01*
X154688430Y-172228309D01*
X154680138Y-172270000D01*
X153721500Y-172270000D01*
X153721500Y-170659946D01*
X153721499Y-170659939D01*
X153707209Y-170606606D01*
X153680577Y-170507215D01*
X153629193Y-170418216D01*
X153601520Y-170370284D01*
X153489716Y-170258480D01*
X153489715Y-170258479D01*
X153485385Y-170254149D01*
X153485374Y-170254139D01*
X152319589Y-169088354D01*
X152312520Y-169081285D01*
X152312520Y-169081284D01*
X152268916Y-169037680D01*
X152248708Y-169000671D01*
X152235432Y-168976358D01*
X152240416Y-168906666D01*
X152268917Y-168862319D01*
X152312520Y-168818716D01*
X152361520Y-168769716D01*
X152440577Y-168632784D01*
X152476290Y-168499500D01*
X152481500Y-168480058D01*
X152481500Y-168321943D01*
X152481500Y-167419943D01*
X152480361Y-167415694D01*
X152470534Y-167379019D01*
X152440577Y-167267216D01*
X152440573Y-167267209D01*
X152367818Y-167141191D01*
X152351345Y-167073291D01*
X152374198Y-167007264D01*
X152413207Y-166971804D01*
X152484716Y-166930520D01*
X152596520Y-166818716D01*
X152596520Y-166818714D01*
X152606728Y-166808507D01*
X152606729Y-166808504D01*
X153601520Y-165813716D01*
X153680577Y-165676784D01*
X153721501Y-165524057D01*
X153721501Y-165365942D01*
X153721501Y-165358347D01*
X153721500Y-165358329D01*
X153721500Y-163630000D01*
X154680138Y-163630000D01*
X155483012Y-163630000D01*
X155465795Y-163639940D01*
X155409940Y-163695795D01*
X155370444Y-163764204D01*
X155350000Y-163840504D01*
X155350000Y-163919496D01*
X155370444Y-163995796D01*
X155409940Y-164064205D01*
X155465795Y-164120060D01*
X155483012Y-164130000D01*
X154680138Y-164130000D01*
X154688430Y-164171690D01*
X154688430Y-164171692D01*
X154763807Y-164353671D01*
X154763814Y-164353684D01*
X154873248Y-164517462D01*
X154873251Y-164517466D01*
X155012533Y-164656748D01*
X155012537Y-164656751D01*
X155176315Y-164766185D01*
X155176328Y-164766192D01*
X155358306Y-164841569D01*
X155358318Y-164841572D01*
X155551504Y-164879999D01*
X155551508Y-164880000D01*
X155700000Y-164880000D01*
X155700000Y-164180000D01*
X156200000Y-164180000D01*
X156200000Y-164880000D01*
X156348492Y-164880000D01*
X156348495Y-164879999D01*
X156541681Y-164841572D01*
X156541693Y-164841569D01*
X156723671Y-164766192D01*
X156723684Y-164766185D01*
X156887462Y-164656751D01*
X156887466Y-164656748D01*
X157026748Y-164517466D01*
X157026751Y-164517462D01*
X157136185Y-164353684D01*
X157136192Y-164353671D01*
X157211569Y-164171692D01*
X157211569Y-164171690D01*
X157219862Y-164130000D01*
X156416988Y-164130000D01*
X156434205Y-164120060D01*
X156490060Y-164064205D01*
X156529556Y-163995796D01*
X156550000Y-163919496D01*
X156550000Y-163840504D01*
X156529556Y-163764204D01*
X156490060Y-163695795D01*
X156434205Y-163639940D01*
X156416988Y-163630000D01*
X157219862Y-163630000D01*
X157211569Y-163588309D01*
X157211569Y-163588307D01*
X157136192Y-163406328D01*
X157136185Y-163406315D01*
X157026751Y-163242537D01*
X157026748Y-163242533D01*
X156887466Y-163103251D01*
X156887462Y-163103248D01*
X156723684Y-162993814D01*
X156723671Y-162993807D01*
X156541693Y-162918430D01*
X156541681Y-162918427D01*
X156348495Y-162880000D01*
X156200000Y-162880000D01*
X156200000Y-163580000D01*
X155700000Y-163580000D01*
X155700000Y-162880000D01*
X155551504Y-162880000D01*
X155358318Y-162918427D01*
X155358306Y-162918430D01*
X155176328Y-162993807D01*
X155176315Y-162993814D01*
X155012537Y-163103248D01*
X155012533Y-163103251D01*
X154873251Y-163242533D01*
X154873248Y-163242537D01*
X154763814Y-163406315D01*
X154763807Y-163406328D01*
X154688430Y-163588307D01*
X154688430Y-163588309D01*
X154680138Y-163630000D01*
X153721500Y-163630000D01*
X153721500Y-163000059D01*
X153721501Y-163000046D01*
X153721501Y-162831945D01*
X153721501Y-162831943D01*
X153680577Y-162679215D01*
X153645648Y-162618716D01*
X153601520Y-162542284D01*
X153489716Y-162430480D01*
X153489715Y-162430479D01*
X153485385Y-162426149D01*
X153485374Y-162426139D01*
X153216818Y-162157583D01*
X153183333Y-162096260D01*
X153180499Y-162069902D01*
X153180499Y-161950831D01*
X153180498Y-161950806D01*
X153179651Y-161940045D01*
X153177665Y-161914796D01*
X153132869Y-161760607D01*
X153051135Y-161622402D01*
X153051133Y-161622400D01*
X153051130Y-161622396D01*
X152937603Y-161508869D01*
X152937595Y-161508863D01*
X152799393Y-161427131D01*
X152799388Y-161427129D01*
X152645208Y-161382335D01*
X152645202Y-161382334D01*
X152609181Y-161379500D01*
X152210830Y-161379500D01*
X152210808Y-161379501D01*
X152174794Y-161382335D01*
X152020611Y-161427129D01*
X152020607Y-161427130D01*
X151962628Y-161461419D01*
X151894903Y-161478600D01*
X151836388Y-161461419D01*
X151779189Y-161427592D01*
X151779188Y-161427591D01*
X151640001Y-161387153D01*
X151640000Y-161387154D01*
X151640000Y-161939591D01*
X151639999Y-161940045D01*
X151639981Y-161944694D01*
X151639500Y-161950819D01*
X151639500Y-162076385D01*
X151639500Y-162076454D01*
X151629582Y-162109781D01*
X151619817Y-162143039D01*
X151619638Y-162143193D01*
X151619571Y-162143421D01*
X151593165Y-162166132D01*
X151567013Y-162188794D01*
X151566752Y-162188850D01*
X151566600Y-162188982D01*
X151565333Y-162189159D01*
X151515501Y-162200000D01*
X151390000Y-162200000D01*
X151390000Y-162326000D01*
X151370315Y-162393039D01*
X151317511Y-162438794D01*
X151266000Y-162450000D01*
X150640000Y-162450000D01*
X150626319Y-162463681D01*
X150564996Y-162497166D01*
X150538638Y-162500000D01*
X149980000Y-162500000D01*
X149980000Y-163054503D01*
X150126195Y-163012031D01*
X150265374Y-162929721D01*
X150265383Y-162929714D01*
X150379714Y-162815383D01*
X150379721Y-162815374D01*
X150466003Y-162669480D01*
X150467270Y-162670229D01*
X150469466Y-162662065D01*
X150489157Y-162644199D01*
X150506162Y-162623758D01*
X150514634Y-162621084D01*
X150521212Y-162615116D01*
X150547434Y-162610732D01*
X150572792Y-162602729D01*
X150581363Y-162605059D01*
X150590125Y-162603595D01*
X150614554Y-162614084D01*
X150640214Y-162621061D01*
X150647857Y-162628383D01*
X150654327Y-162631161D01*
X150670387Y-162649965D01*
X150678043Y-162657299D01*
X150786191Y-162817417D01*
X150793330Y-162839826D01*
X150804600Y-162860464D01*
X150803739Y-162872495D01*
X150807402Y-162883990D01*
X150801293Y-162906700D01*
X150799616Y-162930156D01*
X150792387Y-162939812D01*
X150789254Y-162951461D01*
X150771837Y-162967263D01*
X150757744Y-162986089D01*
X150751251Y-162990223D01*
X150751387Y-162990426D01*
X150582537Y-163103248D01*
X150582533Y-163103251D01*
X150443251Y-163242533D01*
X150443248Y-163242537D01*
X150333814Y-163406315D01*
X150333807Y-163406328D01*
X150258430Y-163588307D01*
X150258430Y-163588309D01*
X150250138Y-163630000D01*
X151053012Y-163630000D01*
X151035795Y-163639940D01*
X150979940Y-163695795D01*
X150940444Y-163764204D01*
X150920000Y-163840504D01*
X150920000Y-163919496D01*
X150940444Y-163995796D01*
X150979940Y-164064205D01*
X151035795Y-164120060D01*
X151053012Y-164130000D01*
X150233735Y-164130000D01*
X150213182Y-164144000D01*
X150175076Y-164150000D01*
X150082155Y-164150000D01*
X150022627Y-164156401D01*
X150022620Y-164156403D01*
X149887913Y-164206645D01*
X149887906Y-164206649D01*
X149772812Y-164292809D01*
X149772809Y-164292812D01*
X149686649Y-164407906D01*
X149686645Y-164407913D01*
X149636403Y-164542620D01*
X149636401Y-164542627D01*
X149630000Y-164602155D01*
X149630000Y-164700000D01*
X150731000Y-164700000D01*
X150739685Y-164702550D01*
X150748647Y-164701262D01*
X150772687Y-164712240D01*
X150798039Y-164719685D01*
X150803966Y-164726525D01*
X150812203Y-164730287D01*
X150826492Y-164752521D01*
X150843794Y-164772489D01*
X150846081Y-164783003D01*
X150849977Y-164789065D01*
X150855000Y-164824000D01*
X150855000Y-164825500D01*
X150835315Y-164892539D01*
X150782511Y-164938294D01*
X150731000Y-164949500D01*
X149117940Y-164949500D01*
X149050901Y-164929815D01*
X149030259Y-164913181D01*
X148696818Y-164579740D01*
X148663333Y-164518417D01*
X148660499Y-164492059D01*
X148660499Y-164142129D01*
X148660498Y-164142123D01*
X148657990Y-164118794D01*
X148654091Y-164082517D01*
X148641169Y-164047872D01*
X148603797Y-163947671D01*
X148603793Y-163947664D01*
X148517547Y-163832455D01*
X148517544Y-163832452D01*
X148402334Y-163746205D01*
X148379684Y-163737757D01*
X148323751Y-163695884D01*
X148299336Y-163630419D01*
X148314189Y-163562147D01*
X148335335Y-163533899D01*
X148772417Y-163096819D01*
X148833740Y-163063334D01*
X148860098Y-163060500D01*
X148974682Y-163060500D01*
X148974690Y-163060500D01*
X149010993Y-163057643D01*
X149010995Y-163057642D01*
X149010997Y-163057642D01*
X149051975Y-163045736D01*
X149166395Y-163012494D01*
X149187369Y-163000089D01*
X149255088Y-162982906D01*
X149313613Y-163000090D01*
X149333803Y-163012031D01*
X149480000Y-163054504D01*
X149480000Y-162748352D01*
X149497267Y-162685233D01*
X149502494Y-162676395D01*
X149504286Y-162670229D01*
X149547642Y-162520997D01*
X149547643Y-162520991D01*
X149549518Y-162497166D01*
X149550500Y-162484690D01*
X149550500Y-162015310D01*
X149547643Y-161979007D01*
X149546569Y-161975312D01*
X149502495Y-161823608D01*
X149502492Y-161823600D01*
X149497266Y-161814763D01*
X149480000Y-161751645D01*
X149480000Y-161445494D01*
X149980000Y-161445494D01*
X149980000Y-162000000D01*
X150490000Y-162000000D01*
X150503681Y-161986319D01*
X150565004Y-161952834D01*
X150591362Y-161950000D01*
X151140000Y-161950000D01*
X151140000Y-161387154D01*
X151139998Y-161387153D01*
X151000811Y-161427591D01*
X151000808Y-161427593D01*
X150862714Y-161509261D01*
X150862705Y-161509268D01*
X150749268Y-161622705D01*
X150749261Y-161622714D01*
X150667593Y-161760808D01*
X150667547Y-161760968D01*
X150667476Y-161761078D01*
X150664494Y-161767970D01*
X150663382Y-161767488D01*
X150629939Y-161819853D01*
X150566466Y-161849058D01*
X150497279Y-161839311D01*
X150444346Y-161793706D01*
X150441739Y-161789492D01*
X150379721Y-161684625D01*
X150379714Y-161684616D01*
X150265383Y-161570285D01*
X150265374Y-161570278D01*
X150126193Y-161487967D01*
X150126190Y-161487965D01*
X149980001Y-161445493D01*
X149980000Y-161445494D01*
X149480000Y-161445494D01*
X149479998Y-161445493D01*
X149333809Y-161487965D01*
X149333806Y-161487967D01*
X149313608Y-161499912D01*
X149245884Y-161517092D01*
X149187370Y-161499910D01*
X149166397Y-161487507D01*
X149166390Y-161487504D01*
X149010997Y-161442357D01*
X149010991Y-161442356D01*
X148974697Y-161439500D01*
X148974690Y-161439500D01*
X148565310Y-161439500D01*
X148565302Y-161439500D01*
X148529008Y-161442356D01*
X148529002Y-161442357D01*
X148373609Y-161487504D01*
X148373606Y-161487505D01*
X148234315Y-161569881D01*
X148234307Y-161569887D01*
X148119887Y-161684307D01*
X148119881Y-161684315D01*
X148037505Y-161823606D01*
X148037504Y-161823609D01*
X147992357Y-161979002D01*
X147992356Y-161979008D01*
X147989500Y-162015302D01*
X147989500Y-162129902D01*
X147969815Y-162196941D01*
X147953181Y-162217583D01*
X147204481Y-162966282D01*
X147204479Y-162966284D01*
X147190755Y-162990057D01*
X147173179Y-163020500D01*
X147125423Y-163103215D01*
X147084499Y-163255943D01*
X147084499Y-163255945D01*
X147084499Y-163424046D01*
X147084500Y-163424059D01*
X147084500Y-163616533D01*
X147064815Y-163683572D01*
X147012011Y-163729327D01*
X147003836Y-163732714D01*
X146967665Y-163746205D01*
X146959881Y-163750456D01*
X146958148Y-163747282D01*
X146908698Y-163765659D01*
X146840443Y-163750725D01*
X146839497Y-163750117D01*
X146832328Y-163746202D01*
X146697482Y-163695908D01*
X146697483Y-163695908D01*
X146637883Y-163689501D01*
X146637881Y-163689500D01*
X146637873Y-163689500D01*
X146637864Y-163689500D01*
X145592129Y-163689500D01*
X145592123Y-163689501D01*
X145532516Y-163695908D01*
X145397671Y-163746202D01*
X145397665Y-163746206D01*
X145353171Y-163779513D01*
X145287706Y-163803929D01*
X145225757Y-163790452D01*
X145225393Y-163791333D01*
X145220510Y-163789310D01*
X145219433Y-163789076D01*
X145217992Y-163788267D01*
X145217887Y-163788224D01*
X145217886Y-163788223D01*
X145217885Y-163788223D01*
X145065157Y-163747299D01*
X144907043Y-163747299D01*
X144899447Y-163747299D01*
X144899431Y-163747300D01*
X142385766Y-163747300D01*
X142318727Y-163727615D01*
X142316875Y-163726402D01*
X142185185Y-163638409D01*
X142185172Y-163638402D01*
X142039501Y-163578064D01*
X142039489Y-163578061D01*
X141884845Y-163547300D01*
X141884842Y-163547300D01*
X141727158Y-163547300D01*
X141727155Y-163547300D01*
X141572510Y-163578061D01*
X141572498Y-163578064D01*
X141426827Y-163638402D01*
X141426814Y-163638409D01*
X141295711Y-163726010D01*
X141295707Y-163726013D01*
X141184213Y-163837507D01*
X141184210Y-163837511D01*
X141096609Y-163968614D01*
X141096602Y-163968627D01*
X141036264Y-164114298D01*
X141036261Y-164114310D01*
X141005500Y-164268953D01*
X141005500Y-164426646D01*
X141036261Y-164581289D01*
X141036264Y-164581301D01*
X141096602Y-164726972D01*
X141096609Y-164726985D01*
X141184210Y-164858088D01*
X141184213Y-164858092D01*
X141295707Y-164969586D01*
X141295711Y-164969589D01*
X141426814Y-165057190D01*
X141426827Y-165057197D01*
X141572498Y-165117535D01*
X141572503Y-165117537D01*
X141727153Y-165148299D01*
X141727156Y-165148300D01*
X141727158Y-165148300D01*
X141884844Y-165148300D01*
X141884845Y-165148299D01*
X142039497Y-165117537D01*
X142157362Y-165068716D01*
X142185172Y-165057197D01*
X142185172Y-165057196D01*
X142185179Y-165057194D01*
X142185185Y-165057190D01*
X142316875Y-164969198D01*
X142383553Y-164948320D01*
X142385766Y-164948300D01*
X144686003Y-164948300D01*
X144715443Y-164956944D01*
X144745430Y-164963468D01*
X144750445Y-164967222D01*
X144753042Y-164967985D01*
X144773684Y-164984619D01*
X144853439Y-165064374D01*
X144853460Y-165064397D01*
X144888301Y-165099237D01*
X144921787Y-165160559D01*
X144924024Y-165199071D01*
X144923500Y-165204392D01*
X144923500Y-166275500D01*
X144903815Y-166342539D01*
X144851011Y-166388294D01*
X144799500Y-166399500D01*
X143684298Y-166399500D01*
X143647432Y-166402401D01*
X143647426Y-166402402D01*
X143489606Y-166448254D01*
X143489603Y-166448255D01*
X143348137Y-166531917D01*
X143348129Y-166531923D01*
X143231923Y-166648129D01*
X143231917Y-166648137D01*
X143148255Y-166789603D01*
X143148254Y-166789606D01*
X143102402Y-166947426D01*
X143102401Y-166947432D01*
X143099500Y-166984298D01*
X143099500Y-166984306D01*
X143099500Y-167415694D01*
X143100134Y-167423762D01*
X143102401Y-167452567D01*
X143102402Y-167452573D01*
X143148254Y-167610393D01*
X143148254Y-167610394D01*
X143148255Y-167610396D01*
X143148256Y-167610398D01*
X143149133Y-167611881D01*
X143149466Y-167613195D01*
X143151353Y-167617554D01*
X143150649Y-167617858D01*
X143166315Y-167679604D01*
X143150861Y-167732233D01*
X143151353Y-167732446D01*
X143149630Y-167736426D01*
X143149133Y-167738118D01*
X143148506Y-167739177D01*
X143148254Y-167739605D01*
X143148254Y-167739606D01*
X143102402Y-167897426D01*
X143102401Y-167897432D01*
X143099500Y-167934298D01*
X143099500Y-168365701D01*
X143102401Y-168402567D01*
X143102402Y-168402573D01*
X143148254Y-168560393D01*
X143148254Y-168560394D01*
X143148255Y-168560396D01*
X143148256Y-168560398D01*
X143149133Y-168561881D01*
X143149466Y-168563195D01*
X143151353Y-168567554D01*
X143150649Y-168567858D01*
X143166315Y-168629604D01*
X143150861Y-168682233D01*
X143151353Y-168682446D01*
X143149630Y-168686426D01*
X143149133Y-168688118D01*
X143148506Y-168689177D01*
X143148254Y-168689605D01*
X143148254Y-168689606D01*
X143102402Y-168847426D01*
X143102401Y-168847432D01*
X143099500Y-168884298D01*
X143099500Y-169315701D01*
X143102401Y-169352567D01*
X143102402Y-169352573D01*
X143148254Y-169510393D01*
X143148255Y-169510396D01*
X143148256Y-169510398D01*
X143149770Y-169512958D01*
X143231732Y-169651550D01*
X143231918Y-169651864D01*
X143231923Y-169651870D01*
X143348129Y-169768076D01*
X143348133Y-169768079D01*
X143348135Y-169768081D01*
X143489602Y-169851744D01*
X143530028Y-169863489D01*
X143647426Y-169897597D01*
X143647429Y-169897597D01*
X143647431Y-169897598D01*
X143684306Y-169900500D01*
X143684314Y-169900500D01*
X144840686Y-169900500D01*
X144840694Y-169900500D01*
X144877569Y-169897598D01*
X144877571Y-169897597D01*
X144877573Y-169897597D01*
X144919191Y-169885505D01*
X145035398Y-169851744D01*
X145176865Y-169768081D01*
X145293081Y-169651865D01*
X145293267Y-169651549D01*
X145293477Y-169651353D01*
X145297861Y-169645702D01*
X145298772Y-169646409D01*
X145344336Y-169603866D01*
X145413077Y-169591362D01*
X145477667Y-169618006D01*
X145501855Y-169645921D01*
X145502139Y-169645702D01*
X145506179Y-169650911D01*
X145506732Y-169651548D01*
X145506919Y-169651865D01*
X145506921Y-169651867D01*
X145506923Y-169651870D01*
X145623129Y-169768076D01*
X145623133Y-169768079D01*
X145623135Y-169768081D01*
X145764602Y-169851744D01*
X145805028Y-169863489D01*
X145922426Y-169897597D01*
X145922429Y-169897597D01*
X145922431Y-169897598D01*
X145959306Y-169900500D01*
X145959314Y-169900500D01*
X147115686Y-169900500D01*
X147115694Y-169900500D01*
X147152569Y-169897598D01*
X147152571Y-169897597D01*
X147152573Y-169897597D01*
X147194191Y-169885505D01*
X147310398Y-169851744D01*
X147451865Y-169768081D01*
X147568081Y-169651865D01*
X147592024Y-169611378D01*
X147643092Y-169563696D01*
X147698756Y-169550500D01*
X148528500Y-169550500D01*
X148595539Y-169570185D01*
X148641294Y-169622989D01*
X148652500Y-169674500D01*
X148652500Y-169708846D01*
X148683261Y-169863489D01*
X148683264Y-169863501D01*
X148743602Y-170009172D01*
X148743609Y-170009185D01*
X148831210Y-170140288D01*
X148831213Y-170140292D01*
X148942707Y-170251786D01*
X148942711Y-170251789D01*
X149073814Y-170339390D01*
X149073821Y-170339394D01*
X149150953Y-170371343D01*
X149205355Y-170415182D01*
X149227421Y-170481475D01*
X149227500Y-170485903D01*
X149227500Y-170570943D01*
X149227500Y-170729057D01*
X149260577Y-170852500D01*
X149268423Y-170881783D01*
X149268426Y-170881790D01*
X149347475Y-171018709D01*
X149347479Y-171018714D01*
X149347480Y-171018716D01*
X149459284Y-171130520D01*
X149459286Y-171130521D01*
X149459290Y-171130524D01*
X149596209Y-171209573D01*
X149596216Y-171209577D01*
X149683479Y-171232958D01*
X149743139Y-171269323D01*
X149750651Y-171278421D01*
X149772455Y-171307547D01*
X149887664Y-171393793D01*
X149887671Y-171393797D01*
X150022517Y-171444091D01*
X150022516Y-171444091D01*
X150029444Y-171444835D01*
X150082127Y-171450500D01*
X150981001Y-171450499D01*
X151048039Y-171470183D01*
X151093794Y-171522987D01*
X151105000Y-171574499D01*
X151105000Y-172240230D01*
X151104204Y-172240444D01*
X151035795Y-172279940D01*
X150979940Y-172335795D01*
X150940444Y-172404204D01*
X150920000Y-172480504D01*
X150920000Y-172559496D01*
X150940444Y-172635796D01*
X150979940Y-172704205D01*
X151035795Y-172760060D01*
X151053012Y-172770000D01*
X150250138Y-172770000D01*
X150258430Y-172811690D01*
X150258430Y-172811692D01*
X150333807Y-172993671D01*
X150333814Y-172993684D01*
X150443248Y-173157462D01*
X150443251Y-173157466D01*
X150582533Y-173296748D01*
X150582537Y-173296751D01*
X150751387Y-173409574D01*
X150749940Y-173411739D01*
X150791713Y-173452748D01*
X150807194Y-173520881D01*
X150783383Y-173586568D01*
X150771117Y-173600857D01*
X150749266Y-173622708D01*
X150749261Y-173622714D01*
X150667593Y-173760808D01*
X150667592Y-173760811D01*
X150622833Y-173914871D01*
X150622832Y-173914877D01*
X150620069Y-173950000D01*
X151266000Y-173950000D01*
X151333039Y-173969685D01*
X151378794Y-174022489D01*
X151390000Y-174074000D01*
X151390000Y-174326000D01*
X151370315Y-174393039D01*
X151317511Y-174438794D01*
X151266000Y-174450000D01*
X150620069Y-174450000D01*
X150622832Y-174485122D01*
X150622833Y-174485128D01*
X150667592Y-174639188D01*
X150667593Y-174639191D01*
X150710876Y-174712379D01*
X150728059Y-174780103D01*
X150705899Y-174846366D01*
X150651433Y-174890129D01*
X150604144Y-174899500D01*
X133410947Y-174899500D01*
X133343908Y-174879815D01*
X133298153Y-174827011D01*
X133288209Y-174757853D01*
X133311681Y-174701189D01*
X133393350Y-174592093D01*
X133393354Y-174592086D01*
X133443596Y-174457379D01*
X133443598Y-174457372D01*
X133449999Y-174397844D01*
X133450000Y-174397827D01*
X133450000Y-173400000D01*
X129900000Y-173400000D01*
X129900000Y-174397844D01*
X129906401Y-174457372D01*
X129906403Y-174457379D01*
X129956645Y-174592086D01*
X129956649Y-174592093D01*
X130038319Y-174701189D01*
X130062737Y-174766653D01*
X130047886Y-174834926D01*
X129998481Y-174884332D01*
X129939053Y-174899500D01*
X49143844Y-174899500D01*
X49115454Y-174896206D01*
X48911068Y-174848135D01*
X48900052Y-174845001D01*
X48560644Y-174731243D01*
X48549964Y-174727105D01*
X48222517Y-174582523D01*
X48212264Y-174577418D01*
X47899547Y-174403234D01*
X47889809Y-174397205D01*
X47594487Y-174194906D01*
X47585347Y-174188003D01*
X47309964Y-173959328D01*
X47301500Y-173951612D01*
X47048387Y-173698499D01*
X47040671Y-173690035D01*
X46811994Y-173414649D01*
X46805093Y-173405512D01*
X46802913Y-173402330D01*
X46672529Y-173211991D01*
X46602794Y-173110190D01*
X46596765Y-173100452D01*
X46435924Y-172811690D01*
X46422579Y-172787731D01*
X46417476Y-172777482D01*
X46272889Y-172450022D01*
X46268761Y-172439368D01*
X46154994Y-172099934D01*
X46151866Y-172088938D01*
X46103794Y-171884545D01*
X46100500Y-171856156D01*
X46100500Y-170852486D01*
X47749500Y-170852486D01*
X47749500Y-171147513D01*
X47766735Y-171278421D01*
X47788007Y-171439993D01*
X47864361Y-171724951D01*
X47864364Y-171724961D01*
X47977254Y-171997500D01*
X47977258Y-171997510D01*
X48124761Y-172252993D01*
X48304352Y-172487040D01*
X48304358Y-172487047D01*
X48512952Y-172695641D01*
X48512959Y-172695647D01*
X48747006Y-172875238D01*
X49002489Y-173022741D01*
X49002490Y-173022741D01*
X49002493Y-173022743D01*
X49275048Y-173135639D01*
X49560007Y-173211993D01*
X49852494Y-173250500D01*
X49852501Y-173250500D01*
X50147499Y-173250500D01*
X50147506Y-173250500D01*
X50439993Y-173211993D01*
X50724952Y-173135639D01*
X50997507Y-173022743D01*
X51252994Y-172875238D01*
X51487042Y-172695646D01*
X51695646Y-172487042D01*
X51875238Y-172252994D01*
X52022743Y-171997507D01*
X52135639Y-171724952D01*
X52211993Y-171439993D01*
X52250500Y-171147506D01*
X52250500Y-170852494D01*
X52211993Y-170560007D01*
X52135639Y-170275048D01*
X52128775Y-170258478D01*
X52079820Y-170140289D01*
X52022743Y-170002493D01*
X52022532Y-170002128D01*
X51875238Y-169747006D01*
X51695647Y-169512959D01*
X51695641Y-169512952D01*
X51487047Y-169304358D01*
X51487040Y-169304352D01*
X51252993Y-169124761D01*
X50997510Y-168977258D01*
X50997500Y-168977254D01*
X50724961Y-168864364D01*
X50724954Y-168864362D01*
X50724952Y-168864361D01*
X50439993Y-168788007D01*
X50391113Y-168781571D01*
X50147513Y-168749500D01*
X50147506Y-168749500D01*
X49852494Y-168749500D01*
X49852486Y-168749500D01*
X49574085Y-168786153D01*
X49560007Y-168788007D01*
X49445399Y-168818716D01*
X49275048Y-168864361D01*
X49275038Y-168864364D01*
X49002499Y-168977254D01*
X49002489Y-168977258D01*
X48747006Y-169124761D01*
X48512959Y-169304352D01*
X48512952Y-169304358D01*
X48304358Y-169512952D01*
X48304352Y-169512959D01*
X48124761Y-169747006D01*
X47977258Y-170002489D01*
X47977254Y-170002499D01*
X47864364Y-170275038D01*
X47864361Y-170275048D01*
X47802153Y-170507215D01*
X47788008Y-170560004D01*
X47788006Y-170560015D01*
X47749500Y-170852486D01*
X46100500Y-170852486D01*
X46100500Y-166839758D01*
X46120185Y-166772719D01*
X46172989Y-166726964D01*
X46242147Y-166717020D01*
X46305703Y-166746045D01*
X46312181Y-166752077D01*
X46370213Y-166810109D01*
X46542179Y-166935048D01*
X46542181Y-166935049D01*
X46542184Y-166935051D01*
X46731588Y-167031557D01*
X46933757Y-167097246D01*
X47143713Y-167130500D01*
X47143714Y-167130500D01*
X47356286Y-167130500D01*
X47356287Y-167130500D01*
X47566243Y-167097246D01*
X47768412Y-167031557D01*
X47957816Y-166935051D01*
X48084173Y-166843248D01*
X48129786Y-166810109D01*
X48129788Y-166810106D01*
X48129792Y-166810104D01*
X48280104Y-166659792D01*
X48280106Y-166659788D01*
X48280109Y-166659786D01*
X48405048Y-166487820D01*
X48405047Y-166487820D01*
X48405051Y-166487816D01*
X48501557Y-166298412D01*
X48567246Y-166096243D01*
X48600500Y-165886287D01*
X48600500Y-165673713D01*
X48567246Y-165463757D01*
X48501557Y-165261588D01*
X48405051Y-165072184D01*
X48405049Y-165072181D01*
X48405048Y-165072179D01*
X48280109Y-164900213D01*
X48129896Y-164750000D01*
X106991210Y-164750000D01*
X106992854Y-164770910D01*
X107037968Y-164926195D01*
X107120278Y-165065374D01*
X107120285Y-165065383D01*
X107234616Y-165179714D01*
X107234625Y-165179721D01*
X107373804Y-165262031D01*
X107520000Y-165304504D01*
X107520000Y-164750000D01*
X106991210Y-164750000D01*
X48129896Y-164750000D01*
X48129786Y-164749890D01*
X47957820Y-164624951D01*
X47955953Y-164624000D01*
X47949054Y-164620485D01*
X47898259Y-164572512D01*
X47881463Y-164504692D01*
X47903999Y-164438556D01*
X47949054Y-164399515D01*
X47957816Y-164395051D01*
X48078380Y-164307457D01*
X48129786Y-164270109D01*
X48129788Y-164270106D01*
X48129792Y-164270104D01*
X48280104Y-164119792D01*
X48280106Y-164119788D01*
X48280109Y-164119786D01*
X48362778Y-164006000D01*
X48405051Y-163947816D01*
X48405349Y-163947230D01*
X48425235Y-163908205D01*
X48473209Y-163857409D01*
X48535719Y-163840500D01*
X89121831Y-163840500D01*
X89121847Y-163840501D01*
X89129443Y-163840501D01*
X89287554Y-163840501D01*
X89287557Y-163840501D01*
X89440285Y-163799577D01*
X89440287Y-163799575D01*
X89440289Y-163799575D01*
X89440290Y-163799574D01*
X89491968Y-163769738D01*
X89491969Y-163769737D01*
X89577216Y-163720520D01*
X89689020Y-163608716D01*
X89689020Y-163608714D01*
X89699224Y-163598511D01*
X89699227Y-163598506D01*
X93329062Y-159968672D01*
X93390383Y-159935189D01*
X93392550Y-159934738D01*
X93457270Y-159921864D01*
X93547897Y-159903837D01*
X93693579Y-159843494D01*
X93824689Y-159755889D01*
X93936189Y-159644389D01*
X94023794Y-159513279D01*
X94029026Y-159500649D01*
X94058289Y-159430000D01*
X94084137Y-159367597D01*
X94114900Y-159212942D01*
X94114900Y-159055258D01*
X94114900Y-159055255D01*
X94114899Y-159055253D01*
X94097086Y-158965703D01*
X94084137Y-158900603D01*
X94073721Y-158875456D01*
X94057146Y-158835439D01*
X94055090Y-158816321D01*
X94048145Y-158798394D01*
X94051433Y-158782302D01*
X94049677Y-158765970D01*
X94058283Y-158748776D01*
X94062133Y-158729939D01*
X94072072Y-158719745D01*
X94014215Y-158710016D01*
X93965295Y-158667370D01*
X93936192Y-158623815D01*
X93936186Y-158623807D01*
X93824692Y-158512313D01*
X93824688Y-158512310D01*
X93693585Y-158424709D01*
X93693572Y-158424702D01*
X93547901Y-158364364D01*
X93547889Y-158364361D01*
X93393245Y-158333600D01*
X93393242Y-158333600D01*
X93235558Y-158333600D01*
X93235555Y-158333600D01*
X93080910Y-158364361D01*
X93080898Y-158364364D01*
X92935227Y-158424702D01*
X92935214Y-158424709D01*
X92804111Y-158512310D01*
X92804107Y-158512313D01*
X92692613Y-158623807D01*
X92692610Y-158623811D01*
X92605009Y-158754914D01*
X92605002Y-158754927D01*
X92544664Y-158900598D01*
X92544661Y-158900608D01*
X92513761Y-159055950D01*
X92481376Y-159117861D01*
X92479825Y-159119439D01*
X88996084Y-162603181D01*
X88934761Y-162636666D01*
X88908403Y-162639500D01*
X48535719Y-162639500D01*
X48468680Y-162619815D01*
X48425235Y-162571795D01*
X48405052Y-162532185D01*
X48405051Y-162532184D01*
X48280109Y-162360213D01*
X48129786Y-162209890D01*
X47957820Y-162084951D01*
X47957115Y-162084591D01*
X47949054Y-162080485D01*
X47898259Y-162032512D01*
X47881463Y-161964692D01*
X47903999Y-161898556D01*
X47949054Y-161859515D01*
X47957816Y-161855051D01*
X48077674Y-161767970D01*
X48129786Y-161730109D01*
X48129788Y-161730106D01*
X48129792Y-161730104D01*
X48280104Y-161579792D01*
X48280106Y-161579788D01*
X48280109Y-161579786D01*
X48346820Y-161487965D01*
X48405051Y-161407816D01*
X48415579Y-161387154D01*
X48425235Y-161368205D01*
X48473209Y-161317409D01*
X48535719Y-161300500D01*
X80753131Y-161300500D01*
X80753147Y-161300501D01*
X80760743Y-161300501D01*
X80918854Y-161300501D01*
X80918857Y-161300501D01*
X81071585Y-161259577D01*
X81121704Y-161230639D01*
X81208516Y-161180520D01*
X81320320Y-161068716D01*
X81320320Y-161068714D01*
X81330528Y-161058507D01*
X81330529Y-161058504D01*
X91502217Y-150886819D01*
X91563540Y-150853334D01*
X91589898Y-150850500D01*
X94485633Y-150850500D01*
X94507906Y-150857040D01*
X94531030Y-150859109D01*
X94540801Y-150866699D01*
X94552672Y-150870185D01*
X94567872Y-150887727D01*
X94586208Y-150901970D01*
X94590324Y-150913638D01*
X94598427Y-150922989D01*
X94601730Y-150945966D01*
X94609455Y-150967859D01*
X94607699Y-150987478D01*
X94608371Y-150992147D01*
X94606425Y-151002403D01*
X94600000Y-151062155D01*
X94600000Y-151310000D01*
X95726000Y-151310000D01*
X95793039Y-151329685D01*
X95838794Y-151382489D01*
X95850000Y-151434000D01*
X95850000Y-151686000D01*
X95830315Y-151753039D01*
X95777511Y-151798794D01*
X95726000Y-151810000D01*
X94600000Y-151810000D01*
X94600000Y-152057844D01*
X94606401Y-152117372D01*
X94606403Y-152117379D01*
X94656645Y-152252086D01*
X94656649Y-152252093D01*
X94695870Y-152304485D01*
X94720288Y-152369949D01*
X94705437Y-152438222D01*
X94684285Y-152466477D01*
X94374217Y-152776546D01*
X94374214Y-152776548D01*
X94374215Y-152776549D01*
X94269478Y-152881286D01*
X94269475Y-152881290D01*
X94223033Y-152961732D01*
X94223033Y-152961733D01*
X94190423Y-153018215D01*
X94149499Y-153170943D01*
X94149499Y-153170945D01*
X94149499Y-153339046D01*
X94149500Y-153339059D01*
X94149500Y-158263968D01*
X94149493Y-158263995D01*
X94149500Y-158343691D01*
X94149500Y-158422068D01*
X94149505Y-158422105D01*
X94170970Y-158502185D01*
X94170971Y-158502198D01*
X94170973Y-158502198D01*
X94188172Y-158566388D01*
X94186509Y-158636237D01*
X94165470Y-158667321D01*
X94178990Y-158664201D01*
X94194452Y-158669746D01*
X94210867Y-158670333D01*
X94226658Y-158681297D01*
X94244758Y-158687789D01*
X94263562Y-158706139D01*
X94263733Y-158705969D01*
X94263763Y-158705999D01*
X94263828Y-158706073D01*
X94267207Y-158709451D01*
X94268259Y-158710182D01*
X94269447Y-158711691D01*
X94316082Y-158758318D01*
X94316081Y-158758318D01*
X94316089Y-158758325D01*
X94386981Y-158829217D01*
X94387077Y-158829301D01*
X95480314Y-159922350D01*
X95538484Y-159980520D01*
X95538507Y-159980533D01*
X95538526Y-159980552D01*
X95541740Y-159982407D01*
X95607168Y-160020175D01*
X95607167Y-160020175D01*
X95607171Y-160020176D01*
X95675416Y-160059577D01*
X95675420Y-160059578D01*
X95675441Y-160059590D01*
X95675461Y-160059595D01*
X95675464Y-160059597D01*
X95758861Y-160081936D01*
X95758867Y-160081939D01*
X95758868Y-160081938D01*
X95777430Y-160086911D01*
X95828143Y-160100500D01*
X95828149Y-160100500D01*
X95828181Y-160100504D01*
X95828195Y-160100508D01*
X95828207Y-160100507D01*
X95828208Y-160100508D01*
X95918546Y-160100500D01*
X96100500Y-160100500D01*
X96167539Y-160120185D01*
X96213294Y-160172989D01*
X96224500Y-160224500D01*
X96224500Y-161833480D01*
X96215855Y-161862920D01*
X96209332Y-161892907D01*
X96205577Y-161897922D01*
X96204815Y-161900519D01*
X96188181Y-161921161D01*
X96087681Y-162021661D01*
X96026358Y-162055146D01*
X95956666Y-162050162D01*
X95912319Y-162021661D01*
X95810188Y-161919530D01*
X95802355Y-161914795D01*
X95664606Y-161831522D01*
X95502196Y-161780914D01*
X95502194Y-161780913D01*
X95502192Y-161780913D01*
X95452778Y-161776423D01*
X95431616Y-161774500D01*
X94918384Y-161774500D01*
X94899145Y-161776248D01*
X94847807Y-161780913D01*
X94685393Y-161831522D01*
X94539811Y-161919530D01*
X94419530Y-162039811D01*
X94331522Y-162185393D01*
X94280913Y-162347807D01*
X94274500Y-162418386D01*
X94274500Y-163081613D01*
X94280913Y-163152192D01*
X94331522Y-163314606D01*
X94419530Y-163460188D01*
X94539811Y-163580469D01*
X94539813Y-163580470D01*
X94539815Y-163580472D01*
X94685394Y-163668478D01*
X94847804Y-163719086D01*
X94918384Y-163725500D01*
X94918387Y-163725500D01*
X95431613Y-163725500D01*
X95431616Y-163725500D01*
X95502196Y-163719086D01*
X95664606Y-163668478D01*
X95810185Y-163580472D01*
X95856762Y-163533895D01*
X95912319Y-163478339D01*
X95973642Y-163444854D01*
X96043334Y-163449838D01*
X96087681Y-163478339D01*
X96189811Y-163580469D01*
X96189813Y-163580470D01*
X96189815Y-163580472D01*
X96335394Y-163668478D01*
X96497804Y-163719086D01*
X96568384Y-163725500D01*
X96568387Y-163725500D01*
X97081613Y-163725500D01*
X97081616Y-163725500D01*
X97152196Y-163719086D01*
X97314606Y-163668478D01*
X97411352Y-163609992D01*
X97478904Y-163592157D01*
X97545378Y-163613674D01*
X97589666Y-163667714D01*
X97599500Y-163716110D01*
X97599500Y-164047869D01*
X97599501Y-164047876D01*
X97605908Y-164107483D01*
X97656202Y-164242328D01*
X97656206Y-164242335D01*
X97742452Y-164357544D01*
X97742455Y-164357547D01*
X97857664Y-164443793D01*
X97857671Y-164443797D01*
X97902618Y-164460561D01*
X97992517Y-164494091D01*
X98052127Y-164500500D01*
X98697872Y-164500499D01*
X98757483Y-164494091D01*
X98892331Y-164443796D01*
X99007546Y-164357546D01*
X99050858Y-164299687D01*
X99106791Y-164257818D01*
X99150124Y-164250000D01*
X100850499Y-164250000D01*
X100917538Y-164269685D01*
X100949765Y-164299689D01*
X100992805Y-164357182D01*
X100992814Y-164357191D01*
X101107906Y-164443350D01*
X101107913Y-164443354D01*
X101242620Y-164493596D01*
X101242627Y-164493598D01*
X101302155Y-164499999D01*
X101302172Y-164500000D01*
X101375000Y-164500000D01*
X101875000Y-164500000D01*
X101947828Y-164500000D01*
X101947844Y-164499999D01*
X102007372Y-164493598D01*
X102007379Y-164493596D01*
X102142086Y-164443354D01*
X102142093Y-164443350D01*
X102257187Y-164357190D01*
X102257190Y-164357187D01*
X102343350Y-164242093D01*
X102343354Y-164242086D01*
X102393596Y-164107379D01*
X102393598Y-164107372D01*
X102399999Y-164047844D01*
X102400000Y-164047827D01*
X102400000Y-163500000D01*
X101875000Y-163500000D01*
X101875000Y-164500000D01*
X101375000Y-164500000D01*
X101375000Y-163000000D01*
X101875000Y-163000000D01*
X102400000Y-163000000D01*
X102400000Y-162452172D01*
X102399999Y-162452155D01*
X102393598Y-162392627D01*
X102393596Y-162392620D01*
X102343354Y-162257913D01*
X102343350Y-162257906D01*
X102257190Y-162142812D01*
X102257187Y-162142809D01*
X102142093Y-162056649D01*
X102142086Y-162056645D01*
X102007379Y-162006403D01*
X102007372Y-162006401D01*
X101947844Y-162000000D01*
X101875000Y-162000000D01*
X101875000Y-163000000D01*
X101375000Y-163000000D01*
X101375000Y-162000000D01*
X101302155Y-162000000D01*
X101242627Y-162006401D01*
X101242620Y-162006403D01*
X101107913Y-162056645D01*
X101107906Y-162056649D01*
X100992814Y-162142808D01*
X100992805Y-162142817D01*
X100949765Y-162200311D01*
X100893831Y-162242182D01*
X100850499Y-162250000D01*
X99150124Y-162250000D01*
X99083085Y-162230315D01*
X99050859Y-162200313D01*
X99007546Y-162142454D01*
X98944260Y-162095078D01*
X98892335Y-162056206D01*
X98892328Y-162056202D01*
X98757486Y-162005910D01*
X98757485Y-162005909D01*
X98757483Y-162005909D01*
X98697873Y-161999500D01*
X98697863Y-161999500D01*
X98052129Y-161999500D01*
X98052123Y-161999501D01*
X97992516Y-162005908D01*
X97857671Y-162056202D01*
X97857664Y-162056206D01*
X97783253Y-162111910D01*
X97717789Y-162136327D01*
X97649516Y-162121475D01*
X97616312Y-162095078D01*
X97608727Y-162086555D01*
X97580472Y-162039815D01*
X97460185Y-161919528D01*
X97459967Y-161919396D01*
X97456869Y-161915915D01*
X97443413Y-161887453D01*
X97428334Y-161859838D01*
X97427738Y-161854298D01*
X97427006Y-161852749D01*
X97427315Y-161850369D01*
X97425500Y-161833480D01*
X97425500Y-159664059D01*
X97425501Y-159664046D01*
X97425501Y-159495945D01*
X97425501Y-159495943D01*
X97384577Y-159343215D01*
X97341276Y-159268216D01*
X97322674Y-159235997D01*
X97306204Y-159168097D01*
X97329057Y-159102071D01*
X97383979Y-159058881D01*
X97430063Y-159050000D01*
X112594403Y-159050000D01*
X112661442Y-159069685D01*
X112707197Y-159122489D01*
X112717141Y-159191647D01*
X112688116Y-159255203D01*
X112682084Y-159261681D01*
X110431584Y-161512181D01*
X110370261Y-161545666D01*
X110343903Y-161548500D01*
X107937670Y-161548500D01*
X107937654Y-161548499D01*
X107930058Y-161548499D01*
X107771943Y-161548499D01*
X107695579Y-161568961D01*
X107619214Y-161589423D01*
X107619209Y-161589426D01*
X107482290Y-161668475D01*
X107482282Y-161668481D01*
X107162583Y-161988181D01*
X107101260Y-162021666D01*
X107074902Y-162024500D01*
X106668384Y-162024500D01*
X106649145Y-162026248D01*
X106597807Y-162030913D01*
X106435393Y-162081522D01*
X106289811Y-162169530D01*
X106169530Y-162289811D01*
X106081522Y-162435393D01*
X106030913Y-162597807D01*
X106024500Y-162668386D01*
X106024500Y-163331613D01*
X106030913Y-163402192D01*
X106030913Y-163402194D01*
X106030914Y-163402196D01*
X106081522Y-163564606D01*
X106157023Y-163689500D01*
X106169530Y-163710188D01*
X106289811Y-163830469D01*
X106289813Y-163830470D01*
X106289815Y-163830472D01*
X106435394Y-163918478D01*
X106597804Y-163969086D01*
X106668384Y-163975500D01*
X106668387Y-163975500D01*
X106901376Y-163975500D01*
X106968415Y-163995185D01*
X107014170Y-164047989D01*
X107024114Y-164117147D01*
X107020452Y-164134095D01*
X106992855Y-164229081D01*
X106992854Y-164229087D01*
X106991209Y-164249999D01*
X106991210Y-164250000D01*
X107646000Y-164250000D01*
X107713039Y-164269685D01*
X107758794Y-164322489D01*
X107770000Y-164374000D01*
X107770000Y-164500000D01*
X107825500Y-164500000D01*
X107892539Y-164519685D01*
X107938294Y-164572489D01*
X107949500Y-164624000D01*
X107949500Y-164734697D01*
X107952356Y-164770991D01*
X107952357Y-164770997D01*
X107997503Y-164926389D01*
X107997505Y-164926393D01*
X107997506Y-164926395D01*
X108002732Y-164935233D01*
X108020000Y-164998352D01*
X108020000Y-165304503D01*
X108166194Y-165262032D01*
X108186384Y-165250091D01*
X108254108Y-165232906D01*
X108312629Y-165250089D01*
X108333605Y-165262494D01*
X108374587Y-165274400D01*
X108489002Y-165307642D01*
X108489005Y-165307642D01*
X108489007Y-165307643D01*
X108525310Y-165310500D01*
X108525318Y-165310500D01*
X108934682Y-165310500D01*
X108934690Y-165310500D01*
X108970993Y-165307643D01*
X108970995Y-165307642D01*
X108970997Y-165307642D01*
X109011975Y-165295736D01*
X109126395Y-165262494D01*
X109265687Y-165180117D01*
X109380117Y-165065687D01*
X109462494Y-164926395D01*
X109506979Y-164773280D01*
X109507642Y-164770997D01*
X109507643Y-164770991D01*
X109510500Y-164734690D01*
X109510500Y-164420251D01*
X109530185Y-164353212D01*
X109582989Y-164307457D01*
X109652147Y-164297513D01*
X109715703Y-164326538D01*
X109733764Y-164345937D01*
X109742453Y-164357544D01*
X109742455Y-164357547D01*
X109857664Y-164443793D01*
X109857671Y-164443797D01*
X109902618Y-164460561D01*
X109992517Y-164494091D01*
X110052127Y-164500500D01*
X110697872Y-164500499D01*
X110757483Y-164494091D01*
X110892331Y-164443796D01*
X111007546Y-164357546D01*
X111050858Y-164299687D01*
X111106791Y-164257818D01*
X111150124Y-164250000D01*
X112850499Y-164250000D01*
X112917538Y-164269685D01*
X112949765Y-164299689D01*
X112992805Y-164357182D01*
X112992814Y-164357191D01*
X113107906Y-164443350D01*
X113107913Y-164443354D01*
X113242620Y-164493596D01*
X113242627Y-164493598D01*
X113302155Y-164499999D01*
X113302172Y-164500000D01*
X113375000Y-164500000D01*
X113875000Y-164500000D01*
X113947828Y-164500000D01*
X113947844Y-164499999D01*
X114007372Y-164493598D01*
X114007379Y-164493596D01*
X114142086Y-164443354D01*
X114142093Y-164443350D01*
X114257187Y-164357190D01*
X114257190Y-164357187D01*
X114343350Y-164242093D01*
X114343354Y-164242086D01*
X114393596Y-164107379D01*
X114393598Y-164107372D01*
X114399999Y-164047844D01*
X114400000Y-164047827D01*
X114400000Y-163500000D01*
X113875000Y-163500000D01*
X113875000Y-164500000D01*
X113375000Y-164500000D01*
X113375000Y-163000000D01*
X113875000Y-163000000D01*
X114400000Y-163000000D01*
X114400000Y-162452172D01*
X114399999Y-162452155D01*
X114393598Y-162392627D01*
X114393596Y-162392620D01*
X114343354Y-162257913D01*
X114343350Y-162257906D01*
X114257190Y-162142812D01*
X114257187Y-162142809D01*
X114142093Y-162056649D01*
X114142086Y-162056645D01*
X114007379Y-162006403D01*
X114007372Y-162006401D01*
X113947844Y-162000000D01*
X113875000Y-162000000D01*
X113875000Y-163000000D01*
X113375000Y-163000000D01*
X113375000Y-162000000D01*
X113302155Y-162000000D01*
X113242627Y-162006401D01*
X113242620Y-162006403D01*
X113107913Y-162056645D01*
X113107906Y-162056649D01*
X112992814Y-162142808D01*
X112992805Y-162142817D01*
X112949765Y-162200311D01*
X112893831Y-162242182D01*
X112850499Y-162250000D01*
X111691597Y-162250000D01*
X111624558Y-162230315D01*
X111578803Y-162177511D01*
X111568859Y-162108353D01*
X111597884Y-162044797D01*
X111603916Y-162038319D01*
X112583734Y-161058501D01*
X116729713Y-156912521D01*
X116729716Y-156912520D01*
X116841520Y-156800716D01*
X116891639Y-156713904D01*
X116920577Y-156663785D01*
X116961501Y-156511057D01*
X116961501Y-156352943D01*
X116961501Y-156345348D01*
X116961500Y-156345330D01*
X116961500Y-151721341D01*
X116981185Y-151654302D01*
X117000144Y-151631394D01*
X117010788Y-151621293D01*
X117027716Y-151611520D01*
X117139520Y-151499716D01*
X117139521Y-151499713D01*
X120839392Y-147799842D01*
X120900709Y-147766361D01*
X120970401Y-147771345D01*
X121014748Y-147799846D01*
X121024616Y-147809714D01*
X121024625Y-147809721D01*
X121163804Y-147892031D01*
X121319089Y-147937145D01*
X121340000Y-147938789D01*
X121840000Y-147938789D01*
X121860910Y-147937145D01*
X122016195Y-147892031D01*
X122136879Y-147820659D01*
X122204602Y-147803476D01*
X122263121Y-147820659D01*
X122383804Y-147892031D01*
X122539089Y-147937145D01*
X122560000Y-147938789D01*
X122560000Y-147410000D01*
X121840000Y-147410000D01*
X121840000Y-147938789D01*
X121340000Y-147938789D01*
X121340000Y-147350597D01*
X121359685Y-147283558D01*
X121376315Y-147262919D01*
X121442917Y-147196318D01*
X121504241Y-147162834D01*
X121530598Y-147160000D01*
X121590000Y-147160000D01*
X121590000Y-147104500D01*
X121609685Y-147037461D01*
X121662489Y-146991706D01*
X121714000Y-146980500D01*
X121824682Y-146980500D01*
X121824690Y-146980500D01*
X121860993Y-146977643D01*
X121860995Y-146977642D01*
X121860997Y-146977642D01*
X122016389Y-146932496D01*
X122016389Y-146932495D01*
X122016395Y-146932494D01*
X122025233Y-146927267D01*
X122041132Y-146922917D01*
X122053417Y-146915023D01*
X122088352Y-146910000D01*
X122311648Y-146910000D01*
X122374766Y-146927267D01*
G37*
%TD.AperFunction*%
%TA.AperFunction,Conductor*%
G36*
X146693573Y-168046382D02*
G01*
X146708942Y-168050500D01*
X146708943Y-168050500D01*
X149104500Y-168050500D01*
X149171539Y-168070185D01*
X149217294Y-168122989D01*
X149228500Y-168174500D01*
X149228500Y-168225500D01*
X149208815Y-168292539D01*
X149156011Y-168338294D01*
X149104500Y-168349500D01*
X147332328Y-168349500D01*
X147297733Y-168344576D01*
X147152573Y-168302402D01*
X147152567Y-168302401D01*
X147115701Y-168299500D01*
X147115694Y-168299500D01*
X146661500Y-168299500D01*
X146594461Y-168279815D01*
X146548706Y-168227011D01*
X146537500Y-168175500D01*
X146537500Y-168166161D01*
X146557185Y-168099122D01*
X146609989Y-168053367D01*
X146679147Y-168043423D01*
X146693573Y-168046382D01*
G37*
%TD.AperFunction*%
%TA.AperFunction,Conductor*%
G36*
X143981587Y-141395185D02*
G01*
X144002229Y-141411819D01*
X144187016Y-141596606D01*
X144187045Y-141596637D01*
X144277264Y-141686856D01*
X144277267Y-141686858D01*
X144323181Y-141717537D01*
X144379714Y-141755312D01*
X144460207Y-141788652D01*
X144493548Y-141802463D01*
X144553971Y-141814481D01*
X144614393Y-141826500D01*
X144614394Y-141826500D01*
X146989647Y-141826500D01*
X147056686Y-141846185D01*
X147102441Y-141898989D01*
X147112385Y-141968147D01*
X147100132Y-142006795D01*
X147042227Y-142120437D01*
X147042226Y-142120440D01*
X146981462Y-142307456D01*
X146950700Y-142501681D01*
X146950700Y-142698324D01*
X146981462Y-142892549D01*
X147042226Y-143079565D01*
X147042227Y-143079568D01*
X147131502Y-143254778D01*
X147156822Y-143289626D01*
X147156822Y-143289627D01*
X147720874Y-142725574D01*
X147738454Y-142791182D01*
X147803661Y-142904124D01*
X147895879Y-142996342D01*
X148008821Y-143061549D01*
X148074427Y-143079128D01*
X147510375Y-143643179D01*
X147510375Y-143643180D01*
X147545223Y-143668499D01*
X147720434Y-143757775D01*
X147720437Y-143757776D01*
X147907453Y-143818540D01*
X148101679Y-143849303D01*
X148298321Y-143849303D01*
X148492546Y-143818540D01*
X148679562Y-143757776D01*
X148679575Y-143757770D01*
X148854769Y-143668503D01*
X148854774Y-143668500D01*
X148889624Y-143643179D01*
X148325573Y-143079128D01*
X148391179Y-143061549D01*
X148504121Y-142996342D01*
X148596339Y-142904124D01*
X148661546Y-142791182D01*
X148679125Y-142725575D01*
X149243176Y-143289626D01*
X149268497Y-143254777D01*
X149268500Y-143254772D01*
X149357767Y-143079578D01*
X149357773Y-143079565D01*
X149418537Y-142892549D01*
X149449300Y-142698324D01*
X149449300Y-142501681D01*
X149418537Y-142307456D01*
X149357773Y-142120440D01*
X149357772Y-142120437D01*
X149299868Y-142006795D01*
X149286972Y-141938126D01*
X149313248Y-141873385D01*
X149370355Y-141833128D01*
X149410353Y-141826500D01*
X151490548Y-141826500D01*
X151557587Y-141846185D01*
X151578229Y-141862819D01*
X151942010Y-142226600D01*
X151975495Y-142287923D01*
X151976802Y-142333679D01*
X151950200Y-142501636D01*
X151950200Y-142698369D01*
X151980973Y-142892665D01*
X152041766Y-143079764D01*
X152121497Y-143236243D01*
X152131075Y-143255041D01*
X152246706Y-143414193D01*
X152385810Y-143553297D01*
X152544962Y-143668928D01*
X152627774Y-143711123D01*
X152720238Y-143758236D01*
X152720240Y-143758236D01*
X152720243Y-143758238D01*
X152750500Y-143768069D01*
X152907337Y-143819029D01*
X153101634Y-143849803D01*
X153101639Y-143849803D01*
X153298366Y-143849803D01*
X153492662Y-143819029D01*
X153496558Y-143818094D01*
X153566340Y-143821588D01*
X153623156Y-143862254D01*
X153648967Y-143927181D01*
X153649500Y-143938669D01*
X153649500Y-155714545D01*
X153640853Y-155743990D01*
X153634331Y-155773973D01*
X153630577Y-155778986D01*
X153629815Y-155781584D01*
X153613180Y-155802227D01*
X153573396Y-155842010D01*
X153512073Y-155875495D01*
X153466318Y-155876801D01*
X153298366Y-155850200D01*
X153298361Y-155850200D01*
X153101639Y-155850200D01*
X153101634Y-155850200D01*
X152907337Y-155880973D01*
X152720238Y-155941766D01*
X152544961Y-156031075D01*
X152454159Y-156097047D01*
X152385810Y-156146706D01*
X152385808Y-156146708D01*
X152385807Y-156146708D01*
X152246708Y-156285807D01*
X152246708Y-156285808D01*
X152246706Y-156285810D01*
X152216187Y-156327816D01*
X152131075Y-156444961D01*
X152060204Y-156584053D01*
X152012229Y-156634849D01*
X151944408Y-156651644D01*
X151878273Y-156629106D01*
X151839234Y-156584053D01*
X151768496Y-156445223D01*
X151743176Y-156410375D01*
X151179124Y-156974426D01*
X151161546Y-156908821D01*
X151096339Y-156795879D01*
X151004121Y-156703661D01*
X150891179Y-156638454D01*
X150825572Y-156620874D01*
X151389624Y-156056822D01*
X151354775Y-156031502D01*
X151179565Y-155942227D01*
X151179562Y-155942226D01*
X150992546Y-155881462D01*
X150798321Y-155850700D01*
X150601679Y-155850700D01*
X150407453Y-155881462D01*
X150220437Y-155942226D01*
X150220434Y-155942227D01*
X150045220Y-156031505D01*
X150010375Y-156056821D01*
X150010375Y-156056823D01*
X150574428Y-156620874D01*
X150508821Y-156638454D01*
X150395879Y-156703661D01*
X150303661Y-156795879D01*
X150238454Y-156908821D01*
X150220874Y-156974427D01*
X149656823Y-156410375D01*
X149656821Y-156410375D01*
X149631503Y-156445222D01*
X149560764Y-156584054D01*
X149512790Y-156634849D01*
X149444969Y-156651644D01*
X149378834Y-156629106D01*
X149339795Y-156584053D01*
X149302602Y-156511057D01*
X149268925Y-156444962D01*
X149153294Y-156285810D01*
X149014190Y-156146706D01*
X148855038Y-156031075D01*
X148824223Y-156015374D01*
X148679761Y-155941766D01*
X148492662Y-155880973D01*
X148298366Y-155850200D01*
X148298361Y-155850200D01*
X148101639Y-155850200D01*
X148101634Y-155850200D01*
X147933679Y-155876801D01*
X147864385Y-155867846D01*
X147826600Y-155842009D01*
X143810819Y-151826228D01*
X143777334Y-151764905D01*
X143774500Y-151738547D01*
X143774500Y-151341465D01*
X143794185Y-151274426D01*
X143846989Y-151228671D01*
X143916147Y-151218727D01*
X143973983Y-151243087D01*
X144058694Y-151308088D01*
X144073314Y-151316529D01*
X144291400Y-151442442D01*
X144291405Y-151442444D01*
X144291408Y-151442446D01*
X144429663Y-151499713D01*
X144512267Y-151533929D01*
X144539669Y-151545279D01*
X144799227Y-151614827D01*
X145065643Y-151649902D01*
X145065650Y-151649902D01*
X145334352Y-151649902D01*
X145334359Y-151649902D01*
X145600775Y-151614827D01*
X145860333Y-151545279D01*
X146108594Y-151442446D01*
X146341308Y-151308088D01*
X146554494Y-151144505D01*
X146744504Y-150954495D01*
X146908087Y-150741309D01*
X147042445Y-150508595D01*
X147145278Y-150260334D01*
X147214826Y-150000776D01*
X147249901Y-149734360D01*
X147249901Y-149465644D01*
X147214826Y-149199228D01*
X147145278Y-148939670D01*
X147138994Y-148924500D01*
X147076052Y-148772544D01*
X147042445Y-148691409D01*
X147042443Y-148691406D01*
X147042441Y-148691401D01*
X146908091Y-148458702D01*
X146908087Y-148458695D01*
X146779450Y-148291052D01*
X146744505Y-148245510D01*
X146744499Y-148245503D01*
X146554499Y-148055503D01*
X146554492Y-148055497D01*
X146341316Y-147891922D01*
X146341314Y-147891920D01*
X146341308Y-147891916D01*
X146341303Y-147891913D01*
X146341300Y-147891911D01*
X146108601Y-147757561D01*
X146108590Y-147757556D01*
X145860342Y-147654728D01*
X145860335Y-147654726D01*
X145860333Y-147654725D01*
X145600775Y-147585177D01*
X145556250Y-147579315D01*
X145334366Y-147550102D01*
X145334359Y-147550102D01*
X145065643Y-147550102D01*
X145065635Y-147550102D01*
X144812053Y-147583488D01*
X144799227Y-147585177D01*
X144589115Y-147641476D01*
X144539669Y-147654725D01*
X144539659Y-147654728D01*
X144291411Y-147757556D01*
X144291400Y-147757561D01*
X144058701Y-147891911D01*
X144058685Y-147891922D01*
X143973986Y-147956914D01*
X143908817Y-147982108D01*
X143840372Y-147968069D01*
X143790382Y-147919255D01*
X143774500Y-147858538D01*
X143774500Y-141499500D01*
X143777050Y-141490814D01*
X143775762Y-141481853D01*
X143786740Y-141457812D01*
X143794185Y-141432461D01*
X143801025Y-141426533D01*
X143804787Y-141418297D01*
X143827021Y-141404007D01*
X143846989Y-141386706D01*
X143857503Y-141384418D01*
X143863565Y-141380523D01*
X143898500Y-141375500D01*
X143914548Y-141375500D01*
X143981587Y-141395185D01*
G37*
%TD.AperFunction*%
%TA.AperFunction,Conductor*%
G36*
X103693039Y-142020185D02*
G01*
X103738794Y-142072989D01*
X103750000Y-142124500D01*
X103750000Y-142190000D01*
X104584410Y-142190000D01*
X104604630Y-142195937D01*
X104625676Y-142197068D01*
X104637483Y-142205584D01*
X104651449Y-142209685D01*
X104665248Y-142225610D01*
X104682344Y-142237941D01*
X104687672Y-142251489D01*
X104697204Y-142262489D01*
X104700203Y-142283347D01*
X104707918Y-142302962D01*
X104706586Y-142327744D01*
X104707148Y-142331647D01*
X104706025Y-142338205D01*
X104704297Y-142346887D01*
X104671904Y-142408795D01*
X104611185Y-142443362D01*
X104606874Y-142444299D01*
X104495677Y-142466418D01*
X104495667Y-142466421D01*
X104368195Y-142519221D01*
X104368182Y-142519228D01*
X104253459Y-142595884D01*
X104236109Y-142613235D01*
X104195661Y-142653682D01*
X104134341Y-142687166D01*
X104107982Y-142690000D01*
X103750000Y-142690000D01*
X103750000Y-142937844D01*
X103756401Y-142997372D01*
X103756403Y-142997383D01*
X103793434Y-143096668D01*
X103798418Y-143166360D01*
X103793434Y-143183332D01*
X103756403Y-143282616D01*
X103756401Y-143282627D01*
X103750000Y-143342155D01*
X103750000Y-143590000D01*
X104107982Y-143590000D01*
X104131426Y-143596884D01*
X104155713Y-143599555D01*
X104167567Y-143607496D01*
X104175021Y-143609685D01*
X104186023Y-143617638D01*
X104191066Y-143621722D01*
X104253458Y-143684114D01*
X104337176Y-143740052D01*
X104341603Y-143743638D01*
X104358357Y-143767894D01*
X104377258Y-143790511D01*
X104377986Y-143796314D01*
X104381311Y-143801127D01*
X104382291Y-143830587D01*
X104385965Y-143859836D01*
X104383440Y-143865112D01*
X104383635Y-143870958D01*
X104368532Y-143896271D01*
X104355810Y-143922863D01*
X104349304Y-143928499D01*
X104347837Y-143930960D01*
X104344616Y-143932562D01*
X104332453Y-143943102D01*
X104253459Y-143995884D01*
X104224561Y-144024782D01*
X104195661Y-144053682D01*
X104134341Y-144087166D01*
X104107982Y-144090000D01*
X103750000Y-144090000D01*
X103750000Y-144337844D01*
X103756401Y-144397372D01*
X103756403Y-144397383D01*
X103793434Y-144496668D01*
X103798418Y-144566360D01*
X103793434Y-144583332D01*
X103756403Y-144682616D01*
X103756401Y-144682627D01*
X103750000Y-144742155D01*
X103750000Y-144990000D01*
X104107982Y-144990000D01*
X104175021Y-145009685D01*
X104195658Y-145026314D01*
X104225382Y-145056038D01*
X104253459Y-145084115D01*
X104368182Y-145160771D01*
X104368195Y-145160778D01*
X104495667Y-145213578D01*
X104495672Y-145213580D01*
X104540283Y-145222453D01*
X104606873Y-145235700D01*
X104668784Y-145268085D01*
X104703359Y-145328801D01*
X104704299Y-145333125D01*
X104726418Y-145444322D01*
X104726421Y-145444332D01*
X104779221Y-145571804D01*
X104779228Y-145571817D01*
X104855884Y-145686540D01*
X104855885Y-145686541D01*
X104855886Y-145686542D01*
X104913682Y-145744338D01*
X104947166Y-145805659D01*
X104950000Y-145832018D01*
X104950000Y-146190000D01*
X105197828Y-146190000D01*
X105197844Y-146189999D01*
X105257372Y-146183598D01*
X105257376Y-146183597D01*
X105356666Y-146146564D01*
X105426358Y-146141580D01*
X105443334Y-146146564D01*
X105542623Y-146183597D01*
X105542627Y-146183598D01*
X105602155Y-146189999D01*
X105602172Y-146190000D01*
X105850000Y-146190000D01*
X105850000Y-145832018D01*
X105856884Y-145808573D01*
X105859555Y-145784287D01*
X105867496Y-145772432D01*
X105869685Y-145764979D01*
X105877638Y-145753977D01*
X105881722Y-145748933D01*
X105944114Y-145686542D01*
X106000056Y-145602818D01*
X106003638Y-145598396D01*
X106027891Y-145581644D01*
X106050510Y-145562741D01*
X106056314Y-145562011D01*
X106061127Y-145558688D01*
X106090585Y-145557707D01*
X106119835Y-145554034D01*
X106125111Y-145556558D01*
X106130958Y-145556364D01*
X106156273Y-145571467D01*
X106182863Y-145584189D01*
X106188499Y-145590694D01*
X106190960Y-145592162D01*
X106192562Y-145595382D01*
X106203102Y-145607546D01*
X106255884Y-145686540D01*
X106255885Y-145686541D01*
X106255886Y-145686542D01*
X106313682Y-145744338D01*
X106347166Y-145805659D01*
X106350000Y-145832018D01*
X106350000Y-146190000D01*
X106597828Y-146190000D01*
X106597844Y-146189999D01*
X106657372Y-146183598D01*
X106657376Y-146183597D01*
X106756666Y-146146564D01*
X106826358Y-146141580D01*
X106843334Y-146146564D01*
X106942623Y-146183597D01*
X106942627Y-146183598D01*
X107002155Y-146189999D01*
X107002172Y-146190000D01*
X107250000Y-146190000D01*
X107750000Y-146190000D01*
X107997828Y-146190000D01*
X107997844Y-146189999D01*
X108057372Y-146183598D01*
X108057379Y-146183596D01*
X108192086Y-146133354D01*
X108192093Y-146133350D01*
X108307187Y-146047190D01*
X108307190Y-146047187D01*
X108393350Y-145932093D01*
X108393354Y-145932086D01*
X108443596Y-145797379D01*
X108443598Y-145797372D01*
X108449999Y-145737844D01*
X108450000Y-145737827D01*
X108450000Y-145490000D01*
X107750000Y-145490000D01*
X107750000Y-146190000D01*
X107250000Y-146190000D01*
X107250000Y-145832018D01*
X107269685Y-145764979D01*
X107286314Y-145744341D01*
X107344114Y-145686542D01*
X107420775Y-145571811D01*
X107420918Y-145571467D01*
X107454662Y-145490000D01*
X107473580Y-145444328D01*
X107495700Y-145333125D01*
X107528085Y-145271214D01*
X107588801Y-145236640D01*
X107593126Y-145235700D01*
X107637104Y-145226951D01*
X107704328Y-145213580D01*
X107808586Y-145170395D01*
X107831804Y-145160778D01*
X107831804Y-145160777D01*
X107831811Y-145160775D01*
X107946542Y-145084114D01*
X108004338Y-145026317D01*
X108065659Y-144992834D01*
X108092018Y-144990000D01*
X108450000Y-144990000D01*
X108450000Y-144742172D01*
X108449999Y-144742155D01*
X108443598Y-144682627D01*
X108443597Y-144682623D01*
X108406564Y-144583334D01*
X108401580Y-144513642D01*
X108406564Y-144496666D01*
X108443597Y-144397376D01*
X108443598Y-144397372D01*
X108449999Y-144337844D01*
X108450000Y-144337827D01*
X108450000Y-144090000D01*
X108092018Y-144090000D01*
X108068573Y-144083115D01*
X108044287Y-144080445D01*
X108032432Y-144072503D01*
X108024979Y-144070315D01*
X108013977Y-144062362D01*
X108008933Y-144058277D01*
X107946542Y-143995886D01*
X107862818Y-143939943D01*
X107858396Y-143936362D01*
X107841644Y-143912108D01*
X107822741Y-143889490D01*
X107822011Y-143883685D01*
X107818688Y-143878873D01*
X107817707Y-143849414D01*
X107814034Y-143820165D01*
X107816558Y-143814888D01*
X107816364Y-143809042D01*
X107831467Y-143783726D01*
X107844189Y-143757137D01*
X107850694Y-143751500D01*
X107852162Y-143749040D01*
X107855382Y-143747437D01*
X107867546Y-143736898D01*
X107945777Y-143684625D01*
X107946542Y-143684114D01*
X108004338Y-143626317D01*
X108065659Y-143592834D01*
X108092018Y-143590000D01*
X108450000Y-143590000D01*
X108450000Y-143342172D01*
X108449999Y-143342155D01*
X108443598Y-143282627D01*
X108443597Y-143282623D01*
X108406564Y-143183334D01*
X108401580Y-143113642D01*
X108406564Y-143096666D01*
X108443597Y-142997376D01*
X108443598Y-142997372D01*
X108449999Y-142937844D01*
X108450000Y-142937827D01*
X108450000Y-142690000D01*
X108092018Y-142690000D01*
X108024979Y-142670315D01*
X108004341Y-142653685D01*
X107946542Y-142595886D01*
X107946541Y-142595885D01*
X107946540Y-142595884D01*
X107831817Y-142519228D01*
X107831804Y-142519221D01*
X107704332Y-142466421D01*
X107704322Y-142466418D01*
X107593125Y-142444299D01*
X107575410Y-142435032D01*
X107555958Y-142430436D01*
X107545088Y-142419171D01*
X107531214Y-142411914D01*
X107521320Y-142394539D01*
X107507442Y-142380157D01*
X107498178Y-142353900D01*
X107496640Y-142351198D01*
X107495700Y-142346874D01*
X107493973Y-142338192D01*
X107500200Y-142268600D01*
X107543063Y-142213423D01*
X107608952Y-142190178D01*
X107615590Y-142190000D01*
X108450000Y-142190000D01*
X108450000Y-142124500D01*
X108469685Y-142057461D01*
X108522489Y-142011706D01*
X108574000Y-142000500D01*
X111979906Y-142000500D01*
X112046945Y-142020185D01*
X112092700Y-142072989D01*
X112103195Y-142137752D01*
X112099500Y-142172127D01*
X112099500Y-142172131D01*
X112099500Y-142172132D01*
X112099500Y-143167870D01*
X112099501Y-143167876D01*
X112105908Y-143227481D01*
X112118659Y-143261669D01*
X112123642Y-143331361D01*
X112118659Y-143348331D01*
X112105908Y-143382518D01*
X112099501Y-143442116D01*
X112099500Y-143442135D01*
X112099500Y-144437870D01*
X112099501Y-144437876D01*
X112105908Y-144497481D01*
X112118659Y-144531669D01*
X112123642Y-144601361D01*
X112118659Y-144618331D01*
X112105908Y-144652518D01*
X112099501Y-144712116D01*
X112099500Y-144712135D01*
X112099500Y-145707870D01*
X112099501Y-145707876D01*
X112105908Y-145767481D01*
X112118659Y-145801669D01*
X112123642Y-145871361D01*
X112118659Y-145888331D01*
X112105908Y-145922518D01*
X112099501Y-145982116D01*
X112099501Y-145982123D01*
X112099500Y-145982135D01*
X112099500Y-146977870D01*
X112099501Y-146977876D01*
X112105908Y-147037481D01*
X112118659Y-147071669D01*
X112123642Y-147141361D01*
X112118659Y-147158331D01*
X112105908Y-147192518D01*
X112101884Y-147229950D01*
X112099501Y-147252123D01*
X112099500Y-147252135D01*
X112099500Y-148247870D01*
X112099501Y-148247876D01*
X112105908Y-148307481D01*
X112118659Y-148341669D01*
X112123642Y-148411361D01*
X112118659Y-148428331D01*
X112105908Y-148462518D01*
X112099502Y-148522104D01*
X112099500Y-148522127D01*
X112099500Y-148522128D01*
X112099500Y-148522135D01*
X112099500Y-149517870D01*
X112099501Y-149517876D01*
X112105908Y-149577481D01*
X112118659Y-149611669D01*
X112123642Y-149681361D01*
X112118659Y-149698331D01*
X112105908Y-149732518D01*
X112099501Y-149792116D01*
X112099500Y-149792135D01*
X112099500Y-150787870D01*
X112099501Y-150787876D01*
X112105908Y-150847483D01*
X112118925Y-150882381D01*
X112123909Y-150952072D01*
X112118925Y-150969047D01*
X112106403Y-151002619D01*
X112106401Y-151002627D01*
X112100000Y-151062155D01*
X112100000Y-151310000D01*
X114600000Y-151310000D01*
X114600000Y-151244500D01*
X114602550Y-151235814D01*
X114601262Y-151226853D01*
X114612240Y-151202812D01*
X114619685Y-151177461D01*
X114626525Y-151171533D01*
X114630287Y-151163297D01*
X114652521Y-151149007D01*
X114672489Y-151131706D01*
X114683003Y-151129418D01*
X114689065Y-151125523D01*
X114724000Y-151120500D01*
X114812156Y-151120500D01*
X114879195Y-151140185D01*
X114924950Y-151192989D01*
X114926665Y-151204921D01*
X114945495Y-151230000D01*
X115251648Y-151230000D01*
X115314766Y-151247267D01*
X115323605Y-151252494D01*
X115323608Y-151252494D01*
X115323610Y-151252496D01*
X115479002Y-151297642D01*
X115479005Y-151297642D01*
X115479007Y-151297643D01*
X115515310Y-151300500D01*
X115626000Y-151300500D01*
X115634685Y-151303050D01*
X115643647Y-151301762D01*
X115667687Y-151312740D01*
X115693039Y-151320185D01*
X115698966Y-151327025D01*
X115707203Y-151330787D01*
X115721492Y-151353021D01*
X115738794Y-151372989D01*
X115741081Y-151383503D01*
X115744977Y-151389565D01*
X115750000Y-151424500D01*
X115750000Y-151606000D01*
X115730315Y-151673039D01*
X115677511Y-151718794D01*
X115626000Y-151730000D01*
X114945496Y-151730000D01*
X114987968Y-151876195D01*
X115038937Y-151962379D01*
X115040592Y-151968903D01*
X115044999Y-151973989D01*
X115049074Y-152002335D01*
X115056120Y-152030103D01*
X115053985Y-152036486D01*
X115054943Y-152043147D01*
X115043044Y-152069200D01*
X115033960Y-152096366D01*
X115028713Y-152100581D01*
X115025918Y-152106703D01*
X115001823Y-152122187D01*
X114979494Y-152140129D01*
X114971414Y-152141730D01*
X114967140Y-152144477D01*
X114932205Y-152149500D01*
X114724000Y-152149500D01*
X114656961Y-152129815D01*
X114611206Y-152077011D01*
X114600000Y-152025500D01*
X114600000Y-151810000D01*
X112100000Y-151810000D01*
X112100000Y-152057844D01*
X112106401Y-152117372D01*
X112106403Y-152117379D01*
X112156645Y-152252086D01*
X112156646Y-152252088D01*
X112232232Y-152353057D01*
X112256649Y-152418521D01*
X112247528Y-152474817D01*
X112230262Y-152516502D01*
X112230261Y-152516505D01*
X112199500Y-152671153D01*
X112199500Y-152671158D01*
X112199500Y-152828842D01*
X112199500Y-152828844D01*
X112199499Y-152828844D01*
X112214014Y-152901808D01*
X112207787Y-152971399D01*
X112164925Y-153026577D01*
X112099035Y-153049822D01*
X112092397Y-153050000D01*
X97310597Y-153050000D01*
X97243558Y-153030315D01*
X97197803Y-152977511D01*
X97187859Y-152908353D01*
X97216884Y-152844797D01*
X97222916Y-152838319D01*
X97499651Y-152561583D01*
X97608506Y-152452727D01*
X97608511Y-152452724D01*
X97618714Y-152442520D01*
X97618716Y-152442520D01*
X97730520Y-152330716D01*
X97787830Y-152231451D01*
X97809577Y-152193785D01*
X97850500Y-152041058D01*
X97850500Y-151882943D01*
X97850500Y-145737844D01*
X103750000Y-145737844D01*
X103756401Y-145797372D01*
X103756403Y-145797379D01*
X103806645Y-145932086D01*
X103806649Y-145932093D01*
X103892809Y-146047187D01*
X103892812Y-146047190D01*
X104007906Y-146133350D01*
X104007913Y-146133354D01*
X104142620Y-146183596D01*
X104142627Y-146183598D01*
X104202155Y-146189999D01*
X104202172Y-146190000D01*
X104450000Y-146190000D01*
X104450000Y-145490000D01*
X103750000Y-145490000D01*
X103750000Y-145737844D01*
X97850500Y-145737844D01*
X97850500Y-142591697D01*
X97870185Y-142524658D01*
X97922989Y-142478903D01*
X97992147Y-142468959D01*
X98043390Y-142488594D01*
X98139621Y-142552894D01*
X98139623Y-142552895D01*
X98139627Y-142552897D01*
X98262416Y-142603757D01*
X98285303Y-142613237D01*
X98439953Y-142643999D01*
X98439956Y-142644000D01*
X98439958Y-142644000D01*
X98597644Y-142644000D01*
X98597645Y-142643999D01*
X98752297Y-142613237D01*
X98897979Y-142552894D01*
X99029089Y-142465289D01*
X99140589Y-142353789D01*
X99228194Y-142222679D01*
X99228197Y-142222672D01*
X99288516Y-142077048D01*
X99332356Y-142022644D01*
X99398650Y-142000579D01*
X99403077Y-142000500D01*
X103626000Y-142000500D01*
X103693039Y-142020185D01*
G37*
%TD.AperFunction*%
%TA.AperFunction,Conductor*%
G36*
X128197798Y-151430951D02*
G01*
X128209365Y-151430000D01*
X128215224Y-151444145D01*
X128243355Y-151472276D01*
X128280109Y-151487500D01*
X128299894Y-151487500D01*
X128300409Y-151488500D01*
X128301640Y-151490108D01*
X128305211Y-151496487D01*
X128320721Y-151533929D01*
X128340902Y-151560229D01*
X128345272Y-151568034D01*
X128360848Y-151636145D01*
X128337128Y-151701866D01*
X128324758Y-151716295D01*
X128103554Y-151937499D01*
X128103554Y-151937500D01*
X128213181Y-152047127D01*
X128227456Y-152073271D01*
X128243937Y-152098085D01*
X128245062Y-152105512D01*
X128246666Y-152108450D01*
X128249486Y-152132940D01*
X128249500Y-152133884D01*
X128249501Y-152286900D01*
X128252102Y-152306663D01*
X128252211Y-152313856D01*
X128244718Y-152340873D01*
X128240396Y-152368580D01*
X128235506Y-152374088D01*
X128233538Y-152381185D01*
X128212627Y-152399862D01*
X128194013Y-152420833D01*
X128186922Y-152422823D01*
X128181429Y-152427730D01*
X128153736Y-152432138D01*
X128126743Y-152439715D01*
X128112526Y-152438698D01*
X128112428Y-152438714D01*
X128112366Y-152438686D01*
X128112046Y-152438664D01*
X128099402Y-152437000D01*
X127947308Y-152437000D01*
X127880269Y-152417315D01*
X127859627Y-152400681D01*
X127750000Y-152291054D01*
X127528795Y-152512258D01*
X127467472Y-152545743D01*
X127397780Y-152540759D01*
X127384738Y-152535020D01*
X127374629Y-152529860D01*
X127346429Y-152508221D01*
X127300000Y-152488989D01*
X127300000Y-152467609D01*
X127284776Y-152430855D01*
X127256645Y-152402724D01*
X127219891Y-152387500D01*
X127198511Y-152387500D01*
X127179281Y-152341075D01*
X127179278Y-152341069D01*
X127164547Y-152321872D01*
X127139352Y-152256703D01*
X127153390Y-152188258D01*
X127175241Y-152158704D01*
X127396445Y-151937499D01*
X127286818Y-151827872D01*
X127272542Y-151801727D01*
X127256062Y-151776914D01*
X127254936Y-151769486D01*
X127253333Y-151766549D01*
X127250513Y-151742059D01*
X127250499Y-151741180D01*
X127250499Y-151588100D01*
X127247896Y-151568328D01*
X127247788Y-151561143D01*
X127255281Y-151534124D01*
X127259601Y-151506425D01*
X127264491Y-151500914D01*
X127266461Y-151493814D01*
X127287371Y-151475136D01*
X127305981Y-151454169D01*
X127313074Y-151452177D01*
X127318570Y-151447269D01*
X127346258Y-151442861D01*
X127373249Y-151435284D01*
X127387470Y-151436301D01*
X127387571Y-151436285D01*
X127387634Y-151436312D01*
X127387959Y-151436336D01*
X127388945Y-151436465D01*
X127400599Y-151438000D01*
X127552690Y-151437999D01*
X127619730Y-151457683D01*
X127640372Y-151474318D01*
X127749999Y-151583945D01*
X127859626Y-151474318D01*
X127920949Y-151440833D01*
X127947300Y-151437999D01*
X128099400Y-151437999D01*
X128099401Y-151437999D01*
X128120024Y-151435284D01*
X128177261Y-151427749D01*
X128197798Y-151430951D01*
G37*
%TD.AperFunction*%
%TA.AperFunction,Conductor*%
G36*
X124097147Y-142856738D02*
G01*
X124119236Y-142858318D01*
X124130019Y-142866390D01*
X124142941Y-142870185D01*
X124157440Y-142886918D01*
X124175169Y-142900190D01*
X124179876Y-142912810D01*
X124188696Y-142922989D01*
X124191847Y-142944906D01*
X124199586Y-142965654D01*
X124196723Y-142978814D01*
X124198640Y-142992147D01*
X124189440Y-143012290D01*
X124184734Y-143033927D01*
X124171726Y-143051302D01*
X124172426Y-143051839D01*
X124169841Y-143055206D01*
X124169615Y-143055703D01*
X124168738Y-143056643D01*
X124167479Y-143058285D01*
X124153748Y-143082068D01*
X124129251Y-143124499D01*
X124102585Y-143170686D01*
X124095283Y-143183334D01*
X124088423Y-143195215D01*
X124047499Y-143347943D01*
X124047499Y-143347945D01*
X124047499Y-143516046D01*
X124047500Y-143516059D01*
X124047500Y-143645943D01*
X124047500Y-143804057D01*
X124088423Y-143956784D01*
X124103247Y-143982461D01*
X124133004Y-144034001D01*
X124149476Y-144101901D01*
X124126623Y-144167928D01*
X124071701Y-144211118D01*
X124025616Y-144220000D01*
X123900000Y-144220000D01*
X123900000Y-144275500D01*
X123880315Y-144342539D01*
X123827511Y-144388294D01*
X123776000Y-144399500D01*
X123665302Y-144399500D01*
X123629008Y-144402356D01*
X123629002Y-144402357D01*
X123473608Y-144447504D01*
X123473600Y-144447507D01*
X123464767Y-144452732D01*
X123448865Y-144457082D01*
X123436581Y-144464977D01*
X123401646Y-144470000D01*
X123298354Y-144470000D01*
X123235233Y-144452732D01*
X123226399Y-144447507D01*
X123226391Y-144447504D01*
X123070997Y-144402357D01*
X123070991Y-144402356D01*
X123034697Y-144399500D01*
X123034690Y-144399500D01*
X122565310Y-144399500D01*
X122565302Y-144399500D01*
X122529008Y-144402356D01*
X122529002Y-144402357D01*
X122373610Y-144447503D01*
X122373605Y-144447506D01*
X122364766Y-144452732D01*
X122301648Y-144470000D01*
X121995496Y-144470000D01*
X122037968Y-144616194D01*
X122049911Y-144636389D01*
X122067092Y-144704113D01*
X122049911Y-144762628D01*
X122037506Y-144783604D01*
X122037504Y-144783609D01*
X121992357Y-144939002D01*
X121992356Y-144939008D01*
X121989500Y-144975302D01*
X121989500Y-145298328D01*
X121969815Y-145365367D01*
X121917011Y-145411122D01*
X121855772Y-145421946D01*
X121824697Y-145419500D01*
X121824690Y-145419500D01*
X121355310Y-145419500D01*
X121355302Y-145419500D01*
X121319008Y-145422356D01*
X121319002Y-145422357D01*
X121163609Y-145467504D01*
X121163606Y-145467505D01*
X121024315Y-145549881D01*
X121024307Y-145549887D01*
X120909887Y-145664307D01*
X120909881Y-145664315D01*
X120827505Y-145803606D01*
X120827504Y-145803609D01*
X120782357Y-145959002D01*
X120782356Y-145959008D01*
X120779500Y-145995302D01*
X120779500Y-146109903D01*
X120759815Y-146176942D01*
X120743181Y-146197584D01*
X116729342Y-150211422D01*
X116668019Y-150244907D01*
X116598327Y-150239923D01*
X116542394Y-150198051D01*
X116522585Y-150158336D01*
X116512495Y-150123609D01*
X116512494Y-150123606D01*
X116512494Y-150123605D01*
X116430117Y-149984313D01*
X116430115Y-149984311D01*
X116430112Y-149984307D01*
X116315692Y-149869887D01*
X116315684Y-149869881D01*
X116197521Y-149800000D01*
X116176395Y-149787506D01*
X116176394Y-149787505D01*
X116176393Y-149787505D01*
X116176390Y-149787504D01*
X116020997Y-149742357D01*
X116020991Y-149742356D01*
X115984697Y-149739500D01*
X115984690Y-149739500D01*
X115515310Y-149739500D01*
X115515302Y-149739500D01*
X115479008Y-149742356D01*
X115479002Y-149742357D01*
X115323609Y-149787504D01*
X115323606Y-149787505D01*
X115184315Y-149869881D01*
X115184307Y-149869887D01*
X115171014Y-149883181D01*
X115109691Y-149916666D01*
X115083333Y-149919500D01*
X114724499Y-149919500D01*
X114657460Y-149899815D01*
X114611705Y-149847011D01*
X114602723Y-149818881D01*
X114600499Y-149807297D01*
X114600499Y-149792128D01*
X114594091Y-149732517D01*
X114577706Y-149688589D01*
X114575747Y-149678381D01*
X114578137Y-149653535D01*
X114576357Y-149628642D01*
X114581340Y-149611669D01*
X114594091Y-149577483D01*
X114600500Y-149517873D01*
X114600499Y-148522128D01*
X114594091Y-148462517D01*
X114581340Y-148428332D01*
X114576357Y-148358642D01*
X114581340Y-148341669D01*
X114594091Y-148307483D01*
X114600500Y-148247873D01*
X114600499Y-147252128D01*
X114594091Y-147192517D01*
X114581340Y-147158332D01*
X114576357Y-147088642D01*
X114581340Y-147071669D01*
X114594091Y-147037483D01*
X114600500Y-146977873D01*
X114600499Y-145982128D01*
X114594091Y-145922517D01*
X114581340Y-145888332D01*
X114579455Y-145861975D01*
X114573839Y-145836157D01*
X114576676Y-145823110D01*
X114576357Y-145818642D01*
X114581340Y-145801669D01*
X114594091Y-145767483D01*
X114594091Y-145767478D01*
X114594615Y-145766075D01*
X114636485Y-145710140D01*
X114648791Y-145702023D01*
X114668716Y-145690520D01*
X114780520Y-145578716D01*
X114780520Y-145578714D01*
X114790724Y-145568511D01*
X114790727Y-145568506D01*
X116389234Y-143970000D01*
X121995496Y-143970000D01*
X122550000Y-143970000D01*
X122550000Y-143441210D01*
X122549999Y-143441209D01*
X123050000Y-143441209D01*
X123050000Y-143970000D01*
X123650000Y-143970000D01*
X123650000Y-143441210D01*
X123649999Y-143441209D01*
X123629087Y-143442854D01*
X123629081Y-143442855D01*
X123473809Y-143487966D01*
X123473800Y-143487970D01*
X123413120Y-143523856D01*
X123345396Y-143541039D01*
X123286880Y-143523856D01*
X123226199Y-143487970D01*
X123226190Y-143487966D01*
X123070918Y-143442855D01*
X123070912Y-143442854D01*
X123050000Y-143441209D01*
X122549999Y-143441209D01*
X122529087Y-143442854D01*
X122529081Y-143442855D01*
X122373809Y-143487966D01*
X122373804Y-143487968D01*
X122234625Y-143570278D01*
X122234616Y-143570285D01*
X122120285Y-143684616D01*
X122120278Y-143684625D01*
X122037968Y-143823804D01*
X121995496Y-143970000D01*
X116389234Y-143970000D01*
X117472416Y-142886819D01*
X117533739Y-142853334D01*
X117560097Y-142850500D01*
X124075902Y-142850500D01*
X124097147Y-142856738D01*
G37*
%TD.AperFunction*%
%TA.AperFunction,Conductor*%
G36*
X138319269Y-140396519D02*
G01*
X138333532Y-140408767D01*
X141689425Y-143764660D01*
X141722910Y-143825983D01*
X141723361Y-143828149D01*
X141754261Y-143983491D01*
X141754264Y-143983501D01*
X141814602Y-144129172D01*
X141814609Y-144129185D01*
X141902210Y-144260288D01*
X141902213Y-144260292D01*
X142013707Y-144371786D01*
X142013711Y-144371789D01*
X142144814Y-144459390D01*
X142144827Y-144459397D01*
X142290498Y-144519735D01*
X142290503Y-144519737D01*
X142394885Y-144540500D01*
X142423691Y-144546230D01*
X142485602Y-144578615D01*
X142520176Y-144639330D01*
X142523500Y-144667847D01*
X142523500Y-149843122D01*
X142503815Y-149910161D01*
X142451011Y-149955916D01*
X142381853Y-149965860D01*
X142330609Y-149946224D01*
X142221485Y-149873309D01*
X142221472Y-149873302D01*
X142075801Y-149812964D01*
X142075789Y-149812961D01*
X141921145Y-149782200D01*
X141921142Y-149782200D01*
X141884500Y-149782200D01*
X141817461Y-149762515D01*
X141771706Y-149709711D01*
X141760500Y-149658200D01*
X141760500Y-149265317D01*
X141760499Y-149265302D01*
X141759678Y-149254873D01*
X141757643Y-149229007D01*
X141754596Y-149218520D01*
X141712495Y-149073609D01*
X141712494Y-149073606D01*
X141712494Y-149073605D01*
X141630117Y-148934313D01*
X141515687Y-148819883D01*
X141515681Y-148819879D01*
X141509521Y-148815101D01*
X141510221Y-148814198D01*
X141491667Y-148798960D01*
X141483092Y-148789382D01*
X141460520Y-148750284D01*
X141348716Y-148638480D01*
X141348713Y-148638478D01*
X140027866Y-147317631D01*
X139994381Y-147256308D01*
X139999365Y-147186616D01*
X140027862Y-147142273D01*
X140090420Y-147079716D01*
X140169477Y-146942784D01*
X140205379Y-146808797D01*
X140210400Y-146790058D01*
X140210400Y-146631943D01*
X140210400Y-146171460D01*
X140210401Y-146171447D01*
X140210401Y-146003344D01*
X140208353Y-145995700D01*
X140169477Y-145850616D01*
X140156147Y-145827527D01*
X140090424Y-145713690D01*
X140090418Y-145713682D01*
X137589690Y-143212955D01*
X137589688Y-143212952D01*
X137470817Y-143094081D01*
X137470816Y-143094080D01*
X137384004Y-143043960D01*
X137384004Y-143043959D01*
X137384000Y-143043958D01*
X137333885Y-143015023D01*
X137181157Y-142974099D01*
X137023043Y-142974099D01*
X137015447Y-142974099D01*
X137015431Y-142974100D01*
X133930566Y-142974100D01*
X133863527Y-142954415D01*
X133861675Y-142953202D01*
X133729985Y-142865209D01*
X133729972Y-142865202D01*
X133584301Y-142804864D01*
X133584289Y-142804861D01*
X133429645Y-142774100D01*
X133429642Y-142774100D01*
X133271958Y-142774100D01*
X133271955Y-142774100D01*
X133117310Y-142804861D01*
X133117298Y-142804864D01*
X132971627Y-142865202D01*
X132971614Y-142865209D01*
X132840511Y-142952810D01*
X132840507Y-142952813D01*
X132729013Y-143064307D01*
X132729010Y-143064311D01*
X132641409Y-143195414D01*
X132641402Y-143195427D01*
X132581064Y-143341098D01*
X132581061Y-143341110D01*
X132550300Y-143495753D01*
X132550300Y-143653446D01*
X132581061Y-143808089D01*
X132581064Y-143808101D01*
X132641402Y-143953772D01*
X132641409Y-143953785D01*
X132729010Y-144084888D01*
X132729013Y-144084892D01*
X132840507Y-144196386D01*
X132840511Y-144196389D01*
X132971614Y-144283990D01*
X132971627Y-144283997D01*
X133101586Y-144337827D01*
X133117303Y-144344337D01*
X133255298Y-144371786D01*
X133271953Y-144375099D01*
X133271956Y-144375100D01*
X133271958Y-144375100D01*
X133429644Y-144375100D01*
X133429645Y-144375099D01*
X133584297Y-144344337D01*
X133729979Y-144283994D01*
X133765456Y-144260289D01*
X133861675Y-144195998D01*
X133928353Y-144175120D01*
X133930566Y-144175100D01*
X135555542Y-144175100D01*
X135622581Y-144194785D01*
X135668336Y-144247589D01*
X135678280Y-144316747D01*
X135649255Y-144380303D01*
X135590477Y-144418077D01*
X135590137Y-144418176D01*
X135523609Y-144437504D01*
X135523606Y-144437505D01*
X135384315Y-144519881D01*
X135384307Y-144519887D01*
X135341016Y-144563180D01*
X135288775Y-144594327D01*
X135271430Y-144599500D01*
X135258942Y-144599500D01*
X135106215Y-144640423D01*
X135088895Y-144650423D01*
X135076289Y-144657700D01*
X135076285Y-144657702D01*
X134969290Y-144719475D01*
X134969282Y-144719481D01*
X134905160Y-144783604D01*
X134857480Y-144831284D01*
X134857478Y-144831286D01*
X134679080Y-145009685D01*
X134525584Y-145163181D01*
X134464261Y-145196666D01*
X134437903Y-145199500D01*
X133970818Y-145199500D01*
X133872316Y-145209563D01*
X133872315Y-145209564D01*
X133805459Y-145231718D01*
X133712715Y-145262450D01*
X133712704Y-145262455D01*
X133569612Y-145350716D01*
X133569608Y-145350719D01*
X133450719Y-145469608D01*
X133450716Y-145469612D01*
X133362455Y-145612704D01*
X133362450Y-145612715D01*
X133337987Y-145686540D01*
X133309564Y-145772315D01*
X133309564Y-145772316D01*
X133309563Y-145772316D01*
X133299500Y-145870818D01*
X133299500Y-146105787D01*
X133279815Y-146172826D01*
X133227011Y-146218581D01*
X133157853Y-146228525D01*
X133094297Y-146199500D01*
X133085335Y-146190038D01*
X133085236Y-146190138D01*
X132965383Y-146070285D01*
X132965374Y-146070278D01*
X132826195Y-145987968D01*
X132826190Y-145987966D01*
X132670918Y-145942855D01*
X132670912Y-145942854D01*
X132650000Y-145941209D01*
X132650000Y-146596000D01*
X132647449Y-146604685D01*
X132648738Y-146613647D01*
X132637759Y-146637687D01*
X132630315Y-146663039D01*
X132623474Y-146668966D01*
X132619713Y-146677203D01*
X132597478Y-146691492D01*
X132577511Y-146708794D01*
X132566996Y-146711081D01*
X132560935Y-146714977D01*
X132526000Y-146720000D01*
X132449500Y-146720000D01*
X132382461Y-146700315D01*
X132336706Y-146647511D01*
X132325500Y-146596000D01*
X132325500Y-144450741D01*
X132325501Y-144450720D01*
X132325501Y-144321391D01*
X132301463Y-144200548D01*
X132301279Y-144200105D01*
X132301238Y-144200006D01*
X132267567Y-144118716D01*
X132254312Y-144086715D01*
X132250122Y-144080445D01*
X132185858Y-143984267D01*
X132185855Y-143984263D01*
X131537937Y-143336347D01*
X131527859Y-143326269D01*
X131527858Y-143326267D01*
X131440733Y-143239142D01*
X131385769Y-143202416D01*
X131338286Y-143170688D01*
X131338283Y-143170686D01*
X131338282Y-143170686D01*
X131338281Y-143170685D01*
X131253590Y-143135606D01*
X131253586Y-143135605D01*
X131245979Y-143132454D01*
X131224452Y-143123537D01*
X131164029Y-143111518D01*
X131160153Y-143110747D01*
X131103610Y-143099500D01*
X131103607Y-143099500D01*
X131103606Y-143099500D01*
X130902485Y-143099500D01*
X130881534Y-143097717D01*
X130870057Y-143095749D01*
X130857082Y-143090910D01*
X130816160Y-143086510D01*
X130812326Y-143085853D01*
X130784298Y-143072128D01*
X130761377Y-143062633D01*
X130760672Y-143063689D01*
X130644979Y-142986386D01*
X130644972Y-142986382D01*
X130644969Y-142986380D01*
X130644965Y-142986378D01*
X130644961Y-142986376D01*
X130522040Y-142935461D01*
X130522030Y-142935458D01*
X130391533Y-142909500D01*
X130391531Y-142909500D01*
X130364540Y-142909500D01*
X130297501Y-142889815D01*
X130251746Y-142837011D01*
X130240540Y-142785500D01*
X130240540Y-142527130D01*
X130240539Y-142527124D01*
X130239690Y-142519228D01*
X130234132Y-142467518D01*
X130233722Y-142466420D01*
X130183838Y-142332672D01*
X130183834Y-142332665D01*
X130097588Y-142217456D01*
X130097585Y-142217453D01*
X129982376Y-142131207D01*
X129982369Y-142131203D01*
X129847523Y-142080909D01*
X129847524Y-142080909D01*
X129787924Y-142074502D01*
X129787922Y-142074501D01*
X129787914Y-142074501D01*
X129787906Y-142074501D01*
X129754427Y-142074501D01*
X129687388Y-142054816D01*
X129647039Y-142012500D01*
X129643745Y-142006795D01*
X129580520Y-141897284D01*
X129468716Y-141785480D01*
X129468715Y-141785479D01*
X129464385Y-141781149D01*
X129464374Y-141781139D01*
X128459416Y-140776181D01*
X128425931Y-140714858D01*
X128430915Y-140645166D01*
X128472787Y-140589233D01*
X128538251Y-140564816D01*
X128547097Y-140564500D01*
X136749060Y-140564500D01*
X136816099Y-140584185D01*
X136836736Y-140600814D01*
X136881088Y-140645166D01*
X136916712Y-140680790D01*
X137047814Y-140768390D01*
X137047827Y-140768397D01*
X137144238Y-140808331D01*
X137193503Y-140828737D01*
X137348153Y-140859499D01*
X137348156Y-140859500D01*
X137348158Y-140859500D01*
X137505844Y-140859500D01*
X137505845Y-140859499D01*
X137660497Y-140828737D01*
X137806179Y-140768394D01*
X137937289Y-140680789D01*
X138048789Y-140569289D01*
X138136394Y-140438179D01*
X138136396Y-140438172D01*
X138136490Y-140437999D01*
X138136567Y-140437919D01*
X138139779Y-140433114D01*
X138140690Y-140433722D01*
X138185451Y-140388153D01*
X138253588Y-140372690D01*
X138319269Y-140396519D01*
G37*
%TD.AperFunction*%
%TA.AperFunction,Conductor*%
G36*
X126669331Y-143945185D02*
G01*
X126689973Y-143961819D01*
X127062200Y-144334046D01*
X127191442Y-144204804D01*
X127252765Y-144171319D01*
X127322457Y-144176303D01*
X127365943Y-144204251D01*
X127348235Y-144221960D01*
X127328900Y-144268638D01*
X127328900Y-144319162D01*
X127348235Y-144365840D01*
X127383960Y-144401565D01*
X127430638Y-144420900D01*
X127481162Y-144420900D01*
X127527840Y-144401565D01*
X127563565Y-144365840D01*
X127582900Y-144319162D01*
X127582900Y-144268638D01*
X127563565Y-144221960D01*
X127545909Y-144204304D01*
X127606319Y-144171319D01*
X127676011Y-144176303D01*
X127720358Y-144204804D01*
X127849600Y-144334046D01*
X127978842Y-144204804D01*
X128040165Y-144171319D01*
X128109857Y-144176303D01*
X128153343Y-144204251D01*
X128135635Y-144221960D01*
X128116300Y-144268638D01*
X128116300Y-144319162D01*
X128135635Y-144365840D01*
X128171360Y-144401565D01*
X128218038Y-144420900D01*
X128268562Y-144420900D01*
X128315240Y-144401565D01*
X128350965Y-144365840D01*
X128370300Y-144319162D01*
X128370300Y-144268638D01*
X128350965Y-144221960D01*
X128333309Y-144204304D01*
X128393719Y-144171319D01*
X128463411Y-144176303D01*
X128507758Y-144204804D01*
X128637000Y-144334046D01*
X128766242Y-144204804D01*
X128827565Y-144171319D01*
X128897257Y-144176303D01*
X128940743Y-144204251D01*
X128923035Y-144221960D01*
X128903700Y-144268638D01*
X128903700Y-144319162D01*
X128923035Y-144365840D01*
X128958760Y-144401565D01*
X129005438Y-144420900D01*
X129055962Y-144420900D01*
X129102640Y-144401565D01*
X129120294Y-144383910D01*
X129153280Y-144444318D01*
X129148296Y-144514010D01*
X129119795Y-144558357D01*
X128990553Y-144687599D01*
X129119795Y-144816841D01*
X129153280Y-144878165D01*
X129148296Y-144947856D01*
X129120348Y-144991343D01*
X129102640Y-144973635D01*
X129055962Y-144954300D01*
X129005438Y-144954300D01*
X128958760Y-144973635D01*
X128923035Y-145009360D01*
X128903700Y-145056038D01*
X128903700Y-145106562D01*
X128923035Y-145153240D01*
X128958760Y-145188965D01*
X129005438Y-145208300D01*
X129055962Y-145208300D01*
X129102640Y-145188965D01*
X129120294Y-145171310D01*
X129153280Y-145231718D01*
X129148296Y-145301410D01*
X129119795Y-145345757D01*
X128990553Y-145474999D01*
X129119795Y-145604241D01*
X129153280Y-145665565D01*
X129148296Y-145735256D01*
X129120348Y-145778743D01*
X129102640Y-145761035D01*
X129055962Y-145741700D01*
X129005438Y-145741700D01*
X128958760Y-145761035D01*
X128923035Y-145796760D01*
X128903700Y-145843438D01*
X128903700Y-145893962D01*
X128923035Y-145940640D01*
X128958760Y-145976365D01*
X129005438Y-145995700D01*
X129055962Y-145995700D01*
X129102640Y-145976365D01*
X129120294Y-145958710D01*
X129153280Y-146019118D01*
X129148296Y-146088810D01*
X129119795Y-146133157D01*
X128990553Y-146262399D01*
X129207477Y-146479322D01*
X129207477Y-146479323D01*
X129362780Y-146634626D01*
X129396265Y-146695949D01*
X129399099Y-146722306D01*
X129399099Y-146912869D01*
X129399100Y-146912874D01*
X129401209Y-146932494D01*
X129402315Y-146942784D01*
X129404354Y-146961745D01*
X129404859Y-146982120D01*
X129404681Y-146985200D01*
X129399099Y-147037126D01*
X129399099Y-147082246D01*
X129398894Y-147085812D01*
X129388292Y-147115492D01*
X129379414Y-147145730D01*
X129376631Y-147148141D01*
X129375392Y-147151611D01*
X129350415Y-147170857D01*
X129326610Y-147191485D01*
X129322966Y-147192008D01*
X129320048Y-147194258D01*
X129288638Y-147196944D01*
X129257452Y-147201429D01*
X129254101Y-147199899D01*
X129250432Y-147200213D01*
X129222561Y-147185494D01*
X129193896Y-147172404D01*
X129188818Y-147167675D01*
X129188648Y-147167586D01*
X129188566Y-147167441D01*
X129187418Y-147166372D01*
X128853923Y-146832877D01*
X128853922Y-146832877D01*
X128651885Y-146630838D01*
X128903700Y-146630838D01*
X128903700Y-146681362D01*
X128923035Y-146728040D01*
X128958760Y-146763765D01*
X129005438Y-146783100D01*
X129055962Y-146783100D01*
X129102640Y-146763765D01*
X129138365Y-146728040D01*
X129157700Y-146681362D01*
X129157700Y-146630838D01*
X129138365Y-146584160D01*
X129102640Y-146548435D01*
X129055962Y-146529100D01*
X129005438Y-146529100D01*
X128958760Y-146548435D01*
X128923035Y-146584160D01*
X128903700Y-146630838D01*
X128651885Y-146630838D01*
X128637000Y-146615953D01*
X128636999Y-146615953D01*
X128507757Y-146745195D01*
X128446434Y-146778680D01*
X128376742Y-146773696D01*
X128333256Y-146745748D01*
X128350965Y-146728040D01*
X128370300Y-146681362D01*
X128370300Y-146630838D01*
X128350965Y-146584160D01*
X128315240Y-146548435D01*
X128268562Y-146529100D01*
X128218038Y-146529100D01*
X128171360Y-146548435D01*
X128135635Y-146584160D01*
X128116300Y-146630838D01*
X128116300Y-146681362D01*
X128135635Y-146728040D01*
X128153290Y-146745695D01*
X128092881Y-146778680D01*
X128023189Y-146773696D01*
X127978841Y-146745195D01*
X127849600Y-146615953D01*
X127849599Y-146615953D01*
X127720357Y-146745195D01*
X127659034Y-146778680D01*
X127589342Y-146773696D01*
X127545856Y-146745748D01*
X127563565Y-146728040D01*
X127582900Y-146681362D01*
X127582900Y-146630838D01*
X127563565Y-146584160D01*
X127527840Y-146548435D01*
X127481162Y-146529100D01*
X127430638Y-146529100D01*
X127383960Y-146548435D01*
X127348235Y-146584160D01*
X127328900Y-146630838D01*
X127328900Y-146681362D01*
X127348235Y-146728040D01*
X127365890Y-146745695D01*
X127305481Y-146778680D01*
X127235789Y-146773696D01*
X127191441Y-146745195D01*
X127062200Y-146615953D01*
X127062199Y-146615953D01*
X126932957Y-146745195D01*
X126871634Y-146778680D01*
X126801942Y-146773696D01*
X126758456Y-146745748D01*
X126776165Y-146728040D01*
X126795500Y-146681362D01*
X126795500Y-146630838D01*
X126776165Y-146584160D01*
X126740440Y-146548435D01*
X126693762Y-146529100D01*
X126643238Y-146529100D01*
X126596560Y-146548435D01*
X126578904Y-146566090D01*
X126545919Y-146505681D01*
X126550903Y-146435989D01*
X126579404Y-146391642D01*
X126708646Y-146262400D01*
X126708645Y-146262399D01*
X127415753Y-146262399D01*
X127455900Y-146302546D01*
X127496046Y-146262401D01*
X127496046Y-146262400D01*
X127496045Y-146262399D01*
X128203153Y-146262399D01*
X128243300Y-146302546D01*
X128283446Y-146262401D01*
X128283446Y-146262400D01*
X128243300Y-146222253D01*
X128203153Y-146262399D01*
X127496045Y-146262399D01*
X127455900Y-146222253D01*
X127415753Y-146262399D01*
X126708645Y-146262399D01*
X126579404Y-146133158D01*
X126545919Y-146071835D01*
X126550903Y-146002143D01*
X126578851Y-145958656D01*
X126596560Y-145976365D01*
X126643238Y-145995700D01*
X126693762Y-145995700D01*
X126740440Y-145976365D01*
X126776165Y-145940640D01*
X126795500Y-145893962D01*
X126795500Y-145868699D01*
X127022053Y-145868699D01*
X127062200Y-145908846D01*
X127102346Y-145868701D01*
X127102346Y-145868700D01*
X127077085Y-145843438D01*
X127328900Y-145843438D01*
X127328900Y-145893962D01*
X127348235Y-145940640D01*
X127383960Y-145976365D01*
X127430638Y-145995700D01*
X127481162Y-145995700D01*
X127527840Y-145976365D01*
X127563565Y-145940640D01*
X127582900Y-145893962D01*
X127582900Y-145868699D01*
X127809453Y-145868699D01*
X127849600Y-145908846D01*
X127889746Y-145868701D01*
X127889746Y-145868700D01*
X127864485Y-145843438D01*
X128116300Y-145843438D01*
X128116300Y-145893962D01*
X128135635Y-145940640D01*
X128171360Y-145976365D01*
X128218038Y-145995700D01*
X128268562Y-145995700D01*
X128315240Y-145976365D01*
X128350965Y-145940640D01*
X128370300Y-145893962D01*
X128370300Y-145868699D01*
X128596853Y-145868699D01*
X128637000Y-145908846D01*
X128677146Y-145868701D01*
X128677146Y-145868700D01*
X128637000Y-145828553D01*
X128596853Y-145868699D01*
X128370300Y-145868699D01*
X128370300Y-145843438D01*
X128350965Y-145796760D01*
X128315240Y-145761035D01*
X128268562Y-145741700D01*
X128218038Y-145741700D01*
X128171360Y-145761035D01*
X128135635Y-145796760D01*
X128116300Y-145843438D01*
X127864485Y-145843438D01*
X127849600Y-145828553D01*
X127809453Y-145868699D01*
X127582900Y-145868699D01*
X127582900Y-145843438D01*
X127563565Y-145796760D01*
X127527840Y-145761035D01*
X127481162Y-145741700D01*
X127430638Y-145741700D01*
X127383960Y-145761035D01*
X127348235Y-145796760D01*
X127328900Y-145843438D01*
X127077085Y-145843438D01*
X127062200Y-145828553D01*
X127022053Y-145868699D01*
X126795500Y-145868699D01*
X126795500Y-145843438D01*
X126776165Y-145796760D01*
X126740440Y-145761035D01*
X126693762Y-145741700D01*
X126643238Y-145741700D01*
X126596560Y-145761035D01*
X126578904Y-145778690D01*
X126545919Y-145718281D01*
X126550903Y-145648589D01*
X126579404Y-145604242D01*
X126708646Y-145475000D01*
X126708645Y-145474999D01*
X127415753Y-145474999D01*
X127455900Y-145515146D01*
X127496046Y-145475001D01*
X127496046Y-145475000D01*
X127496045Y-145474999D01*
X128203153Y-145474999D01*
X128243300Y-145515146D01*
X128283446Y-145475001D01*
X128283446Y-145475000D01*
X128243300Y-145434853D01*
X128203153Y-145474999D01*
X127496045Y-145474999D01*
X127455900Y-145434853D01*
X127415753Y-145474999D01*
X126708645Y-145474999D01*
X126579404Y-145345758D01*
X126545919Y-145284435D01*
X126550903Y-145214743D01*
X126578851Y-145171256D01*
X126596560Y-145188965D01*
X126643238Y-145208300D01*
X126693762Y-145208300D01*
X126740440Y-145188965D01*
X126776165Y-145153240D01*
X126795500Y-145106562D01*
X126795500Y-145081299D01*
X127022053Y-145081299D01*
X127062200Y-145121446D01*
X127102346Y-145081301D01*
X127102346Y-145081300D01*
X127077085Y-145056038D01*
X127328900Y-145056038D01*
X127328900Y-145106562D01*
X127348235Y-145153240D01*
X127383960Y-145188965D01*
X127430638Y-145208300D01*
X127481162Y-145208300D01*
X127527840Y-145188965D01*
X127563565Y-145153240D01*
X127582900Y-145106562D01*
X127582900Y-145081299D01*
X127809453Y-145081299D01*
X127849600Y-145121446D01*
X127889746Y-145081301D01*
X127889746Y-145081300D01*
X127864485Y-145056038D01*
X128116300Y-145056038D01*
X128116300Y-145106562D01*
X128135635Y-145153240D01*
X128171360Y-145188965D01*
X128218038Y-145208300D01*
X128268562Y-145208300D01*
X128315240Y-145188965D01*
X128350965Y-145153240D01*
X128370300Y-145106562D01*
X128370300Y-145081299D01*
X128596853Y-145081299D01*
X128637000Y-145121446D01*
X128677146Y-145081301D01*
X128677146Y-145081300D01*
X128637000Y-145041153D01*
X128596853Y-145081299D01*
X128370300Y-145081299D01*
X128370300Y-145056038D01*
X128350965Y-145009360D01*
X128315240Y-144973635D01*
X128268562Y-144954300D01*
X128218038Y-144954300D01*
X128171360Y-144973635D01*
X128135635Y-145009360D01*
X128116300Y-145056038D01*
X127864485Y-145056038D01*
X127849600Y-145041153D01*
X127809453Y-145081299D01*
X127582900Y-145081299D01*
X127582900Y-145056038D01*
X127563565Y-145009360D01*
X127527840Y-144973635D01*
X127481162Y-144954300D01*
X127430638Y-144954300D01*
X127383960Y-144973635D01*
X127348235Y-145009360D01*
X127328900Y-145056038D01*
X127077085Y-145056038D01*
X127062200Y-145041153D01*
X127022053Y-145081299D01*
X126795500Y-145081299D01*
X126795500Y-145056038D01*
X126776165Y-145009360D01*
X126740440Y-144973635D01*
X126693762Y-144954300D01*
X126643238Y-144954300D01*
X126596560Y-144973635D01*
X126578904Y-144991290D01*
X126545919Y-144930881D01*
X126550903Y-144861189D01*
X126579404Y-144816842D01*
X126708646Y-144687600D01*
X126708645Y-144687599D01*
X127415753Y-144687599D01*
X127455900Y-144727746D01*
X127496046Y-144687601D01*
X127496046Y-144687600D01*
X127496045Y-144687599D01*
X128203153Y-144687599D01*
X128243300Y-144727746D01*
X128283446Y-144687601D01*
X128283446Y-144687600D01*
X128243300Y-144647453D01*
X128203153Y-144687599D01*
X127496045Y-144687599D01*
X127455900Y-144647453D01*
X127415753Y-144687599D01*
X126708645Y-144687599D01*
X126336419Y-144315373D01*
X126321715Y-144288445D01*
X126308986Y-144268638D01*
X126541500Y-144268638D01*
X126541500Y-144319162D01*
X126560835Y-144365840D01*
X126596560Y-144401565D01*
X126643238Y-144420900D01*
X126693762Y-144420900D01*
X126740440Y-144401565D01*
X126776165Y-144365840D01*
X126795500Y-144319162D01*
X126795500Y-144268638D01*
X126776165Y-144221960D01*
X126740440Y-144186235D01*
X126693762Y-144166900D01*
X126643238Y-144166900D01*
X126596560Y-144186235D01*
X126560835Y-144221960D01*
X126541500Y-144268638D01*
X126308986Y-144268638D01*
X126305123Y-144262627D01*
X126304231Y-144256426D01*
X126302934Y-144254050D01*
X126300100Y-144227696D01*
X126300100Y-144049499D01*
X126319785Y-143982461D01*
X126372589Y-143936706D01*
X126424095Y-143925500D01*
X126602293Y-143925500D01*
X126669331Y-143945185D01*
G37*
%TD.AperFunction*%
%TA.AperFunction,Conductor*%
G36*
X137643942Y-144969685D02*
G01*
X137664582Y-144986317D01*
X138007065Y-145328801D01*
X138340458Y-145662194D01*
X138354332Y-145687603D01*
X138370690Y-145711500D01*
X138370875Y-145717899D01*
X138373943Y-145723517D01*
X138371877Y-145752397D01*
X138372718Y-145781340D01*
X138369415Y-145786822D01*
X138368959Y-145793209D01*
X138351607Y-145816387D01*
X138336667Y-145841191D01*
X138329226Y-145846283D01*
X138327087Y-145849142D01*
X138316046Y-145855304D01*
X138307542Y-145861126D01*
X138254471Y-145887251D01*
X138199706Y-145900000D01*
X138150000Y-145900000D01*
X138125548Y-145924452D01*
X138064224Y-145957936D01*
X138013677Y-145958388D01*
X137968993Y-145949500D01*
X137831007Y-145949500D01*
X137786322Y-145958388D01*
X137716731Y-145952159D01*
X137695129Y-145941109D01*
X137600496Y-145880339D01*
X137600480Y-145880320D01*
X137600460Y-145880315D01*
X137578655Y-145855151D01*
X137554723Y-145827551D01*
X137554719Y-145827527D01*
X137554705Y-145827511D01*
X137549725Y-145792880D01*
X137544755Y-145758396D01*
X137544764Y-145758375D01*
X137544761Y-145758353D01*
X137560767Y-145712879D01*
X137612031Y-145626195D01*
X137612033Y-145626190D01*
X137657144Y-145470918D01*
X137657145Y-145470912D01*
X137658790Y-145450000D01*
X137130000Y-145450000D01*
X137130000Y-146016000D01*
X137119395Y-146066175D01*
X137044395Y-146235675D01*
X137038072Y-146243148D01*
X137035315Y-146252539D01*
X137015882Y-146269377D01*
X136999268Y-146289016D01*
X136989907Y-146291885D01*
X136982511Y-146298294D01*
X136935946Y-146308423D01*
X136932465Y-146309491D01*
X136931843Y-146309316D01*
X136931000Y-146309500D01*
X136899000Y-146309500D01*
X136831961Y-146289815D01*
X136786206Y-146237011D01*
X136775000Y-146185500D01*
X136775000Y-146140000D01*
X136754000Y-146140000D01*
X136686961Y-146120315D01*
X136641206Y-146067511D01*
X136630000Y-146016000D01*
X136630000Y-145698352D01*
X136647267Y-145635233D01*
X136652494Y-145626395D01*
X136656469Y-145612715D01*
X136697642Y-145470997D01*
X136697643Y-145470991D01*
X136697917Y-145467506D01*
X136700500Y-145434690D01*
X136700500Y-145324000D01*
X136720185Y-145256961D01*
X136772989Y-145211206D01*
X136824500Y-145200000D01*
X136880000Y-145200000D01*
X136880000Y-145074000D01*
X136899685Y-145006961D01*
X136952489Y-144961206D01*
X137004000Y-144950000D01*
X137576903Y-144950000D01*
X137643942Y-144969685D01*
G37*
%TD.AperFunction*%
%TA.AperFunction,Conductor*%
G36*
X46267833Y-136634884D02*
G01*
X46292517Y-136644091D01*
X46352127Y-136650500D01*
X46362685Y-136650499D01*
X46429723Y-136670179D01*
X46450372Y-136686818D01*
X47120591Y-137357037D01*
X47057007Y-137374075D01*
X46942993Y-137439901D01*
X46849901Y-137532993D01*
X46784075Y-137647007D01*
X46767037Y-137710591D01*
X46136819Y-137080373D01*
X46122115Y-137053445D01*
X46105523Y-137027627D01*
X46104631Y-137021426D01*
X46103334Y-137019050D01*
X46100500Y-136992692D01*
X46100500Y-136751066D01*
X46120185Y-136684027D01*
X46172989Y-136638272D01*
X46242147Y-136628328D01*
X46267833Y-136634884D01*
G37*
%TD.AperFunction*%
%TA.AperFunction,Conductor*%
G36*
X54176842Y-132951685D02*
G01*
X54222597Y-133004489D01*
X54232541Y-133073647D01*
X54203516Y-133137203D01*
X54197484Y-133143681D01*
X53239539Y-134101625D01*
X53178216Y-134135110D01*
X53176050Y-134135561D01*
X53020708Y-134166461D01*
X53020698Y-134166464D01*
X52875027Y-134226802D01*
X52875014Y-134226809D01*
X52743911Y-134314410D01*
X52743907Y-134314413D01*
X52632413Y-134425907D01*
X52632410Y-134425911D01*
X52544809Y-134557014D01*
X52544802Y-134557027D01*
X52484464Y-134702698D01*
X52484461Y-134702710D01*
X52453700Y-134857353D01*
X52453700Y-135015046D01*
X52484461Y-135169689D01*
X52484464Y-135169701D01*
X52544802Y-135315372D01*
X52544809Y-135315385D01*
X52632410Y-135446488D01*
X52632413Y-135446492D01*
X52693740Y-135507819D01*
X52727225Y-135569142D01*
X52722241Y-135638834D01*
X52680369Y-135694767D01*
X52614905Y-135719184D01*
X52606059Y-135719500D01*
X50378740Y-135719500D01*
X50337819Y-135730464D01*
X50337819Y-135730465D01*
X50300551Y-135740451D01*
X50226014Y-135760423D01*
X50226009Y-135760426D01*
X50089090Y-135839475D01*
X50089082Y-135839481D01*
X49977278Y-135951286D01*
X48657451Y-137271112D01*
X48596128Y-137304597D01*
X48526436Y-137299613D01*
X48470503Y-137257741D01*
X48459285Y-137239726D01*
X48404624Y-137132449D01*
X48365270Y-137078282D01*
X48365269Y-137078282D01*
X47732962Y-137710589D01*
X47715925Y-137647007D01*
X47650099Y-137532993D01*
X47557007Y-137439901D01*
X47442993Y-137374075D01*
X47379409Y-137357037D01*
X48049627Y-136686818D01*
X48110950Y-136653333D01*
X48137307Y-136650499D01*
X48147872Y-136650499D01*
X48207483Y-136644091D01*
X48342331Y-136593796D01*
X48457546Y-136507546D01*
X48543796Y-136392331D01*
X48594091Y-136257483D01*
X48600500Y-136197873D01*
X48600499Y-135950211D01*
X48620183Y-135883173D01*
X48662497Y-135842826D01*
X48698350Y-135822127D01*
X48770416Y-135780520D01*
X48882220Y-135668716D01*
X48882220Y-135668714D01*
X48892424Y-135658511D01*
X48892427Y-135658506D01*
X50780773Y-133770161D01*
X50842094Y-133736678D01*
X50911786Y-133741662D01*
X50967719Y-133783534D01*
X50971553Y-133788952D01*
X50985808Y-133810286D01*
X50985813Y-133810292D01*
X51097307Y-133921786D01*
X51097311Y-133921789D01*
X51228414Y-134009390D01*
X51228427Y-134009397D01*
X51374098Y-134069735D01*
X51374103Y-134069737D01*
X51523731Y-134099500D01*
X51528753Y-134100499D01*
X51528756Y-134100500D01*
X51528758Y-134100500D01*
X51686444Y-134100500D01*
X51686445Y-134100499D01*
X51841097Y-134069737D01*
X51962429Y-134019480D01*
X51986772Y-134009397D01*
X51986772Y-134009396D01*
X51986779Y-134009394D01*
X52117889Y-133921789D01*
X52229389Y-133810289D01*
X52316994Y-133679179D01*
X52377337Y-133533497D01*
X52402805Y-133405461D01*
X52408238Y-133378150D01*
X52440623Y-133316239D01*
X52442118Y-133314716D01*
X52788516Y-132968319D01*
X52849839Y-132934834D01*
X52876197Y-132932000D01*
X54109803Y-132932000D01*
X54176842Y-132951685D01*
G37*
%TD.AperFunction*%
%TD*%
M02*
